G04 #@! TF.GenerationSoftware,KiCad,Pcbnew,(5.0.1-3-g963ef8bb5)*
G04 #@! TF.CreationDate,2019-11-01T03:37:21+09:00*
G04 #@! TF.ProjectId,DDAC8SEXT,4444414338534558542E6B696361645F,rev?*
G04 #@! TF.SameCoordinates,Original*
G04 #@! TF.FileFunction,Soldermask,Top*
G04 #@! TF.FilePolarity,Negative*
%FSLAX46Y46*%
G04 Gerber Fmt 4.6, Leading zero omitted, Abs format (unit mm)*
G04 Created by KiCad (PCBNEW (5.0.1-3-g963ef8bb5)) date 2019 November 01, Friday 03:37:21*
%MOMM*%
%LPD*%
G01*
G04 APERTURE LIST*
%ADD10C,0.100000*%
G04 APERTURE END LIST*
D10*
G36*
X137270443Y-116580519D02*
X137336627Y-116587037D01*
X137449853Y-116621384D01*
X137506467Y-116638557D01*
X137593311Y-116684977D01*
X137662991Y-116722222D01*
X137698729Y-116751552D01*
X137800186Y-116834814D01*
X137883448Y-116936271D01*
X137912778Y-116972009D01*
X137912779Y-116972011D01*
X137996443Y-117128533D01*
X138013616Y-117185147D01*
X138047963Y-117298373D01*
X138065359Y-117475000D01*
X138047963Y-117651627D01*
X138013616Y-117764853D01*
X137996443Y-117821467D01*
X137927698Y-117950078D01*
X137912778Y-117977991D01*
X137883448Y-118013729D01*
X137800186Y-118115186D01*
X137698729Y-118198448D01*
X137662991Y-118227778D01*
X137662989Y-118227779D01*
X137506467Y-118311443D01*
X137499069Y-118313687D01*
X137336627Y-118362963D01*
X137270442Y-118369482D01*
X137204260Y-118376000D01*
X137115740Y-118376000D01*
X137049558Y-118369482D01*
X136983373Y-118362963D01*
X136820931Y-118313687D01*
X136813533Y-118311443D01*
X136657011Y-118227779D01*
X136657009Y-118227778D01*
X136621271Y-118198448D01*
X136519814Y-118115186D01*
X136436552Y-118013729D01*
X136407222Y-117977991D01*
X136392302Y-117950078D01*
X136323557Y-117821467D01*
X136306384Y-117764853D01*
X136272037Y-117651627D01*
X136254641Y-117475000D01*
X136272037Y-117298373D01*
X136306384Y-117185147D01*
X136323557Y-117128533D01*
X136407221Y-116972011D01*
X136407222Y-116972009D01*
X136436552Y-116936271D01*
X136519814Y-116834814D01*
X136621271Y-116751552D01*
X136657009Y-116722222D01*
X136726689Y-116684977D01*
X136813533Y-116638557D01*
X136870147Y-116621384D01*
X136983373Y-116587037D01*
X137049557Y-116580519D01*
X137115740Y-116574000D01*
X137204260Y-116574000D01*
X137270443Y-116580519D01*
X137270443Y-116580519D01*
G37*
G36*
X96630443Y-116580519D02*
X96696627Y-116587037D01*
X96809853Y-116621384D01*
X96866467Y-116638557D01*
X96953311Y-116684977D01*
X97022991Y-116722222D01*
X97058729Y-116751552D01*
X97160186Y-116834814D01*
X97243448Y-116936271D01*
X97272778Y-116972009D01*
X97272779Y-116972011D01*
X97356443Y-117128533D01*
X97373616Y-117185147D01*
X97407963Y-117298373D01*
X97425359Y-117475000D01*
X97407963Y-117651627D01*
X97373616Y-117764853D01*
X97356443Y-117821467D01*
X97287698Y-117950078D01*
X97272778Y-117977991D01*
X97243448Y-118013729D01*
X97160186Y-118115186D01*
X97058729Y-118198448D01*
X97022991Y-118227778D01*
X97022989Y-118227779D01*
X96866467Y-118311443D01*
X96859069Y-118313687D01*
X96696627Y-118362963D01*
X96630442Y-118369482D01*
X96564260Y-118376000D01*
X96475740Y-118376000D01*
X96409558Y-118369482D01*
X96343373Y-118362963D01*
X96180931Y-118313687D01*
X96173533Y-118311443D01*
X96017011Y-118227779D01*
X96017009Y-118227778D01*
X95981271Y-118198448D01*
X95879814Y-118115186D01*
X95796552Y-118013729D01*
X95767222Y-117977991D01*
X95752302Y-117950078D01*
X95683557Y-117821467D01*
X95666384Y-117764853D01*
X95632037Y-117651627D01*
X95614641Y-117475000D01*
X95632037Y-117298373D01*
X95666384Y-117185147D01*
X95683557Y-117128533D01*
X95767221Y-116972011D01*
X95767222Y-116972009D01*
X95796552Y-116936271D01*
X95879814Y-116834814D01*
X95981271Y-116751552D01*
X96017009Y-116722222D01*
X96086689Y-116684977D01*
X96173533Y-116638557D01*
X96230147Y-116621384D01*
X96343373Y-116587037D01*
X96409557Y-116580519D01*
X96475740Y-116574000D01*
X96564260Y-116574000D01*
X96630443Y-116580519D01*
X96630443Y-116580519D01*
G37*
G36*
X115101821Y-116636313D02*
X115101824Y-116636314D01*
X115101825Y-116636314D01*
X115262239Y-116684975D01*
X115262241Y-116684976D01*
X115262244Y-116684977D01*
X115410078Y-116763995D01*
X115539659Y-116870341D01*
X115646005Y-116999922D01*
X115725023Y-117147756D01*
X115725024Y-117147759D01*
X115725025Y-117147761D01*
X115770713Y-117298375D01*
X115773687Y-117308179D01*
X115790117Y-117475000D01*
X115773687Y-117641821D01*
X115773686Y-117641824D01*
X115773686Y-117641825D01*
X115770713Y-117651627D01*
X115725023Y-117802244D01*
X115646005Y-117950078D01*
X115539659Y-118079659D01*
X115410078Y-118186005D01*
X115262244Y-118265023D01*
X115262241Y-118265024D01*
X115262239Y-118265025D01*
X115101825Y-118313686D01*
X115101824Y-118313686D01*
X115101821Y-118313687D01*
X114976804Y-118326000D01*
X114893196Y-118326000D01*
X114768179Y-118313687D01*
X114768176Y-118313686D01*
X114768175Y-118313686D01*
X114607761Y-118265025D01*
X114607759Y-118265024D01*
X114607756Y-118265023D01*
X114459922Y-118186005D01*
X114330341Y-118079659D01*
X114223995Y-117950078D01*
X114144977Y-117802244D01*
X114099288Y-117651627D01*
X114096314Y-117641825D01*
X114096314Y-117641824D01*
X114096313Y-117641821D01*
X114079883Y-117475000D01*
X114096313Y-117308179D01*
X114099287Y-117298375D01*
X114144975Y-117147761D01*
X114144976Y-117147759D01*
X114144977Y-117147756D01*
X114223995Y-116999922D01*
X114330341Y-116870341D01*
X114459922Y-116763995D01*
X114607756Y-116684977D01*
X114607759Y-116684976D01*
X114607761Y-116684975D01*
X114768175Y-116636314D01*
X114768176Y-116636314D01*
X114768179Y-116636313D01*
X114893196Y-116624000D01*
X114976804Y-116624000D01*
X115101821Y-116636313D01*
X115101821Y-116636313D01*
G37*
G36*
X107481821Y-116636313D02*
X107481824Y-116636314D01*
X107481825Y-116636314D01*
X107642239Y-116684975D01*
X107642241Y-116684976D01*
X107642244Y-116684977D01*
X107790078Y-116763995D01*
X107919659Y-116870341D01*
X108026005Y-116999922D01*
X108105023Y-117147756D01*
X108105024Y-117147759D01*
X108105025Y-117147761D01*
X108150713Y-117298375D01*
X108153687Y-117308179D01*
X108170117Y-117475000D01*
X108153687Y-117641821D01*
X108153686Y-117641824D01*
X108153686Y-117641825D01*
X108150713Y-117651627D01*
X108105023Y-117802244D01*
X108026005Y-117950078D01*
X107919659Y-118079659D01*
X107790078Y-118186005D01*
X107642244Y-118265023D01*
X107642241Y-118265024D01*
X107642239Y-118265025D01*
X107481825Y-118313686D01*
X107481824Y-118313686D01*
X107481821Y-118313687D01*
X107356804Y-118326000D01*
X107273196Y-118326000D01*
X107148179Y-118313687D01*
X107148176Y-118313686D01*
X107148175Y-118313686D01*
X106987761Y-118265025D01*
X106987759Y-118265024D01*
X106987756Y-118265023D01*
X106839922Y-118186005D01*
X106710341Y-118079659D01*
X106603995Y-117950078D01*
X106524977Y-117802244D01*
X106479288Y-117651627D01*
X106476314Y-117641825D01*
X106476314Y-117641824D01*
X106476313Y-117641821D01*
X106459883Y-117475000D01*
X106476313Y-117308179D01*
X106479287Y-117298375D01*
X106524975Y-117147761D01*
X106524976Y-117147759D01*
X106524977Y-117147756D01*
X106603995Y-116999922D01*
X106710341Y-116870341D01*
X106839922Y-116763995D01*
X106987756Y-116684977D01*
X106987759Y-116684976D01*
X106987761Y-116684975D01*
X107148175Y-116636314D01*
X107148176Y-116636314D01*
X107148179Y-116636313D01*
X107273196Y-116624000D01*
X107356804Y-116624000D01*
X107481821Y-116636313D01*
X107481821Y-116636313D01*
G37*
G36*
X126531821Y-116636313D02*
X126531824Y-116636314D01*
X126531825Y-116636314D01*
X126692239Y-116684975D01*
X126692241Y-116684976D01*
X126692244Y-116684977D01*
X126840078Y-116763995D01*
X126969659Y-116870341D01*
X127076005Y-116999922D01*
X127155023Y-117147756D01*
X127155024Y-117147759D01*
X127155025Y-117147761D01*
X127200713Y-117298375D01*
X127203687Y-117308179D01*
X127220117Y-117475000D01*
X127203687Y-117641821D01*
X127203686Y-117641824D01*
X127203686Y-117641825D01*
X127200713Y-117651627D01*
X127155023Y-117802244D01*
X127076005Y-117950078D01*
X126969659Y-118079659D01*
X126840078Y-118186005D01*
X126692244Y-118265023D01*
X126692241Y-118265024D01*
X126692239Y-118265025D01*
X126531825Y-118313686D01*
X126531824Y-118313686D01*
X126531821Y-118313687D01*
X126406804Y-118326000D01*
X126323196Y-118326000D01*
X126198179Y-118313687D01*
X126198176Y-118313686D01*
X126198175Y-118313686D01*
X126037761Y-118265025D01*
X126037759Y-118265024D01*
X126037756Y-118265023D01*
X125889922Y-118186005D01*
X125760341Y-118079659D01*
X125653995Y-117950078D01*
X125574977Y-117802244D01*
X125529288Y-117651627D01*
X125526314Y-117641825D01*
X125526314Y-117641824D01*
X125526313Y-117641821D01*
X125509883Y-117475000D01*
X125526313Y-117308179D01*
X125529287Y-117298375D01*
X125574975Y-117147761D01*
X125574976Y-117147759D01*
X125574977Y-117147756D01*
X125653995Y-116999922D01*
X125760341Y-116870341D01*
X125889922Y-116763995D01*
X126037756Y-116684977D01*
X126037759Y-116684976D01*
X126037761Y-116684975D01*
X126198175Y-116636314D01*
X126198176Y-116636314D01*
X126198179Y-116636313D01*
X126323196Y-116624000D01*
X126406804Y-116624000D01*
X126531821Y-116636313D01*
X126531821Y-116636313D01*
G37*
G36*
X118911821Y-116636313D02*
X118911824Y-116636314D01*
X118911825Y-116636314D01*
X119072239Y-116684975D01*
X119072241Y-116684976D01*
X119072244Y-116684977D01*
X119220078Y-116763995D01*
X119349659Y-116870341D01*
X119456005Y-116999922D01*
X119535023Y-117147756D01*
X119535024Y-117147759D01*
X119535025Y-117147761D01*
X119580713Y-117298375D01*
X119583687Y-117308179D01*
X119600117Y-117475000D01*
X119583687Y-117641821D01*
X119583686Y-117641824D01*
X119583686Y-117641825D01*
X119580713Y-117651627D01*
X119535023Y-117802244D01*
X119456005Y-117950078D01*
X119349659Y-118079659D01*
X119220078Y-118186005D01*
X119072244Y-118265023D01*
X119072241Y-118265024D01*
X119072239Y-118265025D01*
X118911825Y-118313686D01*
X118911824Y-118313686D01*
X118911821Y-118313687D01*
X118786804Y-118326000D01*
X118703196Y-118326000D01*
X118578179Y-118313687D01*
X118578176Y-118313686D01*
X118578175Y-118313686D01*
X118417761Y-118265025D01*
X118417759Y-118265024D01*
X118417756Y-118265023D01*
X118269922Y-118186005D01*
X118140341Y-118079659D01*
X118033995Y-117950078D01*
X117954977Y-117802244D01*
X117909288Y-117651627D01*
X117906314Y-117641825D01*
X117906314Y-117641824D01*
X117906313Y-117641821D01*
X117889883Y-117475000D01*
X117906313Y-117308179D01*
X117909287Y-117298375D01*
X117954975Y-117147761D01*
X117954976Y-117147759D01*
X117954977Y-117147756D01*
X118033995Y-116999922D01*
X118140341Y-116870341D01*
X118269922Y-116763995D01*
X118417756Y-116684977D01*
X118417759Y-116684976D01*
X118417761Y-116684975D01*
X118578175Y-116636314D01*
X118578176Y-116636314D01*
X118578179Y-116636313D01*
X118703196Y-116624000D01*
X118786804Y-116624000D01*
X118911821Y-116636313D01*
X118911821Y-116636313D01*
G37*
G36*
X137270442Y-114040518D02*
X137336627Y-114047037D01*
X137449853Y-114081384D01*
X137506467Y-114098557D01*
X137593311Y-114144977D01*
X137662991Y-114182222D01*
X137698729Y-114211552D01*
X137800186Y-114294814D01*
X137883448Y-114396271D01*
X137912778Y-114432009D01*
X137912779Y-114432011D01*
X137996443Y-114588533D01*
X138013616Y-114645147D01*
X138047963Y-114758373D01*
X138065359Y-114935000D01*
X138047963Y-115111627D01*
X138013616Y-115224853D01*
X137996443Y-115281467D01*
X137927698Y-115410078D01*
X137912778Y-115437991D01*
X137883448Y-115473729D01*
X137800186Y-115575186D01*
X137698729Y-115658448D01*
X137662991Y-115687778D01*
X137662989Y-115687779D01*
X137506467Y-115771443D01*
X137499069Y-115773687D01*
X137336627Y-115822963D01*
X137270443Y-115829481D01*
X137204260Y-115836000D01*
X137115740Y-115836000D01*
X137049557Y-115829481D01*
X136983373Y-115822963D01*
X136820931Y-115773687D01*
X136813533Y-115771443D01*
X136657011Y-115687779D01*
X136657009Y-115687778D01*
X136621271Y-115658448D01*
X136519814Y-115575186D01*
X136436552Y-115473729D01*
X136407222Y-115437991D01*
X136392302Y-115410078D01*
X136323557Y-115281467D01*
X136306384Y-115224853D01*
X136272037Y-115111627D01*
X136254641Y-114935000D01*
X136272037Y-114758373D01*
X136306384Y-114645147D01*
X136323557Y-114588533D01*
X136407221Y-114432011D01*
X136407222Y-114432009D01*
X136436552Y-114396271D01*
X136519814Y-114294814D01*
X136621271Y-114211552D01*
X136657009Y-114182222D01*
X136726689Y-114144977D01*
X136813533Y-114098557D01*
X136870147Y-114081384D01*
X136983373Y-114047037D01*
X137049558Y-114040518D01*
X137115740Y-114034000D01*
X137204260Y-114034000D01*
X137270442Y-114040518D01*
X137270442Y-114040518D01*
G37*
G36*
X96630442Y-114040518D02*
X96696627Y-114047037D01*
X96809853Y-114081384D01*
X96866467Y-114098557D01*
X96953311Y-114144977D01*
X97022991Y-114182222D01*
X97058729Y-114211552D01*
X97160186Y-114294814D01*
X97243448Y-114396271D01*
X97272778Y-114432009D01*
X97272779Y-114432011D01*
X97356443Y-114588533D01*
X97373616Y-114645147D01*
X97407963Y-114758373D01*
X97425359Y-114935000D01*
X97407963Y-115111627D01*
X97373616Y-115224853D01*
X97356443Y-115281467D01*
X97287698Y-115410078D01*
X97272778Y-115437991D01*
X97243448Y-115473729D01*
X97160186Y-115575186D01*
X97058729Y-115658448D01*
X97022991Y-115687778D01*
X97022989Y-115687779D01*
X96866467Y-115771443D01*
X96859069Y-115773687D01*
X96696627Y-115822963D01*
X96630443Y-115829481D01*
X96564260Y-115836000D01*
X96475740Y-115836000D01*
X96409557Y-115829481D01*
X96343373Y-115822963D01*
X96180931Y-115773687D01*
X96173533Y-115771443D01*
X96017011Y-115687779D01*
X96017009Y-115687778D01*
X95981271Y-115658448D01*
X95879814Y-115575186D01*
X95796552Y-115473729D01*
X95767222Y-115437991D01*
X95752302Y-115410078D01*
X95683557Y-115281467D01*
X95666384Y-115224853D01*
X95632037Y-115111627D01*
X95614641Y-114935000D01*
X95632037Y-114758373D01*
X95666384Y-114645147D01*
X95683557Y-114588533D01*
X95767221Y-114432011D01*
X95767222Y-114432009D01*
X95796552Y-114396271D01*
X95879814Y-114294814D01*
X95981271Y-114211552D01*
X96017009Y-114182222D01*
X96086689Y-114144977D01*
X96173533Y-114098557D01*
X96230147Y-114081384D01*
X96343373Y-114047037D01*
X96409558Y-114040518D01*
X96475740Y-114034000D01*
X96564260Y-114034000D01*
X96630442Y-114040518D01*
X96630442Y-114040518D01*
G37*
G36*
X126531821Y-114096313D02*
X126531824Y-114096314D01*
X126531825Y-114096314D01*
X126692239Y-114144975D01*
X126692241Y-114144976D01*
X126692244Y-114144977D01*
X126840078Y-114223995D01*
X126969659Y-114330341D01*
X127076005Y-114459922D01*
X127155023Y-114607756D01*
X127155024Y-114607759D01*
X127155025Y-114607761D01*
X127200713Y-114758375D01*
X127203687Y-114768179D01*
X127220117Y-114935000D01*
X127203687Y-115101821D01*
X127203686Y-115101824D01*
X127203686Y-115101825D01*
X127200713Y-115111627D01*
X127155023Y-115262244D01*
X127076005Y-115410078D01*
X126969659Y-115539659D01*
X126840078Y-115646005D01*
X126692244Y-115725023D01*
X126692241Y-115725024D01*
X126692239Y-115725025D01*
X126531825Y-115773686D01*
X126531824Y-115773686D01*
X126531821Y-115773687D01*
X126406804Y-115786000D01*
X126323196Y-115786000D01*
X126198179Y-115773687D01*
X126198176Y-115773686D01*
X126198175Y-115773686D01*
X126037761Y-115725025D01*
X126037759Y-115725024D01*
X126037756Y-115725023D01*
X125889922Y-115646005D01*
X125760341Y-115539659D01*
X125653995Y-115410078D01*
X125574977Y-115262244D01*
X125529288Y-115111627D01*
X125526314Y-115101825D01*
X125526314Y-115101824D01*
X125526313Y-115101821D01*
X125509883Y-114935000D01*
X125526313Y-114768179D01*
X125529287Y-114758375D01*
X125574975Y-114607761D01*
X125574976Y-114607759D01*
X125574977Y-114607756D01*
X125653995Y-114459922D01*
X125760341Y-114330341D01*
X125889922Y-114223995D01*
X126037756Y-114144977D01*
X126037759Y-114144976D01*
X126037761Y-114144975D01*
X126198175Y-114096314D01*
X126198176Y-114096314D01*
X126198179Y-114096313D01*
X126323196Y-114084000D01*
X126406804Y-114084000D01*
X126531821Y-114096313D01*
X126531821Y-114096313D01*
G37*
G36*
X118911821Y-114096313D02*
X118911824Y-114096314D01*
X118911825Y-114096314D01*
X119072239Y-114144975D01*
X119072241Y-114144976D01*
X119072244Y-114144977D01*
X119220078Y-114223995D01*
X119349659Y-114330341D01*
X119456005Y-114459922D01*
X119535023Y-114607756D01*
X119535024Y-114607759D01*
X119535025Y-114607761D01*
X119580713Y-114758375D01*
X119583687Y-114768179D01*
X119600117Y-114935000D01*
X119583687Y-115101821D01*
X119583686Y-115101824D01*
X119583686Y-115101825D01*
X119580713Y-115111627D01*
X119535023Y-115262244D01*
X119456005Y-115410078D01*
X119349659Y-115539659D01*
X119220078Y-115646005D01*
X119072244Y-115725023D01*
X119072241Y-115725024D01*
X119072239Y-115725025D01*
X118911825Y-115773686D01*
X118911824Y-115773686D01*
X118911821Y-115773687D01*
X118786804Y-115786000D01*
X118703196Y-115786000D01*
X118578179Y-115773687D01*
X118578176Y-115773686D01*
X118578175Y-115773686D01*
X118417761Y-115725025D01*
X118417759Y-115725024D01*
X118417756Y-115725023D01*
X118269922Y-115646005D01*
X118140341Y-115539659D01*
X118033995Y-115410078D01*
X117954977Y-115262244D01*
X117909288Y-115111627D01*
X117906314Y-115101825D01*
X117906314Y-115101824D01*
X117906313Y-115101821D01*
X117889883Y-114935000D01*
X117906313Y-114768179D01*
X117909287Y-114758375D01*
X117954975Y-114607761D01*
X117954976Y-114607759D01*
X117954977Y-114607756D01*
X118033995Y-114459922D01*
X118140341Y-114330341D01*
X118269922Y-114223995D01*
X118417756Y-114144977D01*
X118417759Y-114144976D01*
X118417761Y-114144975D01*
X118578175Y-114096314D01*
X118578176Y-114096314D01*
X118578179Y-114096313D01*
X118703196Y-114084000D01*
X118786804Y-114084000D01*
X118911821Y-114096313D01*
X118911821Y-114096313D01*
G37*
G36*
X115101821Y-114096313D02*
X115101824Y-114096314D01*
X115101825Y-114096314D01*
X115262239Y-114144975D01*
X115262241Y-114144976D01*
X115262244Y-114144977D01*
X115410078Y-114223995D01*
X115539659Y-114330341D01*
X115646005Y-114459922D01*
X115725023Y-114607756D01*
X115725024Y-114607759D01*
X115725025Y-114607761D01*
X115770713Y-114758375D01*
X115773687Y-114768179D01*
X115790117Y-114935000D01*
X115773687Y-115101821D01*
X115773686Y-115101824D01*
X115773686Y-115101825D01*
X115770713Y-115111627D01*
X115725023Y-115262244D01*
X115646005Y-115410078D01*
X115539659Y-115539659D01*
X115410078Y-115646005D01*
X115262244Y-115725023D01*
X115262241Y-115725024D01*
X115262239Y-115725025D01*
X115101825Y-115773686D01*
X115101824Y-115773686D01*
X115101821Y-115773687D01*
X114976804Y-115786000D01*
X114893196Y-115786000D01*
X114768179Y-115773687D01*
X114768176Y-115773686D01*
X114768175Y-115773686D01*
X114607761Y-115725025D01*
X114607759Y-115725024D01*
X114607756Y-115725023D01*
X114459922Y-115646005D01*
X114330341Y-115539659D01*
X114223995Y-115410078D01*
X114144977Y-115262244D01*
X114099288Y-115111627D01*
X114096314Y-115101825D01*
X114096314Y-115101824D01*
X114096313Y-115101821D01*
X114079883Y-114935000D01*
X114096313Y-114768179D01*
X114099287Y-114758375D01*
X114144975Y-114607761D01*
X114144976Y-114607759D01*
X114144977Y-114607756D01*
X114223995Y-114459922D01*
X114330341Y-114330341D01*
X114459922Y-114223995D01*
X114607756Y-114144977D01*
X114607759Y-114144976D01*
X114607761Y-114144975D01*
X114768175Y-114096314D01*
X114768176Y-114096314D01*
X114768179Y-114096313D01*
X114893196Y-114084000D01*
X114976804Y-114084000D01*
X115101821Y-114096313D01*
X115101821Y-114096313D01*
G37*
G36*
X107481821Y-114096313D02*
X107481824Y-114096314D01*
X107481825Y-114096314D01*
X107642239Y-114144975D01*
X107642241Y-114144976D01*
X107642244Y-114144977D01*
X107790078Y-114223995D01*
X107919659Y-114330341D01*
X108026005Y-114459922D01*
X108105023Y-114607756D01*
X108105024Y-114607759D01*
X108105025Y-114607761D01*
X108150713Y-114758375D01*
X108153687Y-114768179D01*
X108170117Y-114935000D01*
X108153687Y-115101821D01*
X108153686Y-115101824D01*
X108153686Y-115101825D01*
X108150713Y-115111627D01*
X108105023Y-115262244D01*
X108026005Y-115410078D01*
X107919659Y-115539659D01*
X107790078Y-115646005D01*
X107642244Y-115725023D01*
X107642241Y-115725024D01*
X107642239Y-115725025D01*
X107481825Y-115773686D01*
X107481824Y-115773686D01*
X107481821Y-115773687D01*
X107356804Y-115786000D01*
X107273196Y-115786000D01*
X107148179Y-115773687D01*
X107148176Y-115773686D01*
X107148175Y-115773686D01*
X106987761Y-115725025D01*
X106987759Y-115725024D01*
X106987756Y-115725023D01*
X106839922Y-115646005D01*
X106710341Y-115539659D01*
X106603995Y-115410078D01*
X106524977Y-115262244D01*
X106479288Y-115111627D01*
X106476314Y-115101825D01*
X106476314Y-115101824D01*
X106476313Y-115101821D01*
X106459883Y-114935000D01*
X106476313Y-114768179D01*
X106479287Y-114758375D01*
X106524975Y-114607761D01*
X106524976Y-114607759D01*
X106524977Y-114607756D01*
X106603995Y-114459922D01*
X106710341Y-114330341D01*
X106839922Y-114223995D01*
X106987756Y-114144977D01*
X106987759Y-114144976D01*
X106987761Y-114144975D01*
X107148175Y-114096314D01*
X107148176Y-114096314D01*
X107148179Y-114096313D01*
X107273196Y-114084000D01*
X107356804Y-114084000D01*
X107481821Y-114096313D01*
X107481821Y-114096313D01*
G37*
G36*
X131555442Y-112770518D02*
X131621627Y-112777037D01*
X131734853Y-112811384D01*
X131791467Y-112828557D01*
X131869146Y-112870078D01*
X131947991Y-112912222D01*
X131983729Y-112941552D01*
X132085186Y-113024814D01*
X132168448Y-113126271D01*
X132197778Y-113162009D01*
X132197779Y-113162011D01*
X132281443Y-113318533D01*
X132281443Y-113318534D01*
X132332963Y-113488373D01*
X132350359Y-113665000D01*
X132332963Y-113841627D01*
X132298616Y-113954853D01*
X132281443Y-114011467D01*
X132234892Y-114098557D01*
X132197778Y-114167991D01*
X132168448Y-114203729D01*
X132085186Y-114305186D01*
X131983729Y-114388448D01*
X131947991Y-114417778D01*
X131947989Y-114417779D01*
X131791467Y-114501443D01*
X131734853Y-114518616D01*
X131621627Y-114552963D01*
X131555442Y-114559482D01*
X131489260Y-114566000D01*
X131400740Y-114566000D01*
X131334558Y-114559482D01*
X131268373Y-114552963D01*
X131155147Y-114518616D01*
X131098533Y-114501443D01*
X130942011Y-114417779D01*
X130942009Y-114417778D01*
X130906271Y-114388448D01*
X130804814Y-114305186D01*
X130721552Y-114203729D01*
X130692222Y-114167991D01*
X130655108Y-114098557D01*
X130608557Y-114011467D01*
X130591384Y-113954853D01*
X130557037Y-113841627D01*
X130539641Y-113665000D01*
X130557037Y-113488373D01*
X130608557Y-113318534D01*
X130608557Y-113318533D01*
X130692221Y-113162011D01*
X130692222Y-113162009D01*
X130721552Y-113126271D01*
X130804814Y-113024814D01*
X130906271Y-112941552D01*
X130942009Y-112912222D01*
X131020854Y-112870078D01*
X131098533Y-112828557D01*
X131155147Y-112811384D01*
X131268373Y-112777037D01*
X131334558Y-112770518D01*
X131400740Y-112764000D01*
X131489260Y-112764000D01*
X131555442Y-112770518D01*
X131555442Y-112770518D01*
G37*
G36*
X102345442Y-112770518D02*
X102411627Y-112777037D01*
X102524853Y-112811384D01*
X102581467Y-112828557D01*
X102659146Y-112870078D01*
X102737991Y-112912222D01*
X102773729Y-112941552D01*
X102875186Y-113024814D01*
X102958448Y-113126271D01*
X102987778Y-113162009D01*
X102987779Y-113162011D01*
X103071443Y-113318533D01*
X103071443Y-113318534D01*
X103122963Y-113488373D01*
X103140359Y-113665000D01*
X103122963Y-113841627D01*
X103088616Y-113954853D01*
X103071443Y-114011467D01*
X103024892Y-114098557D01*
X102987778Y-114167991D01*
X102958448Y-114203729D01*
X102875186Y-114305186D01*
X102773729Y-114388448D01*
X102737991Y-114417778D01*
X102737989Y-114417779D01*
X102581467Y-114501443D01*
X102524853Y-114518616D01*
X102411627Y-114552963D01*
X102345442Y-114559482D01*
X102279260Y-114566000D01*
X102190740Y-114566000D01*
X102124558Y-114559482D01*
X102058373Y-114552963D01*
X101945147Y-114518616D01*
X101888533Y-114501443D01*
X101732011Y-114417779D01*
X101732009Y-114417778D01*
X101696271Y-114388448D01*
X101594814Y-114305186D01*
X101511552Y-114203729D01*
X101482222Y-114167991D01*
X101445108Y-114098557D01*
X101398557Y-114011467D01*
X101381384Y-113954853D01*
X101347037Y-113841627D01*
X101329641Y-113665000D01*
X101347037Y-113488373D01*
X101398557Y-113318534D01*
X101398557Y-113318533D01*
X101482221Y-113162011D01*
X101482222Y-113162009D01*
X101511552Y-113126271D01*
X101594814Y-113024814D01*
X101696271Y-112941552D01*
X101732009Y-112912222D01*
X101810854Y-112870078D01*
X101888533Y-112828557D01*
X101945147Y-112811384D01*
X102058373Y-112777037D01*
X102124558Y-112770518D01*
X102190740Y-112764000D01*
X102279260Y-112764000D01*
X102345442Y-112770518D01*
X102345442Y-112770518D01*
G37*
G36*
X137270443Y-111500519D02*
X137336627Y-111507037D01*
X137449853Y-111541384D01*
X137506467Y-111558557D01*
X137593311Y-111604977D01*
X137662991Y-111642222D01*
X137698729Y-111671552D01*
X137800186Y-111754814D01*
X137883448Y-111856271D01*
X137912778Y-111892009D01*
X137912779Y-111892011D01*
X137996443Y-112048533D01*
X138013616Y-112105147D01*
X138047963Y-112218373D01*
X138065359Y-112395000D01*
X138047963Y-112571627D01*
X138013616Y-112684853D01*
X137996443Y-112741467D01*
X137977430Y-112777037D01*
X137912778Y-112897991D01*
X137883448Y-112933729D01*
X137800186Y-113035186D01*
X137698729Y-113118448D01*
X137662991Y-113147778D01*
X137662989Y-113147779D01*
X137506467Y-113231443D01*
X137499069Y-113233687D01*
X137336627Y-113282963D01*
X137270443Y-113289481D01*
X137204260Y-113296000D01*
X137115740Y-113296000D01*
X137049557Y-113289481D01*
X136983373Y-113282963D01*
X136820931Y-113233687D01*
X136813533Y-113231443D01*
X136657011Y-113147779D01*
X136657009Y-113147778D01*
X136621271Y-113118448D01*
X136519814Y-113035186D01*
X136436552Y-112933729D01*
X136407222Y-112897991D01*
X136342570Y-112777037D01*
X136323557Y-112741467D01*
X136306384Y-112684853D01*
X136272037Y-112571627D01*
X136254641Y-112395000D01*
X136272037Y-112218373D01*
X136306384Y-112105147D01*
X136323557Y-112048533D01*
X136407221Y-111892011D01*
X136407222Y-111892009D01*
X136436552Y-111856271D01*
X136519814Y-111754814D01*
X136621271Y-111671552D01*
X136657009Y-111642222D01*
X136726689Y-111604977D01*
X136813533Y-111558557D01*
X136870147Y-111541384D01*
X136983373Y-111507037D01*
X137049557Y-111500519D01*
X137115740Y-111494000D01*
X137204260Y-111494000D01*
X137270443Y-111500519D01*
X137270443Y-111500519D01*
G37*
G36*
X96630443Y-111500519D02*
X96696627Y-111507037D01*
X96809853Y-111541384D01*
X96866467Y-111558557D01*
X96953311Y-111604977D01*
X97022991Y-111642222D01*
X97058729Y-111671552D01*
X97160186Y-111754814D01*
X97243448Y-111856271D01*
X97272778Y-111892009D01*
X97272779Y-111892011D01*
X97356443Y-112048533D01*
X97373616Y-112105147D01*
X97407963Y-112218373D01*
X97425359Y-112395000D01*
X97407963Y-112571627D01*
X97373616Y-112684853D01*
X97356443Y-112741467D01*
X97337430Y-112777037D01*
X97272778Y-112897991D01*
X97243448Y-112933729D01*
X97160186Y-113035186D01*
X97058729Y-113118448D01*
X97022991Y-113147778D01*
X97022989Y-113147779D01*
X96866467Y-113231443D01*
X96859069Y-113233687D01*
X96696627Y-113282963D01*
X96630443Y-113289481D01*
X96564260Y-113296000D01*
X96475740Y-113296000D01*
X96409557Y-113289481D01*
X96343373Y-113282963D01*
X96180931Y-113233687D01*
X96173533Y-113231443D01*
X96017011Y-113147779D01*
X96017009Y-113147778D01*
X95981271Y-113118448D01*
X95879814Y-113035186D01*
X95796552Y-112933729D01*
X95767222Y-112897991D01*
X95702570Y-112777037D01*
X95683557Y-112741467D01*
X95666384Y-112684853D01*
X95632037Y-112571627D01*
X95614641Y-112395000D01*
X95632037Y-112218373D01*
X95666384Y-112105147D01*
X95683557Y-112048533D01*
X95767221Y-111892011D01*
X95767222Y-111892009D01*
X95796552Y-111856271D01*
X95879814Y-111754814D01*
X95981271Y-111671552D01*
X96017009Y-111642222D01*
X96086689Y-111604977D01*
X96173533Y-111558557D01*
X96230147Y-111541384D01*
X96343373Y-111507037D01*
X96409557Y-111500519D01*
X96475740Y-111494000D01*
X96564260Y-111494000D01*
X96630443Y-111500519D01*
X96630443Y-111500519D01*
G37*
G36*
X118911821Y-111556313D02*
X118911824Y-111556314D01*
X118911825Y-111556314D01*
X119072239Y-111604975D01*
X119072241Y-111604976D01*
X119072244Y-111604977D01*
X119220078Y-111683995D01*
X119349659Y-111790341D01*
X119456005Y-111919922D01*
X119535023Y-112067756D01*
X119535024Y-112067759D01*
X119535025Y-112067761D01*
X119580713Y-112218375D01*
X119583687Y-112228179D01*
X119600117Y-112395000D01*
X119583687Y-112561821D01*
X119583686Y-112561824D01*
X119583686Y-112561825D01*
X119580713Y-112571627D01*
X119535023Y-112722244D01*
X119456005Y-112870078D01*
X119349659Y-112999659D01*
X119220078Y-113106005D01*
X119072244Y-113185023D01*
X119072241Y-113185024D01*
X119072239Y-113185025D01*
X118911825Y-113233686D01*
X118911824Y-113233686D01*
X118911821Y-113233687D01*
X118786804Y-113246000D01*
X118703196Y-113246000D01*
X118578179Y-113233687D01*
X118578176Y-113233686D01*
X118578175Y-113233686D01*
X118417761Y-113185025D01*
X118417759Y-113185024D01*
X118417756Y-113185023D01*
X118269922Y-113106005D01*
X118140341Y-112999659D01*
X118033995Y-112870078D01*
X117954977Y-112722244D01*
X117909288Y-112571627D01*
X117906314Y-112561825D01*
X117906314Y-112561824D01*
X117906313Y-112561821D01*
X117889883Y-112395000D01*
X117906313Y-112228179D01*
X117909287Y-112218375D01*
X117954975Y-112067761D01*
X117954976Y-112067759D01*
X117954977Y-112067756D01*
X118033995Y-111919922D01*
X118140341Y-111790341D01*
X118269922Y-111683995D01*
X118417756Y-111604977D01*
X118417759Y-111604976D01*
X118417761Y-111604975D01*
X118578175Y-111556314D01*
X118578176Y-111556314D01*
X118578179Y-111556313D01*
X118703196Y-111544000D01*
X118786804Y-111544000D01*
X118911821Y-111556313D01*
X118911821Y-111556313D01*
G37*
G36*
X126531821Y-111556313D02*
X126531824Y-111556314D01*
X126531825Y-111556314D01*
X126692239Y-111604975D01*
X126692241Y-111604976D01*
X126692244Y-111604977D01*
X126840078Y-111683995D01*
X126969659Y-111790341D01*
X127076005Y-111919922D01*
X127155023Y-112067756D01*
X127155024Y-112067759D01*
X127155025Y-112067761D01*
X127200713Y-112218375D01*
X127203687Y-112228179D01*
X127220117Y-112395000D01*
X127203687Y-112561821D01*
X127203686Y-112561824D01*
X127203686Y-112561825D01*
X127200713Y-112571627D01*
X127155023Y-112722244D01*
X127076005Y-112870078D01*
X126969659Y-112999659D01*
X126840078Y-113106005D01*
X126692244Y-113185023D01*
X126692241Y-113185024D01*
X126692239Y-113185025D01*
X126531825Y-113233686D01*
X126531824Y-113233686D01*
X126531821Y-113233687D01*
X126406804Y-113246000D01*
X126323196Y-113246000D01*
X126198179Y-113233687D01*
X126198176Y-113233686D01*
X126198175Y-113233686D01*
X126037761Y-113185025D01*
X126037759Y-113185024D01*
X126037756Y-113185023D01*
X125889922Y-113106005D01*
X125760341Y-112999659D01*
X125653995Y-112870078D01*
X125574977Y-112722244D01*
X125529288Y-112571627D01*
X125526314Y-112561825D01*
X125526314Y-112561824D01*
X125526313Y-112561821D01*
X125509883Y-112395000D01*
X125526313Y-112228179D01*
X125529287Y-112218375D01*
X125574975Y-112067761D01*
X125574976Y-112067759D01*
X125574977Y-112067756D01*
X125653995Y-111919922D01*
X125760341Y-111790341D01*
X125889922Y-111683995D01*
X126037756Y-111604977D01*
X126037759Y-111604976D01*
X126037761Y-111604975D01*
X126198175Y-111556314D01*
X126198176Y-111556314D01*
X126198179Y-111556313D01*
X126323196Y-111544000D01*
X126406804Y-111544000D01*
X126531821Y-111556313D01*
X126531821Y-111556313D01*
G37*
G36*
X115101821Y-111556313D02*
X115101824Y-111556314D01*
X115101825Y-111556314D01*
X115262239Y-111604975D01*
X115262241Y-111604976D01*
X115262244Y-111604977D01*
X115410078Y-111683995D01*
X115539659Y-111790341D01*
X115646005Y-111919922D01*
X115725023Y-112067756D01*
X115725024Y-112067759D01*
X115725025Y-112067761D01*
X115770713Y-112218375D01*
X115773687Y-112228179D01*
X115790117Y-112395000D01*
X115773687Y-112561821D01*
X115773686Y-112561824D01*
X115773686Y-112561825D01*
X115770713Y-112571627D01*
X115725023Y-112722244D01*
X115646005Y-112870078D01*
X115539659Y-112999659D01*
X115410078Y-113106005D01*
X115262244Y-113185023D01*
X115262241Y-113185024D01*
X115262239Y-113185025D01*
X115101825Y-113233686D01*
X115101824Y-113233686D01*
X115101821Y-113233687D01*
X114976804Y-113246000D01*
X114893196Y-113246000D01*
X114768179Y-113233687D01*
X114768176Y-113233686D01*
X114768175Y-113233686D01*
X114607761Y-113185025D01*
X114607759Y-113185024D01*
X114607756Y-113185023D01*
X114459922Y-113106005D01*
X114330341Y-112999659D01*
X114223995Y-112870078D01*
X114144977Y-112722244D01*
X114099288Y-112571627D01*
X114096314Y-112561825D01*
X114096314Y-112561824D01*
X114096313Y-112561821D01*
X114079883Y-112395000D01*
X114096313Y-112228179D01*
X114099287Y-112218375D01*
X114144975Y-112067761D01*
X114144976Y-112067759D01*
X114144977Y-112067756D01*
X114223995Y-111919922D01*
X114330341Y-111790341D01*
X114459922Y-111683995D01*
X114607756Y-111604977D01*
X114607759Y-111604976D01*
X114607761Y-111604975D01*
X114768175Y-111556314D01*
X114768176Y-111556314D01*
X114768179Y-111556313D01*
X114893196Y-111544000D01*
X114976804Y-111544000D01*
X115101821Y-111556313D01*
X115101821Y-111556313D01*
G37*
G36*
X107481821Y-111556313D02*
X107481824Y-111556314D01*
X107481825Y-111556314D01*
X107642239Y-111604975D01*
X107642241Y-111604976D01*
X107642244Y-111604977D01*
X107790078Y-111683995D01*
X107919659Y-111790341D01*
X108026005Y-111919922D01*
X108105023Y-112067756D01*
X108105024Y-112067759D01*
X108105025Y-112067761D01*
X108150713Y-112218375D01*
X108153687Y-112228179D01*
X108170117Y-112395000D01*
X108153687Y-112561821D01*
X108153686Y-112561824D01*
X108153686Y-112561825D01*
X108150713Y-112571627D01*
X108105023Y-112722244D01*
X108026005Y-112870078D01*
X107919659Y-112999659D01*
X107790078Y-113106005D01*
X107642244Y-113185023D01*
X107642241Y-113185024D01*
X107642239Y-113185025D01*
X107481825Y-113233686D01*
X107481824Y-113233686D01*
X107481821Y-113233687D01*
X107356804Y-113246000D01*
X107273196Y-113246000D01*
X107148179Y-113233687D01*
X107148176Y-113233686D01*
X107148175Y-113233686D01*
X106987761Y-113185025D01*
X106987759Y-113185024D01*
X106987756Y-113185023D01*
X106839922Y-113106005D01*
X106710341Y-112999659D01*
X106603995Y-112870078D01*
X106524977Y-112722244D01*
X106479288Y-112571627D01*
X106476314Y-112561825D01*
X106476314Y-112561824D01*
X106476313Y-112561821D01*
X106459883Y-112395000D01*
X106476313Y-112228179D01*
X106479287Y-112218375D01*
X106524975Y-112067761D01*
X106524976Y-112067759D01*
X106524977Y-112067756D01*
X106603995Y-111919922D01*
X106710341Y-111790341D01*
X106839922Y-111683995D01*
X106987756Y-111604977D01*
X106987759Y-111604976D01*
X106987761Y-111604975D01*
X107148175Y-111556314D01*
X107148176Y-111556314D01*
X107148179Y-111556313D01*
X107273196Y-111544000D01*
X107356804Y-111544000D01*
X107481821Y-111556313D01*
X107481821Y-111556313D01*
G37*
G36*
X102345443Y-110230519D02*
X102411627Y-110237037D01*
X102524853Y-110271384D01*
X102581467Y-110288557D01*
X102659146Y-110330078D01*
X102737991Y-110372222D01*
X102773729Y-110401552D01*
X102875186Y-110484814D01*
X102958448Y-110586271D01*
X102987778Y-110622009D01*
X102987779Y-110622011D01*
X103071443Y-110778533D01*
X103071443Y-110778534D01*
X103122963Y-110948373D01*
X103140359Y-111125000D01*
X103122963Y-111301627D01*
X103088616Y-111414853D01*
X103071443Y-111471467D01*
X103024892Y-111558557D01*
X102987778Y-111627991D01*
X102958448Y-111663729D01*
X102875186Y-111765186D01*
X102773729Y-111848448D01*
X102737991Y-111877778D01*
X102737989Y-111877779D01*
X102581467Y-111961443D01*
X102524853Y-111978616D01*
X102411627Y-112012963D01*
X102345442Y-112019482D01*
X102279260Y-112026000D01*
X102190740Y-112026000D01*
X102124558Y-112019482D01*
X102058373Y-112012963D01*
X101945147Y-111978616D01*
X101888533Y-111961443D01*
X101732011Y-111877779D01*
X101732009Y-111877778D01*
X101696271Y-111848448D01*
X101594814Y-111765186D01*
X101511552Y-111663729D01*
X101482222Y-111627991D01*
X101445108Y-111558557D01*
X101398557Y-111471467D01*
X101381384Y-111414853D01*
X101347037Y-111301627D01*
X101329641Y-111125000D01*
X101347037Y-110948373D01*
X101398557Y-110778534D01*
X101398557Y-110778533D01*
X101482221Y-110622011D01*
X101482222Y-110622009D01*
X101511552Y-110586271D01*
X101594814Y-110484814D01*
X101696271Y-110401552D01*
X101732009Y-110372222D01*
X101810854Y-110330078D01*
X101888533Y-110288557D01*
X101945147Y-110271384D01*
X102058373Y-110237037D01*
X102124557Y-110230519D01*
X102190740Y-110224000D01*
X102279260Y-110224000D01*
X102345443Y-110230519D01*
X102345443Y-110230519D01*
G37*
G36*
X131555443Y-110230519D02*
X131621627Y-110237037D01*
X131734853Y-110271384D01*
X131791467Y-110288557D01*
X131869146Y-110330078D01*
X131947991Y-110372222D01*
X131983729Y-110401552D01*
X132085186Y-110484814D01*
X132168448Y-110586271D01*
X132197778Y-110622009D01*
X132197779Y-110622011D01*
X132281443Y-110778533D01*
X132281443Y-110778534D01*
X132332963Y-110948373D01*
X132350359Y-111125000D01*
X132332963Y-111301627D01*
X132298616Y-111414853D01*
X132281443Y-111471467D01*
X132234892Y-111558557D01*
X132197778Y-111627991D01*
X132168448Y-111663729D01*
X132085186Y-111765186D01*
X131983729Y-111848448D01*
X131947991Y-111877778D01*
X131947989Y-111877779D01*
X131791467Y-111961443D01*
X131734853Y-111978616D01*
X131621627Y-112012963D01*
X131555442Y-112019482D01*
X131489260Y-112026000D01*
X131400740Y-112026000D01*
X131334558Y-112019482D01*
X131268373Y-112012963D01*
X131155147Y-111978616D01*
X131098533Y-111961443D01*
X130942011Y-111877779D01*
X130942009Y-111877778D01*
X130906271Y-111848448D01*
X130804814Y-111765186D01*
X130721552Y-111663729D01*
X130692222Y-111627991D01*
X130655108Y-111558557D01*
X130608557Y-111471467D01*
X130591384Y-111414853D01*
X130557037Y-111301627D01*
X130539641Y-111125000D01*
X130557037Y-110948373D01*
X130608557Y-110778534D01*
X130608557Y-110778533D01*
X130692221Y-110622011D01*
X130692222Y-110622009D01*
X130721552Y-110586271D01*
X130804814Y-110484814D01*
X130906271Y-110401552D01*
X130942009Y-110372222D01*
X131020854Y-110330078D01*
X131098533Y-110288557D01*
X131155147Y-110271384D01*
X131268373Y-110237037D01*
X131334557Y-110230519D01*
X131400740Y-110224000D01*
X131489260Y-110224000D01*
X131555443Y-110230519D01*
X131555443Y-110230519D01*
G37*
G36*
X96630443Y-108960519D02*
X96696627Y-108967037D01*
X96809853Y-109001384D01*
X96866467Y-109018557D01*
X96953311Y-109064977D01*
X97022991Y-109102222D01*
X97058729Y-109131552D01*
X97160186Y-109214814D01*
X97243448Y-109316271D01*
X97272778Y-109352009D01*
X97272779Y-109352011D01*
X97356443Y-109508533D01*
X97373616Y-109565147D01*
X97407963Y-109678373D01*
X97425359Y-109855000D01*
X97407963Y-110031627D01*
X97373616Y-110144853D01*
X97356443Y-110201467D01*
X97337430Y-110237037D01*
X97272778Y-110357991D01*
X97243448Y-110393729D01*
X97160186Y-110495186D01*
X97058729Y-110578448D01*
X97022991Y-110607778D01*
X97022989Y-110607779D01*
X96866467Y-110691443D01*
X96859069Y-110693687D01*
X96696627Y-110742963D01*
X96630442Y-110749482D01*
X96564260Y-110756000D01*
X96475740Y-110756000D01*
X96409558Y-110749482D01*
X96343373Y-110742963D01*
X96180931Y-110693687D01*
X96173533Y-110691443D01*
X96017011Y-110607779D01*
X96017009Y-110607778D01*
X95981271Y-110578448D01*
X95879814Y-110495186D01*
X95796552Y-110393729D01*
X95767222Y-110357991D01*
X95702570Y-110237037D01*
X95683557Y-110201467D01*
X95666384Y-110144853D01*
X95632037Y-110031627D01*
X95614641Y-109855000D01*
X95632037Y-109678373D01*
X95666384Y-109565147D01*
X95683557Y-109508533D01*
X95767221Y-109352011D01*
X95767222Y-109352009D01*
X95796552Y-109316271D01*
X95879814Y-109214814D01*
X95981271Y-109131552D01*
X96017009Y-109102222D01*
X96086689Y-109064977D01*
X96173533Y-109018557D01*
X96230147Y-109001384D01*
X96343373Y-108967037D01*
X96409557Y-108960519D01*
X96475740Y-108954000D01*
X96564260Y-108954000D01*
X96630443Y-108960519D01*
X96630443Y-108960519D01*
G37*
G36*
X137270443Y-108960519D02*
X137336627Y-108967037D01*
X137449853Y-109001384D01*
X137506467Y-109018557D01*
X137593311Y-109064977D01*
X137662991Y-109102222D01*
X137698729Y-109131552D01*
X137800186Y-109214814D01*
X137883448Y-109316271D01*
X137912778Y-109352009D01*
X137912779Y-109352011D01*
X137996443Y-109508533D01*
X138013616Y-109565147D01*
X138047963Y-109678373D01*
X138065359Y-109855000D01*
X138047963Y-110031627D01*
X138013616Y-110144853D01*
X137996443Y-110201467D01*
X137977430Y-110237037D01*
X137912778Y-110357991D01*
X137883448Y-110393729D01*
X137800186Y-110495186D01*
X137698729Y-110578448D01*
X137662991Y-110607778D01*
X137662989Y-110607779D01*
X137506467Y-110691443D01*
X137499069Y-110693687D01*
X137336627Y-110742963D01*
X137270442Y-110749482D01*
X137204260Y-110756000D01*
X137115740Y-110756000D01*
X137049558Y-110749482D01*
X136983373Y-110742963D01*
X136820931Y-110693687D01*
X136813533Y-110691443D01*
X136657011Y-110607779D01*
X136657009Y-110607778D01*
X136621271Y-110578448D01*
X136519814Y-110495186D01*
X136436552Y-110393729D01*
X136407222Y-110357991D01*
X136342570Y-110237037D01*
X136323557Y-110201467D01*
X136306384Y-110144853D01*
X136272037Y-110031627D01*
X136254641Y-109855000D01*
X136272037Y-109678373D01*
X136306384Y-109565147D01*
X136323557Y-109508533D01*
X136407221Y-109352011D01*
X136407222Y-109352009D01*
X136436552Y-109316271D01*
X136519814Y-109214814D01*
X136621271Y-109131552D01*
X136657009Y-109102222D01*
X136726689Y-109064977D01*
X136813533Y-109018557D01*
X136870147Y-109001384D01*
X136983373Y-108967037D01*
X137049557Y-108960519D01*
X137115740Y-108954000D01*
X137204260Y-108954000D01*
X137270443Y-108960519D01*
X137270443Y-108960519D01*
G37*
G36*
X126531821Y-109016313D02*
X126531824Y-109016314D01*
X126531825Y-109016314D01*
X126692239Y-109064975D01*
X126692241Y-109064976D01*
X126692244Y-109064977D01*
X126840078Y-109143995D01*
X126969659Y-109250341D01*
X127076005Y-109379922D01*
X127155023Y-109527756D01*
X127155024Y-109527759D01*
X127155025Y-109527761D01*
X127200713Y-109678375D01*
X127203687Y-109688179D01*
X127220117Y-109855000D01*
X127203687Y-110021821D01*
X127203686Y-110021824D01*
X127203686Y-110021825D01*
X127200713Y-110031627D01*
X127155023Y-110182244D01*
X127076005Y-110330078D01*
X126969659Y-110459659D01*
X126840078Y-110566005D01*
X126692244Y-110645023D01*
X126692241Y-110645024D01*
X126692239Y-110645025D01*
X126531825Y-110693686D01*
X126531824Y-110693686D01*
X126531821Y-110693687D01*
X126406804Y-110706000D01*
X126323196Y-110706000D01*
X126198179Y-110693687D01*
X126198176Y-110693686D01*
X126198175Y-110693686D01*
X126037761Y-110645025D01*
X126037759Y-110645024D01*
X126037756Y-110645023D01*
X125889922Y-110566005D01*
X125760341Y-110459659D01*
X125653995Y-110330078D01*
X125574977Y-110182244D01*
X125529288Y-110031627D01*
X125526314Y-110021825D01*
X125526314Y-110021824D01*
X125526313Y-110021821D01*
X125509883Y-109855000D01*
X125526313Y-109688179D01*
X125529287Y-109678375D01*
X125574975Y-109527761D01*
X125574976Y-109527759D01*
X125574977Y-109527756D01*
X125653995Y-109379922D01*
X125760341Y-109250341D01*
X125889922Y-109143995D01*
X126037756Y-109064977D01*
X126037759Y-109064976D01*
X126037761Y-109064975D01*
X126198175Y-109016314D01*
X126198176Y-109016314D01*
X126198179Y-109016313D01*
X126323196Y-109004000D01*
X126406804Y-109004000D01*
X126531821Y-109016313D01*
X126531821Y-109016313D01*
G37*
G36*
X118911821Y-109016313D02*
X118911824Y-109016314D01*
X118911825Y-109016314D01*
X119072239Y-109064975D01*
X119072241Y-109064976D01*
X119072244Y-109064977D01*
X119220078Y-109143995D01*
X119349659Y-109250341D01*
X119456005Y-109379922D01*
X119535023Y-109527756D01*
X119535024Y-109527759D01*
X119535025Y-109527761D01*
X119580713Y-109678375D01*
X119583687Y-109688179D01*
X119600117Y-109855000D01*
X119583687Y-110021821D01*
X119583686Y-110021824D01*
X119583686Y-110021825D01*
X119580713Y-110031627D01*
X119535023Y-110182244D01*
X119456005Y-110330078D01*
X119349659Y-110459659D01*
X119220078Y-110566005D01*
X119072244Y-110645023D01*
X119072241Y-110645024D01*
X119072239Y-110645025D01*
X118911825Y-110693686D01*
X118911824Y-110693686D01*
X118911821Y-110693687D01*
X118786804Y-110706000D01*
X118703196Y-110706000D01*
X118578179Y-110693687D01*
X118578176Y-110693686D01*
X118578175Y-110693686D01*
X118417761Y-110645025D01*
X118417759Y-110645024D01*
X118417756Y-110645023D01*
X118269922Y-110566005D01*
X118140341Y-110459659D01*
X118033995Y-110330078D01*
X117954977Y-110182244D01*
X117909288Y-110031627D01*
X117906314Y-110021825D01*
X117906314Y-110021824D01*
X117906313Y-110021821D01*
X117889883Y-109855000D01*
X117906313Y-109688179D01*
X117909287Y-109678375D01*
X117954975Y-109527761D01*
X117954976Y-109527759D01*
X117954977Y-109527756D01*
X118033995Y-109379922D01*
X118140341Y-109250341D01*
X118269922Y-109143995D01*
X118417756Y-109064977D01*
X118417759Y-109064976D01*
X118417761Y-109064975D01*
X118578175Y-109016314D01*
X118578176Y-109016314D01*
X118578179Y-109016313D01*
X118703196Y-109004000D01*
X118786804Y-109004000D01*
X118911821Y-109016313D01*
X118911821Y-109016313D01*
G37*
G36*
X107481821Y-109016313D02*
X107481824Y-109016314D01*
X107481825Y-109016314D01*
X107642239Y-109064975D01*
X107642241Y-109064976D01*
X107642244Y-109064977D01*
X107790078Y-109143995D01*
X107919659Y-109250341D01*
X108026005Y-109379922D01*
X108105023Y-109527756D01*
X108105024Y-109527759D01*
X108105025Y-109527761D01*
X108150713Y-109678375D01*
X108153687Y-109688179D01*
X108170117Y-109855000D01*
X108153687Y-110021821D01*
X108153686Y-110021824D01*
X108153686Y-110021825D01*
X108150713Y-110031627D01*
X108105023Y-110182244D01*
X108026005Y-110330078D01*
X107919659Y-110459659D01*
X107790078Y-110566005D01*
X107642244Y-110645023D01*
X107642241Y-110645024D01*
X107642239Y-110645025D01*
X107481825Y-110693686D01*
X107481824Y-110693686D01*
X107481821Y-110693687D01*
X107356804Y-110706000D01*
X107273196Y-110706000D01*
X107148179Y-110693687D01*
X107148176Y-110693686D01*
X107148175Y-110693686D01*
X106987761Y-110645025D01*
X106987759Y-110645024D01*
X106987756Y-110645023D01*
X106839922Y-110566005D01*
X106710341Y-110459659D01*
X106603995Y-110330078D01*
X106524977Y-110182244D01*
X106479288Y-110031627D01*
X106476314Y-110021825D01*
X106476314Y-110021824D01*
X106476313Y-110021821D01*
X106459883Y-109855000D01*
X106476313Y-109688179D01*
X106479287Y-109678375D01*
X106524975Y-109527761D01*
X106524976Y-109527759D01*
X106524977Y-109527756D01*
X106603995Y-109379922D01*
X106710341Y-109250341D01*
X106839922Y-109143995D01*
X106987756Y-109064977D01*
X106987759Y-109064976D01*
X106987761Y-109064975D01*
X107148175Y-109016314D01*
X107148176Y-109016314D01*
X107148179Y-109016313D01*
X107273196Y-109004000D01*
X107356804Y-109004000D01*
X107481821Y-109016313D01*
X107481821Y-109016313D01*
G37*
G36*
X115101821Y-109016313D02*
X115101824Y-109016314D01*
X115101825Y-109016314D01*
X115262239Y-109064975D01*
X115262241Y-109064976D01*
X115262244Y-109064977D01*
X115410078Y-109143995D01*
X115539659Y-109250341D01*
X115646005Y-109379922D01*
X115725023Y-109527756D01*
X115725024Y-109527759D01*
X115725025Y-109527761D01*
X115770713Y-109678375D01*
X115773687Y-109688179D01*
X115790117Y-109855000D01*
X115773687Y-110021821D01*
X115773686Y-110021824D01*
X115773686Y-110021825D01*
X115770713Y-110031627D01*
X115725023Y-110182244D01*
X115646005Y-110330078D01*
X115539659Y-110459659D01*
X115410078Y-110566005D01*
X115262244Y-110645023D01*
X115262241Y-110645024D01*
X115262239Y-110645025D01*
X115101825Y-110693686D01*
X115101824Y-110693686D01*
X115101821Y-110693687D01*
X114976804Y-110706000D01*
X114893196Y-110706000D01*
X114768179Y-110693687D01*
X114768176Y-110693686D01*
X114768175Y-110693686D01*
X114607761Y-110645025D01*
X114607759Y-110645024D01*
X114607756Y-110645023D01*
X114459922Y-110566005D01*
X114330341Y-110459659D01*
X114223995Y-110330078D01*
X114144977Y-110182244D01*
X114099288Y-110031627D01*
X114096314Y-110021825D01*
X114096314Y-110021824D01*
X114096313Y-110021821D01*
X114079883Y-109855000D01*
X114096313Y-109688179D01*
X114099287Y-109678375D01*
X114144975Y-109527761D01*
X114144976Y-109527759D01*
X114144977Y-109527756D01*
X114223995Y-109379922D01*
X114330341Y-109250341D01*
X114459922Y-109143995D01*
X114607756Y-109064977D01*
X114607759Y-109064976D01*
X114607761Y-109064975D01*
X114768175Y-109016314D01*
X114768176Y-109016314D01*
X114768179Y-109016313D01*
X114893196Y-109004000D01*
X114976804Y-109004000D01*
X115101821Y-109016313D01*
X115101821Y-109016313D01*
G37*
G36*
X131555443Y-107690519D02*
X131621627Y-107697037D01*
X131734853Y-107731384D01*
X131791467Y-107748557D01*
X131869146Y-107790078D01*
X131947991Y-107832222D01*
X131983729Y-107861552D01*
X132085186Y-107944814D01*
X132168448Y-108046271D01*
X132197778Y-108082009D01*
X132197779Y-108082011D01*
X132281443Y-108238533D01*
X132281443Y-108238534D01*
X132332963Y-108408373D01*
X132350359Y-108585000D01*
X132332963Y-108761627D01*
X132298616Y-108874853D01*
X132281443Y-108931467D01*
X132234892Y-109018557D01*
X132197778Y-109087991D01*
X132168448Y-109123729D01*
X132085186Y-109225186D01*
X131983729Y-109308448D01*
X131947991Y-109337778D01*
X131947989Y-109337779D01*
X131791467Y-109421443D01*
X131734853Y-109438616D01*
X131621627Y-109472963D01*
X131555442Y-109479482D01*
X131489260Y-109486000D01*
X131400740Y-109486000D01*
X131334558Y-109479482D01*
X131268373Y-109472963D01*
X131155147Y-109438616D01*
X131098533Y-109421443D01*
X130942011Y-109337779D01*
X130942009Y-109337778D01*
X130906271Y-109308448D01*
X130804814Y-109225186D01*
X130721552Y-109123729D01*
X130692222Y-109087991D01*
X130655108Y-109018557D01*
X130608557Y-108931467D01*
X130591384Y-108874853D01*
X130557037Y-108761627D01*
X130539641Y-108585000D01*
X130557037Y-108408373D01*
X130608557Y-108238534D01*
X130608557Y-108238533D01*
X130692221Y-108082011D01*
X130692222Y-108082009D01*
X130721552Y-108046271D01*
X130804814Y-107944814D01*
X130906271Y-107861552D01*
X130942009Y-107832222D01*
X131020854Y-107790078D01*
X131098533Y-107748557D01*
X131155147Y-107731384D01*
X131268373Y-107697037D01*
X131334557Y-107690519D01*
X131400740Y-107684000D01*
X131489260Y-107684000D01*
X131555443Y-107690519D01*
X131555443Y-107690519D01*
G37*
G36*
X102345443Y-107690519D02*
X102411627Y-107697037D01*
X102524853Y-107731384D01*
X102581467Y-107748557D01*
X102659146Y-107790078D01*
X102737991Y-107832222D01*
X102773729Y-107861552D01*
X102875186Y-107944814D01*
X102958448Y-108046271D01*
X102987778Y-108082009D01*
X102987779Y-108082011D01*
X103071443Y-108238533D01*
X103071443Y-108238534D01*
X103122963Y-108408373D01*
X103140359Y-108585000D01*
X103122963Y-108761627D01*
X103088616Y-108874853D01*
X103071443Y-108931467D01*
X103024892Y-109018557D01*
X102987778Y-109087991D01*
X102958448Y-109123729D01*
X102875186Y-109225186D01*
X102773729Y-109308448D01*
X102737991Y-109337778D01*
X102737989Y-109337779D01*
X102581467Y-109421443D01*
X102524853Y-109438616D01*
X102411627Y-109472963D01*
X102345442Y-109479482D01*
X102279260Y-109486000D01*
X102190740Y-109486000D01*
X102124558Y-109479482D01*
X102058373Y-109472963D01*
X101945147Y-109438616D01*
X101888533Y-109421443D01*
X101732011Y-109337779D01*
X101732009Y-109337778D01*
X101696271Y-109308448D01*
X101594814Y-109225186D01*
X101511552Y-109123729D01*
X101482222Y-109087991D01*
X101445108Y-109018557D01*
X101398557Y-108931467D01*
X101381384Y-108874853D01*
X101347037Y-108761627D01*
X101329641Y-108585000D01*
X101347037Y-108408373D01*
X101398557Y-108238534D01*
X101398557Y-108238533D01*
X101482221Y-108082011D01*
X101482222Y-108082009D01*
X101511552Y-108046271D01*
X101594814Y-107944814D01*
X101696271Y-107861552D01*
X101732009Y-107832222D01*
X101810854Y-107790078D01*
X101888533Y-107748557D01*
X101945147Y-107731384D01*
X102058373Y-107697037D01*
X102124557Y-107690519D01*
X102190740Y-107684000D01*
X102279260Y-107684000D01*
X102345443Y-107690519D01*
X102345443Y-107690519D01*
G37*
G36*
X137270443Y-106420519D02*
X137336627Y-106427037D01*
X137449853Y-106461384D01*
X137506467Y-106478557D01*
X137593311Y-106524977D01*
X137662991Y-106562222D01*
X137698729Y-106591552D01*
X137800186Y-106674814D01*
X137883448Y-106776271D01*
X137912778Y-106812009D01*
X137912779Y-106812011D01*
X137996443Y-106968533D01*
X138013616Y-107025147D01*
X138047963Y-107138373D01*
X138065359Y-107315000D01*
X138047963Y-107491627D01*
X138013616Y-107604853D01*
X137996443Y-107661467D01*
X137977430Y-107697037D01*
X137912778Y-107817991D01*
X137883448Y-107853729D01*
X137800186Y-107955186D01*
X137698729Y-108038448D01*
X137662991Y-108067778D01*
X137662989Y-108067779D01*
X137506467Y-108151443D01*
X137499069Y-108153687D01*
X137336627Y-108202963D01*
X137270443Y-108209481D01*
X137204260Y-108216000D01*
X137115740Y-108216000D01*
X137049557Y-108209481D01*
X136983373Y-108202963D01*
X136820931Y-108153687D01*
X136813533Y-108151443D01*
X136657011Y-108067779D01*
X136657009Y-108067778D01*
X136621271Y-108038448D01*
X136519814Y-107955186D01*
X136436552Y-107853729D01*
X136407222Y-107817991D01*
X136342570Y-107697037D01*
X136323557Y-107661467D01*
X136306384Y-107604853D01*
X136272037Y-107491627D01*
X136254641Y-107315000D01*
X136272037Y-107138373D01*
X136306384Y-107025147D01*
X136323557Y-106968533D01*
X136407221Y-106812011D01*
X136407222Y-106812009D01*
X136436552Y-106776271D01*
X136519814Y-106674814D01*
X136621271Y-106591552D01*
X136657009Y-106562222D01*
X136726689Y-106524977D01*
X136813533Y-106478557D01*
X136870147Y-106461384D01*
X136983373Y-106427037D01*
X137049557Y-106420519D01*
X137115740Y-106414000D01*
X137204260Y-106414000D01*
X137270443Y-106420519D01*
X137270443Y-106420519D01*
G37*
G36*
X96630443Y-106420519D02*
X96696627Y-106427037D01*
X96809853Y-106461384D01*
X96866467Y-106478557D01*
X96953311Y-106524977D01*
X97022991Y-106562222D01*
X97058729Y-106591552D01*
X97160186Y-106674814D01*
X97243448Y-106776271D01*
X97272778Y-106812009D01*
X97272779Y-106812011D01*
X97356443Y-106968533D01*
X97373616Y-107025147D01*
X97407963Y-107138373D01*
X97425359Y-107315000D01*
X97407963Y-107491627D01*
X97373616Y-107604853D01*
X97356443Y-107661467D01*
X97337430Y-107697037D01*
X97272778Y-107817991D01*
X97243448Y-107853729D01*
X97160186Y-107955186D01*
X97058729Y-108038448D01*
X97022991Y-108067778D01*
X97022989Y-108067779D01*
X96866467Y-108151443D01*
X96859069Y-108153687D01*
X96696627Y-108202963D01*
X96630443Y-108209481D01*
X96564260Y-108216000D01*
X96475740Y-108216000D01*
X96409557Y-108209481D01*
X96343373Y-108202963D01*
X96180931Y-108153687D01*
X96173533Y-108151443D01*
X96017011Y-108067779D01*
X96017009Y-108067778D01*
X95981271Y-108038448D01*
X95879814Y-107955186D01*
X95796552Y-107853729D01*
X95767222Y-107817991D01*
X95702570Y-107697037D01*
X95683557Y-107661467D01*
X95666384Y-107604853D01*
X95632037Y-107491627D01*
X95614641Y-107315000D01*
X95632037Y-107138373D01*
X95666384Y-107025147D01*
X95683557Y-106968533D01*
X95767221Y-106812011D01*
X95767222Y-106812009D01*
X95796552Y-106776271D01*
X95879814Y-106674814D01*
X95981271Y-106591552D01*
X96017009Y-106562222D01*
X96086689Y-106524977D01*
X96173533Y-106478557D01*
X96230147Y-106461384D01*
X96343373Y-106427037D01*
X96409557Y-106420519D01*
X96475740Y-106414000D01*
X96564260Y-106414000D01*
X96630443Y-106420519D01*
X96630443Y-106420519D01*
G37*
G36*
X126531821Y-106476313D02*
X126531824Y-106476314D01*
X126531825Y-106476314D01*
X126692239Y-106524975D01*
X126692241Y-106524976D01*
X126692244Y-106524977D01*
X126840078Y-106603995D01*
X126969659Y-106710341D01*
X127076005Y-106839922D01*
X127155023Y-106987756D01*
X127155024Y-106987759D01*
X127155025Y-106987761D01*
X127200713Y-107138375D01*
X127203687Y-107148179D01*
X127220117Y-107315000D01*
X127203687Y-107481821D01*
X127203686Y-107481824D01*
X127203686Y-107481825D01*
X127200713Y-107491627D01*
X127155023Y-107642244D01*
X127076005Y-107790078D01*
X126969659Y-107919659D01*
X126840078Y-108026005D01*
X126692244Y-108105023D01*
X126692241Y-108105024D01*
X126692239Y-108105025D01*
X126531825Y-108153686D01*
X126531824Y-108153686D01*
X126531821Y-108153687D01*
X126406804Y-108166000D01*
X126323196Y-108166000D01*
X126198179Y-108153687D01*
X126198176Y-108153686D01*
X126198175Y-108153686D01*
X126037761Y-108105025D01*
X126037759Y-108105024D01*
X126037756Y-108105023D01*
X125889922Y-108026005D01*
X125760341Y-107919659D01*
X125653995Y-107790078D01*
X125574977Y-107642244D01*
X125529288Y-107491627D01*
X125526314Y-107481825D01*
X125526314Y-107481824D01*
X125526313Y-107481821D01*
X125509883Y-107315000D01*
X125526313Y-107148179D01*
X125529287Y-107138375D01*
X125574975Y-106987761D01*
X125574976Y-106987759D01*
X125574977Y-106987756D01*
X125653995Y-106839922D01*
X125760341Y-106710341D01*
X125889922Y-106603995D01*
X126037756Y-106524977D01*
X126037759Y-106524976D01*
X126037761Y-106524975D01*
X126198175Y-106476314D01*
X126198176Y-106476314D01*
X126198179Y-106476313D01*
X126323196Y-106464000D01*
X126406804Y-106464000D01*
X126531821Y-106476313D01*
X126531821Y-106476313D01*
G37*
G36*
X118911821Y-106476313D02*
X118911824Y-106476314D01*
X118911825Y-106476314D01*
X119072239Y-106524975D01*
X119072241Y-106524976D01*
X119072244Y-106524977D01*
X119220078Y-106603995D01*
X119349659Y-106710341D01*
X119456005Y-106839922D01*
X119535023Y-106987756D01*
X119535024Y-106987759D01*
X119535025Y-106987761D01*
X119580713Y-107138375D01*
X119583687Y-107148179D01*
X119600117Y-107315000D01*
X119583687Y-107481821D01*
X119583686Y-107481824D01*
X119583686Y-107481825D01*
X119580713Y-107491627D01*
X119535023Y-107642244D01*
X119456005Y-107790078D01*
X119349659Y-107919659D01*
X119220078Y-108026005D01*
X119072244Y-108105023D01*
X119072241Y-108105024D01*
X119072239Y-108105025D01*
X118911825Y-108153686D01*
X118911824Y-108153686D01*
X118911821Y-108153687D01*
X118786804Y-108166000D01*
X118703196Y-108166000D01*
X118578179Y-108153687D01*
X118578176Y-108153686D01*
X118578175Y-108153686D01*
X118417761Y-108105025D01*
X118417759Y-108105024D01*
X118417756Y-108105023D01*
X118269922Y-108026005D01*
X118140341Y-107919659D01*
X118033995Y-107790078D01*
X117954977Y-107642244D01*
X117909288Y-107491627D01*
X117906314Y-107481825D01*
X117906314Y-107481824D01*
X117906313Y-107481821D01*
X117889883Y-107315000D01*
X117906313Y-107148179D01*
X117909287Y-107138375D01*
X117954975Y-106987761D01*
X117954976Y-106987759D01*
X117954977Y-106987756D01*
X118033995Y-106839922D01*
X118140341Y-106710341D01*
X118269922Y-106603995D01*
X118417756Y-106524977D01*
X118417759Y-106524976D01*
X118417761Y-106524975D01*
X118578175Y-106476314D01*
X118578176Y-106476314D01*
X118578179Y-106476313D01*
X118703196Y-106464000D01*
X118786804Y-106464000D01*
X118911821Y-106476313D01*
X118911821Y-106476313D01*
G37*
G36*
X115101821Y-106476313D02*
X115101824Y-106476314D01*
X115101825Y-106476314D01*
X115262239Y-106524975D01*
X115262241Y-106524976D01*
X115262244Y-106524977D01*
X115410078Y-106603995D01*
X115539659Y-106710341D01*
X115646005Y-106839922D01*
X115725023Y-106987756D01*
X115725024Y-106987759D01*
X115725025Y-106987761D01*
X115770713Y-107138375D01*
X115773687Y-107148179D01*
X115790117Y-107315000D01*
X115773687Y-107481821D01*
X115773686Y-107481824D01*
X115773686Y-107481825D01*
X115770713Y-107491627D01*
X115725023Y-107642244D01*
X115646005Y-107790078D01*
X115539659Y-107919659D01*
X115410078Y-108026005D01*
X115262244Y-108105023D01*
X115262241Y-108105024D01*
X115262239Y-108105025D01*
X115101825Y-108153686D01*
X115101824Y-108153686D01*
X115101821Y-108153687D01*
X114976804Y-108166000D01*
X114893196Y-108166000D01*
X114768179Y-108153687D01*
X114768176Y-108153686D01*
X114768175Y-108153686D01*
X114607761Y-108105025D01*
X114607759Y-108105024D01*
X114607756Y-108105023D01*
X114459922Y-108026005D01*
X114330341Y-107919659D01*
X114223995Y-107790078D01*
X114144977Y-107642244D01*
X114099288Y-107491627D01*
X114096314Y-107481825D01*
X114096314Y-107481824D01*
X114096313Y-107481821D01*
X114079883Y-107315000D01*
X114096313Y-107148179D01*
X114099287Y-107138375D01*
X114144975Y-106987761D01*
X114144976Y-106987759D01*
X114144977Y-106987756D01*
X114223995Y-106839922D01*
X114330341Y-106710341D01*
X114459922Y-106603995D01*
X114607756Y-106524977D01*
X114607759Y-106524976D01*
X114607761Y-106524975D01*
X114768175Y-106476314D01*
X114768176Y-106476314D01*
X114768179Y-106476313D01*
X114893196Y-106464000D01*
X114976804Y-106464000D01*
X115101821Y-106476313D01*
X115101821Y-106476313D01*
G37*
G36*
X107481821Y-106476313D02*
X107481824Y-106476314D01*
X107481825Y-106476314D01*
X107642239Y-106524975D01*
X107642241Y-106524976D01*
X107642244Y-106524977D01*
X107790078Y-106603995D01*
X107919659Y-106710341D01*
X108026005Y-106839922D01*
X108105023Y-106987756D01*
X108105024Y-106987759D01*
X108105025Y-106987761D01*
X108150713Y-107138375D01*
X108153687Y-107148179D01*
X108170117Y-107315000D01*
X108153687Y-107481821D01*
X108153686Y-107481824D01*
X108153686Y-107481825D01*
X108150713Y-107491627D01*
X108105023Y-107642244D01*
X108026005Y-107790078D01*
X107919659Y-107919659D01*
X107790078Y-108026005D01*
X107642244Y-108105023D01*
X107642241Y-108105024D01*
X107642239Y-108105025D01*
X107481825Y-108153686D01*
X107481824Y-108153686D01*
X107481821Y-108153687D01*
X107356804Y-108166000D01*
X107273196Y-108166000D01*
X107148179Y-108153687D01*
X107148176Y-108153686D01*
X107148175Y-108153686D01*
X106987761Y-108105025D01*
X106987759Y-108105024D01*
X106987756Y-108105023D01*
X106839922Y-108026005D01*
X106710341Y-107919659D01*
X106603995Y-107790078D01*
X106524977Y-107642244D01*
X106479288Y-107491627D01*
X106476314Y-107481825D01*
X106476314Y-107481824D01*
X106476313Y-107481821D01*
X106459883Y-107315000D01*
X106476313Y-107148179D01*
X106479287Y-107138375D01*
X106524975Y-106987761D01*
X106524976Y-106987759D01*
X106524977Y-106987756D01*
X106603995Y-106839922D01*
X106710341Y-106710341D01*
X106839922Y-106603995D01*
X106987756Y-106524977D01*
X106987759Y-106524976D01*
X106987761Y-106524975D01*
X107148175Y-106476314D01*
X107148176Y-106476314D01*
X107148179Y-106476313D01*
X107273196Y-106464000D01*
X107356804Y-106464000D01*
X107481821Y-106476313D01*
X107481821Y-106476313D01*
G37*
G36*
X102345443Y-105150519D02*
X102411627Y-105157037D01*
X102524853Y-105191384D01*
X102581467Y-105208557D01*
X102659146Y-105250078D01*
X102737991Y-105292222D01*
X102773729Y-105321552D01*
X102875186Y-105404814D01*
X102958448Y-105506271D01*
X102987778Y-105542009D01*
X102987779Y-105542011D01*
X103071443Y-105698533D01*
X103071443Y-105698534D01*
X103122963Y-105868373D01*
X103140359Y-106045000D01*
X103122963Y-106221627D01*
X103088616Y-106334853D01*
X103071443Y-106391467D01*
X103024892Y-106478557D01*
X102987778Y-106547991D01*
X102958448Y-106583729D01*
X102875186Y-106685186D01*
X102773729Y-106768448D01*
X102737991Y-106797778D01*
X102737989Y-106797779D01*
X102581467Y-106881443D01*
X102524853Y-106898616D01*
X102411627Y-106932963D01*
X102345442Y-106939482D01*
X102279260Y-106946000D01*
X102190740Y-106946000D01*
X102124558Y-106939482D01*
X102058373Y-106932963D01*
X101945147Y-106898616D01*
X101888533Y-106881443D01*
X101732011Y-106797779D01*
X101732009Y-106797778D01*
X101696271Y-106768448D01*
X101594814Y-106685186D01*
X101511552Y-106583729D01*
X101482222Y-106547991D01*
X101445108Y-106478557D01*
X101398557Y-106391467D01*
X101381384Y-106334853D01*
X101347037Y-106221627D01*
X101329641Y-106045000D01*
X101347037Y-105868373D01*
X101398557Y-105698534D01*
X101398557Y-105698533D01*
X101482221Y-105542011D01*
X101482222Y-105542009D01*
X101511552Y-105506271D01*
X101594814Y-105404814D01*
X101696271Y-105321552D01*
X101732009Y-105292222D01*
X101810854Y-105250078D01*
X101888533Y-105208557D01*
X101945147Y-105191384D01*
X102058373Y-105157037D01*
X102124558Y-105150518D01*
X102190740Y-105144000D01*
X102279260Y-105144000D01*
X102345443Y-105150519D01*
X102345443Y-105150519D01*
G37*
G36*
X131555443Y-105150519D02*
X131621627Y-105157037D01*
X131734853Y-105191384D01*
X131791467Y-105208557D01*
X131869146Y-105250078D01*
X131947991Y-105292222D01*
X131983729Y-105321552D01*
X132085186Y-105404814D01*
X132168448Y-105506271D01*
X132197778Y-105542009D01*
X132197779Y-105542011D01*
X132281443Y-105698533D01*
X132281443Y-105698534D01*
X132332963Y-105868373D01*
X132350359Y-106045000D01*
X132332963Y-106221627D01*
X132298616Y-106334853D01*
X132281443Y-106391467D01*
X132234892Y-106478557D01*
X132197778Y-106547991D01*
X132168448Y-106583729D01*
X132085186Y-106685186D01*
X131983729Y-106768448D01*
X131947991Y-106797778D01*
X131947989Y-106797779D01*
X131791467Y-106881443D01*
X131734853Y-106898616D01*
X131621627Y-106932963D01*
X131555442Y-106939482D01*
X131489260Y-106946000D01*
X131400740Y-106946000D01*
X131334558Y-106939482D01*
X131268373Y-106932963D01*
X131155147Y-106898616D01*
X131098533Y-106881443D01*
X130942011Y-106797779D01*
X130942009Y-106797778D01*
X130906271Y-106768448D01*
X130804814Y-106685186D01*
X130721552Y-106583729D01*
X130692222Y-106547991D01*
X130655108Y-106478557D01*
X130608557Y-106391467D01*
X130591384Y-106334853D01*
X130557037Y-106221627D01*
X130539641Y-106045000D01*
X130557037Y-105868373D01*
X130608557Y-105698534D01*
X130608557Y-105698533D01*
X130692221Y-105542011D01*
X130692222Y-105542009D01*
X130721552Y-105506271D01*
X130804814Y-105404814D01*
X130906271Y-105321552D01*
X130942009Y-105292222D01*
X131020854Y-105250078D01*
X131098533Y-105208557D01*
X131155147Y-105191384D01*
X131268373Y-105157037D01*
X131334558Y-105150518D01*
X131400740Y-105144000D01*
X131489260Y-105144000D01*
X131555443Y-105150519D01*
X131555443Y-105150519D01*
G37*
G36*
X137270443Y-103880519D02*
X137336627Y-103887037D01*
X137449853Y-103921384D01*
X137506467Y-103938557D01*
X137593311Y-103984977D01*
X137662991Y-104022222D01*
X137698729Y-104051552D01*
X137800186Y-104134814D01*
X137883448Y-104236271D01*
X137912778Y-104272009D01*
X137912779Y-104272011D01*
X137996443Y-104428533D01*
X138013616Y-104485147D01*
X138047963Y-104598373D01*
X138065359Y-104775000D01*
X138047963Y-104951627D01*
X138013616Y-105064853D01*
X137996443Y-105121467D01*
X137977430Y-105157037D01*
X137912778Y-105277991D01*
X137883448Y-105313729D01*
X137800186Y-105415186D01*
X137698729Y-105498448D01*
X137662991Y-105527778D01*
X137662989Y-105527779D01*
X137506467Y-105611443D01*
X137499069Y-105613687D01*
X137336627Y-105662963D01*
X137270443Y-105669481D01*
X137204260Y-105676000D01*
X137115740Y-105676000D01*
X137049557Y-105669481D01*
X136983373Y-105662963D01*
X136820931Y-105613687D01*
X136813533Y-105611443D01*
X136657011Y-105527779D01*
X136657009Y-105527778D01*
X136621271Y-105498448D01*
X136519814Y-105415186D01*
X136436552Y-105313729D01*
X136407222Y-105277991D01*
X136342570Y-105157037D01*
X136323557Y-105121467D01*
X136306384Y-105064853D01*
X136272037Y-104951627D01*
X136254641Y-104775000D01*
X136272037Y-104598373D01*
X136306384Y-104485147D01*
X136323557Y-104428533D01*
X136407221Y-104272011D01*
X136407222Y-104272009D01*
X136436552Y-104236271D01*
X136519814Y-104134814D01*
X136621271Y-104051552D01*
X136657009Y-104022222D01*
X136726689Y-103984977D01*
X136813533Y-103938557D01*
X136870147Y-103921384D01*
X136983373Y-103887037D01*
X137049557Y-103880519D01*
X137115740Y-103874000D01*
X137204260Y-103874000D01*
X137270443Y-103880519D01*
X137270443Y-103880519D01*
G37*
G36*
X96630443Y-103880519D02*
X96696627Y-103887037D01*
X96809853Y-103921384D01*
X96866467Y-103938557D01*
X96953311Y-103984977D01*
X97022991Y-104022222D01*
X97058729Y-104051552D01*
X97160186Y-104134814D01*
X97243448Y-104236271D01*
X97272778Y-104272009D01*
X97272779Y-104272011D01*
X97356443Y-104428533D01*
X97373616Y-104485147D01*
X97407963Y-104598373D01*
X97425359Y-104775000D01*
X97407963Y-104951627D01*
X97373616Y-105064853D01*
X97356443Y-105121467D01*
X97337430Y-105157037D01*
X97272778Y-105277991D01*
X97243448Y-105313729D01*
X97160186Y-105415186D01*
X97058729Y-105498448D01*
X97022991Y-105527778D01*
X97022989Y-105527779D01*
X96866467Y-105611443D01*
X96859069Y-105613687D01*
X96696627Y-105662963D01*
X96630443Y-105669481D01*
X96564260Y-105676000D01*
X96475740Y-105676000D01*
X96409557Y-105669481D01*
X96343373Y-105662963D01*
X96180931Y-105613687D01*
X96173533Y-105611443D01*
X96017011Y-105527779D01*
X96017009Y-105527778D01*
X95981271Y-105498448D01*
X95879814Y-105415186D01*
X95796552Y-105313729D01*
X95767222Y-105277991D01*
X95702570Y-105157037D01*
X95683557Y-105121467D01*
X95666384Y-105064853D01*
X95632037Y-104951627D01*
X95614641Y-104775000D01*
X95632037Y-104598373D01*
X95666384Y-104485147D01*
X95683557Y-104428533D01*
X95767221Y-104272011D01*
X95767222Y-104272009D01*
X95796552Y-104236271D01*
X95879814Y-104134814D01*
X95981271Y-104051552D01*
X96017009Y-104022222D01*
X96086689Y-103984977D01*
X96173533Y-103938557D01*
X96230147Y-103921384D01*
X96343373Y-103887037D01*
X96409557Y-103880519D01*
X96475740Y-103874000D01*
X96564260Y-103874000D01*
X96630443Y-103880519D01*
X96630443Y-103880519D01*
G37*
G36*
X126531821Y-103936313D02*
X126531824Y-103936314D01*
X126531825Y-103936314D01*
X126692239Y-103984975D01*
X126692241Y-103984976D01*
X126692244Y-103984977D01*
X126840078Y-104063995D01*
X126969659Y-104170341D01*
X127076005Y-104299922D01*
X127155023Y-104447756D01*
X127155024Y-104447759D01*
X127155025Y-104447761D01*
X127200713Y-104598375D01*
X127203687Y-104608179D01*
X127220117Y-104775000D01*
X127203687Y-104941821D01*
X127203686Y-104941824D01*
X127203686Y-104941825D01*
X127200713Y-104951627D01*
X127155023Y-105102244D01*
X127076005Y-105250078D01*
X126969659Y-105379659D01*
X126840078Y-105486005D01*
X126692244Y-105565023D01*
X126692241Y-105565024D01*
X126692239Y-105565025D01*
X126531825Y-105613686D01*
X126531824Y-105613686D01*
X126531821Y-105613687D01*
X126406804Y-105626000D01*
X126323196Y-105626000D01*
X126198179Y-105613687D01*
X126198176Y-105613686D01*
X126198175Y-105613686D01*
X126037761Y-105565025D01*
X126037759Y-105565024D01*
X126037756Y-105565023D01*
X125889922Y-105486005D01*
X125760341Y-105379659D01*
X125653995Y-105250078D01*
X125574977Y-105102244D01*
X125529288Y-104951627D01*
X125526314Y-104941825D01*
X125526314Y-104941824D01*
X125526313Y-104941821D01*
X125509883Y-104775000D01*
X125526313Y-104608179D01*
X125529287Y-104598375D01*
X125574975Y-104447761D01*
X125574976Y-104447759D01*
X125574977Y-104447756D01*
X125653995Y-104299922D01*
X125760341Y-104170341D01*
X125889922Y-104063995D01*
X126037756Y-103984977D01*
X126037759Y-103984976D01*
X126037761Y-103984975D01*
X126198175Y-103936314D01*
X126198176Y-103936314D01*
X126198179Y-103936313D01*
X126323196Y-103924000D01*
X126406804Y-103924000D01*
X126531821Y-103936313D01*
X126531821Y-103936313D01*
G37*
G36*
X118911821Y-103936313D02*
X118911824Y-103936314D01*
X118911825Y-103936314D01*
X119072239Y-103984975D01*
X119072241Y-103984976D01*
X119072244Y-103984977D01*
X119220078Y-104063995D01*
X119349659Y-104170341D01*
X119456005Y-104299922D01*
X119535023Y-104447756D01*
X119535024Y-104447759D01*
X119535025Y-104447761D01*
X119580713Y-104598375D01*
X119583687Y-104608179D01*
X119600117Y-104775000D01*
X119583687Y-104941821D01*
X119583686Y-104941824D01*
X119583686Y-104941825D01*
X119580713Y-104951627D01*
X119535023Y-105102244D01*
X119456005Y-105250078D01*
X119349659Y-105379659D01*
X119220078Y-105486005D01*
X119072244Y-105565023D01*
X119072241Y-105565024D01*
X119072239Y-105565025D01*
X118911825Y-105613686D01*
X118911824Y-105613686D01*
X118911821Y-105613687D01*
X118786804Y-105626000D01*
X118703196Y-105626000D01*
X118578179Y-105613687D01*
X118578176Y-105613686D01*
X118578175Y-105613686D01*
X118417761Y-105565025D01*
X118417759Y-105565024D01*
X118417756Y-105565023D01*
X118269922Y-105486005D01*
X118140341Y-105379659D01*
X118033995Y-105250078D01*
X117954977Y-105102244D01*
X117909288Y-104951627D01*
X117906314Y-104941825D01*
X117906314Y-104941824D01*
X117906313Y-104941821D01*
X117889883Y-104775000D01*
X117906313Y-104608179D01*
X117909287Y-104598375D01*
X117954975Y-104447761D01*
X117954976Y-104447759D01*
X117954977Y-104447756D01*
X118033995Y-104299922D01*
X118140341Y-104170341D01*
X118269922Y-104063995D01*
X118417756Y-103984977D01*
X118417759Y-103984976D01*
X118417761Y-103984975D01*
X118578175Y-103936314D01*
X118578176Y-103936314D01*
X118578179Y-103936313D01*
X118703196Y-103924000D01*
X118786804Y-103924000D01*
X118911821Y-103936313D01*
X118911821Y-103936313D01*
G37*
G36*
X107481821Y-103936313D02*
X107481824Y-103936314D01*
X107481825Y-103936314D01*
X107642239Y-103984975D01*
X107642241Y-103984976D01*
X107642244Y-103984977D01*
X107790078Y-104063995D01*
X107919659Y-104170341D01*
X108026005Y-104299922D01*
X108105023Y-104447756D01*
X108105024Y-104447759D01*
X108105025Y-104447761D01*
X108150713Y-104598375D01*
X108153687Y-104608179D01*
X108170117Y-104775000D01*
X108153687Y-104941821D01*
X108153686Y-104941824D01*
X108153686Y-104941825D01*
X108150713Y-104951627D01*
X108105023Y-105102244D01*
X108026005Y-105250078D01*
X107919659Y-105379659D01*
X107790078Y-105486005D01*
X107642244Y-105565023D01*
X107642241Y-105565024D01*
X107642239Y-105565025D01*
X107481825Y-105613686D01*
X107481824Y-105613686D01*
X107481821Y-105613687D01*
X107356804Y-105626000D01*
X107273196Y-105626000D01*
X107148179Y-105613687D01*
X107148176Y-105613686D01*
X107148175Y-105613686D01*
X106987761Y-105565025D01*
X106987759Y-105565024D01*
X106987756Y-105565023D01*
X106839922Y-105486005D01*
X106710341Y-105379659D01*
X106603995Y-105250078D01*
X106524977Y-105102244D01*
X106479288Y-104951627D01*
X106476314Y-104941825D01*
X106476314Y-104941824D01*
X106476313Y-104941821D01*
X106459883Y-104775000D01*
X106476313Y-104608179D01*
X106479287Y-104598375D01*
X106524975Y-104447761D01*
X106524976Y-104447759D01*
X106524977Y-104447756D01*
X106603995Y-104299922D01*
X106710341Y-104170341D01*
X106839922Y-104063995D01*
X106987756Y-103984977D01*
X106987759Y-103984976D01*
X106987761Y-103984975D01*
X107148175Y-103936314D01*
X107148176Y-103936314D01*
X107148179Y-103936313D01*
X107273196Y-103924000D01*
X107356804Y-103924000D01*
X107481821Y-103936313D01*
X107481821Y-103936313D01*
G37*
G36*
X115101821Y-103936313D02*
X115101824Y-103936314D01*
X115101825Y-103936314D01*
X115262239Y-103984975D01*
X115262241Y-103984976D01*
X115262244Y-103984977D01*
X115410078Y-104063995D01*
X115539659Y-104170341D01*
X115646005Y-104299922D01*
X115725023Y-104447756D01*
X115725024Y-104447759D01*
X115725025Y-104447761D01*
X115770713Y-104598375D01*
X115773687Y-104608179D01*
X115790117Y-104775000D01*
X115773687Y-104941821D01*
X115773686Y-104941824D01*
X115773686Y-104941825D01*
X115770713Y-104951627D01*
X115725023Y-105102244D01*
X115646005Y-105250078D01*
X115539659Y-105379659D01*
X115410078Y-105486005D01*
X115262244Y-105565023D01*
X115262241Y-105565024D01*
X115262239Y-105565025D01*
X115101825Y-105613686D01*
X115101824Y-105613686D01*
X115101821Y-105613687D01*
X114976804Y-105626000D01*
X114893196Y-105626000D01*
X114768179Y-105613687D01*
X114768176Y-105613686D01*
X114768175Y-105613686D01*
X114607761Y-105565025D01*
X114607759Y-105565024D01*
X114607756Y-105565023D01*
X114459922Y-105486005D01*
X114330341Y-105379659D01*
X114223995Y-105250078D01*
X114144977Y-105102244D01*
X114099288Y-104951627D01*
X114096314Y-104941825D01*
X114096314Y-104941824D01*
X114096313Y-104941821D01*
X114079883Y-104775000D01*
X114096313Y-104608179D01*
X114099287Y-104598375D01*
X114144975Y-104447761D01*
X114144976Y-104447759D01*
X114144977Y-104447756D01*
X114223995Y-104299922D01*
X114330341Y-104170341D01*
X114459922Y-104063995D01*
X114607756Y-103984977D01*
X114607759Y-103984976D01*
X114607761Y-103984975D01*
X114768175Y-103936314D01*
X114768176Y-103936314D01*
X114768179Y-103936313D01*
X114893196Y-103924000D01*
X114976804Y-103924000D01*
X115101821Y-103936313D01*
X115101821Y-103936313D01*
G37*
G36*
X102345442Y-102610518D02*
X102411627Y-102617037D01*
X102524853Y-102651384D01*
X102581467Y-102668557D01*
X102659146Y-102710078D01*
X102737991Y-102752222D01*
X102773729Y-102781552D01*
X102875186Y-102864814D01*
X102958448Y-102966271D01*
X102987778Y-103002009D01*
X102987779Y-103002011D01*
X103071443Y-103158533D01*
X103071443Y-103158534D01*
X103122963Y-103328373D01*
X103140359Y-103505000D01*
X103122963Y-103681627D01*
X103088616Y-103794853D01*
X103071443Y-103851467D01*
X103024892Y-103938557D01*
X102987778Y-104007991D01*
X102958448Y-104043729D01*
X102875186Y-104145186D01*
X102773729Y-104228448D01*
X102737991Y-104257778D01*
X102737989Y-104257779D01*
X102581467Y-104341443D01*
X102524853Y-104358616D01*
X102411627Y-104392963D01*
X102345442Y-104399482D01*
X102279260Y-104406000D01*
X102190740Y-104406000D01*
X102124558Y-104399482D01*
X102058373Y-104392963D01*
X101945147Y-104358616D01*
X101888533Y-104341443D01*
X101732011Y-104257779D01*
X101732009Y-104257778D01*
X101696271Y-104228448D01*
X101594814Y-104145186D01*
X101511552Y-104043729D01*
X101482222Y-104007991D01*
X101445108Y-103938557D01*
X101398557Y-103851467D01*
X101381384Y-103794853D01*
X101347037Y-103681627D01*
X101329641Y-103505000D01*
X101347037Y-103328373D01*
X101398557Y-103158534D01*
X101398557Y-103158533D01*
X101482221Y-103002011D01*
X101482222Y-103002009D01*
X101511552Y-102966271D01*
X101594814Y-102864814D01*
X101696271Y-102781552D01*
X101732009Y-102752222D01*
X101810854Y-102710078D01*
X101888533Y-102668557D01*
X101945147Y-102651384D01*
X102058373Y-102617037D01*
X102124558Y-102610518D01*
X102190740Y-102604000D01*
X102279260Y-102604000D01*
X102345442Y-102610518D01*
X102345442Y-102610518D01*
G37*
G36*
X131555442Y-102610518D02*
X131621627Y-102617037D01*
X131734853Y-102651384D01*
X131791467Y-102668557D01*
X131869146Y-102710078D01*
X131947991Y-102752222D01*
X131983729Y-102781552D01*
X132085186Y-102864814D01*
X132168448Y-102966271D01*
X132197778Y-103002009D01*
X132197779Y-103002011D01*
X132281443Y-103158533D01*
X132281443Y-103158534D01*
X132332963Y-103328373D01*
X132350359Y-103505000D01*
X132332963Y-103681627D01*
X132298616Y-103794853D01*
X132281443Y-103851467D01*
X132234892Y-103938557D01*
X132197778Y-104007991D01*
X132168448Y-104043729D01*
X132085186Y-104145186D01*
X131983729Y-104228448D01*
X131947991Y-104257778D01*
X131947989Y-104257779D01*
X131791467Y-104341443D01*
X131734853Y-104358616D01*
X131621627Y-104392963D01*
X131555442Y-104399482D01*
X131489260Y-104406000D01*
X131400740Y-104406000D01*
X131334558Y-104399482D01*
X131268373Y-104392963D01*
X131155147Y-104358616D01*
X131098533Y-104341443D01*
X130942011Y-104257779D01*
X130942009Y-104257778D01*
X130906271Y-104228448D01*
X130804814Y-104145186D01*
X130721552Y-104043729D01*
X130692222Y-104007991D01*
X130655108Y-103938557D01*
X130608557Y-103851467D01*
X130591384Y-103794853D01*
X130557037Y-103681627D01*
X130539641Y-103505000D01*
X130557037Y-103328373D01*
X130608557Y-103158534D01*
X130608557Y-103158533D01*
X130692221Y-103002011D01*
X130692222Y-103002009D01*
X130721552Y-102966271D01*
X130804814Y-102864814D01*
X130906271Y-102781552D01*
X130942009Y-102752222D01*
X131020854Y-102710078D01*
X131098533Y-102668557D01*
X131155147Y-102651384D01*
X131268373Y-102617037D01*
X131334558Y-102610518D01*
X131400740Y-102604000D01*
X131489260Y-102604000D01*
X131555442Y-102610518D01*
X131555442Y-102610518D01*
G37*
G36*
X137270442Y-101340518D02*
X137336627Y-101347037D01*
X137449853Y-101381384D01*
X137506467Y-101398557D01*
X137593311Y-101444977D01*
X137662991Y-101482222D01*
X137698729Y-101511552D01*
X137800186Y-101594814D01*
X137883448Y-101696271D01*
X137912778Y-101732009D01*
X137912779Y-101732011D01*
X137996443Y-101888533D01*
X138013616Y-101945147D01*
X138047963Y-102058373D01*
X138065359Y-102235000D01*
X138047963Y-102411627D01*
X138013616Y-102524853D01*
X137996443Y-102581467D01*
X137977430Y-102617037D01*
X137912778Y-102737991D01*
X137883448Y-102773729D01*
X137800186Y-102875186D01*
X137698729Y-102958448D01*
X137662991Y-102987778D01*
X137662989Y-102987779D01*
X137506467Y-103071443D01*
X137499069Y-103073687D01*
X137336627Y-103122963D01*
X137270442Y-103129482D01*
X137204260Y-103136000D01*
X137115740Y-103136000D01*
X137049558Y-103129482D01*
X136983373Y-103122963D01*
X136820931Y-103073687D01*
X136813533Y-103071443D01*
X136657011Y-102987779D01*
X136657009Y-102987778D01*
X136621271Y-102958448D01*
X136519814Y-102875186D01*
X136436552Y-102773729D01*
X136407222Y-102737991D01*
X136342570Y-102617037D01*
X136323557Y-102581467D01*
X136306384Y-102524853D01*
X136272037Y-102411627D01*
X136254641Y-102235000D01*
X136272037Y-102058373D01*
X136306384Y-101945147D01*
X136323557Y-101888533D01*
X136407221Y-101732011D01*
X136407222Y-101732009D01*
X136436552Y-101696271D01*
X136519814Y-101594814D01*
X136621271Y-101511552D01*
X136657009Y-101482222D01*
X136726689Y-101444977D01*
X136813533Y-101398557D01*
X136870147Y-101381384D01*
X136983373Y-101347037D01*
X137049558Y-101340518D01*
X137115740Y-101334000D01*
X137204260Y-101334000D01*
X137270442Y-101340518D01*
X137270442Y-101340518D01*
G37*
G36*
X96630442Y-101340518D02*
X96696627Y-101347037D01*
X96809853Y-101381384D01*
X96866467Y-101398557D01*
X96953311Y-101444977D01*
X97022991Y-101482222D01*
X97058729Y-101511552D01*
X97160186Y-101594814D01*
X97243448Y-101696271D01*
X97272778Y-101732009D01*
X97272779Y-101732011D01*
X97356443Y-101888533D01*
X97373616Y-101945147D01*
X97407963Y-102058373D01*
X97425359Y-102235000D01*
X97407963Y-102411627D01*
X97373616Y-102524853D01*
X97356443Y-102581467D01*
X97337430Y-102617037D01*
X97272778Y-102737991D01*
X97243448Y-102773729D01*
X97160186Y-102875186D01*
X97058729Y-102958448D01*
X97022991Y-102987778D01*
X97022989Y-102987779D01*
X96866467Y-103071443D01*
X96859069Y-103073687D01*
X96696627Y-103122963D01*
X96630442Y-103129482D01*
X96564260Y-103136000D01*
X96475740Y-103136000D01*
X96409558Y-103129482D01*
X96343373Y-103122963D01*
X96180931Y-103073687D01*
X96173533Y-103071443D01*
X96017011Y-102987779D01*
X96017009Y-102987778D01*
X95981271Y-102958448D01*
X95879814Y-102875186D01*
X95796552Y-102773729D01*
X95767222Y-102737991D01*
X95702570Y-102617037D01*
X95683557Y-102581467D01*
X95666384Y-102524853D01*
X95632037Y-102411627D01*
X95614641Y-102235000D01*
X95632037Y-102058373D01*
X95666384Y-101945147D01*
X95683557Y-101888533D01*
X95767221Y-101732011D01*
X95767222Y-101732009D01*
X95796552Y-101696271D01*
X95879814Y-101594814D01*
X95981271Y-101511552D01*
X96017009Y-101482222D01*
X96086689Y-101444977D01*
X96173533Y-101398557D01*
X96230147Y-101381384D01*
X96343373Y-101347037D01*
X96409558Y-101340518D01*
X96475740Y-101334000D01*
X96564260Y-101334000D01*
X96630442Y-101340518D01*
X96630442Y-101340518D01*
G37*
G36*
X126531821Y-101396313D02*
X126531824Y-101396314D01*
X126531825Y-101396314D01*
X126692239Y-101444975D01*
X126692241Y-101444976D01*
X126692244Y-101444977D01*
X126840078Y-101523995D01*
X126969659Y-101630341D01*
X127076005Y-101759922D01*
X127155023Y-101907756D01*
X127155024Y-101907759D01*
X127155025Y-101907761D01*
X127200713Y-102058375D01*
X127203687Y-102068179D01*
X127220117Y-102235000D01*
X127203687Y-102401821D01*
X127203686Y-102401824D01*
X127203686Y-102401825D01*
X127200713Y-102411627D01*
X127155023Y-102562244D01*
X127076005Y-102710078D01*
X126969659Y-102839659D01*
X126840078Y-102946005D01*
X126692244Y-103025023D01*
X126692241Y-103025024D01*
X126692239Y-103025025D01*
X126531825Y-103073686D01*
X126531824Y-103073686D01*
X126531821Y-103073687D01*
X126406804Y-103086000D01*
X126323196Y-103086000D01*
X126198179Y-103073687D01*
X126198176Y-103073686D01*
X126198175Y-103073686D01*
X126037761Y-103025025D01*
X126037759Y-103025024D01*
X126037756Y-103025023D01*
X125889922Y-102946005D01*
X125760341Y-102839659D01*
X125653995Y-102710078D01*
X125574977Y-102562244D01*
X125529288Y-102411627D01*
X125526314Y-102401825D01*
X125526314Y-102401824D01*
X125526313Y-102401821D01*
X125509883Y-102235000D01*
X125526313Y-102068179D01*
X125529287Y-102058375D01*
X125574975Y-101907761D01*
X125574976Y-101907759D01*
X125574977Y-101907756D01*
X125653995Y-101759922D01*
X125760341Y-101630341D01*
X125889922Y-101523995D01*
X126037756Y-101444977D01*
X126037759Y-101444976D01*
X126037761Y-101444975D01*
X126198175Y-101396314D01*
X126198176Y-101396314D01*
X126198179Y-101396313D01*
X126323196Y-101384000D01*
X126406804Y-101384000D01*
X126531821Y-101396313D01*
X126531821Y-101396313D01*
G37*
G36*
X115101821Y-101396313D02*
X115101824Y-101396314D01*
X115101825Y-101396314D01*
X115262239Y-101444975D01*
X115262241Y-101444976D01*
X115262244Y-101444977D01*
X115410078Y-101523995D01*
X115539659Y-101630341D01*
X115646005Y-101759922D01*
X115725023Y-101907756D01*
X115725024Y-101907759D01*
X115725025Y-101907761D01*
X115770713Y-102058375D01*
X115773687Y-102068179D01*
X115790117Y-102235000D01*
X115773687Y-102401821D01*
X115773686Y-102401824D01*
X115773686Y-102401825D01*
X115770713Y-102411627D01*
X115725023Y-102562244D01*
X115646005Y-102710078D01*
X115539659Y-102839659D01*
X115410078Y-102946005D01*
X115262244Y-103025023D01*
X115262241Y-103025024D01*
X115262239Y-103025025D01*
X115101825Y-103073686D01*
X115101824Y-103073686D01*
X115101821Y-103073687D01*
X114976804Y-103086000D01*
X114893196Y-103086000D01*
X114768179Y-103073687D01*
X114768176Y-103073686D01*
X114768175Y-103073686D01*
X114607761Y-103025025D01*
X114607759Y-103025024D01*
X114607756Y-103025023D01*
X114459922Y-102946005D01*
X114330341Y-102839659D01*
X114223995Y-102710078D01*
X114144977Y-102562244D01*
X114099288Y-102411627D01*
X114096314Y-102401825D01*
X114096314Y-102401824D01*
X114096313Y-102401821D01*
X114079883Y-102235000D01*
X114096313Y-102068179D01*
X114099287Y-102058375D01*
X114144975Y-101907761D01*
X114144976Y-101907759D01*
X114144977Y-101907756D01*
X114223995Y-101759922D01*
X114330341Y-101630341D01*
X114459922Y-101523995D01*
X114607756Y-101444977D01*
X114607759Y-101444976D01*
X114607761Y-101444975D01*
X114768175Y-101396314D01*
X114768176Y-101396314D01*
X114768179Y-101396313D01*
X114893196Y-101384000D01*
X114976804Y-101384000D01*
X115101821Y-101396313D01*
X115101821Y-101396313D01*
G37*
G36*
X118911821Y-101396313D02*
X118911824Y-101396314D01*
X118911825Y-101396314D01*
X119072239Y-101444975D01*
X119072241Y-101444976D01*
X119072244Y-101444977D01*
X119220078Y-101523995D01*
X119349659Y-101630341D01*
X119456005Y-101759922D01*
X119535023Y-101907756D01*
X119535024Y-101907759D01*
X119535025Y-101907761D01*
X119580713Y-102058375D01*
X119583687Y-102068179D01*
X119600117Y-102235000D01*
X119583687Y-102401821D01*
X119583686Y-102401824D01*
X119583686Y-102401825D01*
X119580713Y-102411627D01*
X119535023Y-102562244D01*
X119456005Y-102710078D01*
X119349659Y-102839659D01*
X119220078Y-102946005D01*
X119072244Y-103025023D01*
X119072241Y-103025024D01*
X119072239Y-103025025D01*
X118911825Y-103073686D01*
X118911824Y-103073686D01*
X118911821Y-103073687D01*
X118786804Y-103086000D01*
X118703196Y-103086000D01*
X118578179Y-103073687D01*
X118578176Y-103073686D01*
X118578175Y-103073686D01*
X118417761Y-103025025D01*
X118417759Y-103025024D01*
X118417756Y-103025023D01*
X118269922Y-102946005D01*
X118140341Y-102839659D01*
X118033995Y-102710078D01*
X117954977Y-102562244D01*
X117909288Y-102411627D01*
X117906314Y-102401825D01*
X117906314Y-102401824D01*
X117906313Y-102401821D01*
X117889883Y-102235000D01*
X117906313Y-102068179D01*
X117909287Y-102058375D01*
X117954975Y-101907761D01*
X117954976Y-101907759D01*
X117954977Y-101907756D01*
X118033995Y-101759922D01*
X118140341Y-101630341D01*
X118269922Y-101523995D01*
X118417756Y-101444977D01*
X118417759Y-101444976D01*
X118417761Y-101444975D01*
X118578175Y-101396314D01*
X118578176Y-101396314D01*
X118578179Y-101396313D01*
X118703196Y-101384000D01*
X118786804Y-101384000D01*
X118911821Y-101396313D01*
X118911821Y-101396313D01*
G37*
G36*
X107481821Y-101396313D02*
X107481824Y-101396314D01*
X107481825Y-101396314D01*
X107642239Y-101444975D01*
X107642241Y-101444976D01*
X107642244Y-101444977D01*
X107790078Y-101523995D01*
X107919659Y-101630341D01*
X108026005Y-101759922D01*
X108105023Y-101907756D01*
X108105024Y-101907759D01*
X108105025Y-101907761D01*
X108150713Y-102058375D01*
X108153687Y-102068179D01*
X108170117Y-102235000D01*
X108153687Y-102401821D01*
X108153686Y-102401824D01*
X108153686Y-102401825D01*
X108150713Y-102411627D01*
X108105023Y-102562244D01*
X108026005Y-102710078D01*
X107919659Y-102839659D01*
X107790078Y-102946005D01*
X107642244Y-103025023D01*
X107642241Y-103025024D01*
X107642239Y-103025025D01*
X107481825Y-103073686D01*
X107481824Y-103073686D01*
X107481821Y-103073687D01*
X107356804Y-103086000D01*
X107273196Y-103086000D01*
X107148179Y-103073687D01*
X107148176Y-103073686D01*
X107148175Y-103073686D01*
X106987761Y-103025025D01*
X106987759Y-103025024D01*
X106987756Y-103025023D01*
X106839922Y-102946005D01*
X106710341Y-102839659D01*
X106603995Y-102710078D01*
X106524977Y-102562244D01*
X106479288Y-102411627D01*
X106476314Y-102401825D01*
X106476314Y-102401824D01*
X106476313Y-102401821D01*
X106459883Y-102235000D01*
X106476313Y-102068179D01*
X106479287Y-102058375D01*
X106524975Y-101907761D01*
X106524976Y-101907759D01*
X106524977Y-101907756D01*
X106603995Y-101759922D01*
X106710341Y-101630341D01*
X106839922Y-101523995D01*
X106987756Y-101444977D01*
X106987759Y-101444976D01*
X106987761Y-101444975D01*
X107148175Y-101396314D01*
X107148176Y-101396314D01*
X107148179Y-101396313D01*
X107273196Y-101384000D01*
X107356804Y-101384000D01*
X107481821Y-101396313D01*
X107481821Y-101396313D01*
G37*
G36*
X131555442Y-100070518D02*
X131621627Y-100077037D01*
X131734853Y-100111384D01*
X131791467Y-100128557D01*
X131869146Y-100170078D01*
X131947991Y-100212222D01*
X131983729Y-100241552D01*
X132085186Y-100324814D01*
X132168448Y-100426271D01*
X132197778Y-100462009D01*
X132197779Y-100462011D01*
X132281443Y-100618533D01*
X132281443Y-100618534D01*
X132332963Y-100788373D01*
X132350359Y-100965000D01*
X132332963Y-101141627D01*
X132298616Y-101254853D01*
X132281443Y-101311467D01*
X132234892Y-101398557D01*
X132197778Y-101467991D01*
X132168448Y-101503729D01*
X132085186Y-101605186D01*
X131983729Y-101688448D01*
X131947991Y-101717778D01*
X131947989Y-101717779D01*
X131791467Y-101801443D01*
X131734853Y-101818616D01*
X131621627Y-101852963D01*
X131555443Y-101859481D01*
X131489260Y-101866000D01*
X131400740Y-101866000D01*
X131334558Y-101859482D01*
X131268373Y-101852963D01*
X131155147Y-101818616D01*
X131098533Y-101801443D01*
X130942011Y-101717779D01*
X130942009Y-101717778D01*
X130906271Y-101688448D01*
X130804814Y-101605186D01*
X130721552Y-101503729D01*
X130692222Y-101467991D01*
X130655108Y-101398557D01*
X130608557Y-101311467D01*
X130591384Y-101254853D01*
X130557037Y-101141627D01*
X130539641Y-100965000D01*
X130557037Y-100788373D01*
X130608557Y-100618534D01*
X130608557Y-100618533D01*
X130692221Y-100462011D01*
X130692222Y-100462009D01*
X130721552Y-100426271D01*
X130804814Y-100324814D01*
X130906271Y-100241552D01*
X130942009Y-100212222D01*
X131020854Y-100170078D01*
X131098533Y-100128557D01*
X131155147Y-100111384D01*
X131268373Y-100077037D01*
X131334557Y-100070519D01*
X131400740Y-100064000D01*
X131489260Y-100064000D01*
X131555442Y-100070518D01*
X131555442Y-100070518D01*
G37*
G36*
X102345442Y-100070518D02*
X102411627Y-100077037D01*
X102524853Y-100111384D01*
X102581467Y-100128557D01*
X102659146Y-100170078D01*
X102737991Y-100212222D01*
X102773729Y-100241552D01*
X102875186Y-100324814D01*
X102958448Y-100426271D01*
X102987778Y-100462009D01*
X102987779Y-100462011D01*
X103071443Y-100618533D01*
X103071443Y-100618534D01*
X103122963Y-100788373D01*
X103140359Y-100965000D01*
X103122963Y-101141627D01*
X103088616Y-101254853D01*
X103071443Y-101311467D01*
X103024892Y-101398557D01*
X102987778Y-101467991D01*
X102958448Y-101503729D01*
X102875186Y-101605186D01*
X102773729Y-101688448D01*
X102737991Y-101717778D01*
X102737989Y-101717779D01*
X102581467Y-101801443D01*
X102524853Y-101818616D01*
X102411627Y-101852963D01*
X102345443Y-101859481D01*
X102279260Y-101866000D01*
X102190740Y-101866000D01*
X102124558Y-101859482D01*
X102058373Y-101852963D01*
X101945147Y-101818616D01*
X101888533Y-101801443D01*
X101732011Y-101717779D01*
X101732009Y-101717778D01*
X101696271Y-101688448D01*
X101594814Y-101605186D01*
X101511552Y-101503729D01*
X101482222Y-101467991D01*
X101445108Y-101398557D01*
X101398557Y-101311467D01*
X101381384Y-101254853D01*
X101347037Y-101141627D01*
X101329641Y-100965000D01*
X101347037Y-100788373D01*
X101398557Y-100618534D01*
X101398557Y-100618533D01*
X101482221Y-100462011D01*
X101482222Y-100462009D01*
X101511552Y-100426271D01*
X101594814Y-100324814D01*
X101696271Y-100241552D01*
X101732009Y-100212222D01*
X101810854Y-100170078D01*
X101888533Y-100128557D01*
X101945147Y-100111384D01*
X102058373Y-100077037D01*
X102124557Y-100070519D01*
X102190740Y-100064000D01*
X102279260Y-100064000D01*
X102345442Y-100070518D01*
X102345442Y-100070518D01*
G37*
G36*
X138061000Y-100596000D02*
X136259000Y-100596000D01*
X136259000Y-98794000D01*
X138061000Y-98794000D01*
X138061000Y-100596000D01*
X138061000Y-100596000D01*
G37*
G36*
X97421000Y-100596000D02*
X95619000Y-100596000D01*
X95619000Y-98794000D01*
X97421000Y-98794000D01*
X97421000Y-100596000D01*
X97421000Y-100596000D01*
G37*
G36*
X119596000Y-100546000D02*
X117894000Y-100546000D01*
X117894000Y-98844000D01*
X119596000Y-98844000D01*
X119596000Y-100546000D01*
X119596000Y-100546000D01*
G37*
G36*
X108166000Y-100546000D02*
X106464000Y-100546000D01*
X106464000Y-98844000D01*
X108166000Y-98844000D01*
X108166000Y-100546000D01*
X108166000Y-100546000D01*
G37*
G36*
X126531821Y-98856313D02*
X126531824Y-98856314D01*
X126531825Y-98856314D01*
X126692239Y-98904975D01*
X126692241Y-98904976D01*
X126692244Y-98904977D01*
X126840078Y-98983995D01*
X126969659Y-99090341D01*
X127076005Y-99219922D01*
X127155023Y-99367756D01*
X127203687Y-99528179D01*
X127220117Y-99695000D01*
X127203687Y-99861821D01*
X127155023Y-100022244D01*
X127076005Y-100170078D01*
X126969659Y-100299659D01*
X126840078Y-100406005D01*
X126692244Y-100485023D01*
X126692241Y-100485024D01*
X126692239Y-100485025D01*
X126531825Y-100533686D01*
X126531824Y-100533686D01*
X126531821Y-100533687D01*
X126406804Y-100546000D01*
X126323196Y-100546000D01*
X126198179Y-100533687D01*
X126198176Y-100533686D01*
X126198175Y-100533686D01*
X126037761Y-100485025D01*
X126037759Y-100485024D01*
X126037756Y-100485023D01*
X125889922Y-100406005D01*
X125760341Y-100299659D01*
X125653995Y-100170078D01*
X125574977Y-100022244D01*
X125526313Y-99861821D01*
X125509883Y-99695000D01*
X125526313Y-99528179D01*
X125574977Y-99367756D01*
X125653995Y-99219922D01*
X125760341Y-99090341D01*
X125889922Y-98983995D01*
X126037756Y-98904977D01*
X126037759Y-98904976D01*
X126037761Y-98904975D01*
X126198175Y-98856314D01*
X126198176Y-98856314D01*
X126198179Y-98856313D01*
X126323196Y-98844000D01*
X126406804Y-98844000D01*
X126531821Y-98856313D01*
X126531821Y-98856313D01*
G37*
G36*
X115101821Y-98856313D02*
X115101824Y-98856314D01*
X115101825Y-98856314D01*
X115262239Y-98904975D01*
X115262241Y-98904976D01*
X115262244Y-98904977D01*
X115410078Y-98983995D01*
X115539659Y-99090341D01*
X115646005Y-99219922D01*
X115725023Y-99367756D01*
X115773687Y-99528179D01*
X115790117Y-99695000D01*
X115773687Y-99861821D01*
X115725023Y-100022244D01*
X115646005Y-100170078D01*
X115539659Y-100299659D01*
X115410078Y-100406005D01*
X115262244Y-100485023D01*
X115262241Y-100485024D01*
X115262239Y-100485025D01*
X115101825Y-100533686D01*
X115101824Y-100533686D01*
X115101821Y-100533687D01*
X114976804Y-100546000D01*
X114893196Y-100546000D01*
X114768179Y-100533687D01*
X114768176Y-100533686D01*
X114768175Y-100533686D01*
X114607761Y-100485025D01*
X114607759Y-100485024D01*
X114607756Y-100485023D01*
X114459922Y-100406005D01*
X114330341Y-100299659D01*
X114223995Y-100170078D01*
X114144977Y-100022244D01*
X114096313Y-99861821D01*
X114079883Y-99695000D01*
X114096313Y-99528179D01*
X114144977Y-99367756D01*
X114223995Y-99219922D01*
X114330341Y-99090341D01*
X114459922Y-98983995D01*
X114607756Y-98904977D01*
X114607759Y-98904976D01*
X114607761Y-98904975D01*
X114768175Y-98856314D01*
X114768176Y-98856314D01*
X114768179Y-98856313D01*
X114893196Y-98844000D01*
X114976804Y-98844000D01*
X115101821Y-98856313D01*
X115101821Y-98856313D01*
G37*
G36*
X131555442Y-97530518D02*
X131621627Y-97537037D01*
X131734853Y-97571384D01*
X131791467Y-97588557D01*
X131930087Y-97662652D01*
X131947991Y-97672222D01*
X131983729Y-97701552D01*
X132085186Y-97784814D01*
X132168448Y-97886271D01*
X132197778Y-97922009D01*
X132197779Y-97922011D01*
X132281443Y-98078533D01*
X132281443Y-98078534D01*
X132332963Y-98248373D01*
X132350359Y-98425000D01*
X132332963Y-98601627D01*
X132298616Y-98714853D01*
X132281443Y-98771467D01*
X132210080Y-98904975D01*
X132197778Y-98927991D01*
X132168448Y-98963729D01*
X132085186Y-99065186D01*
X131983729Y-99148448D01*
X131947991Y-99177778D01*
X131947989Y-99177779D01*
X131791467Y-99261443D01*
X131734853Y-99278616D01*
X131621627Y-99312963D01*
X131555442Y-99319482D01*
X131489260Y-99326000D01*
X131400740Y-99326000D01*
X131334557Y-99319481D01*
X131268373Y-99312963D01*
X131155147Y-99278616D01*
X131098533Y-99261443D01*
X130942011Y-99177779D01*
X130942009Y-99177778D01*
X130906271Y-99148448D01*
X130804814Y-99065186D01*
X130721552Y-98963729D01*
X130692222Y-98927991D01*
X130679920Y-98904975D01*
X130608557Y-98771467D01*
X130591384Y-98714853D01*
X130557037Y-98601627D01*
X130539641Y-98425000D01*
X130557037Y-98248373D01*
X130608557Y-98078534D01*
X130608557Y-98078533D01*
X130692221Y-97922011D01*
X130692222Y-97922009D01*
X130721552Y-97886271D01*
X130804814Y-97784814D01*
X130906271Y-97701552D01*
X130942009Y-97672222D01*
X130959913Y-97662652D01*
X131098533Y-97588557D01*
X131155147Y-97571384D01*
X131268373Y-97537037D01*
X131334558Y-97530518D01*
X131400740Y-97524000D01*
X131489260Y-97524000D01*
X131555442Y-97530518D01*
X131555442Y-97530518D01*
G37*
G36*
X102345442Y-97530518D02*
X102411627Y-97537037D01*
X102524853Y-97571384D01*
X102581467Y-97588557D01*
X102720087Y-97662652D01*
X102737991Y-97672222D01*
X102773729Y-97701552D01*
X102875186Y-97784814D01*
X102958448Y-97886271D01*
X102987778Y-97922009D01*
X102987779Y-97922011D01*
X103071443Y-98078533D01*
X103071443Y-98078534D01*
X103122963Y-98248373D01*
X103140359Y-98425000D01*
X103122963Y-98601627D01*
X103088616Y-98714853D01*
X103071443Y-98771467D01*
X103000080Y-98904975D01*
X102987778Y-98927991D01*
X102958448Y-98963729D01*
X102875186Y-99065186D01*
X102773729Y-99148448D01*
X102737991Y-99177778D01*
X102737989Y-99177779D01*
X102581467Y-99261443D01*
X102524853Y-99278616D01*
X102411627Y-99312963D01*
X102345442Y-99319482D01*
X102279260Y-99326000D01*
X102190740Y-99326000D01*
X102124557Y-99319481D01*
X102058373Y-99312963D01*
X101945147Y-99278616D01*
X101888533Y-99261443D01*
X101732011Y-99177779D01*
X101732009Y-99177778D01*
X101696271Y-99148448D01*
X101594814Y-99065186D01*
X101511552Y-98963729D01*
X101482222Y-98927991D01*
X101469920Y-98904975D01*
X101398557Y-98771467D01*
X101381384Y-98714853D01*
X101347037Y-98601627D01*
X101329641Y-98425000D01*
X101347037Y-98248373D01*
X101398557Y-98078534D01*
X101398557Y-98078533D01*
X101482221Y-97922011D01*
X101482222Y-97922009D01*
X101511552Y-97886271D01*
X101594814Y-97784814D01*
X101696271Y-97701552D01*
X101732009Y-97672222D01*
X101749913Y-97662652D01*
X101888533Y-97588557D01*
X101945147Y-97571384D01*
X102058373Y-97537037D01*
X102124558Y-97530518D01*
X102190740Y-97524000D01*
X102279260Y-97524000D01*
X102345442Y-97530518D01*
X102345442Y-97530518D01*
G37*
G36*
X102345443Y-94990519D02*
X102411627Y-94997037D01*
X102524853Y-95031384D01*
X102581467Y-95048557D01*
X102659146Y-95090078D01*
X102737991Y-95132222D01*
X102773729Y-95161552D01*
X102875186Y-95244814D01*
X102958448Y-95346271D01*
X102987778Y-95382009D01*
X102987779Y-95382011D01*
X103071443Y-95538533D01*
X103071443Y-95538534D01*
X103122963Y-95708373D01*
X103140359Y-95885000D01*
X103122963Y-96061627D01*
X103088616Y-96174853D01*
X103071443Y-96231467D01*
X102997348Y-96370087D01*
X102987778Y-96387991D01*
X102958448Y-96423729D01*
X102875186Y-96525186D01*
X102773729Y-96608448D01*
X102737991Y-96637778D01*
X102737989Y-96637779D01*
X102581467Y-96721443D01*
X102524853Y-96738616D01*
X102411627Y-96772963D01*
X102345442Y-96779482D01*
X102279260Y-96786000D01*
X102190740Y-96786000D01*
X102124558Y-96779482D01*
X102058373Y-96772963D01*
X101945147Y-96738616D01*
X101888533Y-96721443D01*
X101732011Y-96637779D01*
X101732009Y-96637778D01*
X101696271Y-96608448D01*
X101594814Y-96525186D01*
X101511552Y-96423729D01*
X101482222Y-96387991D01*
X101472652Y-96370087D01*
X101398557Y-96231467D01*
X101381384Y-96174853D01*
X101347037Y-96061627D01*
X101329641Y-95885000D01*
X101347037Y-95708373D01*
X101398557Y-95538534D01*
X101398557Y-95538533D01*
X101482221Y-95382011D01*
X101482222Y-95382009D01*
X101511552Y-95346271D01*
X101594814Y-95244814D01*
X101696271Y-95161552D01*
X101732009Y-95132222D01*
X101810854Y-95090078D01*
X101888533Y-95048557D01*
X101945147Y-95031384D01*
X102058373Y-94997037D01*
X102124557Y-94990519D01*
X102190740Y-94984000D01*
X102279260Y-94984000D01*
X102345443Y-94990519D01*
X102345443Y-94990519D01*
G37*
G36*
X131555443Y-94990519D02*
X131621627Y-94997037D01*
X131734853Y-95031384D01*
X131791467Y-95048557D01*
X131869146Y-95090078D01*
X131947991Y-95132222D01*
X131983729Y-95161552D01*
X132085186Y-95244814D01*
X132168448Y-95346271D01*
X132197778Y-95382009D01*
X132197779Y-95382011D01*
X132281443Y-95538533D01*
X132281443Y-95538534D01*
X132332963Y-95708373D01*
X132350359Y-95885000D01*
X132332963Y-96061627D01*
X132298616Y-96174853D01*
X132281443Y-96231467D01*
X132207348Y-96370087D01*
X132197778Y-96387991D01*
X132168448Y-96423729D01*
X132085186Y-96525186D01*
X131983729Y-96608448D01*
X131947991Y-96637778D01*
X131947989Y-96637779D01*
X131791467Y-96721443D01*
X131734853Y-96738616D01*
X131621627Y-96772963D01*
X131555442Y-96779482D01*
X131489260Y-96786000D01*
X131400740Y-96786000D01*
X131334558Y-96779482D01*
X131268373Y-96772963D01*
X131155147Y-96738616D01*
X131098533Y-96721443D01*
X130942011Y-96637779D01*
X130942009Y-96637778D01*
X130906271Y-96608448D01*
X130804814Y-96525186D01*
X130721552Y-96423729D01*
X130692222Y-96387991D01*
X130682652Y-96370087D01*
X130608557Y-96231467D01*
X130591384Y-96174853D01*
X130557037Y-96061627D01*
X130539641Y-95885000D01*
X130557037Y-95708373D01*
X130608557Y-95538534D01*
X130608557Y-95538533D01*
X130692221Y-95382011D01*
X130692222Y-95382009D01*
X130721552Y-95346271D01*
X130804814Y-95244814D01*
X130906271Y-95161552D01*
X130942009Y-95132222D01*
X131020854Y-95090078D01*
X131098533Y-95048557D01*
X131155147Y-95031384D01*
X131268373Y-94997037D01*
X131334557Y-94990519D01*
X131400740Y-94984000D01*
X131489260Y-94984000D01*
X131555443Y-94990519D01*
X131555443Y-94990519D01*
G37*
G36*
X137270443Y-93720519D02*
X137336627Y-93727037D01*
X137449853Y-93761384D01*
X137506467Y-93778557D01*
X137593311Y-93824977D01*
X137662991Y-93862222D01*
X137698729Y-93891552D01*
X137800186Y-93974814D01*
X137883448Y-94076271D01*
X137912778Y-94112009D01*
X137912779Y-94112011D01*
X137996443Y-94268533D01*
X138013616Y-94325147D01*
X138047963Y-94438373D01*
X138065359Y-94615000D01*
X138047963Y-94791627D01*
X138013616Y-94904853D01*
X137996443Y-94961467D01*
X137977430Y-94997037D01*
X137912778Y-95117991D01*
X137883448Y-95153729D01*
X137800186Y-95255186D01*
X137698729Y-95338448D01*
X137662991Y-95367778D01*
X137662989Y-95367779D01*
X137506467Y-95451443D01*
X137499069Y-95453687D01*
X137336627Y-95502963D01*
X137270443Y-95509481D01*
X137204260Y-95516000D01*
X137115740Y-95516000D01*
X137049557Y-95509481D01*
X136983373Y-95502963D01*
X136820931Y-95453687D01*
X136813533Y-95451443D01*
X136657011Y-95367779D01*
X136657009Y-95367778D01*
X136621271Y-95338448D01*
X136519814Y-95255186D01*
X136436552Y-95153729D01*
X136407222Y-95117991D01*
X136342570Y-94997037D01*
X136323557Y-94961467D01*
X136306384Y-94904853D01*
X136272037Y-94791627D01*
X136254641Y-94615000D01*
X136272037Y-94438373D01*
X136306384Y-94325147D01*
X136323557Y-94268533D01*
X136407221Y-94112011D01*
X136407222Y-94112009D01*
X136436552Y-94076271D01*
X136519814Y-93974814D01*
X136621271Y-93891552D01*
X136657009Y-93862222D01*
X136726689Y-93824977D01*
X136813533Y-93778557D01*
X136870147Y-93761384D01*
X136983373Y-93727037D01*
X137049558Y-93720518D01*
X137115740Y-93714000D01*
X137204260Y-93714000D01*
X137270443Y-93720519D01*
X137270443Y-93720519D01*
G37*
G36*
X96630443Y-93720519D02*
X96696627Y-93727037D01*
X96809853Y-93761384D01*
X96866467Y-93778557D01*
X96953311Y-93824977D01*
X97022991Y-93862222D01*
X97058729Y-93891552D01*
X97160186Y-93974814D01*
X97243448Y-94076271D01*
X97272778Y-94112009D01*
X97272779Y-94112011D01*
X97356443Y-94268533D01*
X97373616Y-94325147D01*
X97407963Y-94438373D01*
X97425359Y-94615000D01*
X97407963Y-94791627D01*
X97373616Y-94904853D01*
X97356443Y-94961467D01*
X97337430Y-94997037D01*
X97272778Y-95117991D01*
X97243448Y-95153729D01*
X97160186Y-95255186D01*
X97058729Y-95338448D01*
X97022991Y-95367778D01*
X97022989Y-95367779D01*
X96866467Y-95451443D01*
X96859069Y-95453687D01*
X96696627Y-95502963D01*
X96630443Y-95509481D01*
X96564260Y-95516000D01*
X96475740Y-95516000D01*
X96409557Y-95509481D01*
X96343373Y-95502963D01*
X96180931Y-95453687D01*
X96173533Y-95451443D01*
X96017011Y-95367779D01*
X96017009Y-95367778D01*
X95981271Y-95338448D01*
X95879814Y-95255186D01*
X95796552Y-95153729D01*
X95767222Y-95117991D01*
X95702570Y-94997037D01*
X95683557Y-94961467D01*
X95666384Y-94904853D01*
X95632037Y-94791627D01*
X95614641Y-94615000D01*
X95632037Y-94438373D01*
X95666384Y-94325147D01*
X95683557Y-94268533D01*
X95767221Y-94112011D01*
X95767222Y-94112009D01*
X95796552Y-94076271D01*
X95879814Y-93974814D01*
X95981271Y-93891552D01*
X96017009Y-93862222D01*
X96086689Y-93824977D01*
X96173533Y-93778557D01*
X96230147Y-93761384D01*
X96343373Y-93727037D01*
X96409557Y-93720519D01*
X96475740Y-93714000D01*
X96564260Y-93714000D01*
X96630443Y-93720519D01*
X96630443Y-93720519D01*
G37*
G36*
X107481821Y-93776313D02*
X107481824Y-93776314D01*
X107481825Y-93776314D01*
X107642239Y-93824975D01*
X107642241Y-93824976D01*
X107642244Y-93824977D01*
X107790078Y-93903995D01*
X107919659Y-94010341D01*
X108026005Y-94139922D01*
X108105023Y-94287756D01*
X108105024Y-94287759D01*
X108105025Y-94287761D01*
X108150713Y-94438375D01*
X108153687Y-94448179D01*
X108170117Y-94615000D01*
X108153687Y-94781821D01*
X108153686Y-94781824D01*
X108153686Y-94781825D01*
X108150713Y-94791627D01*
X108105023Y-94942244D01*
X108026005Y-95090078D01*
X107919659Y-95219659D01*
X107790078Y-95326005D01*
X107642244Y-95405023D01*
X107642241Y-95405024D01*
X107642239Y-95405025D01*
X107481825Y-95453686D01*
X107481824Y-95453686D01*
X107481821Y-95453687D01*
X107356804Y-95466000D01*
X107273196Y-95466000D01*
X107148179Y-95453687D01*
X107148176Y-95453686D01*
X107148175Y-95453686D01*
X106987761Y-95405025D01*
X106987759Y-95405024D01*
X106987756Y-95405023D01*
X106839922Y-95326005D01*
X106710341Y-95219659D01*
X106603995Y-95090078D01*
X106524977Y-94942244D01*
X106479288Y-94791627D01*
X106476314Y-94781825D01*
X106476314Y-94781824D01*
X106476313Y-94781821D01*
X106459883Y-94615000D01*
X106476313Y-94448179D01*
X106479287Y-94438375D01*
X106524975Y-94287761D01*
X106524976Y-94287759D01*
X106524977Y-94287756D01*
X106603995Y-94139922D01*
X106710341Y-94010341D01*
X106839922Y-93903995D01*
X106987756Y-93824977D01*
X106987759Y-93824976D01*
X106987761Y-93824975D01*
X107148175Y-93776314D01*
X107148176Y-93776314D01*
X107148179Y-93776313D01*
X107273196Y-93764000D01*
X107356804Y-93764000D01*
X107481821Y-93776313D01*
X107481821Y-93776313D01*
G37*
G36*
X126531821Y-93776313D02*
X126531824Y-93776314D01*
X126531825Y-93776314D01*
X126692239Y-93824975D01*
X126692241Y-93824976D01*
X126692244Y-93824977D01*
X126840078Y-93903995D01*
X126969659Y-94010341D01*
X127076005Y-94139922D01*
X127155023Y-94287756D01*
X127155024Y-94287759D01*
X127155025Y-94287761D01*
X127200713Y-94438375D01*
X127203687Y-94448179D01*
X127220117Y-94615000D01*
X127203687Y-94781821D01*
X127203686Y-94781824D01*
X127203686Y-94781825D01*
X127200713Y-94791627D01*
X127155023Y-94942244D01*
X127076005Y-95090078D01*
X126969659Y-95219659D01*
X126840078Y-95326005D01*
X126692244Y-95405023D01*
X126692241Y-95405024D01*
X126692239Y-95405025D01*
X126531825Y-95453686D01*
X126531824Y-95453686D01*
X126531821Y-95453687D01*
X126406804Y-95466000D01*
X126323196Y-95466000D01*
X126198179Y-95453687D01*
X126198176Y-95453686D01*
X126198175Y-95453686D01*
X126037761Y-95405025D01*
X126037759Y-95405024D01*
X126037756Y-95405023D01*
X125889922Y-95326005D01*
X125760341Y-95219659D01*
X125653995Y-95090078D01*
X125574977Y-94942244D01*
X125529288Y-94791627D01*
X125526314Y-94781825D01*
X125526314Y-94781824D01*
X125526313Y-94781821D01*
X125509883Y-94615000D01*
X125526313Y-94448179D01*
X125529287Y-94438375D01*
X125574975Y-94287761D01*
X125574976Y-94287759D01*
X125574977Y-94287756D01*
X125653995Y-94139922D01*
X125760341Y-94010341D01*
X125889922Y-93903995D01*
X126037756Y-93824977D01*
X126037759Y-93824976D01*
X126037761Y-93824975D01*
X126198175Y-93776314D01*
X126198176Y-93776314D01*
X126198179Y-93776313D01*
X126323196Y-93764000D01*
X126406804Y-93764000D01*
X126531821Y-93776313D01*
X126531821Y-93776313D01*
G37*
G36*
X118911821Y-93776313D02*
X118911824Y-93776314D01*
X118911825Y-93776314D01*
X119072239Y-93824975D01*
X119072241Y-93824976D01*
X119072244Y-93824977D01*
X119220078Y-93903995D01*
X119349659Y-94010341D01*
X119456005Y-94139922D01*
X119535023Y-94287756D01*
X119535024Y-94287759D01*
X119535025Y-94287761D01*
X119580713Y-94438375D01*
X119583687Y-94448179D01*
X119600117Y-94615000D01*
X119583687Y-94781821D01*
X119583686Y-94781824D01*
X119583686Y-94781825D01*
X119580713Y-94791627D01*
X119535023Y-94942244D01*
X119456005Y-95090078D01*
X119349659Y-95219659D01*
X119220078Y-95326005D01*
X119072244Y-95405023D01*
X119072241Y-95405024D01*
X119072239Y-95405025D01*
X118911825Y-95453686D01*
X118911824Y-95453686D01*
X118911821Y-95453687D01*
X118786804Y-95466000D01*
X118703196Y-95466000D01*
X118578179Y-95453687D01*
X118578176Y-95453686D01*
X118578175Y-95453686D01*
X118417761Y-95405025D01*
X118417759Y-95405024D01*
X118417756Y-95405023D01*
X118269922Y-95326005D01*
X118140341Y-95219659D01*
X118033995Y-95090078D01*
X117954977Y-94942244D01*
X117909288Y-94791627D01*
X117906314Y-94781825D01*
X117906314Y-94781824D01*
X117906313Y-94781821D01*
X117889883Y-94615000D01*
X117906313Y-94448179D01*
X117909287Y-94438375D01*
X117954975Y-94287761D01*
X117954976Y-94287759D01*
X117954977Y-94287756D01*
X118033995Y-94139922D01*
X118140341Y-94010341D01*
X118269922Y-93903995D01*
X118417756Y-93824977D01*
X118417759Y-93824976D01*
X118417761Y-93824975D01*
X118578175Y-93776314D01*
X118578176Y-93776314D01*
X118578179Y-93776313D01*
X118703196Y-93764000D01*
X118786804Y-93764000D01*
X118911821Y-93776313D01*
X118911821Y-93776313D01*
G37*
G36*
X115101821Y-93776313D02*
X115101824Y-93776314D01*
X115101825Y-93776314D01*
X115262239Y-93824975D01*
X115262241Y-93824976D01*
X115262244Y-93824977D01*
X115410078Y-93903995D01*
X115539659Y-94010341D01*
X115646005Y-94139922D01*
X115725023Y-94287756D01*
X115725024Y-94287759D01*
X115725025Y-94287761D01*
X115770713Y-94438375D01*
X115773687Y-94448179D01*
X115790117Y-94615000D01*
X115773687Y-94781821D01*
X115773686Y-94781824D01*
X115773686Y-94781825D01*
X115770713Y-94791627D01*
X115725023Y-94942244D01*
X115646005Y-95090078D01*
X115539659Y-95219659D01*
X115410078Y-95326005D01*
X115262244Y-95405023D01*
X115262241Y-95405024D01*
X115262239Y-95405025D01*
X115101825Y-95453686D01*
X115101824Y-95453686D01*
X115101821Y-95453687D01*
X114976804Y-95466000D01*
X114893196Y-95466000D01*
X114768179Y-95453687D01*
X114768176Y-95453686D01*
X114768175Y-95453686D01*
X114607761Y-95405025D01*
X114607759Y-95405024D01*
X114607756Y-95405023D01*
X114459922Y-95326005D01*
X114330341Y-95219659D01*
X114223995Y-95090078D01*
X114144977Y-94942244D01*
X114099288Y-94791627D01*
X114096314Y-94781825D01*
X114096314Y-94781824D01*
X114096313Y-94781821D01*
X114079883Y-94615000D01*
X114096313Y-94448179D01*
X114099287Y-94438375D01*
X114144975Y-94287761D01*
X114144976Y-94287759D01*
X114144977Y-94287756D01*
X114223995Y-94139922D01*
X114330341Y-94010341D01*
X114459922Y-93903995D01*
X114607756Y-93824977D01*
X114607759Y-93824976D01*
X114607761Y-93824975D01*
X114768175Y-93776314D01*
X114768176Y-93776314D01*
X114768179Y-93776313D01*
X114893196Y-93764000D01*
X114976804Y-93764000D01*
X115101821Y-93776313D01*
X115101821Y-93776313D01*
G37*
G36*
X102345443Y-92450519D02*
X102411627Y-92457037D01*
X102524853Y-92491384D01*
X102581467Y-92508557D01*
X102659146Y-92550078D01*
X102737991Y-92592222D01*
X102773729Y-92621552D01*
X102875186Y-92704814D01*
X102958448Y-92806271D01*
X102987778Y-92842009D01*
X102987779Y-92842011D01*
X103071443Y-92998533D01*
X103071443Y-92998534D01*
X103122963Y-93168373D01*
X103140359Y-93345000D01*
X103122963Y-93521627D01*
X103088616Y-93634853D01*
X103071443Y-93691467D01*
X103024892Y-93778557D01*
X102987778Y-93847991D01*
X102958448Y-93883729D01*
X102875186Y-93985186D01*
X102773729Y-94068448D01*
X102737991Y-94097778D01*
X102737989Y-94097779D01*
X102581467Y-94181443D01*
X102524853Y-94198616D01*
X102411627Y-94232963D01*
X102345443Y-94239481D01*
X102279260Y-94246000D01*
X102190740Y-94246000D01*
X102124557Y-94239481D01*
X102058373Y-94232963D01*
X101945147Y-94198616D01*
X101888533Y-94181443D01*
X101732011Y-94097779D01*
X101732009Y-94097778D01*
X101696271Y-94068448D01*
X101594814Y-93985186D01*
X101511552Y-93883729D01*
X101482222Y-93847991D01*
X101445108Y-93778557D01*
X101398557Y-93691467D01*
X101381384Y-93634853D01*
X101347037Y-93521627D01*
X101329641Y-93345000D01*
X101347037Y-93168373D01*
X101398557Y-92998534D01*
X101398557Y-92998533D01*
X101482221Y-92842011D01*
X101482222Y-92842009D01*
X101511552Y-92806271D01*
X101594814Y-92704814D01*
X101696271Y-92621552D01*
X101732009Y-92592222D01*
X101810854Y-92550078D01*
X101888533Y-92508557D01*
X101945147Y-92491384D01*
X102058373Y-92457037D01*
X102124557Y-92450519D01*
X102190740Y-92444000D01*
X102279260Y-92444000D01*
X102345443Y-92450519D01*
X102345443Y-92450519D01*
G37*
G36*
X131555443Y-92450519D02*
X131621627Y-92457037D01*
X131734853Y-92491384D01*
X131791467Y-92508557D01*
X131869146Y-92550078D01*
X131947991Y-92592222D01*
X131983729Y-92621552D01*
X132085186Y-92704814D01*
X132168448Y-92806271D01*
X132197778Y-92842009D01*
X132197779Y-92842011D01*
X132281443Y-92998533D01*
X132281443Y-92998534D01*
X132332963Y-93168373D01*
X132350359Y-93345000D01*
X132332963Y-93521627D01*
X132298616Y-93634853D01*
X132281443Y-93691467D01*
X132234892Y-93778557D01*
X132197778Y-93847991D01*
X132168448Y-93883729D01*
X132085186Y-93985186D01*
X131983729Y-94068448D01*
X131947991Y-94097778D01*
X131947989Y-94097779D01*
X131791467Y-94181443D01*
X131734853Y-94198616D01*
X131621627Y-94232963D01*
X131555443Y-94239481D01*
X131489260Y-94246000D01*
X131400740Y-94246000D01*
X131334557Y-94239481D01*
X131268373Y-94232963D01*
X131155147Y-94198616D01*
X131098533Y-94181443D01*
X130942011Y-94097779D01*
X130942009Y-94097778D01*
X130906271Y-94068448D01*
X130804814Y-93985186D01*
X130721552Y-93883729D01*
X130692222Y-93847991D01*
X130655108Y-93778557D01*
X130608557Y-93691467D01*
X130591384Y-93634853D01*
X130557037Y-93521627D01*
X130539641Y-93345000D01*
X130557037Y-93168373D01*
X130608557Y-92998534D01*
X130608557Y-92998533D01*
X130692221Y-92842011D01*
X130692222Y-92842009D01*
X130721552Y-92806271D01*
X130804814Y-92704814D01*
X130906271Y-92621552D01*
X130942009Y-92592222D01*
X131020854Y-92550078D01*
X131098533Y-92508557D01*
X131155147Y-92491384D01*
X131268373Y-92457037D01*
X131334557Y-92450519D01*
X131400740Y-92444000D01*
X131489260Y-92444000D01*
X131555443Y-92450519D01*
X131555443Y-92450519D01*
G37*
G36*
X96630442Y-91180518D02*
X96696627Y-91187037D01*
X96809853Y-91221384D01*
X96866467Y-91238557D01*
X96953311Y-91284977D01*
X97022991Y-91322222D01*
X97058729Y-91351552D01*
X97160186Y-91434814D01*
X97243448Y-91536271D01*
X97272778Y-91572009D01*
X97272779Y-91572011D01*
X97356443Y-91728533D01*
X97373616Y-91785147D01*
X97407963Y-91898373D01*
X97425359Y-92075000D01*
X97407963Y-92251627D01*
X97373616Y-92364853D01*
X97356443Y-92421467D01*
X97337430Y-92457037D01*
X97272778Y-92577991D01*
X97243448Y-92613729D01*
X97160186Y-92715186D01*
X97058729Y-92798448D01*
X97022991Y-92827778D01*
X97022989Y-92827779D01*
X96866467Y-92911443D01*
X96859069Y-92913687D01*
X96696627Y-92962963D01*
X96630442Y-92969482D01*
X96564260Y-92976000D01*
X96475740Y-92976000D01*
X96409558Y-92969482D01*
X96343373Y-92962963D01*
X96180931Y-92913687D01*
X96173533Y-92911443D01*
X96017011Y-92827779D01*
X96017009Y-92827778D01*
X95981271Y-92798448D01*
X95879814Y-92715186D01*
X95796552Y-92613729D01*
X95767222Y-92577991D01*
X95702570Y-92457037D01*
X95683557Y-92421467D01*
X95666384Y-92364853D01*
X95632037Y-92251627D01*
X95614641Y-92075000D01*
X95632037Y-91898373D01*
X95666384Y-91785147D01*
X95683557Y-91728533D01*
X95767221Y-91572011D01*
X95767222Y-91572009D01*
X95796552Y-91536271D01*
X95879814Y-91434814D01*
X95981271Y-91351552D01*
X96017009Y-91322222D01*
X96086689Y-91284977D01*
X96173533Y-91238557D01*
X96230147Y-91221384D01*
X96343373Y-91187037D01*
X96409558Y-91180518D01*
X96475740Y-91174000D01*
X96564260Y-91174000D01*
X96630442Y-91180518D01*
X96630442Y-91180518D01*
G37*
G36*
X137270442Y-91180518D02*
X137336627Y-91187037D01*
X137449853Y-91221384D01*
X137506467Y-91238557D01*
X137593311Y-91284977D01*
X137662991Y-91322222D01*
X137698729Y-91351552D01*
X137800186Y-91434814D01*
X137883448Y-91536271D01*
X137912778Y-91572009D01*
X137912779Y-91572011D01*
X137996443Y-91728533D01*
X138013616Y-91785147D01*
X138047963Y-91898373D01*
X138065359Y-92075000D01*
X138047963Y-92251627D01*
X138013616Y-92364853D01*
X137996443Y-92421467D01*
X137977430Y-92457037D01*
X137912778Y-92577991D01*
X137883448Y-92613729D01*
X137800186Y-92715186D01*
X137698729Y-92798448D01*
X137662991Y-92827778D01*
X137662989Y-92827779D01*
X137506467Y-92911443D01*
X137499069Y-92913687D01*
X137336627Y-92962963D01*
X137270442Y-92969482D01*
X137204260Y-92976000D01*
X137115740Y-92976000D01*
X137049558Y-92969482D01*
X136983373Y-92962963D01*
X136820931Y-92913687D01*
X136813533Y-92911443D01*
X136657011Y-92827779D01*
X136657009Y-92827778D01*
X136621271Y-92798448D01*
X136519814Y-92715186D01*
X136436552Y-92613729D01*
X136407222Y-92577991D01*
X136342570Y-92457037D01*
X136323557Y-92421467D01*
X136306384Y-92364853D01*
X136272037Y-92251627D01*
X136254641Y-92075000D01*
X136272037Y-91898373D01*
X136306384Y-91785147D01*
X136323557Y-91728533D01*
X136407221Y-91572011D01*
X136407222Y-91572009D01*
X136436552Y-91536271D01*
X136519814Y-91434814D01*
X136621271Y-91351552D01*
X136657009Y-91322222D01*
X136726689Y-91284977D01*
X136813533Y-91238557D01*
X136870147Y-91221384D01*
X136983373Y-91187037D01*
X137049558Y-91180518D01*
X137115740Y-91174000D01*
X137204260Y-91174000D01*
X137270442Y-91180518D01*
X137270442Y-91180518D01*
G37*
G36*
X115101821Y-91236313D02*
X115101824Y-91236314D01*
X115101825Y-91236314D01*
X115262239Y-91284975D01*
X115262241Y-91284976D01*
X115262244Y-91284977D01*
X115410078Y-91363995D01*
X115539659Y-91470341D01*
X115646005Y-91599922D01*
X115725023Y-91747756D01*
X115725024Y-91747759D01*
X115725025Y-91747761D01*
X115770713Y-91898375D01*
X115773687Y-91908179D01*
X115790117Y-92075000D01*
X115773687Y-92241821D01*
X115773686Y-92241824D01*
X115773686Y-92241825D01*
X115770713Y-92251627D01*
X115725023Y-92402244D01*
X115646005Y-92550078D01*
X115539659Y-92679659D01*
X115410078Y-92786005D01*
X115262244Y-92865023D01*
X115262241Y-92865024D01*
X115262239Y-92865025D01*
X115101825Y-92913686D01*
X115101824Y-92913686D01*
X115101821Y-92913687D01*
X114976804Y-92926000D01*
X114893196Y-92926000D01*
X114768179Y-92913687D01*
X114768176Y-92913686D01*
X114768175Y-92913686D01*
X114607761Y-92865025D01*
X114607759Y-92865024D01*
X114607756Y-92865023D01*
X114459922Y-92786005D01*
X114330341Y-92679659D01*
X114223995Y-92550078D01*
X114144977Y-92402244D01*
X114099288Y-92251627D01*
X114096314Y-92241825D01*
X114096314Y-92241824D01*
X114096313Y-92241821D01*
X114079883Y-92075000D01*
X114096313Y-91908179D01*
X114099287Y-91898375D01*
X114144975Y-91747761D01*
X114144976Y-91747759D01*
X114144977Y-91747756D01*
X114223995Y-91599922D01*
X114330341Y-91470341D01*
X114459922Y-91363995D01*
X114607756Y-91284977D01*
X114607759Y-91284976D01*
X114607761Y-91284975D01*
X114768175Y-91236314D01*
X114768176Y-91236314D01*
X114768179Y-91236313D01*
X114893196Y-91224000D01*
X114976804Y-91224000D01*
X115101821Y-91236313D01*
X115101821Y-91236313D01*
G37*
G36*
X126531821Y-91236313D02*
X126531824Y-91236314D01*
X126531825Y-91236314D01*
X126692239Y-91284975D01*
X126692241Y-91284976D01*
X126692244Y-91284977D01*
X126840078Y-91363995D01*
X126969659Y-91470341D01*
X127076005Y-91599922D01*
X127155023Y-91747756D01*
X127155024Y-91747759D01*
X127155025Y-91747761D01*
X127200713Y-91898375D01*
X127203687Y-91908179D01*
X127220117Y-92075000D01*
X127203687Y-92241821D01*
X127203686Y-92241824D01*
X127203686Y-92241825D01*
X127200713Y-92251627D01*
X127155023Y-92402244D01*
X127076005Y-92550078D01*
X126969659Y-92679659D01*
X126840078Y-92786005D01*
X126692244Y-92865023D01*
X126692241Y-92865024D01*
X126692239Y-92865025D01*
X126531825Y-92913686D01*
X126531824Y-92913686D01*
X126531821Y-92913687D01*
X126406804Y-92926000D01*
X126323196Y-92926000D01*
X126198179Y-92913687D01*
X126198176Y-92913686D01*
X126198175Y-92913686D01*
X126037761Y-92865025D01*
X126037759Y-92865024D01*
X126037756Y-92865023D01*
X125889922Y-92786005D01*
X125760341Y-92679659D01*
X125653995Y-92550078D01*
X125574977Y-92402244D01*
X125529288Y-92251627D01*
X125526314Y-92241825D01*
X125526314Y-92241824D01*
X125526313Y-92241821D01*
X125509883Y-92075000D01*
X125526313Y-91908179D01*
X125529287Y-91898375D01*
X125574975Y-91747761D01*
X125574976Y-91747759D01*
X125574977Y-91747756D01*
X125653995Y-91599922D01*
X125760341Y-91470341D01*
X125889922Y-91363995D01*
X126037756Y-91284977D01*
X126037759Y-91284976D01*
X126037761Y-91284975D01*
X126198175Y-91236314D01*
X126198176Y-91236314D01*
X126198179Y-91236313D01*
X126323196Y-91224000D01*
X126406804Y-91224000D01*
X126531821Y-91236313D01*
X126531821Y-91236313D01*
G37*
G36*
X118911821Y-91236313D02*
X118911824Y-91236314D01*
X118911825Y-91236314D01*
X119072239Y-91284975D01*
X119072241Y-91284976D01*
X119072244Y-91284977D01*
X119220078Y-91363995D01*
X119349659Y-91470341D01*
X119456005Y-91599922D01*
X119535023Y-91747756D01*
X119535024Y-91747759D01*
X119535025Y-91747761D01*
X119580713Y-91898375D01*
X119583687Y-91908179D01*
X119600117Y-92075000D01*
X119583687Y-92241821D01*
X119583686Y-92241824D01*
X119583686Y-92241825D01*
X119580713Y-92251627D01*
X119535023Y-92402244D01*
X119456005Y-92550078D01*
X119349659Y-92679659D01*
X119220078Y-92786005D01*
X119072244Y-92865023D01*
X119072241Y-92865024D01*
X119072239Y-92865025D01*
X118911825Y-92913686D01*
X118911824Y-92913686D01*
X118911821Y-92913687D01*
X118786804Y-92926000D01*
X118703196Y-92926000D01*
X118578179Y-92913687D01*
X118578176Y-92913686D01*
X118578175Y-92913686D01*
X118417761Y-92865025D01*
X118417759Y-92865024D01*
X118417756Y-92865023D01*
X118269922Y-92786005D01*
X118140341Y-92679659D01*
X118033995Y-92550078D01*
X117954977Y-92402244D01*
X117909288Y-92251627D01*
X117906314Y-92241825D01*
X117906314Y-92241824D01*
X117906313Y-92241821D01*
X117889883Y-92075000D01*
X117906313Y-91908179D01*
X117909287Y-91898375D01*
X117954975Y-91747761D01*
X117954976Y-91747759D01*
X117954977Y-91747756D01*
X118033995Y-91599922D01*
X118140341Y-91470341D01*
X118269922Y-91363995D01*
X118417756Y-91284977D01*
X118417759Y-91284976D01*
X118417761Y-91284975D01*
X118578175Y-91236314D01*
X118578176Y-91236314D01*
X118578179Y-91236313D01*
X118703196Y-91224000D01*
X118786804Y-91224000D01*
X118911821Y-91236313D01*
X118911821Y-91236313D01*
G37*
G36*
X107481821Y-91236313D02*
X107481824Y-91236314D01*
X107481825Y-91236314D01*
X107642239Y-91284975D01*
X107642241Y-91284976D01*
X107642244Y-91284977D01*
X107790078Y-91363995D01*
X107919659Y-91470341D01*
X108026005Y-91599922D01*
X108105023Y-91747756D01*
X108105024Y-91747759D01*
X108105025Y-91747761D01*
X108150713Y-91898375D01*
X108153687Y-91908179D01*
X108170117Y-92075000D01*
X108153687Y-92241821D01*
X108153686Y-92241824D01*
X108153686Y-92241825D01*
X108150713Y-92251627D01*
X108105023Y-92402244D01*
X108026005Y-92550078D01*
X107919659Y-92679659D01*
X107790078Y-92786005D01*
X107642244Y-92865023D01*
X107642241Y-92865024D01*
X107642239Y-92865025D01*
X107481825Y-92913686D01*
X107481824Y-92913686D01*
X107481821Y-92913687D01*
X107356804Y-92926000D01*
X107273196Y-92926000D01*
X107148179Y-92913687D01*
X107148176Y-92913686D01*
X107148175Y-92913686D01*
X106987761Y-92865025D01*
X106987759Y-92865024D01*
X106987756Y-92865023D01*
X106839922Y-92786005D01*
X106710341Y-92679659D01*
X106603995Y-92550078D01*
X106524977Y-92402244D01*
X106479288Y-92251627D01*
X106476314Y-92241825D01*
X106476314Y-92241824D01*
X106476313Y-92241821D01*
X106459883Y-92075000D01*
X106476313Y-91908179D01*
X106479287Y-91898375D01*
X106524975Y-91747761D01*
X106524976Y-91747759D01*
X106524977Y-91747756D01*
X106603995Y-91599922D01*
X106710341Y-91470341D01*
X106839922Y-91363995D01*
X106987756Y-91284977D01*
X106987759Y-91284976D01*
X106987761Y-91284975D01*
X107148175Y-91236314D01*
X107148176Y-91236314D01*
X107148179Y-91236313D01*
X107273196Y-91224000D01*
X107356804Y-91224000D01*
X107481821Y-91236313D01*
X107481821Y-91236313D01*
G37*
G36*
X132346000Y-91706000D02*
X130544000Y-91706000D01*
X130544000Y-89904000D01*
X132346000Y-89904000D01*
X132346000Y-91706000D01*
X132346000Y-91706000D01*
G37*
G36*
X103136000Y-91706000D02*
X101334000Y-91706000D01*
X101334000Y-89904000D01*
X103136000Y-89904000D01*
X103136000Y-91706000D01*
X103136000Y-91706000D01*
G37*
G36*
X96630443Y-88640519D02*
X96696627Y-88647037D01*
X96809853Y-88681384D01*
X96866467Y-88698557D01*
X96953311Y-88744977D01*
X97022991Y-88782222D01*
X97058729Y-88811552D01*
X97160186Y-88894814D01*
X97243448Y-88996271D01*
X97272778Y-89032009D01*
X97272779Y-89032011D01*
X97356443Y-89188533D01*
X97373616Y-89245147D01*
X97407963Y-89358373D01*
X97425359Y-89535000D01*
X97407963Y-89711627D01*
X97373616Y-89824853D01*
X97356443Y-89881467D01*
X97287698Y-90010078D01*
X97272778Y-90037991D01*
X97243448Y-90073729D01*
X97160186Y-90175186D01*
X97058729Y-90258448D01*
X97022991Y-90287778D01*
X97022989Y-90287779D01*
X96866467Y-90371443D01*
X96859069Y-90373687D01*
X96696627Y-90422963D01*
X96630443Y-90429481D01*
X96564260Y-90436000D01*
X96475740Y-90436000D01*
X96409557Y-90429481D01*
X96343373Y-90422963D01*
X96180931Y-90373687D01*
X96173533Y-90371443D01*
X96017011Y-90287779D01*
X96017009Y-90287778D01*
X95981271Y-90258448D01*
X95879814Y-90175186D01*
X95796552Y-90073729D01*
X95767222Y-90037991D01*
X95752302Y-90010078D01*
X95683557Y-89881467D01*
X95666384Y-89824853D01*
X95632037Y-89711627D01*
X95614641Y-89535000D01*
X95632037Y-89358373D01*
X95666384Y-89245147D01*
X95683557Y-89188533D01*
X95767221Y-89032011D01*
X95767222Y-89032009D01*
X95796552Y-88996271D01*
X95879814Y-88894814D01*
X95981271Y-88811552D01*
X96017009Y-88782222D01*
X96086689Y-88744977D01*
X96173533Y-88698557D01*
X96230147Y-88681384D01*
X96343373Y-88647037D01*
X96409557Y-88640519D01*
X96475740Y-88634000D01*
X96564260Y-88634000D01*
X96630443Y-88640519D01*
X96630443Y-88640519D01*
G37*
G36*
X137270443Y-88640519D02*
X137336627Y-88647037D01*
X137449853Y-88681384D01*
X137506467Y-88698557D01*
X137593311Y-88744977D01*
X137662991Y-88782222D01*
X137698729Y-88811552D01*
X137800186Y-88894814D01*
X137883448Y-88996271D01*
X137912778Y-89032009D01*
X137912779Y-89032011D01*
X137996443Y-89188533D01*
X138013616Y-89245147D01*
X138047963Y-89358373D01*
X138065359Y-89535000D01*
X138047963Y-89711627D01*
X138013616Y-89824853D01*
X137996443Y-89881467D01*
X137927698Y-90010078D01*
X137912778Y-90037991D01*
X137883448Y-90073729D01*
X137800186Y-90175186D01*
X137698729Y-90258448D01*
X137662991Y-90287778D01*
X137662989Y-90287779D01*
X137506467Y-90371443D01*
X137499069Y-90373687D01*
X137336627Y-90422963D01*
X137270443Y-90429481D01*
X137204260Y-90436000D01*
X137115740Y-90436000D01*
X137049557Y-90429481D01*
X136983373Y-90422963D01*
X136820931Y-90373687D01*
X136813533Y-90371443D01*
X136657011Y-90287779D01*
X136657009Y-90287778D01*
X136621271Y-90258448D01*
X136519814Y-90175186D01*
X136436552Y-90073729D01*
X136407222Y-90037991D01*
X136392302Y-90010078D01*
X136323557Y-89881467D01*
X136306384Y-89824853D01*
X136272037Y-89711627D01*
X136254641Y-89535000D01*
X136272037Y-89358373D01*
X136306384Y-89245147D01*
X136323557Y-89188533D01*
X136407221Y-89032011D01*
X136407222Y-89032009D01*
X136436552Y-88996271D01*
X136519814Y-88894814D01*
X136621271Y-88811552D01*
X136657009Y-88782222D01*
X136726689Y-88744977D01*
X136813533Y-88698557D01*
X136870147Y-88681384D01*
X136983373Y-88647037D01*
X137049557Y-88640519D01*
X137115740Y-88634000D01*
X137204260Y-88634000D01*
X137270443Y-88640519D01*
X137270443Y-88640519D01*
G37*
G36*
X126531821Y-88696313D02*
X126531824Y-88696314D01*
X126531825Y-88696314D01*
X126692239Y-88744975D01*
X126692241Y-88744976D01*
X126692244Y-88744977D01*
X126840078Y-88823995D01*
X126969659Y-88930341D01*
X127076005Y-89059922D01*
X127155023Y-89207756D01*
X127155024Y-89207759D01*
X127155025Y-89207761D01*
X127200713Y-89358375D01*
X127203687Y-89368179D01*
X127220117Y-89535000D01*
X127203687Y-89701821D01*
X127203686Y-89701824D01*
X127203686Y-89701825D01*
X127200713Y-89711627D01*
X127155023Y-89862244D01*
X127076005Y-90010078D01*
X126969659Y-90139659D01*
X126840078Y-90246005D01*
X126692244Y-90325023D01*
X126692241Y-90325024D01*
X126692239Y-90325025D01*
X126531825Y-90373686D01*
X126531824Y-90373686D01*
X126531821Y-90373687D01*
X126406804Y-90386000D01*
X126323196Y-90386000D01*
X126198179Y-90373687D01*
X126198176Y-90373686D01*
X126198175Y-90373686D01*
X126037761Y-90325025D01*
X126037759Y-90325024D01*
X126037756Y-90325023D01*
X125889922Y-90246005D01*
X125760341Y-90139659D01*
X125653995Y-90010078D01*
X125574977Y-89862244D01*
X125529288Y-89711627D01*
X125526314Y-89701825D01*
X125526314Y-89701824D01*
X125526313Y-89701821D01*
X125509883Y-89535000D01*
X125526313Y-89368179D01*
X125529287Y-89358375D01*
X125574975Y-89207761D01*
X125574976Y-89207759D01*
X125574977Y-89207756D01*
X125653995Y-89059922D01*
X125760341Y-88930341D01*
X125889922Y-88823995D01*
X126037756Y-88744977D01*
X126037759Y-88744976D01*
X126037761Y-88744975D01*
X126198175Y-88696314D01*
X126198176Y-88696314D01*
X126198179Y-88696313D01*
X126323196Y-88684000D01*
X126406804Y-88684000D01*
X126531821Y-88696313D01*
X126531821Y-88696313D01*
G37*
G36*
X118911821Y-88696313D02*
X118911824Y-88696314D01*
X118911825Y-88696314D01*
X119072239Y-88744975D01*
X119072241Y-88744976D01*
X119072244Y-88744977D01*
X119220078Y-88823995D01*
X119349659Y-88930341D01*
X119456005Y-89059922D01*
X119535023Y-89207756D01*
X119535024Y-89207759D01*
X119535025Y-89207761D01*
X119580713Y-89358375D01*
X119583687Y-89368179D01*
X119600117Y-89535000D01*
X119583687Y-89701821D01*
X119583686Y-89701824D01*
X119583686Y-89701825D01*
X119580713Y-89711627D01*
X119535023Y-89862244D01*
X119456005Y-90010078D01*
X119349659Y-90139659D01*
X119220078Y-90246005D01*
X119072244Y-90325023D01*
X119072241Y-90325024D01*
X119072239Y-90325025D01*
X118911825Y-90373686D01*
X118911824Y-90373686D01*
X118911821Y-90373687D01*
X118786804Y-90386000D01*
X118703196Y-90386000D01*
X118578179Y-90373687D01*
X118578176Y-90373686D01*
X118578175Y-90373686D01*
X118417761Y-90325025D01*
X118417759Y-90325024D01*
X118417756Y-90325023D01*
X118269922Y-90246005D01*
X118140341Y-90139659D01*
X118033995Y-90010078D01*
X117954977Y-89862244D01*
X117909288Y-89711627D01*
X117906314Y-89701825D01*
X117906314Y-89701824D01*
X117906313Y-89701821D01*
X117889883Y-89535000D01*
X117906313Y-89368179D01*
X117909287Y-89358375D01*
X117954975Y-89207761D01*
X117954976Y-89207759D01*
X117954977Y-89207756D01*
X118033995Y-89059922D01*
X118140341Y-88930341D01*
X118269922Y-88823995D01*
X118417756Y-88744977D01*
X118417759Y-88744976D01*
X118417761Y-88744975D01*
X118578175Y-88696314D01*
X118578176Y-88696314D01*
X118578179Y-88696313D01*
X118703196Y-88684000D01*
X118786804Y-88684000D01*
X118911821Y-88696313D01*
X118911821Y-88696313D01*
G37*
G36*
X107481821Y-88696313D02*
X107481824Y-88696314D01*
X107481825Y-88696314D01*
X107642239Y-88744975D01*
X107642241Y-88744976D01*
X107642244Y-88744977D01*
X107790078Y-88823995D01*
X107919659Y-88930341D01*
X108026005Y-89059922D01*
X108105023Y-89207756D01*
X108105024Y-89207759D01*
X108105025Y-89207761D01*
X108150713Y-89358375D01*
X108153687Y-89368179D01*
X108170117Y-89535000D01*
X108153687Y-89701821D01*
X108153686Y-89701824D01*
X108153686Y-89701825D01*
X108150713Y-89711627D01*
X108105023Y-89862244D01*
X108026005Y-90010078D01*
X107919659Y-90139659D01*
X107790078Y-90246005D01*
X107642244Y-90325023D01*
X107642241Y-90325024D01*
X107642239Y-90325025D01*
X107481825Y-90373686D01*
X107481824Y-90373686D01*
X107481821Y-90373687D01*
X107356804Y-90386000D01*
X107273196Y-90386000D01*
X107148179Y-90373687D01*
X107148176Y-90373686D01*
X107148175Y-90373686D01*
X106987761Y-90325025D01*
X106987759Y-90325024D01*
X106987756Y-90325023D01*
X106839922Y-90246005D01*
X106710341Y-90139659D01*
X106603995Y-90010078D01*
X106524977Y-89862244D01*
X106479288Y-89711627D01*
X106476314Y-89701825D01*
X106476314Y-89701824D01*
X106476313Y-89701821D01*
X106459883Y-89535000D01*
X106476313Y-89368179D01*
X106479287Y-89358375D01*
X106524975Y-89207761D01*
X106524976Y-89207759D01*
X106524977Y-89207756D01*
X106603995Y-89059922D01*
X106710341Y-88930341D01*
X106839922Y-88823995D01*
X106987756Y-88744977D01*
X106987759Y-88744976D01*
X106987761Y-88744975D01*
X107148175Y-88696314D01*
X107148176Y-88696314D01*
X107148179Y-88696313D01*
X107273196Y-88684000D01*
X107356804Y-88684000D01*
X107481821Y-88696313D01*
X107481821Y-88696313D01*
G37*
G36*
X115101821Y-88696313D02*
X115101824Y-88696314D01*
X115101825Y-88696314D01*
X115262239Y-88744975D01*
X115262241Y-88744976D01*
X115262244Y-88744977D01*
X115410078Y-88823995D01*
X115539659Y-88930341D01*
X115646005Y-89059922D01*
X115725023Y-89207756D01*
X115725024Y-89207759D01*
X115725025Y-89207761D01*
X115770713Y-89358375D01*
X115773687Y-89368179D01*
X115790117Y-89535000D01*
X115773687Y-89701821D01*
X115773686Y-89701824D01*
X115773686Y-89701825D01*
X115770713Y-89711627D01*
X115725023Y-89862244D01*
X115646005Y-90010078D01*
X115539659Y-90139659D01*
X115410078Y-90246005D01*
X115262244Y-90325023D01*
X115262241Y-90325024D01*
X115262239Y-90325025D01*
X115101825Y-90373686D01*
X115101824Y-90373686D01*
X115101821Y-90373687D01*
X114976804Y-90386000D01*
X114893196Y-90386000D01*
X114768179Y-90373687D01*
X114768176Y-90373686D01*
X114768175Y-90373686D01*
X114607761Y-90325025D01*
X114607759Y-90325024D01*
X114607756Y-90325023D01*
X114459922Y-90246005D01*
X114330341Y-90139659D01*
X114223995Y-90010078D01*
X114144977Y-89862244D01*
X114099288Y-89711627D01*
X114096314Y-89701825D01*
X114096314Y-89701824D01*
X114096313Y-89701821D01*
X114079883Y-89535000D01*
X114096313Y-89368179D01*
X114099287Y-89358375D01*
X114144975Y-89207761D01*
X114144976Y-89207759D01*
X114144977Y-89207756D01*
X114223995Y-89059922D01*
X114330341Y-88930341D01*
X114459922Y-88823995D01*
X114607756Y-88744977D01*
X114607759Y-88744976D01*
X114607761Y-88744975D01*
X114768175Y-88696314D01*
X114768176Y-88696314D01*
X114768179Y-88696313D01*
X114893196Y-88684000D01*
X114976804Y-88684000D01*
X115101821Y-88696313D01*
X115101821Y-88696313D01*
G37*
G36*
X96630442Y-86100518D02*
X96696627Y-86107037D01*
X96809853Y-86141384D01*
X96866467Y-86158557D01*
X96953311Y-86204977D01*
X97022991Y-86242222D01*
X97058729Y-86271552D01*
X97160186Y-86354814D01*
X97243448Y-86456271D01*
X97272778Y-86492009D01*
X97272779Y-86492011D01*
X97356443Y-86648533D01*
X97373616Y-86705147D01*
X97407963Y-86818373D01*
X97425359Y-86995000D01*
X97407963Y-87171627D01*
X97373616Y-87284853D01*
X97356443Y-87341467D01*
X97287698Y-87470078D01*
X97272778Y-87497991D01*
X97243448Y-87533729D01*
X97160186Y-87635186D01*
X97058729Y-87718448D01*
X97022991Y-87747778D01*
X97022989Y-87747779D01*
X96866467Y-87831443D01*
X96859069Y-87833687D01*
X96696627Y-87882963D01*
X96630443Y-87889481D01*
X96564260Y-87896000D01*
X96475740Y-87896000D01*
X96409557Y-87889481D01*
X96343373Y-87882963D01*
X96180931Y-87833687D01*
X96173533Y-87831443D01*
X96017011Y-87747779D01*
X96017009Y-87747778D01*
X95981271Y-87718448D01*
X95879814Y-87635186D01*
X95796552Y-87533729D01*
X95767222Y-87497991D01*
X95752302Y-87470078D01*
X95683557Y-87341467D01*
X95666384Y-87284853D01*
X95632037Y-87171627D01*
X95614641Y-86995000D01*
X95632037Y-86818373D01*
X95666384Y-86705147D01*
X95683557Y-86648533D01*
X95767221Y-86492011D01*
X95767222Y-86492009D01*
X95796552Y-86456271D01*
X95879814Y-86354814D01*
X95981271Y-86271552D01*
X96017009Y-86242222D01*
X96086689Y-86204977D01*
X96173533Y-86158557D01*
X96230147Y-86141384D01*
X96343373Y-86107037D01*
X96409558Y-86100518D01*
X96475740Y-86094000D01*
X96564260Y-86094000D01*
X96630442Y-86100518D01*
X96630442Y-86100518D01*
G37*
G36*
X137270442Y-86100518D02*
X137336627Y-86107037D01*
X137449853Y-86141384D01*
X137506467Y-86158557D01*
X137593311Y-86204977D01*
X137662991Y-86242222D01*
X137698729Y-86271552D01*
X137800186Y-86354814D01*
X137883448Y-86456271D01*
X137912778Y-86492009D01*
X137912779Y-86492011D01*
X137996443Y-86648533D01*
X138013616Y-86705147D01*
X138047963Y-86818373D01*
X138065359Y-86995000D01*
X138047963Y-87171627D01*
X138013616Y-87284853D01*
X137996443Y-87341467D01*
X137927698Y-87470078D01*
X137912778Y-87497991D01*
X137883448Y-87533729D01*
X137800186Y-87635186D01*
X137698729Y-87718448D01*
X137662991Y-87747778D01*
X137662989Y-87747779D01*
X137506467Y-87831443D01*
X137499069Y-87833687D01*
X137336627Y-87882963D01*
X137270443Y-87889481D01*
X137204260Y-87896000D01*
X137115740Y-87896000D01*
X137049557Y-87889481D01*
X136983373Y-87882963D01*
X136820931Y-87833687D01*
X136813533Y-87831443D01*
X136657011Y-87747779D01*
X136657009Y-87747778D01*
X136621271Y-87718448D01*
X136519814Y-87635186D01*
X136436552Y-87533729D01*
X136407222Y-87497991D01*
X136392302Y-87470078D01*
X136323557Y-87341467D01*
X136306384Y-87284853D01*
X136272037Y-87171627D01*
X136254641Y-86995000D01*
X136272037Y-86818373D01*
X136306384Y-86705147D01*
X136323557Y-86648533D01*
X136407221Y-86492011D01*
X136407222Y-86492009D01*
X136436552Y-86456271D01*
X136519814Y-86354814D01*
X136621271Y-86271552D01*
X136657009Y-86242222D01*
X136726689Y-86204977D01*
X136813533Y-86158557D01*
X136870147Y-86141384D01*
X136983373Y-86107037D01*
X137049558Y-86100518D01*
X137115740Y-86094000D01*
X137204260Y-86094000D01*
X137270442Y-86100518D01*
X137270442Y-86100518D01*
G37*
G36*
X118911821Y-86156313D02*
X118911824Y-86156314D01*
X118911825Y-86156314D01*
X119072239Y-86204975D01*
X119072241Y-86204976D01*
X119072244Y-86204977D01*
X119220078Y-86283995D01*
X119349659Y-86390341D01*
X119456005Y-86519922D01*
X119535023Y-86667756D01*
X119535024Y-86667759D01*
X119535025Y-86667761D01*
X119580713Y-86818375D01*
X119583687Y-86828179D01*
X119600117Y-86995000D01*
X119583687Y-87161821D01*
X119583686Y-87161824D01*
X119583686Y-87161825D01*
X119580713Y-87171627D01*
X119535023Y-87322244D01*
X119456005Y-87470078D01*
X119349659Y-87599659D01*
X119220078Y-87706005D01*
X119072244Y-87785023D01*
X119072241Y-87785024D01*
X119072239Y-87785025D01*
X118911825Y-87833686D01*
X118911824Y-87833686D01*
X118911821Y-87833687D01*
X118786804Y-87846000D01*
X118703196Y-87846000D01*
X118578179Y-87833687D01*
X118578176Y-87833686D01*
X118578175Y-87833686D01*
X118417761Y-87785025D01*
X118417759Y-87785024D01*
X118417756Y-87785023D01*
X118269922Y-87706005D01*
X118140341Y-87599659D01*
X118033995Y-87470078D01*
X117954977Y-87322244D01*
X117909288Y-87171627D01*
X117906314Y-87161825D01*
X117906314Y-87161824D01*
X117906313Y-87161821D01*
X117889883Y-86995000D01*
X117906313Y-86828179D01*
X117909287Y-86818375D01*
X117954975Y-86667761D01*
X117954976Y-86667759D01*
X117954977Y-86667756D01*
X118033995Y-86519922D01*
X118140341Y-86390341D01*
X118269922Y-86283995D01*
X118417756Y-86204977D01*
X118417759Y-86204976D01*
X118417761Y-86204975D01*
X118578175Y-86156314D01*
X118578176Y-86156314D01*
X118578179Y-86156313D01*
X118703196Y-86144000D01*
X118786804Y-86144000D01*
X118911821Y-86156313D01*
X118911821Y-86156313D01*
G37*
G36*
X107481821Y-86156313D02*
X107481824Y-86156314D01*
X107481825Y-86156314D01*
X107642239Y-86204975D01*
X107642241Y-86204976D01*
X107642244Y-86204977D01*
X107790078Y-86283995D01*
X107919659Y-86390341D01*
X108026005Y-86519922D01*
X108105023Y-86667756D01*
X108105024Y-86667759D01*
X108105025Y-86667761D01*
X108150713Y-86818375D01*
X108153687Y-86828179D01*
X108170117Y-86995000D01*
X108153687Y-87161821D01*
X108153686Y-87161824D01*
X108153686Y-87161825D01*
X108150713Y-87171627D01*
X108105023Y-87322244D01*
X108026005Y-87470078D01*
X107919659Y-87599659D01*
X107790078Y-87706005D01*
X107642244Y-87785023D01*
X107642241Y-87785024D01*
X107642239Y-87785025D01*
X107481825Y-87833686D01*
X107481824Y-87833686D01*
X107481821Y-87833687D01*
X107356804Y-87846000D01*
X107273196Y-87846000D01*
X107148179Y-87833687D01*
X107148176Y-87833686D01*
X107148175Y-87833686D01*
X106987761Y-87785025D01*
X106987759Y-87785024D01*
X106987756Y-87785023D01*
X106839922Y-87706005D01*
X106710341Y-87599659D01*
X106603995Y-87470078D01*
X106524977Y-87322244D01*
X106479288Y-87171627D01*
X106476314Y-87161825D01*
X106476314Y-87161824D01*
X106476313Y-87161821D01*
X106459883Y-86995000D01*
X106476313Y-86828179D01*
X106479287Y-86818375D01*
X106524975Y-86667761D01*
X106524976Y-86667759D01*
X106524977Y-86667756D01*
X106603995Y-86519922D01*
X106710341Y-86390341D01*
X106839922Y-86283995D01*
X106987756Y-86204977D01*
X106987759Y-86204976D01*
X106987761Y-86204975D01*
X107148175Y-86156314D01*
X107148176Y-86156314D01*
X107148179Y-86156313D01*
X107273196Y-86144000D01*
X107356804Y-86144000D01*
X107481821Y-86156313D01*
X107481821Y-86156313D01*
G37*
G36*
X115101821Y-86156313D02*
X115101824Y-86156314D01*
X115101825Y-86156314D01*
X115262239Y-86204975D01*
X115262241Y-86204976D01*
X115262244Y-86204977D01*
X115410078Y-86283995D01*
X115539659Y-86390341D01*
X115646005Y-86519922D01*
X115725023Y-86667756D01*
X115725024Y-86667759D01*
X115725025Y-86667761D01*
X115770713Y-86818375D01*
X115773687Y-86828179D01*
X115790117Y-86995000D01*
X115773687Y-87161821D01*
X115773686Y-87161824D01*
X115773686Y-87161825D01*
X115770713Y-87171627D01*
X115725023Y-87322244D01*
X115646005Y-87470078D01*
X115539659Y-87599659D01*
X115410078Y-87706005D01*
X115262244Y-87785023D01*
X115262241Y-87785024D01*
X115262239Y-87785025D01*
X115101825Y-87833686D01*
X115101824Y-87833686D01*
X115101821Y-87833687D01*
X114976804Y-87846000D01*
X114893196Y-87846000D01*
X114768179Y-87833687D01*
X114768176Y-87833686D01*
X114768175Y-87833686D01*
X114607761Y-87785025D01*
X114607759Y-87785024D01*
X114607756Y-87785023D01*
X114459922Y-87706005D01*
X114330341Y-87599659D01*
X114223995Y-87470078D01*
X114144977Y-87322244D01*
X114099288Y-87171627D01*
X114096314Y-87161825D01*
X114096314Y-87161824D01*
X114096313Y-87161821D01*
X114079883Y-86995000D01*
X114096313Y-86828179D01*
X114099287Y-86818375D01*
X114144975Y-86667761D01*
X114144976Y-86667759D01*
X114144977Y-86667756D01*
X114223995Y-86519922D01*
X114330341Y-86390341D01*
X114459922Y-86283995D01*
X114607756Y-86204977D01*
X114607759Y-86204976D01*
X114607761Y-86204975D01*
X114768175Y-86156314D01*
X114768176Y-86156314D01*
X114768179Y-86156313D01*
X114893196Y-86144000D01*
X114976804Y-86144000D01*
X115101821Y-86156313D01*
X115101821Y-86156313D01*
G37*
G36*
X126531821Y-86156313D02*
X126531824Y-86156314D01*
X126531825Y-86156314D01*
X126692239Y-86204975D01*
X126692241Y-86204976D01*
X126692244Y-86204977D01*
X126840078Y-86283995D01*
X126969659Y-86390341D01*
X127076005Y-86519922D01*
X127155023Y-86667756D01*
X127155024Y-86667759D01*
X127155025Y-86667761D01*
X127200713Y-86818375D01*
X127203687Y-86828179D01*
X127220117Y-86995000D01*
X127203687Y-87161821D01*
X127203686Y-87161824D01*
X127203686Y-87161825D01*
X127200713Y-87171627D01*
X127155023Y-87322244D01*
X127076005Y-87470078D01*
X126969659Y-87599659D01*
X126840078Y-87706005D01*
X126692244Y-87785023D01*
X126692241Y-87785024D01*
X126692239Y-87785025D01*
X126531825Y-87833686D01*
X126531824Y-87833686D01*
X126531821Y-87833687D01*
X126406804Y-87846000D01*
X126323196Y-87846000D01*
X126198179Y-87833687D01*
X126198176Y-87833686D01*
X126198175Y-87833686D01*
X126037761Y-87785025D01*
X126037759Y-87785024D01*
X126037756Y-87785023D01*
X125889922Y-87706005D01*
X125760341Y-87599659D01*
X125653995Y-87470078D01*
X125574977Y-87322244D01*
X125529288Y-87171627D01*
X125526314Y-87161825D01*
X125526314Y-87161824D01*
X125526313Y-87161821D01*
X125509883Y-86995000D01*
X125526313Y-86828179D01*
X125529287Y-86818375D01*
X125574975Y-86667761D01*
X125574976Y-86667759D01*
X125574977Y-86667756D01*
X125653995Y-86519922D01*
X125760341Y-86390341D01*
X125889922Y-86283995D01*
X126037756Y-86204977D01*
X126037759Y-86204976D01*
X126037761Y-86204975D01*
X126198175Y-86156314D01*
X126198176Y-86156314D01*
X126198179Y-86156313D01*
X126323196Y-86144000D01*
X126406804Y-86144000D01*
X126531821Y-86156313D01*
X126531821Y-86156313D01*
G37*
G36*
X137270443Y-83560519D02*
X137336627Y-83567037D01*
X137449853Y-83601384D01*
X137506467Y-83618557D01*
X137593311Y-83664977D01*
X137662991Y-83702222D01*
X137693769Y-83727481D01*
X137800186Y-83814814D01*
X137883448Y-83916271D01*
X137912778Y-83952009D01*
X137912779Y-83952011D01*
X137996443Y-84108533D01*
X138013616Y-84165147D01*
X138047963Y-84278373D01*
X138065359Y-84455000D01*
X138047963Y-84631627D01*
X138013616Y-84744853D01*
X137996443Y-84801467D01*
X137927698Y-84930078D01*
X137912778Y-84957991D01*
X137883448Y-84993729D01*
X137800186Y-85095186D01*
X137698729Y-85178448D01*
X137662991Y-85207778D01*
X137662989Y-85207779D01*
X137506467Y-85291443D01*
X137499069Y-85293687D01*
X137336627Y-85342963D01*
X137270442Y-85349482D01*
X137204260Y-85356000D01*
X137115740Y-85356000D01*
X137049558Y-85349482D01*
X136983373Y-85342963D01*
X136820931Y-85293687D01*
X136813533Y-85291443D01*
X136657011Y-85207779D01*
X136657009Y-85207778D01*
X136621271Y-85178448D01*
X136519814Y-85095186D01*
X136436552Y-84993729D01*
X136407222Y-84957991D01*
X136392302Y-84930078D01*
X136323557Y-84801467D01*
X136306384Y-84744853D01*
X136272037Y-84631627D01*
X136254641Y-84455000D01*
X136272037Y-84278373D01*
X136306384Y-84165147D01*
X136323557Y-84108533D01*
X136407221Y-83952011D01*
X136407222Y-83952009D01*
X136436552Y-83916271D01*
X136519814Y-83814814D01*
X136626231Y-83727481D01*
X136657009Y-83702222D01*
X136726689Y-83664977D01*
X136813533Y-83618557D01*
X136870147Y-83601384D01*
X136983373Y-83567037D01*
X137049557Y-83560519D01*
X137115740Y-83554000D01*
X137204260Y-83554000D01*
X137270443Y-83560519D01*
X137270443Y-83560519D01*
G37*
G36*
X96630443Y-83560519D02*
X96696627Y-83567037D01*
X96809853Y-83601384D01*
X96866467Y-83618557D01*
X96953311Y-83664977D01*
X97022991Y-83702222D01*
X97053769Y-83727481D01*
X97160186Y-83814814D01*
X97243448Y-83916271D01*
X97272778Y-83952009D01*
X97272779Y-83952011D01*
X97356443Y-84108533D01*
X97373616Y-84165147D01*
X97407963Y-84278373D01*
X97425359Y-84455000D01*
X97407963Y-84631627D01*
X97373616Y-84744853D01*
X97356443Y-84801467D01*
X97287698Y-84930078D01*
X97272778Y-84957991D01*
X97243448Y-84993729D01*
X97160186Y-85095186D01*
X97058729Y-85178448D01*
X97022991Y-85207778D01*
X97022989Y-85207779D01*
X96866467Y-85291443D01*
X96859069Y-85293687D01*
X96696627Y-85342963D01*
X96630442Y-85349482D01*
X96564260Y-85356000D01*
X96475740Y-85356000D01*
X96409558Y-85349482D01*
X96343373Y-85342963D01*
X96180931Y-85293687D01*
X96173533Y-85291443D01*
X96017011Y-85207779D01*
X96017009Y-85207778D01*
X95981271Y-85178448D01*
X95879814Y-85095186D01*
X95796552Y-84993729D01*
X95767222Y-84957991D01*
X95752302Y-84930078D01*
X95683557Y-84801467D01*
X95666384Y-84744853D01*
X95632037Y-84631627D01*
X95614641Y-84455000D01*
X95632037Y-84278373D01*
X95666384Y-84165147D01*
X95683557Y-84108533D01*
X95767221Y-83952011D01*
X95767222Y-83952009D01*
X95796552Y-83916271D01*
X95879814Y-83814814D01*
X95986231Y-83727481D01*
X96017009Y-83702222D01*
X96086689Y-83664977D01*
X96173533Y-83618557D01*
X96230147Y-83601384D01*
X96343373Y-83567037D01*
X96409557Y-83560519D01*
X96475740Y-83554000D01*
X96564260Y-83554000D01*
X96630443Y-83560519D01*
X96630443Y-83560519D01*
G37*
G36*
X115101821Y-83616313D02*
X115101824Y-83616314D01*
X115101825Y-83616314D01*
X115262239Y-83664975D01*
X115262241Y-83664976D01*
X115262244Y-83664977D01*
X115410078Y-83743995D01*
X115539659Y-83850341D01*
X115646005Y-83979922D01*
X115725023Y-84127756D01*
X115725024Y-84127759D01*
X115725025Y-84127761D01*
X115770713Y-84278375D01*
X115773687Y-84288179D01*
X115790117Y-84455000D01*
X115773687Y-84621821D01*
X115773686Y-84621824D01*
X115773686Y-84621825D01*
X115770713Y-84631627D01*
X115725023Y-84782244D01*
X115646005Y-84930078D01*
X115539659Y-85059659D01*
X115410078Y-85166005D01*
X115262244Y-85245023D01*
X115262241Y-85245024D01*
X115262239Y-85245025D01*
X115101825Y-85293686D01*
X115101824Y-85293686D01*
X115101821Y-85293687D01*
X114976804Y-85306000D01*
X114893196Y-85306000D01*
X114768179Y-85293687D01*
X114768176Y-85293686D01*
X114768175Y-85293686D01*
X114607761Y-85245025D01*
X114607759Y-85245024D01*
X114607756Y-85245023D01*
X114459922Y-85166005D01*
X114330341Y-85059659D01*
X114223995Y-84930078D01*
X114144977Y-84782244D01*
X114099288Y-84631627D01*
X114096314Y-84621825D01*
X114096314Y-84621824D01*
X114096313Y-84621821D01*
X114079883Y-84455000D01*
X114096313Y-84288179D01*
X114099287Y-84278375D01*
X114144975Y-84127761D01*
X114144976Y-84127759D01*
X114144977Y-84127756D01*
X114223995Y-83979922D01*
X114330341Y-83850341D01*
X114459922Y-83743995D01*
X114607756Y-83664977D01*
X114607759Y-83664976D01*
X114607761Y-83664975D01*
X114768175Y-83616314D01*
X114768176Y-83616314D01*
X114768179Y-83616313D01*
X114893196Y-83604000D01*
X114976804Y-83604000D01*
X115101821Y-83616313D01*
X115101821Y-83616313D01*
G37*
G36*
X107481821Y-83616313D02*
X107481824Y-83616314D01*
X107481825Y-83616314D01*
X107642239Y-83664975D01*
X107642241Y-83664976D01*
X107642244Y-83664977D01*
X107790078Y-83743995D01*
X107919659Y-83850341D01*
X108026005Y-83979922D01*
X108105023Y-84127756D01*
X108105024Y-84127759D01*
X108105025Y-84127761D01*
X108150713Y-84278375D01*
X108153687Y-84288179D01*
X108170117Y-84455000D01*
X108153687Y-84621821D01*
X108153686Y-84621824D01*
X108153686Y-84621825D01*
X108150713Y-84631627D01*
X108105023Y-84782244D01*
X108026005Y-84930078D01*
X107919659Y-85059659D01*
X107790078Y-85166005D01*
X107642244Y-85245023D01*
X107642241Y-85245024D01*
X107642239Y-85245025D01*
X107481825Y-85293686D01*
X107481824Y-85293686D01*
X107481821Y-85293687D01*
X107356804Y-85306000D01*
X107273196Y-85306000D01*
X107148179Y-85293687D01*
X107148176Y-85293686D01*
X107148175Y-85293686D01*
X106987761Y-85245025D01*
X106987759Y-85245024D01*
X106987756Y-85245023D01*
X106839922Y-85166005D01*
X106710341Y-85059659D01*
X106603995Y-84930078D01*
X106524977Y-84782244D01*
X106479288Y-84631627D01*
X106476314Y-84621825D01*
X106476314Y-84621824D01*
X106476313Y-84621821D01*
X106459883Y-84455000D01*
X106476313Y-84288179D01*
X106479287Y-84278375D01*
X106524975Y-84127761D01*
X106524976Y-84127759D01*
X106524977Y-84127756D01*
X106603995Y-83979922D01*
X106710341Y-83850341D01*
X106839922Y-83743995D01*
X106987756Y-83664977D01*
X106987759Y-83664976D01*
X106987761Y-83664975D01*
X107148175Y-83616314D01*
X107148176Y-83616314D01*
X107148179Y-83616313D01*
X107273196Y-83604000D01*
X107356804Y-83604000D01*
X107481821Y-83616313D01*
X107481821Y-83616313D01*
G37*
G36*
X118911821Y-83616313D02*
X118911824Y-83616314D01*
X118911825Y-83616314D01*
X119072239Y-83664975D01*
X119072241Y-83664976D01*
X119072244Y-83664977D01*
X119220078Y-83743995D01*
X119349659Y-83850341D01*
X119456005Y-83979922D01*
X119535023Y-84127756D01*
X119535024Y-84127759D01*
X119535025Y-84127761D01*
X119580713Y-84278375D01*
X119583687Y-84288179D01*
X119600117Y-84455000D01*
X119583687Y-84621821D01*
X119583686Y-84621824D01*
X119583686Y-84621825D01*
X119580713Y-84631627D01*
X119535023Y-84782244D01*
X119456005Y-84930078D01*
X119349659Y-85059659D01*
X119220078Y-85166005D01*
X119072244Y-85245023D01*
X119072241Y-85245024D01*
X119072239Y-85245025D01*
X118911825Y-85293686D01*
X118911824Y-85293686D01*
X118911821Y-85293687D01*
X118786804Y-85306000D01*
X118703196Y-85306000D01*
X118578179Y-85293687D01*
X118578176Y-85293686D01*
X118578175Y-85293686D01*
X118417761Y-85245025D01*
X118417759Y-85245024D01*
X118417756Y-85245023D01*
X118269922Y-85166005D01*
X118140341Y-85059659D01*
X118033995Y-84930078D01*
X117954977Y-84782244D01*
X117909288Y-84631627D01*
X117906314Y-84621825D01*
X117906314Y-84621824D01*
X117906313Y-84621821D01*
X117889883Y-84455000D01*
X117906313Y-84288179D01*
X117909287Y-84278375D01*
X117954975Y-84127761D01*
X117954976Y-84127759D01*
X117954977Y-84127756D01*
X118033995Y-83979922D01*
X118140341Y-83850341D01*
X118269922Y-83743995D01*
X118417756Y-83664977D01*
X118417759Y-83664976D01*
X118417761Y-83664975D01*
X118578175Y-83616314D01*
X118578176Y-83616314D01*
X118578179Y-83616313D01*
X118703196Y-83604000D01*
X118786804Y-83604000D01*
X118911821Y-83616313D01*
X118911821Y-83616313D01*
G37*
G36*
X126531821Y-83616313D02*
X126531824Y-83616314D01*
X126531825Y-83616314D01*
X126692239Y-83664975D01*
X126692241Y-83664976D01*
X126692244Y-83664977D01*
X126840078Y-83743995D01*
X126969659Y-83850341D01*
X127076005Y-83979922D01*
X127155023Y-84127756D01*
X127155024Y-84127759D01*
X127155025Y-84127761D01*
X127200713Y-84278375D01*
X127203687Y-84288179D01*
X127220117Y-84455000D01*
X127203687Y-84621821D01*
X127203686Y-84621824D01*
X127203686Y-84621825D01*
X127200713Y-84631627D01*
X127155023Y-84782244D01*
X127076005Y-84930078D01*
X126969659Y-85059659D01*
X126840078Y-85166005D01*
X126692244Y-85245023D01*
X126692241Y-85245024D01*
X126692239Y-85245025D01*
X126531825Y-85293686D01*
X126531824Y-85293686D01*
X126531821Y-85293687D01*
X126406804Y-85306000D01*
X126323196Y-85306000D01*
X126198179Y-85293687D01*
X126198176Y-85293686D01*
X126198175Y-85293686D01*
X126037761Y-85245025D01*
X126037759Y-85245024D01*
X126037756Y-85245023D01*
X125889922Y-85166005D01*
X125760341Y-85059659D01*
X125653995Y-84930078D01*
X125574977Y-84782244D01*
X125529288Y-84631627D01*
X125526314Y-84621825D01*
X125526314Y-84621824D01*
X125526313Y-84621821D01*
X125509883Y-84455000D01*
X125526313Y-84288179D01*
X125529287Y-84278375D01*
X125574975Y-84127761D01*
X125574976Y-84127759D01*
X125574977Y-84127756D01*
X125653995Y-83979922D01*
X125760341Y-83850341D01*
X125889922Y-83743995D01*
X126037756Y-83664977D01*
X126037759Y-83664976D01*
X126037761Y-83664975D01*
X126198175Y-83616314D01*
X126198176Y-83616314D01*
X126198179Y-83616313D01*
X126323196Y-83604000D01*
X126406804Y-83604000D01*
X126531821Y-83616313D01*
X126531821Y-83616313D01*
G37*
G36*
X101213228Y-82366703D02*
X101368100Y-82430853D01*
X101507481Y-82523985D01*
X101626015Y-82642519D01*
X101719147Y-82781900D01*
X101783297Y-82936772D01*
X101816000Y-83101184D01*
X101816000Y-83268816D01*
X101783297Y-83433228D01*
X101719147Y-83588100D01*
X101626015Y-83727481D01*
X101507481Y-83846015D01*
X101368100Y-83939147D01*
X101213228Y-84003297D01*
X101048816Y-84036000D01*
X100881184Y-84036000D01*
X100716772Y-84003297D01*
X100561900Y-83939147D01*
X100422519Y-83846015D01*
X100303985Y-83727481D01*
X100210853Y-83588100D01*
X100146703Y-83433228D01*
X100114000Y-83268816D01*
X100114000Y-83101184D01*
X100146703Y-82936772D01*
X100210853Y-82781900D01*
X100303985Y-82642519D01*
X100422519Y-82523985D01*
X100561900Y-82430853D01*
X100716772Y-82366703D01*
X100881184Y-82334000D01*
X101048816Y-82334000D01*
X101213228Y-82366703D01*
X101213228Y-82366703D01*
G37*
G36*
X132923228Y-82366703D02*
X133078100Y-82430853D01*
X133217481Y-82523985D01*
X133336015Y-82642519D01*
X133429147Y-82781900D01*
X133493297Y-82936772D01*
X133526000Y-83101184D01*
X133526000Y-83268816D01*
X133493297Y-83433228D01*
X133429147Y-83588100D01*
X133336015Y-83727481D01*
X133217481Y-83846015D01*
X133078100Y-83939147D01*
X132923228Y-84003297D01*
X132758816Y-84036000D01*
X132591184Y-84036000D01*
X132426772Y-84003297D01*
X132271900Y-83939147D01*
X132132519Y-83846015D01*
X132013985Y-83727481D01*
X131920853Y-83588100D01*
X131856703Y-83433228D01*
X131824000Y-83268816D01*
X131824000Y-83101184D01*
X131856703Y-82936772D01*
X131920853Y-82781900D01*
X132013985Y-82642519D01*
X132132519Y-82523985D01*
X132271900Y-82430853D01*
X132426772Y-82366703D01*
X132591184Y-82334000D01*
X132758816Y-82334000D01*
X132923228Y-82366703D01*
X132923228Y-82366703D01*
G37*
G36*
X130423228Y-82366703D02*
X130578100Y-82430853D01*
X130717481Y-82523985D01*
X130836015Y-82642519D01*
X130929147Y-82781900D01*
X130993297Y-82936772D01*
X131026000Y-83101184D01*
X131026000Y-83268816D01*
X130993297Y-83433228D01*
X130929147Y-83588100D01*
X130836015Y-83727481D01*
X130717481Y-83846015D01*
X130578100Y-83939147D01*
X130423228Y-84003297D01*
X130258816Y-84036000D01*
X130091184Y-84036000D01*
X129926772Y-84003297D01*
X129771900Y-83939147D01*
X129632519Y-83846015D01*
X129513985Y-83727481D01*
X129420853Y-83588100D01*
X129356703Y-83433228D01*
X129324000Y-83268816D01*
X129324000Y-83101184D01*
X129356703Y-82936772D01*
X129420853Y-82781900D01*
X129513985Y-82642519D01*
X129632519Y-82523985D01*
X129771900Y-82430853D01*
X129926772Y-82366703D01*
X130091184Y-82334000D01*
X130258816Y-82334000D01*
X130423228Y-82366703D01*
X130423228Y-82366703D01*
G37*
G36*
X103713228Y-82366703D02*
X103868100Y-82430853D01*
X104007481Y-82523985D01*
X104126015Y-82642519D01*
X104219147Y-82781900D01*
X104283297Y-82936772D01*
X104316000Y-83101184D01*
X104316000Y-83268816D01*
X104283297Y-83433228D01*
X104219147Y-83588100D01*
X104126015Y-83727481D01*
X104007481Y-83846015D01*
X103868100Y-83939147D01*
X103713228Y-84003297D01*
X103548816Y-84036000D01*
X103381184Y-84036000D01*
X103216772Y-84003297D01*
X103061900Y-83939147D01*
X102922519Y-83846015D01*
X102803985Y-83727481D01*
X102710853Y-83588100D01*
X102646703Y-83433228D01*
X102614000Y-83268816D01*
X102614000Y-83101184D01*
X102646703Y-82936772D01*
X102710853Y-82781900D01*
X102803985Y-82642519D01*
X102922519Y-82523985D01*
X103061900Y-82430853D01*
X103216772Y-82366703D01*
X103381184Y-82334000D01*
X103548816Y-82334000D01*
X103713228Y-82366703D01*
X103713228Y-82366703D01*
G37*
G36*
X137270442Y-81020518D02*
X137336627Y-81027037D01*
X137449853Y-81061384D01*
X137506467Y-81078557D01*
X137593311Y-81124977D01*
X137662991Y-81162222D01*
X137698729Y-81191552D01*
X137800186Y-81274814D01*
X137883448Y-81376271D01*
X137912778Y-81412009D01*
X137912779Y-81412011D01*
X137996443Y-81568533D01*
X138013616Y-81625147D01*
X138047963Y-81738373D01*
X138065359Y-81915000D01*
X138047963Y-82091627D01*
X138013616Y-82204853D01*
X137996443Y-82261467D01*
X137940192Y-82366703D01*
X137912778Y-82417991D01*
X137883448Y-82453729D01*
X137800186Y-82555186D01*
X137698729Y-82638448D01*
X137662991Y-82667778D01*
X137662989Y-82667779D01*
X137506467Y-82751443D01*
X137499069Y-82753687D01*
X137336627Y-82802963D01*
X137270442Y-82809482D01*
X137204260Y-82816000D01*
X137115740Y-82816000D01*
X137049558Y-82809482D01*
X136983373Y-82802963D01*
X136820931Y-82753687D01*
X136813533Y-82751443D01*
X136657011Y-82667779D01*
X136657009Y-82667778D01*
X136621271Y-82638448D01*
X136519814Y-82555186D01*
X136436552Y-82453729D01*
X136407222Y-82417991D01*
X136379808Y-82366703D01*
X136323557Y-82261467D01*
X136306384Y-82204853D01*
X136272037Y-82091627D01*
X136254641Y-81915000D01*
X136272037Y-81738373D01*
X136306384Y-81625147D01*
X136323557Y-81568533D01*
X136407221Y-81412011D01*
X136407222Y-81412009D01*
X136436552Y-81376271D01*
X136519814Y-81274814D01*
X136621271Y-81191552D01*
X136657009Y-81162222D01*
X136726689Y-81124977D01*
X136813533Y-81078557D01*
X136870147Y-81061384D01*
X136983373Y-81027037D01*
X137049558Y-81020518D01*
X137115740Y-81014000D01*
X137204260Y-81014000D01*
X137270442Y-81020518D01*
X137270442Y-81020518D01*
G37*
G36*
X96630442Y-81020518D02*
X96696627Y-81027037D01*
X96809853Y-81061384D01*
X96866467Y-81078557D01*
X96953311Y-81124977D01*
X97022991Y-81162222D01*
X97058729Y-81191552D01*
X97160186Y-81274814D01*
X97243448Y-81376271D01*
X97272778Y-81412009D01*
X97272779Y-81412011D01*
X97356443Y-81568533D01*
X97373616Y-81625147D01*
X97407963Y-81738373D01*
X97425359Y-81915000D01*
X97407963Y-82091627D01*
X97373616Y-82204853D01*
X97356443Y-82261467D01*
X97300192Y-82366703D01*
X97272778Y-82417991D01*
X97243448Y-82453729D01*
X97160186Y-82555186D01*
X97058729Y-82638448D01*
X97022991Y-82667778D01*
X97022989Y-82667779D01*
X96866467Y-82751443D01*
X96859069Y-82753687D01*
X96696627Y-82802963D01*
X96630442Y-82809482D01*
X96564260Y-82816000D01*
X96475740Y-82816000D01*
X96409558Y-82809482D01*
X96343373Y-82802963D01*
X96180931Y-82753687D01*
X96173533Y-82751443D01*
X96017011Y-82667779D01*
X96017009Y-82667778D01*
X95981271Y-82638448D01*
X95879814Y-82555186D01*
X95796552Y-82453729D01*
X95767222Y-82417991D01*
X95739808Y-82366703D01*
X95683557Y-82261467D01*
X95666384Y-82204853D01*
X95632037Y-82091627D01*
X95614641Y-81915000D01*
X95632037Y-81738373D01*
X95666384Y-81625147D01*
X95683557Y-81568533D01*
X95767221Y-81412011D01*
X95767222Y-81412009D01*
X95796552Y-81376271D01*
X95879814Y-81274814D01*
X95981271Y-81191552D01*
X96017009Y-81162222D01*
X96086689Y-81124977D01*
X96173533Y-81078557D01*
X96230147Y-81061384D01*
X96343373Y-81027037D01*
X96409558Y-81020518D01*
X96475740Y-81014000D01*
X96564260Y-81014000D01*
X96630442Y-81020518D01*
X96630442Y-81020518D01*
G37*
G36*
X107481821Y-81076313D02*
X107481824Y-81076314D01*
X107481825Y-81076314D01*
X107642239Y-81124975D01*
X107642241Y-81124976D01*
X107642244Y-81124977D01*
X107790078Y-81203995D01*
X107919659Y-81310341D01*
X108026005Y-81439922D01*
X108105023Y-81587756D01*
X108105024Y-81587759D01*
X108105025Y-81587761D01*
X108150713Y-81738375D01*
X108153687Y-81748179D01*
X108170117Y-81915000D01*
X108153687Y-82081821D01*
X108153686Y-82081824D01*
X108153686Y-82081825D01*
X108150713Y-82091627D01*
X108105023Y-82242244D01*
X108026005Y-82390078D01*
X107919659Y-82519659D01*
X107790078Y-82626005D01*
X107642244Y-82705023D01*
X107642241Y-82705024D01*
X107642239Y-82705025D01*
X107481825Y-82753686D01*
X107481824Y-82753686D01*
X107481821Y-82753687D01*
X107356804Y-82766000D01*
X107273196Y-82766000D01*
X107148179Y-82753687D01*
X107148176Y-82753686D01*
X107148175Y-82753686D01*
X106987761Y-82705025D01*
X106987759Y-82705024D01*
X106987756Y-82705023D01*
X106839922Y-82626005D01*
X106710341Y-82519659D01*
X106603995Y-82390078D01*
X106524977Y-82242244D01*
X106479288Y-82091627D01*
X106476314Y-82081825D01*
X106476314Y-82081824D01*
X106476313Y-82081821D01*
X106459883Y-81915000D01*
X106476313Y-81748179D01*
X106479287Y-81738375D01*
X106524975Y-81587761D01*
X106524976Y-81587759D01*
X106524977Y-81587756D01*
X106603995Y-81439922D01*
X106710341Y-81310341D01*
X106839922Y-81203995D01*
X106987756Y-81124977D01*
X106987759Y-81124976D01*
X106987761Y-81124975D01*
X107148175Y-81076314D01*
X107148176Y-81076314D01*
X107148179Y-81076313D01*
X107273196Y-81064000D01*
X107356804Y-81064000D01*
X107481821Y-81076313D01*
X107481821Y-81076313D01*
G37*
G36*
X115101821Y-81076313D02*
X115101824Y-81076314D01*
X115101825Y-81076314D01*
X115262239Y-81124975D01*
X115262241Y-81124976D01*
X115262244Y-81124977D01*
X115410078Y-81203995D01*
X115539659Y-81310341D01*
X115646005Y-81439922D01*
X115725023Y-81587756D01*
X115725024Y-81587759D01*
X115725025Y-81587761D01*
X115770713Y-81738375D01*
X115773687Y-81748179D01*
X115790117Y-81915000D01*
X115773687Y-82081821D01*
X115773686Y-82081824D01*
X115773686Y-82081825D01*
X115770713Y-82091627D01*
X115725023Y-82242244D01*
X115646005Y-82390078D01*
X115539659Y-82519659D01*
X115410078Y-82626005D01*
X115262244Y-82705023D01*
X115262241Y-82705024D01*
X115262239Y-82705025D01*
X115101825Y-82753686D01*
X115101824Y-82753686D01*
X115101821Y-82753687D01*
X114976804Y-82766000D01*
X114893196Y-82766000D01*
X114768179Y-82753687D01*
X114768176Y-82753686D01*
X114768175Y-82753686D01*
X114607761Y-82705025D01*
X114607759Y-82705024D01*
X114607756Y-82705023D01*
X114459922Y-82626005D01*
X114330341Y-82519659D01*
X114223995Y-82390078D01*
X114144977Y-82242244D01*
X114099288Y-82091627D01*
X114096314Y-82081825D01*
X114096314Y-82081824D01*
X114096313Y-82081821D01*
X114079883Y-81915000D01*
X114096313Y-81748179D01*
X114099287Y-81738375D01*
X114144975Y-81587761D01*
X114144976Y-81587759D01*
X114144977Y-81587756D01*
X114223995Y-81439922D01*
X114330341Y-81310341D01*
X114459922Y-81203995D01*
X114607756Y-81124977D01*
X114607759Y-81124976D01*
X114607761Y-81124975D01*
X114768175Y-81076314D01*
X114768176Y-81076314D01*
X114768179Y-81076313D01*
X114893196Y-81064000D01*
X114976804Y-81064000D01*
X115101821Y-81076313D01*
X115101821Y-81076313D01*
G37*
G36*
X126531821Y-81076313D02*
X126531824Y-81076314D01*
X126531825Y-81076314D01*
X126692239Y-81124975D01*
X126692241Y-81124976D01*
X126692244Y-81124977D01*
X126840078Y-81203995D01*
X126969659Y-81310341D01*
X127076005Y-81439922D01*
X127155023Y-81587756D01*
X127155024Y-81587759D01*
X127155025Y-81587761D01*
X127200713Y-81738375D01*
X127203687Y-81748179D01*
X127220117Y-81915000D01*
X127203687Y-82081821D01*
X127203686Y-82081824D01*
X127203686Y-82081825D01*
X127200713Y-82091627D01*
X127155023Y-82242244D01*
X127076005Y-82390078D01*
X126969659Y-82519659D01*
X126840078Y-82626005D01*
X126692244Y-82705023D01*
X126692241Y-82705024D01*
X126692239Y-82705025D01*
X126531825Y-82753686D01*
X126531824Y-82753686D01*
X126531821Y-82753687D01*
X126406804Y-82766000D01*
X126323196Y-82766000D01*
X126198179Y-82753687D01*
X126198176Y-82753686D01*
X126198175Y-82753686D01*
X126037761Y-82705025D01*
X126037759Y-82705024D01*
X126037756Y-82705023D01*
X125889922Y-82626005D01*
X125760341Y-82519659D01*
X125653995Y-82390078D01*
X125574977Y-82242244D01*
X125529288Y-82091627D01*
X125526314Y-82081825D01*
X125526314Y-82081824D01*
X125526313Y-82081821D01*
X125509883Y-81915000D01*
X125526313Y-81748179D01*
X125529287Y-81738375D01*
X125574975Y-81587761D01*
X125574976Y-81587759D01*
X125574977Y-81587756D01*
X125653995Y-81439922D01*
X125760341Y-81310341D01*
X125889922Y-81203995D01*
X126037756Y-81124977D01*
X126037759Y-81124976D01*
X126037761Y-81124975D01*
X126198175Y-81076314D01*
X126198176Y-81076314D01*
X126198179Y-81076313D01*
X126323196Y-81064000D01*
X126406804Y-81064000D01*
X126531821Y-81076313D01*
X126531821Y-81076313D01*
G37*
G36*
X118911821Y-81076313D02*
X118911824Y-81076314D01*
X118911825Y-81076314D01*
X119072239Y-81124975D01*
X119072241Y-81124976D01*
X119072244Y-81124977D01*
X119220078Y-81203995D01*
X119349659Y-81310341D01*
X119456005Y-81439922D01*
X119535023Y-81587756D01*
X119535024Y-81587759D01*
X119535025Y-81587761D01*
X119580713Y-81738375D01*
X119583687Y-81748179D01*
X119600117Y-81915000D01*
X119583687Y-82081821D01*
X119583686Y-82081824D01*
X119583686Y-82081825D01*
X119580713Y-82091627D01*
X119535023Y-82242244D01*
X119456005Y-82390078D01*
X119349659Y-82519659D01*
X119220078Y-82626005D01*
X119072244Y-82705023D01*
X119072241Y-82705024D01*
X119072239Y-82705025D01*
X118911825Y-82753686D01*
X118911824Y-82753686D01*
X118911821Y-82753687D01*
X118786804Y-82766000D01*
X118703196Y-82766000D01*
X118578179Y-82753687D01*
X118578176Y-82753686D01*
X118578175Y-82753686D01*
X118417761Y-82705025D01*
X118417759Y-82705024D01*
X118417756Y-82705023D01*
X118269922Y-82626005D01*
X118140341Y-82519659D01*
X118033995Y-82390078D01*
X117954977Y-82242244D01*
X117909288Y-82091627D01*
X117906314Y-82081825D01*
X117906314Y-82081824D01*
X117906313Y-82081821D01*
X117889883Y-81915000D01*
X117906313Y-81748179D01*
X117909287Y-81738375D01*
X117954975Y-81587761D01*
X117954976Y-81587759D01*
X117954977Y-81587756D01*
X118033995Y-81439922D01*
X118140341Y-81310341D01*
X118269922Y-81203995D01*
X118417756Y-81124977D01*
X118417759Y-81124976D01*
X118417761Y-81124975D01*
X118578175Y-81076314D01*
X118578176Y-81076314D01*
X118578179Y-81076313D01*
X118703196Y-81064000D01*
X118786804Y-81064000D01*
X118911821Y-81076313D01*
X118911821Y-81076313D01*
G37*
G36*
X137270442Y-78480518D02*
X137336627Y-78487037D01*
X137449853Y-78521384D01*
X137506467Y-78538557D01*
X137593311Y-78584977D01*
X137662991Y-78622222D01*
X137698729Y-78651552D01*
X137800186Y-78734814D01*
X137883448Y-78836271D01*
X137912778Y-78872009D01*
X137912779Y-78872011D01*
X137996443Y-79028533D01*
X138013616Y-79085147D01*
X138047963Y-79198373D01*
X138065359Y-79375000D01*
X138047963Y-79551627D01*
X138013616Y-79664853D01*
X137996443Y-79721467D01*
X137927698Y-79850078D01*
X137912778Y-79877991D01*
X137883448Y-79913729D01*
X137800186Y-80015186D01*
X137698729Y-80098448D01*
X137662991Y-80127778D01*
X137662989Y-80127779D01*
X137506467Y-80211443D01*
X137499069Y-80213687D01*
X137336627Y-80262963D01*
X137270442Y-80269482D01*
X137204260Y-80276000D01*
X137115740Y-80276000D01*
X137049558Y-80269482D01*
X136983373Y-80262963D01*
X136820931Y-80213687D01*
X136813533Y-80211443D01*
X136657011Y-80127779D01*
X136657009Y-80127778D01*
X136621271Y-80098448D01*
X136519814Y-80015186D01*
X136436552Y-79913729D01*
X136407222Y-79877991D01*
X136392302Y-79850078D01*
X136323557Y-79721467D01*
X136306384Y-79664853D01*
X136272037Y-79551627D01*
X136254641Y-79375000D01*
X136272037Y-79198373D01*
X136306384Y-79085147D01*
X136323557Y-79028533D01*
X136407221Y-78872011D01*
X136407222Y-78872009D01*
X136436552Y-78836271D01*
X136519814Y-78734814D01*
X136621271Y-78651552D01*
X136657009Y-78622222D01*
X136726689Y-78584977D01*
X136813533Y-78538557D01*
X136870147Y-78521384D01*
X136983373Y-78487037D01*
X137049558Y-78480518D01*
X137115740Y-78474000D01*
X137204260Y-78474000D01*
X137270442Y-78480518D01*
X137270442Y-78480518D01*
G37*
G36*
X96630442Y-78480518D02*
X96696627Y-78487037D01*
X96809853Y-78521384D01*
X96866467Y-78538557D01*
X96953311Y-78584977D01*
X97022991Y-78622222D01*
X97058729Y-78651552D01*
X97160186Y-78734814D01*
X97243448Y-78836271D01*
X97272778Y-78872009D01*
X97272779Y-78872011D01*
X97356443Y-79028533D01*
X97373616Y-79085147D01*
X97407963Y-79198373D01*
X97425359Y-79375000D01*
X97407963Y-79551627D01*
X97373616Y-79664853D01*
X97356443Y-79721467D01*
X97287698Y-79850078D01*
X97272778Y-79877991D01*
X97243448Y-79913729D01*
X97160186Y-80015186D01*
X97058729Y-80098448D01*
X97022991Y-80127778D01*
X97022989Y-80127779D01*
X96866467Y-80211443D01*
X96859069Y-80213687D01*
X96696627Y-80262963D01*
X96630442Y-80269482D01*
X96564260Y-80276000D01*
X96475740Y-80276000D01*
X96409558Y-80269482D01*
X96343373Y-80262963D01*
X96180931Y-80213687D01*
X96173533Y-80211443D01*
X96017011Y-80127779D01*
X96017009Y-80127778D01*
X95981271Y-80098448D01*
X95879814Y-80015186D01*
X95796552Y-79913729D01*
X95767222Y-79877991D01*
X95752302Y-79850078D01*
X95683557Y-79721467D01*
X95666384Y-79664853D01*
X95632037Y-79551627D01*
X95614641Y-79375000D01*
X95632037Y-79198373D01*
X95666384Y-79085147D01*
X95683557Y-79028533D01*
X95767221Y-78872011D01*
X95767222Y-78872009D01*
X95796552Y-78836271D01*
X95879814Y-78734814D01*
X95981271Y-78651552D01*
X96017009Y-78622222D01*
X96086689Y-78584977D01*
X96173533Y-78538557D01*
X96230147Y-78521384D01*
X96343373Y-78487037D01*
X96409558Y-78480518D01*
X96475740Y-78474000D01*
X96564260Y-78474000D01*
X96630442Y-78480518D01*
X96630442Y-78480518D01*
G37*
G36*
X118911821Y-78536313D02*
X118911824Y-78536314D01*
X118911825Y-78536314D01*
X119072239Y-78584975D01*
X119072241Y-78584976D01*
X119072244Y-78584977D01*
X119220078Y-78663995D01*
X119349659Y-78770341D01*
X119456005Y-78899922D01*
X119535023Y-79047756D01*
X119535024Y-79047759D01*
X119535025Y-79047761D01*
X119580713Y-79198375D01*
X119583687Y-79208179D01*
X119600117Y-79375000D01*
X119583687Y-79541821D01*
X119583686Y-79541824D01*
X119583686Y-79541825D01*
X119580713Y-79551627D01*
X119535023Y-79702244D01*
X119456005Y-79850078D01*
X119349659Y-79979659D01*
X119220078Y-80086005D01*
X119072244Y-80165023D01*
X119072241Y-80165024D01*
X119072239Y-80165025D01*
X118911825Y-80213686D01*
X118911824Y-80213686D01*
X118911821Y-80213687D01*
X118786804Y-80226000D01*
X118703196Y-80226000D01*
X118578179Y-80213687D01*
X118578176Y-80213686D01*
X118578175Y-80213686D01*
X118417761Y-80165025D01*
X118417759Y-80165024D01*
X118417756Y-80165023D01*
X118269922Y-80086005D01*
X118140341Y-79979659D01*
X118033995Y-79850078D01*
X117954977Y-79702244D01*
X117909288Y-79551627D01*
X117906314Y-79541825D01*
X117906314Y-79541824D01*
X117906313Y-79541821D01*
X117889883Y-79375000D01*
X117906313Y-79208179D01*
X117909287Y-79198375D01*
X117954975Y-79047761D01*
X117954976Y-79047759D01*
X117954977Y-79047756D01*
X118033995Y-78899922D01*
X118140341Y-78770341D01*
X118269922Y-78663995D01*
X118417756Y-78584977D01*
X118417759Y-78584976D01*
X118417761Y-78584975D01*
X118578175Y-78536314D01*
X118578176Y-78536314D01*
X118578179Y-78536313D01*
X118703196Y-78524000D01*
X118786804Y-78524000D01*
X118911821Y-78536313D01*
X118911821Y-78536313D01*
G37*
G36*
X126531821Y-78536313D02*
X126531824Y-78536314D01*
X126531825Y-78536314D01*
X126692239Y-78584975D01*
X126692241Y-78584976D01*
X126692244Y-78584977D01*
X126840078Y-78663995D01*
X126969659Y-78770341D01*
X127076005Y-78899922D01*
X127155023Y-79047756D01*
X127155024Y-79047759D01*
X127155025Y-79047761D01*
X127200713Y-79198375D01*
X127203687Y-79208179D01*
X127220117Y-79375000D01*
X127203687Y-79541821D01*
X127203686Y-79541824D01*
X127203686Y-79541825D01*
X127200713Y-79551627D01*
X127155023Y-79702244D01*
X127076005Y-79850078D01*
X126969659Y-79979659D01*
X126840078Y-80086005D01*
X126692244Y-80165023D01*
X126692241Y-80165024D01*
X126692239Y-80165025D01*
X126531825Y-80213686D01*
X126531824Y-80213686D01*
X126531821Y-80213687D01*
X126406804Y-80226000D01*
X126323196Y-80226000D01*
X126198179Y-80213687D01*
X126198176Y-80213686D01*
X126198175Y-80213686D01*
X126037761Y-80165025D01*
X126037759Y-80165024D01*
X126037756Y-80165023D01*
X125889922Y-80086005D01*
X125760341Y-79979659D01*
X125653995Y-79850078D01*
X125574977Y-79702244D01*
X125529288Y-79551627D01*
X125526314Y-79541825D01*
X125526314Y-79541824D01*
X125526313Y-79541821D01*
X125509883Y-79375000D01*
X125526313Y-79208179D01*
X125529287Y-79198375D01*
X125574975Y-79047761D01*
X125574976Y-79047759D01*
X125574977Y-79047756D01*
X125653995Y-78899922D01*
X125760341Y-78770341D01*
X125889922Y-78663995D01*
X126037756Y-78584977D01*
X126037759Y-78584976D01*
X126037761Y-78584975D01*
X126198175Y-78536314D01*
X126198176Y-78536314D01*
X126198179Y-78536313D01*
X126323196Y-78524000D01*
X126406804Y-78524000D01*
X126531821Y-78536313D01*
X126531821Y-78536313D01*
G37*
G36*
X115101821Y-78536313D02*
X115101824Y-78536314D01*
X115101825Y-78536314D01*
X115262239Y-78584975D01*
X115262241Y-78584976D01*
X115262244Y-78584977D01*
X115410078Y-78663995D01*
X115539659Y-78770341D01*
X115646005Y-78899922D01*
X115725023Y-79047756D01*
X115725024Y-79047759D01*
X115725025Y-79047761D01*
X115770713Y-79198375D01*
X115773687Y-79208179D01*
X115790117Y-79375000D01*
X115773687Y-79541821D01*
X115773686Y-79541824D01*
X115773686Y-79541825D01*
X115770713Y-79551627D01*
X115725023Y-79702244D01*
X115646005Y-79850078D01*
X115539659Y-79979659D01*
X115410078Y-80086005D01*
X115262244Y-80165023D01*
X115262241Y-80165024D01*
X115262239Y-80165025D01*
X115101825Y-80213686D01*
X115101824Y-80213686D01*
X115101821Y-80213687D01*
X114976804Y-80226000D01*
X114893196Y-80226000D01*
X114768179Y-80213687D01*
X114768176Y-80213686D01*
X114768175Y-80213686D01*
X114607761Y-80165025D01*
X114607759Y-80165024D01*
X114607756Y-80165023D01*
X114459922Y-80086005D01*
X114330341Y-79979659D01*
X114223995Y-79850078D01*
X114144977Y-79702244D01*
X114099288Y-79551627D01*
X114096314Y-79541825D01*
X114096314Y-79541824D01*
X114096313Y-79541821D01*
X114079883Y-79375000D01*
X114096313Y-79208179D01*
X114099287Y-79198375D01*
X114144975Y-79047761D01*
X114144976Y-79047759D01*
X114144977Y-79047756D01*
X114223995Y-78899922D01*
X114330341Y-78770341D01*
X114459922Y-78663995D01*
X114607756Y-78584977D01*
X114607759Y-78584976D01*
X114607761Y-78584975D01*
X114768175Y-78536314D01*
X114768176Y-78536314D01*
X114768179Y-78536313D01*
X114893196Y-78524000D01*
X114976804Y-78524000D01*
X115101821Y-78536313D01*
X115101821Y-78536313D01*
G37*
G36*
X107481821Y-78536313D02*
X107481824Y-78536314D01*
X107481825Y-78536314D01*
X107642239Y-78584975D01*
X107642241Y-78584976D01*
X107642244Y-78584977D01*
X107790078Y-78663995D01*
X107919659Y-78770341D01*
X108026005Y-78899922D01*
X108105023Y-79047756D01*
X108105024Y-79047759D01*
X108105025Y-79047761D01*
X108150713Y-79198375D01*
X108153687Y-79208179D01*
X108170117Y-79375000D01*
X108153687Y-79541821D01*
X108153686Y-79541824D01*
X108153686Y-79541825D01*
X108150713Y-79551627D01*
X108105023Y-79702244D01*
X108026005Y-79850078D01*
X107919659Y-79979659D01*
X107790078Y-80086005D01*
X107642244Y-80165023D01*
X107642241Y-80165024D01*
X107642239Y-80165025D01*
X107481825Y-80213686D01*
X107481824Y-80213686D01*
X107481821Y-80213687D01*
X107356804Y-80226000D01*
X107273196Y-80226000D01*
X107148179Y-80213687D01*
X107148176Y-80213686D01*
X107148175Y-80213686D01*
X106987761Y-80165025D01*
X106987759Y-80165024D01*
X106987756Y-80165023D01*
X106839922Y-80086005D01*
X106710341Y-79979659D01*
X106603995Y-79850078D01*
X106524977Y-79702244D01*
X106479288Y-79551627D01*
X106476314Y-79541825D01*
X106476314Y-79541824D01*
X106476313Y-79541821D01*
X106459883Y-79375000D01*
X106476313Y-79208179D01*
X106479287Y-79198375D01*
X106524975Y-79047761D01*
X106524976Y-79047759D01*
X106524977Y-79047756D01*
X106603995Y-78899922D01*
X106710341Y-78770341D01*
X106839922Y-78663995D01*
X106987756Y-78584977D01*
X106987759Y-78584976D01*
X106987761Y-78584975D01*
X107148175Y-78536314D01*
X107148176Y-78536314D01*
X107148179Y-78536313D01*
X107273196Y-78524000D01*
X107356804Y-78524000D01*
X107481821Y-78536313D01*
X107481821Y-78536313D01*
G37*
G36*
X138061000Y-77736000D02*
X136259000Y-77736000D01*
X136259000Y-75934000D01*
X138061000Y-75934000D01*
X138061000Y-77736000D01*
X138061000Y-77736000D01*
G37*
G36*
X97421000Y-77736000D02*
X95619000Y-77736000D01*
X95619000Y-75934000D01*
X97421000Y-75934000D01*
X97421000Y-77736000D01*
X97421000Y-77736000D01*
G37*
G36*
X119596000Y-77686000D02*
X117894000Y-77686000D01*
X117894000Y-75984000D01*
X119596000Y-75984000D01*
X119596000Y-77686000D01*
X119596000Y-77686000D01*
G37*
G36*
X126531821Y-75996313D02*
X126531824Y-75996314D01*
X126531825Y-75996314D01*
X126692239Y-76044975D01*
X126692241Y-76044976D01*
X126692244Y-76044977D01*
X126840078Y-76123995D01*
X126969659Y-76230341D01*
X127076005Y-76359922D01*
X127155023Y-76507756D01*
X127203687Y-76668179D01*
X127220117Y-76835000D01*
X127203687Y-77001821D01*
X127155023Y-77162244D01*
X127076005Y-77310078D01*
X126969659Y-77439659D01*
X126840078Y-77546005D01*
X126692244Y-77625023D01*
X126692241Y-77625024D01*
X126692239Y-77625025D01*
X126531825Y-77673686D01*
X126531824Y-77673686D01*
X126531821Y-77673687D01*
X126406804Y-77686000D01*
X126323196Y-77686000D01*
X126198179Y-77673687D01*
X126198176Y-77673686D01*
X126198175Y-77673686D01*
X126037761Y-77625025D01*
X126037759Y-77625024D01*
X126037756Y-77625023D01*
X125889922Y-77546005D01*
X125760341Y-77439659D01*
X125653995Y-77310078D01*
X125574977Y-77162244D01*
X125526313Y-77001821D01*
X125509883Y-76835000D01*
X125526313Y-76668179D01*
X125574977Y-76507756D01*
X125653995Y-76359922D01*
X125760341Y-76230341D01*
X125889922Y-76123995D01*
X126037756Y-76044977D01*
X126037759Y-76044976D01*
X126037761Y-76044975D01*
X126198175Y-75996314D01*
X126198176Y-75996314D01*
X126198179Y-75996313D01*
X126323196Y-75984000D01*
X126406804Y-75984000D01*
X126531821Y-75996313D01*
X126531821Y-75996313D01*
G37*
G36*
X115101821Y-75996313D02*
X115101824Y-75996314D01*
X115101825Y-75996314D01*
X115262239Y-76044975D01*
X115262241Y-76044976D01*
X115262244Y-76044977D01*
X115410078Y-76123995D01*
X115539659Y-76230341D01*
X115646005Y-76359922D01*
X115725023Y-76507756D01*
X115773687Y-76668179D01*
X115790117Y-76835000D01*
X115773687Y-77001821D01*
X115725023Y-77162244D01*
X115646005Y-77310078D01*
X115539659Y-77439659D01*
X115410078Y-77546005D01*
X115262244Y-77625023D01*
X115262241Y-77625024D01*
X115262239Y-77625025D01*
X115101825Y-77673686D01*
X115101824Y-77673686D01*
X115101821Y-77673687D01*
X114976804Y-77686000D01*
X114893196Y-77686000D01*
X114768179Y-77673687D01*
X114768176Y-77673686D01*
X114768175Y-77673686D01*
X114607761Y-77625025D01*
X114607759Y-77625024D01*
X114607756Y-77625023D01*
X114459922Y-77546005D01*
X114330341Y-77439659D01*
X114223995Y-77310078D01*
X114144977Y-77162244D01*
X114096313Y-77001821D01*
X114079883Y-76835000D01*
X114096313Y-76668179D01*
X114144977Y-76507756D01*
X114223995Y-76359922D01*
X114330341Y-76230341D01*
X114459922Y-76123995D01*
X114607756Y-76044977D01*
X114607759Y-76044976D01*
X114607761Y-76044975D01*
X114768175Y-75996314D01*
X114768176Y-75996314D01*
X114768179Y-75996313D01*
X114893196Y-75984000D01*
X114976804Y-75984000D01*
X115101821Y-75996313D01*
X115101821Y-75996313D01*
G37*
G36*
X108166000Y-77686000D02*
X106464000Y-77686000D01*
X106464000Y-75984000D01*
X108166000Y-75984000D01*
X108166000Y-77686000D01*
X108166000Y-77686000D01*
G37*
M02*
