M48
;DRILL file {KiCad (5.0.1-3-g963ef8bb5)} date 2019 November 01, Friday 03:37:23
;FORMAT={-:-/ absolute / inch / decimal}
FMAT,2
INCH,TZ
T1C0.0157
T2C0.0315
T3C0.0394
%
G90
G05
M72
T1
X4.3213Y-3.8908
X4.8626Y-3.155
X4.9336Y-3.8425
X5.0344Y-3.5265
X5.4585Y-3.5342
T2
X4.675Y-3.025
X4.675Y-3.125
X4.675Y-3.225
X4.675Y-3.325
X4.675Y-3.425
X4.675Y-3.525
X4.675Y-3.625
X4.675Y-3.725
X4.975Y-3.025
X4.975Y-3.125
X4.975Y-3.225
X4.975Y-3.325
X4.975Y-3.425
X4.975Y-3.525
X4.975Y-3.625
X4.975Y-3.725
X5.125Y-3.275
X5.2234Y-3.275
X4.675Y-3.925
X4.675Y-4.025
X4.675Y-4.125
X4.675Y-4.225
X4.675Y-4.325
X4.675Y-4.425
X4.675Y-4.525
X4.675Y-4.625
X4.975Y-3.925
X4.975Y-4.025
X4.975Y-4.125
X4.975Y-4.225
X4.975Y-4.325
X4.975Y-4.425
X4.975Y-4.525
X4.975Y-4.625
X3.975Y-3.275
X4.0734Y-3.275
X4.225Y-3.925
X4.225Y-4.025
X4.225Y-4.125
X4.225Y-4.225
X4.225Y-4.325
X4.225Y-4.425
X4.225Y-4.525
X4.225Y-4.625
X4.525Y-3.925
X4.525Y-4.025
X4.525Y-4.125
X4.525Y-4.225
X4.525Y-4.325
X4.525Y-4.425
X4.525Y-4.525
X4.525Y-4.625
X4.225Y-3.025
X4.225Y-3.125
X4.225Y-3.225
X4.225Y-3.325
X4.225Y-3.425
X4.225Y-3.525
X4.225Y-3.625
X4.225Y-3.725
X4.525Y-3.025
X4.525Y-3.125
X4.525Y-3.225
X4.525Y-3.325
X4.525Y-3.425
X4.525Y-3.525
X4.525Y-3.625
X4.525Y-3.725
T3
X5.4Y-3.025
X5.4Y-3.125
X5.4Y-3.225
X5.4Y-3.325
X5.4Y-3.425
X5.4Y-3.525
X5.4Y-3.625
X5.4Y-3.725
X3.8Y-3.925
X3.8Y-4.025
X3.8Y-4.125
X3.8Y-4.225
X3.8Y-4.325
X3.8Y-4.425
X3.8Y-4.525
X3.8Y-4.625
X5.175Y-3.575
X5.175Y-3.675
X5.175Y-3.775
X5.175Y-3.875
X5.175Y-3.975
X5.175Y-4.075
X5.175Y-4.175
X5.175Y-4.275
X5.175Y-4.375
X5.175Y-4.475
X5.4Y-3.925
X5.4Y-4.025
X5.4Y-4.125
X5.4Y-4.225
X5.4Y-4.325
X5.4Y-4.425
X5.4Y-4.525
X5.4Y-4.625
X3.8Y-3.025
X3.8Y-3.125
X3.8Y-3.225
X3.8Y-3.325
X3.8Y-3.425
X3.8Y-3.525
X3.8Y-3.625
X3.8Y-3.725
X4.025Y-3.575
X4.025Y-3.675
X4.025Y-3.775
X4.025Y-3.875
X4.025Y-3.975
X4.025Y-4.075
X4.025Y-4.175
X4.025Y-4.275
X4.025Y-4.375
X4.025Y-4.475
T0
M30
