M48
;DRILL file {KiCad (5.0.1-3-g963ef8bb5)} date 2019 November 01, Friday 03:39:29
;FORMAT={-:-/ absolute / inch / decimal}
FMAT,2
INCH,TZ
T1C0.0157
T2C0.0315
T3C0.0394
%
G90
G05
M72
T1
X6.0815Y-4.1557
X6.0893Y-4.646
X6.253Y-4.1818
X6.2803Y-4.3304
X6.325Y-4.35
X6.3453Y-4.1331
X6.3657Y-4.5859
X6.3853Y-4.1324
X6.3976Y-4.2373
X6.4413Y-4.1103
X6.4504Y-4.5653
X6.4686Y-4.2682
X6.475Y-4.35
X6.4868Y-4.097
X6.5198Y-4.278
X6.5673Y-4.5026
X6.627Y-4.5372
T2
X6.3Y-3.65
X6.4921Y-3.65
T3
X6.Y-3.6
X6.Y-3.7
X6.Y-3.8
X6.Y-3.9
X6.Y-4.
X6.Y-4.1
X6.Y-4.2
X6.Y-4.3
X6.Y-4.4
X6.Y-4.5
X6.Y-4.8
X6.Y-4.9
X6.Y-5.
X6.Y-5.1
X6.Y-5.2
X6.9Y-3.65
X7.15Y-3.6
X7.15Y-3.7
X7.15Y-3.8
X7.15Y-3.9
X7.15Y-4.
X7.15Y-4.1
X7.15Y-4.2
X7.15Y-4.3
X7.15Y-4.4
X7.15Y-4.5
X7.15Y-4.8
X7.15Y-4.9
X6.3Y-3.95
X6.4Y-3.95
X6.7Y-3.95
X6.8Y-3.95
X6.9Y-3.95
X6.5Y-5.15
X6.6Y-5.15
X6.7Y-5.15
X6.8Y-4.15
X6.8Y-4.25
X6.8Y-4.35
X6.8Y-4.45
X6.8Y-4.55
X6.9Y-4.15
X6.9Y-4.25
X6.9Y-4.35
X6.9Y-4.45
X6.9Y-4.55
T0
M30
