G04 #@! TF.GenerationSoftware,KiCad,Pcbnew,(5.0.1-3-g963ef8bb5)*
G04 #@! TF.CreationDate,2019-11-01T03:39:26+09:00*
G04 #@! TF.ProjectId,DDAC8S,4444414338532E6B696361645F706362,rev?*
G04 #@! TF.SameCoordinates,Original*
G04 #@! TF.FileFunction,Copper,L1,Top,Signal*
G04 #@! TF.FilePolarity,Positive*
%FSLAX46Y46*%
G04 Gerber Fmt 4.6, Leading zero omitted, Abs format (unit mm)*
G04 Created by KiCad (PCBNEW (5.0.1-3-g963ef8bb5)) date 2019 November 01, Friday 03:39:26*
%MOMM*%
%LPD*%
G01*
G04 APERTURE LIST*
G04 #@! TA.AperFunction,Conductor*
%ADD10C,0.100000*%
G04 #@! TD*
G04 #@! TA.AperFunction,SMDPad,CuDef*
%ADD11C,0.875000*%
G04 #@! TD*
G04 #@! TA.AperFunction,SMDPad,CuDef*
%ADD12R,1.000000X6.410000*%
G04 #@! TD*
G04 #@! TA.AperFunction,SMDPad,CuDef*
%ADD13R,1.700000X7.410000*%
G04 #@! TD*
G04 #@! TA.AperFunction,SMDPad,CuDef*
%ADD14R,1.000000X1.000000*%
G04 #@! TD*
G04 #@! TA.AperFunction,ComponentPad*
%ADD15R,1.700000X1.700000*%
G04 #@! TD*
G04 #@! TA.AperFunction,ComponentPad*
%ADD16O,1.700000X1.700000*%
G04 #@! TD*
G04 #@! TA.AperFunction,SMDPad,CuDef*
%ADD17R,3.800000X2.000000*%
G04 #@! TD*
G04 #@! TA.AperFunction,SMDPad,CuDef*
%ADD18R,1.500000X2.000000*%
G04 #@! TD*
G04 #@! TA.AperFunction,SMDPad,CuDef*
%ADD19R,1.200000X0.600000*%
G04 #@! TD*
G04 #@! TA.AperFunction,SMDPad,CuDef*
%ADD20R,0.600000X1.200000*%
G04 #@! TD*
G04 #@! TA.AperFunction,ComponentPad*
%ADD21C,1.500000*%
G04 #@! TD*
G04 #@! TA.AperFunction,ViaPad*
%ADD22C,0.800000*%
G04 #@! TD*
G04 #@! TA.AperFunction,Conductor*
%ADD23C,0.500000*%
G04 #@! TD*
G04 #@! TA.AperFunction,Conductor*
%ADD24C,0.250000*%
G04 #@! TD*
G04 #@! TA.AperFunction,Conductor*
%ADD25C,0.254000*%
G04 #@! TD*
G04 APERTURE END LIST*
D10*
G04 #@! TO.N,GND*
G04 #@! TO.C,C2*
G36*
X159472691Y-96046053D02*
X159493926Y-96049203D01*
X159514750Y-96054419D01*
X159534962Y-96061651D01*
X159554368Y-96070830D01*
X159572781Y-96081866D01*
X159590024Y-96094654D01*
X159605930Y-96109070D01*
X159620346Y-96124976D01*
X159633134Y-96142219D01*
X159644170Y-96160632D01*
X159653349Y-96180038D01*
X159660581Y-96200250D01*
X159665797Y-96221074D01*
X159668947Y-96242309D01*
X159670000Y-96263750D01*
X159670000Y-96776250D01*
X159668947Y-96797691D01*
X159665797Y-96818926D01*
X159660581Y-96839750D01*
X159653349Y-96859962D01*
X159644170Y-96879368D01*
X159633134Y-96897781D01*
X159620346Y-96915024D01*
X159605930Y-96930930D01*
X159590024Y-96945346D01*
X159572781Y-96958134D01*
X159554368Y-96969170D01*
X159534962Y-96978349D01*
X159514750Y-96985581D01*
X159493926Y-96990797D01*
X159472691Y-96993947D01*
X159451250Y-96995000D01*
X159013750Y-96995000D01*
X158992309Y-96993947D01*
X158971074Y-96990797D01*
X158950250Y-96985581D01*
X158930038Y-96978349D01*
X158910632Y-96969170D01*
X158892219Y-96958134D01*
X158874976Y-96945346D01*
X158859070Y-96930930D01*
X158844654Y-96915024D01*
X158831866Y-96897781D01*
X158820830Y-96879368D01*
X158811651Y-96859962D01*
X158804419Y-96839750D01*
X158799203Y-96818926D01*
X158796053Y-96797691D01*
X158795000Y-96776250D01*
X158795000Y-96263750D01*
X158796053Y-96242309D01*
X158799203Y-96221074D01*
X158804419Y-96200250D01*
X158811651Y-96180038D01*
X158820830Y-96160632D01*
X158831866Y-96142219D01*
X158844654Y-96124976D01*
X158859070Y-96109070D01*
X158874976Y-96094654D01*
X158892219Y-96081866D01*
X158910632Y-96070830D01*
X158930038Y-96061651D01*
X158950250Y-96054419D01*
X158971074Y-96049203D01*
X158992309Y-96046053D01*
X159013750Y-96045000D01*
X159451250Y-96045000D01*
X159472691Y-96046053D01*
X159472691Y-96046053D01*
G37*
D11*
G04 #@! TD*
G04 #@! TO.P,C2,2*
G04 #@! TO.N,GND*
X159232500Y-96520000D03*
D10*
G04 #@! TO.N,/PF1*
G04 #@! TO.C,C2*
G36*
X161047691Y-96046053D02*
X161068926Y-96049203D01*
X161089750Y-96054419D01*
X161109962Y-96061651D01*
X161129368Y-96070830D01*
X161147781Y-96081866D01*
X161165024Y-96094654D01*
X161180930Y-96109070D01*
X161195346Y-96124976D01*
X161208134Y-96142219D01*
X161219170Y-96160632D01*
X161228349Y-96180038D01*
X161235581Y-96200250D01*
X161240797Y-96221074D01*
X161243947Y-96242309D01*
X161245000Y-96263750D01*
X161245000Y-96776250D01*
X161243947Y-96797691D01*
X161240797Y-96818926D01*
X161235581Y-96839750D01*
X161228349Y-96859962D01*
X161219170Y-96879368D01*
X161208134Y-96897781D01*
X161195346Y-96915024D01*
X161180930Y-96930930D01*
X161165024Y-96945346D01*
X161147781Y-96958134D01*
X161129368Y-96969170D01*
X161109962Y-96978349D01*
X161089750Y-96985581D01*
X161068926Y-96990797D01*
X161047691Y-96993947D01*
X161026250Y-96995000D01*
X160588750Y-96995000D01*
X160567309Y-96993947D01*
X160546074Y-96990797D01*
X160525250Y-96985581D01*
X160505038Y-96978349D01*
X160485632Y-96969170D01*
X160467219Y-96958134D01*
X160449976Y-96945346D01*
X160434070Y-96930930D01*
X160419654Y-96915024D01*
X160406866Y-96897781D01*
X160395830Y-96879368D01*
X160386651Y-96859962D01*
X160379419Y-96839750D01*
X160374203Y-96818926D01*
X160371053Y-96797691D01*
X160370000Y-96776250D01*
X160370000Y-96263750D01*
X160371053Y-96242309D01*
X160374203Y-96221074D01*
X160379419Y-96200250D01*
X160386651Y-96180038D01*
X160395830Y-96160632D01*
X160406866Y-96142219D01*
X160419654Y-96124976D01*
X160434070Y-96109070D01*
X160449976Y-96094654D01*
X160467219Y-96081866D01*
X160485632Y-96070830D01*
X160505038Y-96061651D01*
X160525250Y-96054419D01*
X160546074Y-96049203D01*
X160567309Y-96046053D01*
X160588750Y-96045000D01*
X161026250Y-96045000D01*
X161047691Y-96046053D01*
X161047691Y-96046053D01*
G37*
D11*
G04 #@! TD*
G04 #@! TO.P,C2,1*
G04 #@! TO.N,/PF1*
X160807500Y-96520000D03*
D10*
G04 #@! TO.N,/OSC*
G04 #@! TO.C,C3*
G36*
X166127691Y-96046053D02*
X166148926Y-96049203D01*
X166169750Y-96054419D01*
X166189962Y-96061651D01*
X166209368Y-96070830D01*
X166227781Y-96081866D01*
X166245024Y-96094654D01*
X166260930Y-96109070D01*
X166275346Y-96124976D01*
X166288134Y-96142219D01*
X166299170Y-96160632D01*
X166308349Y-96180038D01*
X166315581Y-96200250D01*
X166320797Y-96221074D01*
X166323947Y-96242309D01*
X166325000Y-96263750D01*
X166325000Y-96776250D01*
X166323947Y-96797691D01*
X166320797Y-96818926D01*
X166315581Y-96839750D01*
X166308349Y-96859962D01*
X166299170Y-96879368D01*
X166288134Y-96897781D01*
X166275346Y-96915024D01*
X166260930Y-96930930D01*
X166245024Y-96945346D01*
X166227781Y-96958134D01*
X166209368Y-96969170D01*
X166189962Y-96978349D01*
X166169750Y-96985581D01*
X166148926Y-96990797D01*
X166127691Y-96993947D01*
X166106250Y-96995000D01*
X165668750Y-96995000D01*
X165647309Y-96993947D01*
X165626074Y-96990797D01*
X165605250Y-96985581D01*
X165585038Y-96978349D01*
X165565632Y-96969170D01*
X165547219Y-96958134D01*
X165529976Y-96945346D01*
X165514070Y-96930930D01*
X165499654Y-96915024D01*
X165486866Y-96897781D01*
X165475830Y-96879368D01*
X165466651Y-96859962D01*
X165459419Y-96839750D01*
X165454203Y-96818926D01*
X165451053Y-96797691D01*
X165450000Y-96776250D01*
X165450000Y-96263750D01*
X165451053Y-96242309D01*
X165454203Y-96221074D01*
X165459419Y-96200250D01*
X165466651Y-96180038D01*
X165475830Y-96160632D01*
X165486866Y-96142219D01*
X165499654Y-96124976D01*
X165514070Y-96109070D01*
X165529976Y-96094654D01*
X165547219Y-96081866D01*
X165565632Y-96070830D01*
X165585038Y-96061651D01*
X165605250Y-96054419D01*
X165626074Y-96049203D01*
X165647309Y-96046053D01*
X165668750Y-96045000D01*
X166106250Y-96045000D01*
X166127691Y-96046053D01*
X166127691Y-96046053D01*
G37*
D11*
G04 #@! TD*
G04 #@! TO.P,C3,1*
G04 #@! TO.N,/OSC*
X165887500Y-96520000D03*
D10*
G04 #@! TO.N,GND*
G04 #@! TO.C,C3*
G36*
X164552691Y-96046053D02*
X164573926Y-96049203D01*
X164594750Y-96054419D01*
X164614962Y-96061651D01*
X164634368Y-96070830D01*
X164652781Y-96081866D01*
X164670024Y-96094654D01*
X164685930Y-96109070D01*
X164700346Y-96124976D01*
X164713134Y-96142219D01*
X164724170Y-96160632D01*
X164733349Y-96180038D01*
X164740581Y-96200250D01*
X164745797Y-96221074D01*
X164748947Y-96242309D01*
X164750000Y-96263750D01*
X164750000Y-96776250D01*
X164748947Y-96797691D01*
X164745797Y-96818926D01*
X164740581Y-96839750D01*
X164733349Y-96859962D01*
X164724170Y-96879368D01*
X164713134Y-96897781D01*
X164700346Y-96915024D01*
X164685930Y-96930930D01*
X164670024Y-96945346D01*
X164652781Y-96958134D01*
X164634368Y-96969170D01*
X164614962Y-96978349D01*
X164594750Y-96985581D01*
X164573926Y-96990797D01*
X164552691Y-96993947D01*
X164531250Y-96995000D01*
X164093750Y-96995000D01*
X164072309Y-96993947D01*
X164051074Y-96990797D01*
X164030250Y-96985581D01*
X164010038Y-96978349D01*
X163990632Y-96969170D01*
X163972219Y-96958134D01*
X163954976Y-96945346D01*
X163939070Y-96930930D01*
X163924654Y-96915024D01*
X163911866Y-96897781D01*
X163900830Y-96879368D01*
X163891651Y-96859962D01*
X163884419Y-96839750D01*
X163879203Y-96818926D01*
X163876053Y-96797691D01*
X163875000Y-96776250D01*
X163875000Y-96263750D01*
X163876053Y-96242309D01*
X163879203Y-96221074D01*
X163884419Y-96200250D01*
X163891651Y-96180038D01*
X163900830Y-96160632D01*
X163911866Y-96142219D01*
X163924654Y-96124976D01*
X163939070Y-96109070D01*
X163954976Y-96094654D01*
X163972219Y-96081866D01*
X163990632Y-96070830D01*
X164010038Y-96061651D01*
X164030250Y-96054419D01*
X164051074Y-96049203D01*
X164072309Y-96046053D01*
X164093750Y-96045000D01*
X164531250Y-96045000D01*
X164552691Y-96046053D01*
X164552691Y-96046053D01*
G37*
D11*
G04 #@! TD*
G04 #@! TO.P,C3,2*
G04 #@! TO.N,GND*
X164312500Y-96520000D03*
D12*
G04 #@! TO.P,J1,2*
G04 #@! TO.N,/D-*
X178800000Y-138430000D03*
G04 #@! TO.P,J1,3*
G04 #@! TO.N,/D+*
X176800000Y-138430000D03*
D13*
G04 #@! TO.P,J1,1*
G04 #@! TO.N,+5V*
X181650000Y-138930000D03*
G04 #@! TO.P,J1,4*
G04 #@! TO.N,GND*
X173950000Y-138930000D03*
D14*
G04 #@! TO.P,J1,5*
X174050000Y-137180000D03*
G04 #@! TD*
D15*
G04 #@! TO.P,J2,1*
G04 #@! TO.N,/SWDIO*
X172720000Y-105410000D03*
D16*
G04 #@! TO.P,J2,2*
G04 #@! TO.N,/~RST*
X175260000Y-105410000D03*
G04 #@! TO.P,J2,3*
G04 #@! TO.N,GND*
X172720000Y-107950000D03*
G04 #@! TO.P,J2,4*
X175260000Y-107950000D03*
G04 #@! TO.P,J2,5*
G04 #@! TO.N,/SWCLK*
X172720000Y-110490000D03*
G04 #@! TO.P,J2,6*
G04 #@! TO.N,N/C*
X175260000Y-110490000D03*
G04 #@! TO.P,J2,7*
X172720000Y-113030000D03*
G04 #@! TO.P,J2,8*
X175260000Y-113030000D03*
G04 #@! TO.P,J2,9*
G04 #@! TO.N,+5V*
X172720000Y-115570000D03*
G04 #@! TO.P,J2,10*
X175260000Y-115570000D03*
G04 #@! TD*
D15*
G04 #@! TO.P,J3,1*
G04 #@! TO.N,GND*
X152400000Y-91440000D03*
D16*
G04 #@! TO.P,J3,2*
G04 #@! TO.N,/PA0*
X152400000Y-93980000D03*
G04 #@! TO.P,J3,3*
G04 #@! TO.N,/PA1*
X152400000Y-96520000D03*
G04 #@! TO.P,J3,4*
G04 #@! TO.N,/PA2*
X152400000Y-99060000D03*
G04 #@! TO.P,J3,5*
G04 #@! TO.N,/PA3*
X152400000Y-101600000D03*
G04 #@! TO.P,J3,6*
G04 #@! TO.N,/PA9*
X152400000Y-104140000D03*
G04 #@! TO.P,J3,7*
G04 #@! TO.N,/PA10*
X152400000Y-106680000D03*
G04 #@! TO.P,J3,8*
G04 #@! TO.N,/PA11*
X152400000Y-109220000D03*
G04 #@! TO.P,J3,9*
G04 #@! TO.N,/PA12*
X152400000Y-111760000D03*
G04 #@! TO.P,J3,10*
G04 #@! TO.N,+5V*
X152400000Y-114300000D03*
G04 #@! TD*
G04 #@! TO.P,J4,10*
G04 #@! TO.N,+5V*
X181610000Y-114300000D03*
G04 #@! TO.P,J4,9*
G04 #@! TO.N,/PB8*
X181610000Y-111760000D03*
G04 #@! TO.P,J4,8*
G04 #@! TO.N,/PB7*
X181610000Y-109220000D03*
G04 #@! TO.P,J4,7*
G04 #@! TO.N,/PB6*
X181610000Y-106680000D03*
G04 #@! TO.P,J4,6*
G04 #@! TO.N,/PB5*
X181610000Y-104140000D03*
G04 #@! TO.P,J4,5*
G04 #@! TO.N,/PB4*
X181610000Y-101600000D03*
G04 #@! TO.P,J4,4*
G04 #@! TO.N,/PB3*
X181610000Y-99060000D03*
G04 #@! TO.P,J4,3*
G04 #@! TO.N,/PB1*
X181610000Y-96520000D03*
G04 #@! TO.P,J4,2*
G04 #@! TO.N,/PB0*
X181610000Y-93980000D03*
D15*
G04 #@! TO.P,J4,1*
G04 #@! TO.N,GND*
X181610000Y-91440000D03*
G04 #@! TD*
G04 #@! TO.P,J5,1*
G04 #@! TO.N,GND*
X181610000Y-121920000D03*
D16*
G04 #@! TO.P,J5,2*
G04 #@! TO.N,+5V*
X181610000Y-124460000D03*
G04 #@! TD*
D15*
G04 #@! TO.P,J6,1*
G04 #@! TO.N,+5V*
X165100000Y-130810000D03*
D16*
G04 #@! TO.P,J6,2*
G04 #@! TO.N,/PB8*
X167640000Y-130810000D03*
G04 #@! TO.P,J6,3*
G04 #@! TO.N,N/C*
X170180000Y-130810000D03*
G04 #@! TD*
D15*
G04 #@! TO.P,J7,1*
G04 #@! TO.N,/WS*
X152400000Y-121920000D03*
D16*
G04 #@! TO.P,J7,2*
G04 #@! TO.N,/CK*
X152400000Y-124460000D03*
G04 #@! TO.P,J7,3*
G04 #@! TO.N,/MC0*
X152400000Y-127000000D03*
G04 #@! TO.P,J7,4*
G04 #@! TO.N,/SD*
X152400000Y-129540000D03*
G04 #@! TO.P,J7,5*
G04 #@! TO.N,GND*
X152400000Y-132080000D03*
G04 #@! TD*
D15*
G04 #@! TO.P,J8,1*
G04 #@! TO.N,/EXT_CLK*
X175260000Y-92710000D03*
G04 #@! TD*
D16*
G04 #@! TO.P,J9,3*
G04 #@! TO.N,/EXT_CLK*
X175260000Y-100330000D03*
G04 #@! TO.P,J9,2*
G04 #@! TO.N,/PF0*
X172720000Y-100330000D03*
D15*
G04 #@! TO.P,J9,1*
G04 #@! TO.N,/OSC*
X170180000Y-100330000D03*
G04 #@! TD*
D16*
G04 #@! TO.P,J10,2*
G04 #@! TO.N,/PA15*
X162560000Y-100330000D03*
D15*
G04 #@! TO.P,J10,1*
G04 #@! TO.N,/MCK*
X160020000Y-100330000D03*
G04 #@! TD*
D10*
G04 #@! TO.N,/PB8*
G04 #@! TO.C,R1*
G36*
X161835691Y-130336053D02*
X161856926Y-130339203D01*
X161877750Y-130344419D01*
X161897962Y-130351651D01*
X161917368Y-130360830D01*
X161935781Y-130371866D01*
X161953024Y-130384654D01*
X161968930Y-130399070D01*
X161983346Y-130414976D01*
X161996134Y-130432219D01*
X162007170Y-130450632D01*
X162016349Y-130470038D01*
X162023581Y-130490250D01*
X162028797Y-130511074D01*
X162031947Y-130532309D01*
X162033000Y-130553750D01*
X162033000Y-131066250D01*
X162031947Y-131087691D01*
X162028797Y-131108926D01*
X162023581Y-131129750D01*
X162016349Y-131149962D01*
X162007170Y-131169368D01*
X161996134Y-131187781D01*
X161983346Y-131205024D01*
X161968930Y-131220930D01*
X161953024Y-131235346D01*
X161935781Y-131248134D01*
X161917368Y-131259170D01*
X161897962Y-131268349D01*
X161877750Y-131275581D01*
X161856926Y-131280797D01*
X161835691Y-131283947D01*
X161814250Y-131285000D01*
X161376750Y-131285000D01*
X161355309Y-131283947D01*
X161334074Y-131280797D01*
X161313250Y-131275581D01*
X161293038Y-131268349D01*
X161273632Y-131259170D01*
X161255219Y-131248134D01*
X161237976Y-131235346D01*
X161222070Y-131220930D01*
X161207654Y-131205024D01*
X161194866Y-131187781D01*
X161183830Y-131169368D01*
X161174651Y-131149962D01*
X161167419Y-131129750D01*
X161162203Y-131108926D01*
X161159053Y-131087691D01*
X161158000Y-131066250D01*
X161158000Y-130553750D01*
X161159053Y-130532309D01*
X161162203Y-130511074D01*
X161167419Y-130490250D01*
X161174651Y-130470038D01*
X161183830Y-130450632D01*
X161194866Y-130432219D01*
X161207654Y-130414976D01*
X161222070Y-130399070D01*
X161237976Y-130384654D01*
X161255219Y-130371866D01*
X161273632Y-130360830D01*
X161293038Y-130351651D01*
X161313250Y-130344419D01*
X161334074Y-130339203D01*
X161355309Y-130336053D01*
X161376750Y-130335000D01*
X161814250Y-130335000D01*
X161835691Y-130336053D01*
X161835691Y-130336053D01*
G37*
D11*
G04 #@! TD*
G04 #@! TO.P,R1,1*
G04 #@! TO.N,/PB8*
X161595500Y-130810000D03*
D10*
G04 #@! TO.N,GND*
G04 #@! TO.C,R1*
G36*
X160260691Y-130336053D02*
X160281926Y-130339203D01*
X160302750Y-130344419D01*
X160322962Y-130351651D01*
X160342368Y-130360830D01*
X160360781Y-130371866D01*
X160378024Y-130384654D01*
X160393930Y-130399070D01*
X160408346Y-130414976D01*
X160421134Y-130432219D01*
X160432170Y-130450632D01*
X160441349Y-130470038D01*
X160448581Y-130490250D01*
X160453797Y-130511074D01*
X160456947Y-130532309D01*
X160458000Y-130553750D01*
X160458000Y-131066250D01*
X160456947Y-131087691D01*
X160453797Y-131108926D01*
X160448581Y-131129750D01*
X160441349Y-131149962D01*
X160432170Y-131169368D01*
X160421134Y-131187781D01*
X160408346Y-131205024D01*
X160393930Y-131220930D01*
X160378024Y-131235346D01*
X160360781Y-131248134D01*
X160342368Y-131259170D01*
X160322962Y-131268349D01*
X160302750Y-131275581D01*
X160281926Y-131280797D01*
X160260691Y-131283947D01*
X160239250Y-131285000D01*
X159801750Y-131285000D01*
X159780309Y-131283947D01*
X159759074Y-131280797D01*
X159738250Y-131275581D01*
X159718038Y-131268349D01*
X159698632Y-131259170D01*
X159680219Y-131248134D01*
X159662976Y-131235346D01*
X159647070Y-131220930D01*
X159632654Y-131205024D01*
X159619866Y-131187781D01*
X159608830Y-131169368D01*
X159599651Y-131149962D01*
X159592419Y-131129750D01*
X159587203Y-131108926D01*
X159584053Y-131087691D01*
X159583000Y-131066250D01*
X159583000Y-130553750D01*
X159584053Y-130532309D01*
X159587203Y-130511074D01*
X159592419Y-130490250D01*
X159599651Y-130470038D01*
X159608830Y-130450632D01*
X159619866Y-130432219D01*
X159632654Y-130414976D01*
X159647070Y-130399070D01*
X159662976Y-130384654D01*
X159680219Y-130371866D01*
X159698632Y-130360830D01*
X159718038Y-130351651D01*
X159738250Y-130344419D01*
X159759074Y-130339203D01*
X159780309Y-130336053D01*
X159801750Y-130335000D01*
X160239250Y-130335000D01*
X160260691Y-130336053D01*
X160260691Y-130336053D01*
G37*
D11*
G04 #@! TD*
G04 #@! TO.P,R1,2*
G04 #@! TO.N,GND*
X160020500Y-130810000D03*
D10*
G04 #@! TO.N,/D-*
G04 #@! TO.C,R2*
G36*
X179347691Y-131161053D02*
X179368926Y-131164203D01*
X179389750Y-131169419D01*
X179409962Y-131176651D01*
X179429368Y-131185830D01*
X179447781Y-131196866D01*
X179465024Y-131209654D01*
X179480930Y-131224070D01*
X179495346Y-131239976D01*
X179508134Y-131257219D01*
X179519170Y-131275632D01*
X179528349Y-131295038D01*
X179535581Y-131315250D01*
X179540797Y-131336074D01*
X179543947Y-131357309D01*
X179545000Y-131378750D01*
X179545000Y-131816250D01*
X179543947Y-131837691D01*
X179540797Y-131858926D01*
X179535581Y-131879750D01*
X179528349Y-131899962D01*
X179519170Y-131919368D01*
X179508134Y-131937781D01*
X179495346Y-131955024D01*
X179480930Y-131970930D01*
X179465024Y-131985346D01*
X179447781Y-131998134D01*
X179429368Y-132009170D01*
X179409962Y-132018349D01*
X179389750Y-132025581D01*
X179368926Y-132030797D01*
X179347691Y-132033947D01*
X179326250Y-132035000D01*
X178813750Y-132035000D01*
X178792309Y-132033947D01*
X178771074Y-132030797D01*
X178750250Y-132025581D01*
X178730038Y-132018349D01*
X178710632Y-132009170D01*
X178692219Y-131998134D01*
X178674976Y-131985346D01*
X178659070Y-131970930D01*
X178644654Y-131955024D01*
X178631866Y-131937781D01*
X178620830Y-131919368D01*
X178611651Y-131899962D01*
X178604419Y-131879750D01*
X178599203Y-131858926D01*
X178596053Y-131837691D01*
X178595000Y-131816250D01*
X178595000Y-131378750D01*
X178596053Y-131357309D01*
X178599203Y-131336074D01*
X178604419Y-131315250D01*
X178611651Y-131295038D01*
X178620830Y-131275632D01*
X178631866Y-131257219D01*
X178644654Y-131239976D01*
X178659070Y-131224070D01*
X178674976Y-131209654D01*
X178692219Y-131196866D01*
X178710632Y-131185830D01*
X178730038Y-131176651D01*
X178750250Y-131169419D01*
X178771074Y-131164203D01*
X178792309Y-131161053D01*
X178813750Y-131160000D01*
X179326250Y-131160000D01*
X179347691Y-131161053D01*
X179347691Y-131161053D01*
G37*
D11*
G04 #@! TD*
G04 #@! TO.P,R2,1*
G04 #@! TO.N,/D-*
X179070000Y-131597500D03*
D10*
G04 #@! TO.N,/PA11*
G04 #@! TO.C,R2*
G36*
X179347691Y-129586053D02*
X179368926Y-129589203D01*
X179389750Y-129594419D01*
X179409962Y-129601651D01*
X179429368Y-129610830D01*
X179447781Y-129621866D01*
X179465024Y-129634654D01*
X179480930Y-129649070D01*
X179495346Y-129664976D01*
X179508134Y-129682219D01*
X179519170Y-129700632D01*
X179528349Y-129720038D01*
X179535581Y-129740250D01*
X179540797Y-129761074D01*
X179543947Y-129782309D01*
X179545000Y-129803750D01*
X179545000Y-130241250D01*
X179543947Y-130262691D01*
X179540797Y-130283926D01*
X179535581Y-130304750D01*
X179528349Y-130324962D01*
X179519170Y-130344368D01*
X179508134Y-130362781D01*
X179495346Y-130380024D01*
X179480930Y-130395930D01*
X179465024Y-130410346D01*
X179447781Y-130423134D01*
X179429368Y-130434170D01*
X179409962Y-130443349D01*
X179389750Y-130450581D01*
X179368926Y-130455797D01*
X179347691Y-130458947D01*
X179326250Y-130460000D01*
X178813750Y-130460000D01*
X178792309Y-130458947D01*
X178771074Y-130455797D01*
X178750250Y-130450581D01*
X178730038Y-130443349D01*
X178710632Y-130434170D01*
X178692219Y-130423134D01*
X178674976Y-130410346D01*
X178659070Y-130395930D01*
X178644654Y-130380024D01*
X178631866Y-130362781D01*
X178620830Y-130344368D01*
X178611651Y-130324962D01*
X178604419Y-130304750D01*
X178599203Y-130283926D01*
X178596053Y-130262691D01*
X178595000Y-130241250D01*
X178595000Y-129803750D01*
X178596053Y-129782309D01*
X178599203Y-129761074D01*
X178604419Y-129740250D01*
X178611651Y-129720038D01*
X178620830Y-129700632D01*
X178631866Y-129682219D01*
X178644654Y-129664976D01*
X178659070Y-129649070D01*
X178674976Y-129634654D01*
X178692219Y-129621866D01*
X178710632Y-129610830D01*
X178730038Y-129601651D01*
X178750250Y-129594419D01*
X178771074Y-129589203D01*
X178792309Y-129586053D01*
X178813750Y-129585000D01*
X179326250Y-129585000D01*
X179347691Y-129586053D01*
X179347691Y-129586053D01*
G37*
D11*
G04 #@! TD*
G04 #@! TO.P,R2,2*
G04 #@! TO.N,/PA11*
X179070000Y-130022500D03*
D10*
G04 #@! TO.N,/PA12*
G04 #@! TO.C,R3*
G36*
X176807691Y-129586053D02*
X176828926Y-129589203D01*
X176849750Y-129594419D01*
X176869962Y-129601651D01*
X176889368Y-129610830D01*
X176907781Y-129621866D01*
X176925024Y-129634654D01*
X176940930Y-129649070D01*
X176955346Y-129664976D01*
X176968134Y-129682219D01*
X176979170Y-129700632D01*
X176988349Y-129720038D01*
X176995581Y-129740250D01*
X177000797Y-129761074D01*
X177003947Y-129782309D01*
X177005000Y-129803750D01*
X177005000Y-130241250D01*
X177003947Y-130262691D01*
X177000797Y-130283926D01*
X176995581Y-130304750D01*
X176988349Y-130324962D01*
X176979170Y-130344368D01*
X176968134Y-130362781D01*
X176955346Y-130380024D01*
X176940930Y-130395930D01*
X176925024Y-130410346D01*
X176907781Y-130423134D01*
X176889368Y-130434170D01*
X176869962Y-130443349D01*
X176849750Y-130450581D01*
X176828926Y-130455797D01*
X176807691Y-130458947D01*
X176786250Y-130460000D01*
X176273750Y-130460000D01*
X176252309Y-130458947D01*
X176231074Y-130455797D01*
X176210250Y-130450581D01*
X176190038Y-130443349D01*
X176170632Y-130434170D01*
X176152219Y-130423134D01*
X176134976Y-130410346D01*
X176119070Y-130395930D01*
X176104654Y-130380024D01*
X176091866Y-130362781D01*
X176080830Y-130344368D01*
X176071651Y-130324962D01*
X176064419Y-130304750D01*
X176059203Y-130283926D01*
X176056053Y-130262691D01*
X176055000Y-130241250D01*
X176055000Y-129803750D01*
X176056053Y-129782309D01*
X176059203Y-129761074D01*
X176064419Y-129740250D01*
X176071651Y-129720038D01*
X176080830Y-129700632D01*
X176091866Y-129682219D01*
X176104654Y-129664976D01*
X176119070Y-129649070D01*
X176134976Y-129634654D01*
X176152219Y-129621866D01*
X176170632Y-129610830D01*
X176190038Y-129601651D01*
X176210250Y-129594419D01*
X176231074Y-129589203D01*
X176252309Y-129586053D01*
X176273750Y-129585000D01*
X176786250Y-129585000D01*
X176807691Y-129586053D01*
X176807691Y-129586053D01*
G37*
D11*
G04 #@! TD*
G04 #@! TO.P,R3,2*
G04 #@! TO.N,/PA12*
X176530000Y-130022500D03*
D10*
G04 #@! TO.N,/D+*
G04 #@! TO.C,R3*
G36*
X176807691Y-131161053D02*
X176828926Y-131164203D01*
X176849750Y-131169419D01*
X176869962Y-131176651D01*
X176889368Y-131185830D01*
X176907781Y-131196866D01*
X176925024Y-131209654D01*
X176940930Y-131224070D01*
X176955346Y-131239976D01*
X176968134Y-131257219D01*
X176979170Y-131275632D01*
X176988349Y-131295038D01*
X176995581Y-131315250D01*
X177000797Y-131336074D01*
X177003947Y-131357309D01*
X177005000Y-131378750D01*
X177005000Y-131816250D01*
X177003947Y-131837691D01*
X177000797Y-131858926D01*
X176995581Y-131879750D01*
X176988349Y-131899962D01*
X176979170Y-131919368D01*
X176968134Y-131937781D01*
X176955346Y-131955024D01*
X176940930Y-131970930D01*
X176925024Y-131985346D01*
X176907781Y-131998134D01*
X176889368Y-132009170D01*
X176869962Y-132018349D01*
X176849750Y-132025581D01*
X176828926Y-132030797D01*
X176807691Y-132033947D01*
X176786250Y-132035000D01*
X176273750Y-132035000D01*
X176252309Y-132033947D01*
X176231074Y-132030797D01*
X176210250Y-132025581D01*
X176190038Y-132018349D01*
X176170632Y-132009170D01*
X176152219Y-131998134D01*
X176134976Y-131985346D01*
X176119070Y-131970930D01*
X176104654Y-131955024D01*
X176091866Y-131937781D01*
X176080830Y-131919368D01*
X176071651Y-131899962D01*
X176064419Y-131879750D01*
X176059203Y-131858926D01*
X176056053Y-131837691D01*
X176055000Y-131816250D01*
X176055000Y-131378750D01*
X176056053Y-131357309D01*
X176059203Y-131336074D01*
X176064419Y-131315250D01*
X176071651Y-131295038D01*
X176080830Y-131275632D01*
X176091866Y-131257219D01*
X176104654Y-131239976D01*
X176119070Y-131224070D01*
X176134976Y-131209654D01*
X176152219Y-131196866D01*
X176170632Y-131185830D01*
X176190038Y-131176651D01*
X176210250Y-131169419D01*
X176231074Y-131164203D01*
X176252309Y-131161053D01*
X176273750Y-131160000D01*
X176786250Y-131160000D01*
X176807691Y-131161053D01*
X176807691Y-131161053D01*
G37*
D11*
G04 #@! TD*
G04 #@! TO.P,R3,1*
G04 #@! TO.N,/D+*
X176530000Y-131597500D03*
D17*
G04 #@! TO.P,U1,2*
G04 #@! TO.N,+3V3*
X162560000Y-120040000D03*
D18*
X162560000Y-126340000D03*
G04 #@! TO.P,U1,3*
G04 #@! TO.N,+5V*
X164860000Y-126340000D03*
G04 #@! TO.P,U1,1*
G04 #@! TO.N,GND*
X160260000Y-126340000D03*
G04 #@! TD*
D19*
G04 #@! TO.P,U2,1*
G04 #@! TO.N,+3V3*
X158310000Y-107690000D03*
G04 #@! TO.P,U2,2*
G04 #@! TO.N,/PF0*
X158310000Y-108490000D03*
G04 #@! TO.P,U2,3*
G04 #@! TO.N,/PF1*
X158310000Y-109290000D03*
G04 #@! TO.P,U2,4*
G04 #@! TO.N,/~RST*
X158310000Y-110090000D03*
G04 #@! TO.P,U2,5*
G04 #@! TO.N,+3V3*
X158310000Y-110890000D03*
G04 #@! TO.P,U2,6*
G04 #@! TO.N,/PA0*
X158310000Y-111690000D03*
G04 #@! TO.P,U2,7*
G04 #@! TO.N,/PA1*
X158310000Y-112490000D03*
G04 #@! TO.P,U2,8*
G04 #@! TO.N,/PA2*
X158310000Y-113290000D03*
D20*
G04 #@! TO.P,U2,9*
G04 #@! TO.N,/PA3*
X159760000Y-114740000D03*
G04 #@! TO.P,U2,10*
G04 #@! TO.N,/WS*
X160560000Y-114740000D03*
G04 #@! TO.P,U2,11*
G04 #@! TO.N,/CK*
X161360000Y-114740000D03*
G04 #@! TO.P,U2,12*
G04 #@! TO.N,/MCK*
X162160000Y-114740000D03*
G04 #@! TO.P,U2,13*
G04 #@! TO.N,/SD*
X162960000Y-114740000D03*
G04 #@! TO.P,U2,14*
G04 #@! TO.N,/PB0*
X163760000Y-114740000D03*
G04 #@! TO.P,U2,15*
G04 #@! TO.N,/PB1*
X164560000Y-114740000D03*
G04 #@! TO.P,U2,16*
G04 #@! TO.N,GND*
X165360000Y-114740000D03*
D19*
G04 #@! TO.P,U2,17*
G04 #@! TO.N,+3V3*
X166810000Y-113290000D03*
G04 #@! TO.P,U2,18*
G04 #@! TO.N,/MC0*
X166810000Y-112490000D03*
G04 #@! TO.P,U2,19*
G04 #@! TO.N,/PA9*
X166810000Y-111690000D03*
G04 #@! TO.P,U2,20*
G04 #@! TO.N,/PA10*
X166810000Y-110890000D03*
G04 #@! TO.P,U2,21*
G04 #@! TO.N,/PA11*
X166810000Y-110090000D03*
G04 #@! TO.P,U2,22*
G04 #@! TO.N,/PA12*
X166810000Y-109290000D03*
G04 #@! TO.P,U2,23*
G04 #@! TO.N,/SWDIO*
X166810000Y-108490000D03*
G04 #@! TO.P,U2,24*
G04 #@! TO.N,/SWCLK*
X166810000Y-107690000D03*
D20*
G04 #@! TO.P,U2,25*
G04 #@! TO.N,/PA15*
X165360000Y-106240000D03*
G04 #@! TO.P,U2,26*
G04 #@! TO.N,/PB3*
X164560000Y-106240000D03*
G04 #@! TO.P,U2,27*
G04 #@! TO.N,/PB4*
X163760000Y-106240000D03*
G04 #@! TO.P,U2,28*
G04 #@! TO.N,/PB5*
X162960000Y-106240000D03*
G04 #@! TO.P,U2,29*
G04 #@! TO.N,/PB6*
X162160000Y-106240000D03*
G04 #@! TO.P,U2,30*
G04 #@! TO.N,/PB7*
X161360000Y-106240000D03*
G04 #@! TO.P,U2,31*
G04 #@! TO.N,/PB8*
X160560000Y-106240000D03*
G04 #@! TO.P,U2,32*
G04 #@! TO.N,GND*
X159760000Y-106240000D03*
G04 #@! TD*
D21*
G04 #@! TO.P,Y1,1*
G04 #@! TO.N,/PF1*
X160020000Y-92710000D03*
G04 #@! TO.P,Y1,2*
G04 #@! TO.N,/OSC*
X164900000Y-92710000D03*
G04 #@! TD*
D22*
G04 #@! TO.N,+3V3*
X160655000Y-110490000D03*
X166810000Y-114365000D03*
G04 #@! TO.N,GND*
X164465000Y-110490000D03*
G04 #@! TO.N,+5V*
X154667200Y-118007800D03*
G04 #@! TO.N,/~RST*
X159520000Y-109991000D03*
G04 #@! TO.N,/PA9*
X168327000Y-115244000D03*
G04 #@! TO.N,/PA10*
X162498000Y-107627000D03*
G04 #@! TO.N,/PA11*
X164303000Y-108413000D03*
G04 #@! TO.N,/PA12*
X165602000Y-108662000D03*
G04 #@! TO.N,/PB8*
X158826000Y-106217000D03*
G04 #@! TO.N,/PB7*
X161170000Y-104981000D03*
G04 #@! TO.N,/PB6*
X162186000Y-104962000D03*
G04 #@! TO.N,/PB5*
X163610000Y-104402000D03*
G04 #@! TO.N,/PB4*
X164764000Y-104063000D03*
G04 #@! TO.N,/PB1*
X163841000Y-115958000D03*
G04 #@! TO.N,/PB0*
X154470000Y-105555000D03*
G04 #@! TO.N,/MCK*
X161690000Y-116482000D03*
G04 #@! TD*
D23*
G04 #@! TO.N,+3V3*
X160655000Y-110490000D02*
X160255000Y-110890000D01*
X160255000Y-110890000D02*
X158310000Y-110890000D01*
X160655000Y-110490000D02*
X160655000Y-109035000D01*
X160655000Y-109035000D02*
X159310000Y-107690000D01*
X159310000Y-107690000D02*
X158310000Y-107690000D01*
X162560000Y-120040000D02*
X162985000Y-120040000D01*
X162985000Y-120040000D02*
X162560000Y-120465000D01*
X162560000Y-120465000D02*
X162560000Y-126340000D01*
X166810000Y-113290000D02*
X166810000Y-114365000D01*
X166810000Y-114365000D02*
X166810000Y-116215000D01*
X166810000Y-116215000D02*
X162985000Y-120040000D01*
G04 #@! TO.N,GND*
X160020300Y-130810200D02*
X160020000Y-130810000D01*
X174050000Y-137180000D02*
X174050000Y-136230000D01*
X174050000Y-136230000D02*
X171820000Y-133999000D01*
X171820000Y-133999000D02*
X163210000Y-133999000D01*
X163210000Y-133999000D02*
X160020300Y-130810200D01*
X160020500Y-130810000D02*
X160020300Y-130810200D01*
X164312500Y-96520000D02*
X164312000Y-96520000D01*
X159232500Y-96520000D02*
X159232000Y-96520000D01*
X181610000Y-115638000D02*
X181041000Y-115638000D01*
X181041000Y-115638000D02*
X180310000Y-114907000D01*
X180310000Y-114907000D02*
X180310000Y-113000000D01*
X180310000Y-113000000D02*
X175260000Y-107950000D01*
X181610000Y-121920000D02*
X181610000Y-115638000D01*
X164465000Y-110490000D02*
X165360000Y-111385000D01*
X165360000Y-111385000D02*
X165360000Y-114740000D01*
X164465000Y-110490000D02*
X163100000Y-110490000D01*
X163100000Y-110490000D02*
X159760000Y-107150000D01*
X159760000Y-107150000D02*
X159760000Y-106240000D01*
X174050000Y-137180000D02*
X174050000Y-138130000D01*
X174050000Y-138130000D02*
X174300000Y-138380000D01*
X174300000Y-138380000D02*
X174300000Y-138430000D01*
X160260000Y-126340000D02*
X160260000Y-127790000D01*
X160260000Y-127790000D02*
X160020000Y-128030000D01*
X160020000Y-128030000D02*
X160020000Y-130810000D01*
X152400000Y-132080000D02*
X158750000Y-132080000D01*
X158750000Y-132080000D02*
X160020000Y-130810000D01*
X181610000Y-91440000D02*
X180310000Y-91440000D01*
X180310000Y-91440000D02*
X180279000Y-91409600D01*
X180279000Y-91409600D02*
X164413000Y-91409600D01*
X164413000Y-91409600D02*
X162439000Y-93383000D01*
X181610000Y-115638000D02*
X182132000Y-115638000D01*
X182132000Y-115638000D02*
X182910000Y-114860000D01*
X182910000Y-114860000D02*
X182910000Y-92740500D01*
X182910000Y-92740500D02*
X181610000Y-91440000D01*
X164312000Y-96520000D02*
X164312000Y-95256300D01*
X164312000Y-95256300D02*
X162439000Y-93383000D01*
X152400000Y-91440000D02*
X158049000Y-91440000D01*
X158049000Y-91440000D02*
X158820000Y-92210200D01*
X162439000Y-93383000D02*
X160503000Y-91446600D01*
X160503000Y-91446600D02*
X159583000Y-91446600D01*
X159583000Y-91446600D02*
X158820000Y-92210200D01*
X158820000Y-92210200D02*
X158820000Y-96107100D01*
X158820000Y-96107100D02*
X159232000Y-96520000D01*
D24*
G04 #@! TO.N,/PF1*
X160808000Y-96520000D02*
X156934000Y-100393000D01*
X156934000Y-100393000D02*
X156934000Y-108840000D01*
X156934000Y-108840000D02*
X157385000Y-109290000D01*
X157385000Y-109290000D02*
X158310000Y-109290000D01*
X160020000Y-92710000D02*
X160808000Y-93497500D01*
X160808000Y-93497500D02*
X160808000Y-96520000D01*
X160807500Y-96520000D02*
X160808000Y-96520000D01*
G04 #@! TO.N,/OSC*
X165888000Y-95108700D02*
X165887500Y-95109200D01*
X165887500Y-95109200D02*
X165887500Y-96520000D01*
X165888000Y-95108700D02*
X165888000Y-96520000D01*
X165888000Y-96520000D02*
X169005000Y-99637200D01*
X169005000Y-99637200D02*
X169005000Y-100330000D01*
X169005000Y-100330000D02*
X170180000Y-100330000D01*
X164900000Y-92710000D02*
X165888000Y-93697500D01*
X165888000Y-93697500D02*
X165888000Y-95108700D01*
G04 #@! TO.N,/D-*
X179070000Y-131598000D02*
X179070000Y-131597500D01*
X178800000Y-138430000D02*
X178800000Y-131868000D01*
X178800000Y-131868000D02*
X179070000Y-131598000D01*
G04 #@! TO.N,/D+*
X176530000Y-131598000D02*
X176530000Y-131597500D01*
X176800000Y-138430000D02*
X176800000Y-131868000D01*
X176800000Y-131868000D02*
X176530000Y-131598000D01*
D23*
G04 #@! TO.N,+5V*
X154667200Y-118007800D02*
X152400000Y-115740600D01*
X152400000Y-115740600D02*
X152400000Y-114300000D01*
X181610000Y-124460000D02*
X181610000Y-134465000D01*
X181610000Y-134465000D02*
X181300000Y-134775000D01*
X181300000Y-134775000D02*
X181300000Y-138430000D01*
X172720000Y-115570000D02*
X175260000Y-115570000D01*
X175260000Y-115570000D02*
X175260000Y-118110000D01*
X175260000Y-118110000D02*
X181610000Y-124460000D01*
X164860000Y-126340000D02*
X164860000Y-127790000D01*
X164860000Y-127790000D02*
X165100000Y-128030000D01*
X165100000Y-128030000D02*
X165100000Y-130810000D01*
D24*
G04 #@! TO.N,/SWDIO*
X166810000Y-108490000D02*
X168465000Y-108490000D01*
X168465000Y-108490000D02*
X171545000Y-105410000D01*
X171545000Y-105410000D02*
X172720000Y-105410000D01*
G04 #@! TO.N,/~RST*
X158310000Y-110090000D02*
X159421000Y-110090000D01*
X159421000Y-110090000D02*
X159520000Y-109991000D01*
G04 #@! TO.N,/SWCLK*
X166810000Y-107690000D02*
X167735000Y-107690000D01*
X167735000Y-107690000D02*
X171191000Y-104235000D01*
X171191000Y-104235000D02*
X173751000Y-104235000D01*
X173751000Y-104235000D02*
X173895000Y-104379000D01*
X173895000Y-104379000D02*
X173895000Y-108507000D01*
X173895000Y-108507000D02*
X173087000Y-109315000D01*
X173087000Y-109315000D02*
X172720000Y-109315000D01*
X172720000Y-109315000D02*
X172720000Y-110490000D01*
G04 #@! TO.N,/PA0*
X158310000Y-111690000D02*
X157385000Y-111690000D01*
X157385000Y-111690000D02*
X156438000Y-110744000D01*
X156438000Y-110744000D02*
X156438000Y-98826500D01*
X156438000Y-98826500D02*
X152767000Y-95155300D01*
X152767000Y-95155300D02*
X152400000Y-95155300D01*
X152400000Y-95155300D02*
X152400000Y-93980000D01*
G04 #@! TO.N,/PA1*
X158310000Y-112490000D02*
X157385000Y-112490000D01*
X157385000Y-112490000D02*
X155966000Y-111072000D01*
X155966000Y-111072000D02*
X155966000Y-100894000D01*
X155966000Y-100894000D02*
X152767000Y-97695300D01*
X152767000Y-97695300D02*
X152400000Y-97695300D01*
X152400000Y-97695300D02*
X152400000Y-96520000D01*
G04 #@! TO.N,/PA2*
X158310000Y-113290000D02*
X157385000Y-113290000D01*
X157385000Y-113290000D02*
X157385000Y-113127000D01*
X157385000Y-113127000D02*
X155516000Y-111258000D01*
X155516000Y-111258000D02*
X155516000Y-103040000D01*
X155516000Y-103040000D02*
X152711000Y-100235000D01*
X152711000Y-100235000D02*
X152400000Y-100235000D01*
X152400000Y-100235000D02*
X152400000Y-99060000D01*
G04 #@! TO.N,/PA3*
X152400000Y-101600000D02*
X152400000Y-102775000D01*
X152400000Y-102775000D02*
X152727000Y-102775000D01*
X152727000Y-102775000D02*
X153745000Y-103793000D01*
X153745000Y-103793000D02*
X153745000Y-110975000D01*
X153745000Y-110975000D02*
X157510000Y-114740000D01*
X157510000Y-114740000D02*
X159760000Y-114740000D01*
G04 #@! TO.N,/PA9*
X166810000Y-111690000D02*
X167735000Y-111690000D01*
X167735000Y-111690000D02*
X168327000Y-112281000D01*
X168327000Y-112281000D02*
X168327000Y-115244000D01*
G04 #@! TO.N,/PA10*
X166810000Y-110890000D02*
X165885000Y-110890000D01*
X165885000Y-110890000D02*
X165885000Y-110759000D01*
X165885000Y-110759000D02*
X164264000Y-109138000D01*
X164264000Y-109138000D02*
X164002000Y-109138000D01*
X164002000Y-109138000D02*
X162498000Y-107634000D01*
X162498000Y-107634000D02*
X162498000Y-107627000D01*
G04 #@! TO.N,/PA11*
X178676000Y-130416000D02*
X178676500Y-130416000D01*
X178676500Y-130416000D02*
X179070000Y-130022500D01*
X178676000Y-130416000D02*
X179070000Y-130022000D01*
X166810000Y-110090000D02*
X167735000Y-110090000D01*
X167735000Y-110090000D02*
X169052000Y-111407000D01*
X169052000Y-111407000D02*
X169052000Y-123800000D01*
X169052000Y-123800000D02*
X176062000Y-130810000D01*
X176062000Y-130810000D02*
X178282000Y-130810000D01*
X178282000Y-130810000D02*
X178676000Y-130416000D01*
X166810000Y-110090000D02*
X165885000Y-110090000D01*
X165885000Y-110090000D02*
X165885000Y-109995000D01*
X165885000Y-109995000D02*
X164303000Y-108413000D01*
G04 #@! TO.N,/PA12*
X173942500Y-127435000D02*
X176530000Y-130022000D01*
X166810000Y-109290000D02*
X167735000Y-109290000D01*
X167735000Y-109290000D02*
X171355000Y-112910000D01*
X171355000Y-112910000D02*
X171355000Y-124848000D01*
X171355000Y-124848000D02*
X173942500Y-127435000D01*
X173942500Y-127435000D02*
X176530000Y-130022500D01*
X166810000Y-109290000D02*
X165885000Y-109290000D01*
X165885000Y-109290000D02*
X165885000Y-108945000D01*
X165885000Y-108945000D02*
X165602000Y-108662000D01*
G04 #@! TO.N,/PB8*
X162183500Y-131397500D02*
X162183000Y-131397500D01*
X162183000Y-131397500D02*
X161595500Y-130810000D01*
X162183500Y-131397500D02*
X161596000Y-130810000D01*
X167640000Y-130810000D02*
X166465000Y-130810000D01*
X166465000Y-130810000D02*
X166465000Y-131618000D01*
X166465000Y-131618000D02*
X166097000Y-131985000D01*
X166097000Y-131985000D02*
X162771000Y-131985000D01*
X162771000Y-131985000D02*
X162183500Y-131397500D01*
X160560000Y-106240000D02*
X160560000Y-105680000D01*
X160560000Y-105680000D02*
X160195000Y-105315000D01*
X160195000Y-105315000D02*
X159214000Y-105315000D01*
X159214000Y-105315000D02*
X158826000Y-105703000D01*
X158826000Y-105703000D02*
X158826000Y-106217000D01*
G04 #@! TO.N,/PB7*
X161360000Y-106240000D02*
X161360000Y-105172000D01*
X161360000Y-105172000D02*
X161170000Y-104981000D01*
G04 #@! TO.N,/PB6*
X162160000Y-106240000D02*
X162160000Y-105315000D01*
X162160000Y-105315000D02*
X162186000Y-105289000D01*
X162186000Y-105289000D02*
X162186000Y-104962000D01*
G04 #@! TO.N,/PB5*
X162960000Y-106240000D02*
X162960000Y-105315000D01*
X162960000Y-105315000D02*
X163610000Y-104665000D01*
X163610000Y-104665000D02*
X163610000Y-104402000D01*
G04 #@! TO.N,/PB4*
X163760000Y-106240000D02*
X163760000Y-105315000D01*
X163760000Y-105315000D02*
X164764000Y-104310000D01*
X164764000Y-104310000D02*
X164764000Y-104063000D01*
G04 #@! TO.N,/PB3*
X164560000Y-106240000D02*
X164560000Y-107165000D01*
X164560000Y-107165000D02*
X165885000Y-107165000D01*
X165885000Y-107165000D02*
X170963000Y-102087000D01*
X170963000Y-102087000D02*
X177408000Y-102087000D01*
X177408000Y-102087000D02*
X180435000Y-99060000D01*
X180435000Y-99060000D02*
X181610000Y-99060000D01*
G04 #@! TO.N,/PB1*
X164560000Y-114740000D02*
X164560000Y-115665000D01*
X164560000Y-115665000D02*
X164134000Y-115665000D01*
X164134000Y-115665000D02*
X163841000Y-115958000D01*
G04 #@! TO.N,/PB0*
X163760000Y-114740000D02*
X163760000Y-113815000D01*
X163760000Y-113815000D02*
X159235000Y-113815000D01*
X159235000Y-113815000D02*
X159117000Y-113933000D01*
X159117000Y-113933000D02*
X157340000Y-113933000D01*
X157340000Y-113933000D02*
X154470000Y-111063000D01*
X154470000Y-111063000D02*
X154470000Y-105555000D01*
G04 #@! TO.N,/WS*
X160560000Y-114740000D02*
X160560000Y-115665000D01*
X160560000Y-115665000D02*
X159830000Y-115665000D01*
X159830000Y-115665000D02*
X153575000Y-121920000D01*
X153575000Y-121920000D02*
X152400000Y-121920000D01*
G04 #@! TO.N,/CK*
X161360000Y-114740000D02*
X161360000Y-115665000D01*
X161360000Y-115665000D02*
X153575000Y-123450000D01*
X153575000Y-123450000D02*
X153575000Y-124460000D01*
X153575000Y-124460000D02*
X152400000Y-124460000D01*
G04 #@! TO.N,/MC0*
X166810000Y-112490000D02*
X167735000Y-112490000D01*
X167735000Y-112490000D02*
X167735000Y-114466000D01*
X167735000Y-114466000D02*
X167601000Y-114600000D01*
X167601000Y-114600000D02*
X167601000Y-119373000D01*
X167601000Y-119373000D02*
X163635000Y-123339000D01*
X163635000Y-123339000D02*
X163635000Y-127545000D01*
X163635000Y-127545000D02*
X163515000Y-127665000D01*
X163515000Y-127665000D02*
X161612000Y-127665000D01*
X161612000Y-127665000D02*
X161485000Y-127538000D01*
X161485000Y-127538000D02*
X161485000Y-125286000D01*
X161485000Y-125286000D02*
X161214000Y-125014000D01*
X161214000Y-125014000D02*
X159276000Y-125014000D01*
X159276000Y-125014000D02*
X153564000Y-130726000D01*
X153564000Y-130726000D02*
X151920000Y-130726000D01*
X151920000Y-130726000D02*
X151153000Y-129960000D01*
X151153000Y-129960000D02*
X151153000Y-128247000D01*
X151153000Y-128247000D02*
X152400000Y-127000000D01*
G04 #@! TO.N,/SD*
X152400000Y-129540000D02*
X152400000Y-128365000D01*
X152400000Y-128365000D02*
X152767000Y-128365000D01*
X152767000Y-128365000D02*
X153575000Y-127557000D01*
X153575000Y-127557000D02*
X153575000Y-125622000D01*
X153575000Y-125622000D02*
X162960000Y-116238000D01*
X162960000Y-116238000D02*
X162960000Y-114740000D01*
G04 #@! TO.N,/EXT_CLK*
X175260000Y-100330000D02*
X175260000Y-92710000D01*
G04 #@! TO.N,/PF0*
X158310000Y-108490000D02*
X157385000Y-108490000D01*
X157385000Y-108490000D02*
X157385000Y-106119000D01*
X157385000Y-106119000D02*
X161195000Y-102308000D01*
X161195000Y-102308000D02*
X161195000Y-99970500D01*
X161195000Y-99970500D02*
X162012000Y-99154100D01*
X162012000Y-99154100D02*
X166295000Y-99154100D01*
X166295000Y-99154100D02*
X168646000Y-101505000D01*
X168646000Y-101505000D02*
X171178000Y-101505000D01*
X171178000Y-101505000D02*
X171545000Y-101138000D01*
X171545000Y-101138000D02*
X171545000Y-100330000D01*
X171545000Y-100330000D02*
X172720000Y-100330000D01*
G04 #@! TO.N,/PA15*
X162560000Y-100330000D02*
X162560000Y-101505000D01*
X162560000Y-101505000D02*
X163233000Y-101505000D01*
X163233000Y-101505000D02*
X165490000Y-103762000D01*
X165490000Y-103762000D02*
X165490000Y-105185000D01*
X165490000Y-105185000D02*
X165360000Y-105315000D01*
X165360000Y-105315000D02*
X165360000Y-106240000D01*
G04 #@! TO.N,/MCK*
X162160000Y-114740000D02*
X162160000Y-116012000D01*
X162160000Y-116012000D02*
X161690000Y-116482000D01*
G04 #@! TD*
D25*
G04 #@! TO.N,+5V*
G36*
X186563000Y-134493000D02*
X179560000Y-134493000D01*
X179560000Y-132635944D01*
X179657727Y-132616505D01*
X179938739Y-132428739D01*
X180126505Y-132147727D01*
X180192440Y-131816250D01*
X180192440Y-131378750D01*
X180126505Y-131047273D01*
X179967964Y-130810000D01*
X180126505Y-130572727D01*
X180192440Y-130241250D01*
X180192440Y-129803750D01*
X180126505Y-129472273D01*
X179938739Y-129191261D01*
X179657727Y-129003495D01*
X179326250Y-128937560D01*
X178813750Y-128937560D01*
X178482273Y-129003495D01*
X178201261Y-129191261D01*
X178013495Y-129472273D01*
X177947560Y-129803750D01*
X177947560Y-130050000D01*
X177652440Y-130050000D01*
X177652440Y-129803750D01*
X177586505Y-129472273D01*
X177398739Y-129191261D01*
X177117727Y-129003495D01*
X176786250Y-128937560D01*
X176520256Y-128937560D01*
X174532783Y-126950472D01*
X174532782Y-126950470D01*
X174476010Y-126893709D01*
X174426972Y-126844671D01*
X174426943Y-126844652D01*
X172398789Y-124816890D01*
X180168524Y-124816890D01*
X180338355Y-125226924D01*
X180728642Y-125655183D01*
X181253108Y-125901486D01*
X181483000Y-125780819D01*
X181483000Y-124587000D01*
X181737000Y-124587000D01*
X181737000Y-125780819D01*
X181966892Y-125901486D01*
X182491358Y-125655183D01*
X182881645Y-125226924D01*
X183051476Y-124816890D01*
X182930155Y-124587000D01*
X181737000Y-124587000D01*
X181483000Y-124587000D01*
X180289845Y-124587000D01*
X180168524Y-124816890D01*
X172398789Y-124816890D01*
X172115000Y-124533156D01*
X172115000Y-116894968D01*
X172363108Y-117011486D01*
X172593000Y-116890819D01*
X172593000Y-115697000D01*
X172847000Y-115697000D01*
X172847000Y-116890819D01*
X173076892Y-117011486D01*
X173601358Y-116765183D01*
X173990000Y-116338729D01*
X174378642Y-116765183D01*
X174903108Y-117011486D01*
X175133000Y-116890819D01*
X175133000Y-115697000D01*
X175387000Y-115697000D01*
X175387000Y-116890819D01*
X175616892Y-117011486D01*
X176141358Y-116765183D01*
X176531645Y-116336924D01*
X176701476Y-115926890D01*
X176580155Y-115697000D01*
X175387000Y-115697000D01*
X175133000Y-115697000D01*
X172847000Y-115697000D01*
X172593000Y-115697000D01*
X172573000Y-115697000D01*
X172573000Y-115443000D01*
X172593000Y-115443000D01*
X172593000Y-115423000D01*
X172847000Y-115423000D01*
X172847000Y-115443000D01*
X175133000Y-115443000D01*
X175133000Y-115423000D01*
X175387000Y-115423000D01*
X175387000Y-115443000D01*
X176580155Y-115443000D01*
X176701476Y-115213110D01*
X176531645Y-114803076D01*
X176141358Y-114374817D01*
X176011522Y-114313843D01*
X176330625Y-114100625D01*
X176658839Y-113609418D01*
X176774092Y-113030000D01*
X176658839Y-112450582D01*
X176330625Y-111959375D01*
X176032239Y-111760000D01*
X176330625Y-111560625D01*
X176658839Y-111069418D01*
X176736651Y-110678229D01*
X179425001Y-113366580D01*
X179425000Y-114819839D01*
X179407663Y-114907000D01*
X179425000Y-114994161D01*
X179425000Y-114994164D01*
X179476348Y-115252309D01*
X179671951Y-115545049D01*
X179745847Y-115594425D01*
X180353577Y-116202156D01*
X180402951Y-116276049D01*
X180476844Y-116325423D01*
X180476845Y-116325424D01*
X180494056Y-116336924D01*
X180695690Y-116471652D01*
X180725001Y-116477482D01*
X180725000Y-120429522D01*
X180512235Y-120471843D01*
X180302191Y-120612191D01*
X180161843Y-120822235D01*
X180112560Y-121070000D01*
X180112560Y-122770000D01*
X180161843Y-123017765D01*
X180302191Y-123227809D01*
X180512235Y-123368157D01*
X180615708Y-123388739D01*
X180338355Y-123693076D01*
X180168524Y-124103110D01*
X180289845Y-124333000D01*
X181483000Y-124333000D01*
X181483000Y-124313000D01*
X181737000Y-124313000D01*
X181737000Y-124333000D01*
X182930155Y-124333000D01*
X183051476Y-124103110D01*
X182881645Y-123693076D01*
X182604292Y-123388739D01*
X182707765Y-123368157D01*
X182917809Y-123227809D01*
X183058157Y-123017765D01*
X183107440Y-122770000D01*
X183107440Y-121070000D01*
X183058157Y-120822235D01*
X182917809Y-120612191D01*
X182707765Y-120471843D01*
X182495000Y-120429522D01*
X182495000Y-116459832D01*
X182770049Y-116276049D01*
X182819425Y-116202153D01*
X183474156Y-115547423D01*
X183548049Y-115498049D01*
X183599084Y-115421671D01*
X183743651Y-115205311D01*
X183743652Y-115205310D01*
X183795000Y-114947165D01*
X183795000Y-114947161D01*
X183812337Y-114860001D01*
X183795000Y-114772841D01*
X183795000Y-92827746D01*
X183812337Y-92740673D01*
X183795000Y-92653425D01*
X183795000Y-92653335D01*
X183777360Y-92564654D01*
X183743718Y-92395350D01*
X183743669Y-92395277D01*
X183743652Y-92395190D01*
X183645761Y-92248687D01*
X183597532Y-92176477D01*
X183597471Y-92176416D01*
X183548049Y-92102451D01*
X183474226Y-92053124D01*
X183107440Y-91686197D01*
X183107440Y-90590000D01*
X183058157Y-90342235D01*
X182917809Y-90132191D01*
X182707765Y-89991843D01*
X182460000Y-89942560D01*
X180760000Y-89942560D01*
X180512235Y-89991843D01*
X180302191Y-90132191D01*
X180161843Y-90342235D01*
X180125569Y-90524600D01*
X164500227Y-90524600D01*
X164413136Y-90507263D01*
X164325907Y-90524600D01*
X164325835Y-90524600D01*
X164236614Y-90542347D01*
X164067816Y-90575896D01*
X164067759Y-90575934D01*
X164067690Y-90575948D01*
X163921162Y-90673856D01*
X163848949Y-90722091D01*
X163848901Y-90722139D01*
X163774951Y-90771551D01*
X163725614Y-90845388D01*
X162439160Y-92131452D01*
X161190450Y-90882484D01*
X161141049Y-90808551D01*
X160993589Y-90710021D01*
X160848396Y-90612984D01*
X160848350Y-90612975D01*
X160848310Y-90612948D01*
X160668545Y-90577191D01*
X160503093Y-90544263D01*
X160415886Y-90561600D01*
X159669984Y-90561600D01*
X159582645Y-90544263D01*
X159411556Y-90578364D01*
X159237690Y-90612948D01*
X159237539Y-90613049D01*
X159237362Y-90613084D01*
X159091114Y-90710888D01*
X158944951Y-90808551D01*
X158895479Y-90882591D01*
X158819429Y-90958700D01*
X158736296Y-90875653D01*
X158687049Y-90801951D01*
X158612961Y-90752446D01*
X158612797Y-90752283D01*
X158540737Y-90704188D01*
X158394310Y-90606348D01*
X158394075Y-90606301D01*
X158393877Y-90606169D01*
X158222439Y-90572161D01*
X158136165Y-90555000D01*
X158135929Y-90555000D01*
X158048532Y-90537663D01*
X157961608Y-90555000D01*
X153890478Y-90555000D01*
X153848157Y-90342235D01*
X153707809Y-90132191D01*
X153497765Y-89991843D01*
X153250000Y-89942560D01*
X151550000Y-89942560D01*
X151302235Y-89991843D01*
X151092191Y-90132191D01*
X150951843Y-90342235D01*
X150902560Y-90590000D01*
X150902560Y-92290000D01*
X150951843Y-92537765D01*
X151092191Y-92747809D01*
X151302235Y-92888157D01*
X151347619Y-92897184D01*
X151329375Y-92909375D01*
X151001161Y-93400582D01*
X150885908Y-93980000D01*
X151001161Y-94559418D01*
X151329375Y-95050625D01*
X151627761Y-95250000D01*
X151329375Y-95449375D01*
X151001161Y-95940582D01*
X150885908Y-96520000D01*
X151001161Y-97099418D01*
X151329375Y-97590625D01*
X151627761Y-97790000D01*
X151329375Y-97989375D01*
X151001161Y-98480582D01*
X150885908Y-99060000D01*
X151001161Y-99639418D01*
X151329375Y-100130625D01*
X151627761Y-100330000D01*
X151329375Y-100529375D01*
X151001161Y-101020582D01*
X150885908Y-101600000D01*
X151001161Y-102179418D01*
X151329375Y-102670625D01*
X151627761Y-102870000D01*
X151329375Y-103069375D01*
X151001161Y-103560582D01*
X150885908Y-104140000D01*
X151001161Y-104719418D01*
X151329375Y-105210625D01*
X151627761Y-105410000D01*
X151329375Y-105609375D01*
X151001161Y-106100582D01*
X150885908Y-106680000D01*
X151001161Y-107259418D01*
X151329375Y-107750625D01*
X151627761Y-107950000D01*
X151329375Y-108149375D01*
X151001161Y-108640582D01*
X150885908Y-109220000D01*
X151001161Y-109799418D01*
X151329375Y-110290625D01*
X151627761Y-110490000D01*
X151329375Y-110689375D01*
X151001161Y-111180582D01*
X150885908Y-111760000D01*
X151001161Y-112339418D01*
X151329375Y-112830625D01*
X151648478Y-113043843D01*
X151518642Y-113104817D01*
X151128355Y-113533076D01*
X150958524Y-113943110D01*
X151079845Y-114173000D01*
X152273000Y-114173000D01*
X152273000Y-114153000D01*
X152527000Y-114153000D01*
X152527000Y-114173000D01*
X153720155Y-114173000D01*
X153841476Y-113943110D01*
X153671645Y-113533076D01*
X153281358Y-113104817D01*
X153151522Y-113043843D01*
X153470625Y-112830625D01*
X153798839Y-112339418D01*
X153837957Y-112142758D01*
X156919671Y-115224473D01*
X156962071Y-115287929D01*
X157213463Y-115455904D01*
X157435148Y-115500000D01*
X157435152Y-115500000D01*
X157509999Y-115514888D01*
X157584846Y-115500000D01*
X158844386Y-115500000D01*
X158856964Y-115563234D01*
X153747943Y-120672256D01*
X153707809Y-120612191D01*
X153497765Y-120471843D01*
X153250000Y-120422560D01*
X151550000Y-120422560D01*
X151302235Y-120471843D01*
X151092191Y-120612191D01*
X150951843Y-120822235D01*
X150902560Y-121070000D01*
X150902560Y-122770000D01*
X150951843Y-123017765D01*
X151092191Y-123227809D01*
X151302235Y-123368157D01*
X151347619Y-123377184D01*
X151329375Y-123389375D01*
X151001161Y-123880582D01*
X150885908Y-124460000D01*
X151001161Y-125039418D01*
X151329375Y-125530625D01*
X151627761Y-125730000D01*
X151329375Y-125929375D01*
X151001161Y-126420582D01*
X150885908Y-127000000D01*
X150958791Y-127366408D01*
X150668528Y-127656671D01*
X150605072Y-127699071D01*
X150562672Y-127762527D01*
X150562671Y-127762528D01*
X150437097Y-127950463D01*
X150378112Y-128247000D01*
X150393001Y-128321851D01*
X150393000Y-129885401D01*
X150378112Y-129960505D01*
X150407511Y-130107804D01*
X150437096Y-130256536D01*
X150437239Y-130256751D01*
X150437290Y-130257004D01*
X150521135Y-130382309D01*
X150605071Y-130507929D01*
X150668737Y-130550469D01*
X151248875Y-131129852D01*
X151001161Y-131500582D01*
X150885908Y-132080000D01*
X151001161Y-132659418D01*
X151329375Y-133150625D01*
X151820582Y-133478839D01*
X152253744Y-133565000D01*
X152546256Y-133565000D01*
X152979418Y-133478839D01*
X153470625Y-133150625D01*
X153594656Y-132965000D01*
X158662839Y-132965000D01*
X158750000Y-132982337D01*
X158837161Y-132965000D01*
X158837165Y-132965000D01*
X159095310Y-132913652D01*
X159388049Y-132718049D01*
X159437425Y-132644153D01*
X160020139Y-132061440D01*
X162452383Y-134493000D01*
X147447000Y-134493000D01*
X147447000Y-114656890D01*
X150958524Y-114656890D01*
X151128355Y-115066924D01*
X151518642Y-115495183D01*
X152043108Y-115741486D01*
X152273000Y-115620819D01*
X152273000Y-114427000D01*
X152527000Y-114427000D01*
X152527000Y-115620819D01*
X152756892Y-115741486D01*
X153281358Y-115495183D01*
X153671645Y-115066924D01*
X153841476Y-114656890D01*
X153720155Y-114427000D01*
X152527000Y-114427000D01*
X152273000Y-114427000D01*
X151079845Y-114427000D01*
X150958524Y-114656890D01*
X147447000Y-114656890D01*
X147447000Y-87122000D01*
X186563000Y-87122000D01*
X186563000Y-134493000D01*
X186563000Y-134493000D01*
G37*
X186563000Y-134493000D02*
X179560000Y-134493000D01*
X179560000Y-132635944D01*
X179657727Y-132616505D01*
X179938739Y-132428739D01*
X180126505Y-132147727D01*
X180192440Y-131816250D01*
X180192440Y-131378750D01*
X180126505Y-131047273D01*
X179967964Y-130810000D01*
X180126505Y-130572727D01*
X180192440Y-130241250D01*
X180192440Y-129803750D01*
X180126505Y-129472273D01*
X179938739Y-129191261D01*
X179657727Y-129003495D01*
X179326250Y-128937560D01*
X178813750Y-128937560D01*
X178482273Y-129003495D01*
X178201261Y-129191261D01*
X178013495Y-129472273D01*
X177947560Y-129803750D01*
X177947560Y-130050000D01*
X177652440Y-130050000D01*
X177652440Y-129803750D01*
X177586505Y-129472273D01*
X177398739Y-129191261D01*
X177117727Y-129003495D01*
X176786250Y-128937560D01*
X176520256Y-128937560D01*
X174532783Y-126950472D01*
X174532782Y-126950470D01*
X174476010Y-126893709D01*
X174426972Y-126844671D01*
X174426943Y-126844652D01*
X172398789Y-124816890D01*
X180168524Y-124816890D01*
X180338355Y-125226924D01*
X180728642Y-125655183D01*
X181253108Y-125901486D01*
X181483000Y-125780819D01*
X181483000Y-124587000D01*
X181737000Y-124587000D01*
X181737000Y-125780819D01*
X181966892Y-125901486D01*
X182491358Y-125655183D01*
X182881645Y-125226924D01*
X183051476Y-124816890D01*
X182930155Y-124587000D01*
X181737000Y-124587000D01*
X181483000Y-124587000D01*
X180289845Y-124587000D01*
X180168524Y-124816890D01*
X172398789Y-124816890D01*
X172115000Y-124533156D01*
X172115000Y-116894968D01*
X172363108Y-117011486D01*
X172593000Y-116890819D01*
X172593000Y-115697000D01*
X172847000Y-115697000D01*
X172847000Y-116890819D01*
X173076892Y-117011486D01*
X173601358Y-116765183D01*
X173990000Y-116338729D01*
X174378642Y-116765183D01*
X174903108Y-117011486D01*
X175133000Y-116890819D01*
X175133000Y-115697000D01*
X175387000Y-115697000D01*
X175387000Y-116890819D01*
X175616892Y-117011486D01*
X176141358Y-116765183D01*
X176531645Y-116336924D01*
X176701476Y-115926890D01*
X176580155Y-115697000D01*
X175387000Y-115697000D01*
X175133000Y-115697000D01*
X172847000Y-115697000D01*
X172593000Y-115697000D01*
X172573000Y-115697000D01*
X172573000Y-115443000D01*
X172593000Y-115443000D01*
X172593000Y-115423000D01*
X172847000Y-115423000D01*
X172847000Y-115443000D01*
X175133000Y-115443000D01*
X175133000Y-115423000D01*
X175387000Y-115423000D01*
X175387000Y-115443000D01*
X176580155Y-115443000D01*
X176701476Y-115213110D01*
X176531645Y-114803076D01*
X176141358Y-114374817D01*
X176011522Y-114313843D01*
X176330625Y-114100625D01*
X176658839Y-113609418D01*
X176774092Y-113030000D01*
X176658839Y-112450582D01*
X176330625Y-111959375D01*
X176032239Y-111760000D01*
X176330625Y-111560625D01*
X176658839Y-111069418D01*
X176736651Y-110678229D01*
X179425001Y-113366580D01*
X179425000Y-114819839D01*
X179407663Y-114907000D01*
X179425000Y-114994161D01*
X179425000Y-114994164D01*
X179476348Y-115252309D01*
X179671951Y-115545049D01*
X179745847Y-115594425D01*
X180353577Y-116202156D01*
X180402951Y-116276049D01*
X180476844Y-116325423D01*
X180476845Y-116325424D01*
X180494056Y-116336924D01*
X180695690Y-116471652D01*
X180725001Y-116477482D01*
X180725000Y-120429522D01*
X180512235Y-120471843D01*
X180302191Y-120612191D01*
X180161843Y-120822235D01*
X180112560Y-121070000D01*
X180112560Y-122770000D01*
X180161843Y-123017765D01*
X180302191Y-123227809D01*
X180512235Y-123368157D01*
X180615708Y-123388739D01*
X180338355Y-123693076D01*
X180168524Y-124103110D01*
X180289845Y-124333000D01*
X181483000Y-124333000D01*
X181483000Y-124313000D01*
X181737000Y-124313000D01*
X181737000Y-124333000D01*
X182930155Y-124333000D01*
X183051476Y-124103110D01*
X182881645Y-123693076D01*
X182604292Y-123388739D01*
X182707765Y-123368157D01*
X182917809Y-123227809D01*
X183058157Y-123017765D01*
X183107440Y-122770000D01*
X183107440Y-121070000D01*
X183058157Y-120822235D01*
X182917809Y-120612191D01*
X182707765Y-120471843D01*
X182495000Y-120429522D01*
X182495000Y-116459832D01*
X182770049Y-116276049D01*
X182819425Y-116202153D01*
X183474156Y-115547423D01*
X183548049Y-115498049D01*
X183599084Y-115421671D01*
X183743651Y-115205311D01*
X183743652Y-115205310D01*
X183795000Y-114947165D01*
X183795000Y-114947161D01*
X183812337Y-114860001D01*
X183795000Y-114772841D01*
X183795000Y-92827746D01*
X183812337Y-92740673D01*
X183795000Y-92653425D01*
X183795000Y-92653335D01*
X183777360Y-92564654D01*
X183743718Y-92395350D01*
X183743669Y-92395277D01*
X183743652Y-92395190D01*
X183645761Y-92248687D01*
X183597532Y-92176477D01*
X183597471Y-92176416D01*
X183548049Y-92102451D01*
X183474226Y-92053124D01*
X183107440Y-91686197D01*
X183107440Y-90590000D01*
X183058157Y-90342235D01*
X182917809Y-90132191D01*
X182707765Y-89991843D01*
X182460000Y-89942560D01*
X180760000Y-89942560D01*
X180512235Y-89991843D01*
X180302191Y-90132191D01*
X180161843Y-90342235D01*
X180125569Y-90524600D01*
X164500227Y-90524600D01*
X164413136Y-90507263D01*
X164325907Y-90524600D01*
X164325835Y-90524600D01*
X164236614Y-90542347D01*
X164067816Y-90575896D01*
X164067759Y-90575934D01*
X164067690Y-90575948D01*
X163921162Y-90673856D01*
X163848949Y-90722091D01*
X163848901Y-90722139D01*
X163774951Y-90771551D01*
X163725614Y-90845388D01*
X162439160Y-92131452D01*
X161190450Y-90882484D01*
X161141049Y-90808551D01*
X160993589Y-90710021D01*
X160848396Y-90612984D01*
X160848350Y-90612975D01*
X160848310Y-90612948D01*
X160668545Y-90577191D01*
X160503093Y-90544263D01*
X160415886Y-90561600D01*
X159669984Y-90561600D01*
X159582645Y-90544263D01*
X159411556Y-90578364D01*
X159237690Y-90612948D01*
X159237539Y-90613049D01*
X159237362Y-90613084D01*
X159091114Y-90710888D01*
X158944951Y-90808551D01*
X158895479Y-90882591D01*
X158819429Y-90958700D01*
X158736296Y-90875653D01*
X158687049Y-90801951D01*
X158612961Y-90752446D01*
X158612797Y-90752283D01*
X158540737Y-90704188D01*
X158394310Y-90606348D01*
X158394075Y-90606301D01*
X158393877Y-90606169D01*
X158222439Y-90572161D01*
X158136165Y-90555000D01*
X158135929Y-90555000D01*
X158048532Y-90537663D01*
X157961608Y-90555000D01*
X153890478Y-90555000D01*
X153848157Y-90342235D01*
X153707809Y-90132191D01*
X153497765Y-89991843D01*
X153250000Y-89942560D01*
X151550000Y-89942560D01*
X151302235Y-89991843D01*
X151092191Y-90132191D01*
X150951843Y-90342235D01*
X150902560Y-90590000D01*
X150902560Y-92290000D01*
X150951843Y-92537765D01*
X151092191Y-92747809D01*
X151302235Y-92888157D01*
X151347619Y-92897184D01*
X151329375Y-92909375D01*
X151001161Y-93400582D01*
X150885908Y-93980000D01*
X151001161Y-94559418D01*
X151329375Y-95050625D01*
X151627761Y-95250000D01*
X151329375Y-95449375D01*
X151001161Y-95940582D01*
X150885908Y-96520000D01*
X151001161Y-97099418D01*
X151329375Y-97590625D01*
X151627761Y-97790000D01*
X151329375Y-97989375D01*
X151001161Y-98480582D01*
X150885908Y-99060000D01*
X151001161Y-99639418D01*
X151329375Y-100130625D01*
X151627761Y-100330000D01*
X151329375Y-100529375D01*
X151001161Y-101020582D01*
X150885908Y-101600000D01*
X151001161Y-102179418D01*
X151329375Y-102670625D01*
X151627761Y-102870000D01*
X151329375Y-103069375D01*
X151001161Y-103560582D01*
X150885908Y-104140000D01*
X151001161Y-104719418D01*
X151329375Y-105210625D01*
X151627761Y-105410000D01*
X151329375Y-105609375D01*
X151001161Y-106100582D01*
X150885908Y-106680000D01*
X151001161Y-107259418D01*
X151329375Y-107750625D01*
X151627761Y-107950000D01*
X151329375Y-108149375D01*
X151001161Y-108640582D01*
X150885908Y-109220000D01*
X151001161Y-109799418D01*
X151329375Y-110290625D01*
X151627761Y-110490000D01*
X151329375Y-110689375D01*
X151001161Y-111180582D01*
X150885908Y-111760000D01*
X151001161Y-112339418D01*
X151329375Y-112830625D01*
X151648478Y-113043843D01*
X151518642Y-113104817D01*
X151128355Y-113533076D01*
X150958524Y-113943110D01*
X151079845Y-114173000D01*
X152273000Y-114173000D01*
X152273000Y-114153000D01*
X152527000Y-114153000D01*
X152527000Y-114173000D01*
X153720155Y-114173000D01*
X153841476Y-113943110D01*
X153671645Y-113533076D01*
X153281358Y-113104817D01*
X153151522Y-113043843D01*
X153470625Y-112830625D01*
X153798839Y-112339418D01*
X153837957Y-112142758D01*
X156919671Y-115224473D01*
X156962071Y-115287929D01*
X157213463Y-115455904D01*
X157435148Y-115500000D01*
X157435152Y-115500000D01*
X157509999Y-115514888D01*
X157584846Y-115500000D01*
X158844386Y-115500000D01*
X158856964Y-115563234D01*
X153747943Y-120672256D01*
X153707809Y-120612191D01*
X153497765Y-120471843D01*
X153250000Y-120422560D01*
X151550000Y-120422560D01*
X151302235Y-120471843D01*
X151092191Y-120612191D01*
X150951843Y-120822235D01*
X150902560Y-121070000D01*
X150902560Y-122770000D01*
X150951843Y-123017765D01*
X151092191Y-123227809D01*
X151302235Y-123368157D01*
X151347619Y-123377184D01*
X151329375Y-123389375D01*
X151001161Y-123880582D01*
X150885908Y-124460000D01*
X151001161Y-125039418D01*
X151329375Y-125530625D01*
X151627761Y-125730000D01*
X151329375Y-125929375D01*
X151001161Y-126420582D01*
X150885908Y-127000000D01*
X150958791Y-127366408D01*
X150668528Y-127656671D01*
X150605072Y-127699071D01*
X150562672Y-127762527D01*
X150562671Y-127762528D01*
X150437097Y-127950463D01*
X150378112Y-128247000D01*
X150393001Y-128321851D01*
X150393000Y-129885401D01*
X150378112Y-129960505D01*
X150407511Y-130107804D01*
X150437096Y-130256536D01*
X150437239Y-130256751D01*
X150437290Y-130257004D01*
X150521135Y-130382309D01*
X150605071Y-130507929D01*
X150668737Y-130550469D01*
X151248875Y-131129852D01*
X151001161Y-131500582D01*
X150885908Y-132080000D01*
X151001161Y-132659418D01*
X151329375Y-133150625D01*
X151820582Y-133478839D01*
X152253744Y-133565000D01*
X152546256Y-133565000D01*
X152979418Y-133478839D01*
X153470625Y-133150625D01*
X153594656Y-132965000D01*
X158662839Y-132965000D01*
X158750000Y-132982337D01*
X158837161Y-132965000D01*
X158837165Y-132965000D01*
X159095310Y-132913652D01*
X159388049Y-132718049D01*
X159437425Y-132644153D01*
X160020139Y-132061440D01*
X162452383Y-134493000D01*
X147447000Y-134493000D01*
X147447000Y-114656890D01*
X150958524Y-114656890D01*
X151128355Y-115066924D01*
X151518642Y-115495183D01*
X152043108Y-115741486D01*
X152273000Y-115620819D01*
X152273000Y-114427000D01*
X152527000Y-114427000D01*
X152527000Y-115620819D01*
X152756892Y-115741486D01*
X153281358Y-115495183D01*
X153671645Y-115066924D01*
X153841476Y-114656890D01*
X153720155Y-114427000D01*
X152527000Y-114427000D01*
X152273000Y-114427000D01*
X151079845Y-114427000D01*
X150958524Y-114656890D01*
X147447000Y-114656890D01*
X147447000Y-87122000D01*
X186563000Y-87122000D01*
X186563000Y-134493000D01*
G36*
X168292001Y-123725148D02*
X168277112Y-123800000D01*
X168336097Y-124096537D01*
X168441311Y-124254000D01*
X168504072Y-124347929D01*
X168567528Y-124390329D01*
X175432179Y-131254981D01*
X175407560Y-131378750D01*
X175407560Y-131816250D01*
X175473495Y-132147727D01*
X175661261Y-132428739D01*
X175942273Y-132616505D01*
X176040001Y-132635944D01*
X176040001Y-134493000D01*
X173565076Y-134493000D01*
X172507482Y-133434932D01*
X172458049Y-133360951D01*
X172308719Y-133261171D01*
X172165496Y-133165426D01*
X172165397Y-133165406D01*
X172165310Y-133165348D01*
X171988665Y-133130211D01*
X171820202Y-133096663D01*
X171732940Y-133114000D01*
X163576506Y-133114000D01*
X163207402Y-132745000D01*
X166021632Y-132745000D01*
X166095946Y-132759887D01*
X166171324Y-132745000D01*
X166171852Y-132745000D01*
X166245533Y-132730344D01*
X166392562Y-132701306D01*
X166393007Y-132701009D01*
X166393537Y-132700904D01*
X166518966Y-132617095D01*
X166580669Y-132575988D01*
X166581039Y-132575619D01*
X166644929Y-132532929D01*
X166687039Y-132469906D01*
X166949037Y-132208621D01*
X167004646Y-132171464D01*
X167060582Y-132208839D01*
X167493744Y-132295000D01*
X167786256Y-132295000D01*
X168219418Y-132208839D01*
X168710625Y-131880625D01*
X168910000Y-131582239D01*
X169109375Y-131880625D01*
X169600582Y-132208839D01*
X170033744Y-132295000D01*
X170326256Y-132295000D01*
X170759418Y-132208839D01*
X171250625Y-131880625D01*
X171578839Y-131389418D01*
X171694092Y-130810000D01*
X171578839Y-130230582D01*
X171250625Y-129739375D01*
X170759418Y-129411161D01*
X170326256Y-129325000D01*
X170033744Y-129325000D01*
X169600582Y-129411161D01*
X169109375Y-129739375D01*
X168910000Y-130037761D01*
X168710625Y-129739375D01*
X168219418Y-129411161D01*
X167786256Y-129325000D01*
X167493744Y-129325000D01*
X167060582Y-129411161D01*
X166569375Y-129739375D01*
X166554904Y-129761033D01*
X166488327Y-129600302D01*
X166309699Y-129421673D01*
X166076310Y-129325000D01*
X165385750Y-129325000D01*
X165227000Y-129483750D01*
X165227000Y-130683000D01*
X165247000Y-130683000D01*
X165247000Y-130937000D01*
X165227000Y-130937000D01*
X165227000Y-130957000D01*
X164973000Y-130957000D01*
X164973000Y-130937000D01*
X163773750Y-130937000D01*
X163615000Y-131095750D01*
X163615000Y-131225000D01*
X163085802Y-131225000D01*
X162773832Y-130913031D01*
X162773829Y-130913026D01*
X162773827Y-130913024D01*
X162731429Y-130849571D01*
X162680440Y-130815501D01*
X162680440Y-130553750D01*
X162614505Y-130222273D01*
X162426739Y-129941261D01*
X162265749Y-129833691D01*
X163615000Y-129833691D01*
X163615000Y-130524250D01*
X163773750Y-130683000D01*
X164973000Y-130683000D01*
X164973000Y-129483750D01*
X164814250Y-129325000D01*
X164123690Y-129325000D01*
X163890301Y-129421673D01*
X163711673Y-129600302D01*
X163615000Y-129833691D01*
X162265749Y-129833691D01*
X162145727Y-129753495D01*
X161814250Y-129687560D01*
X161376750Y-129687560D01*
X161045273Y-129753495D01*
X160905000Y-129847222D01*
X160905000Y-128417646D01*
X161052930Y-128196255D01*
X161064071Y-128212929D01*
X161315463Y-128380904D01*
X161537148Y-128425000D01*
X161537152Y-128425000D01*
X161611999Y-128439888D01*
X161686846Y-128425000D01*
X163440153Y-128425000D01*
X163515000Y-128439888D01*
X163589847Y-128425000D01*
X163589852Y-128425000D01*
X163811537Y-128380904D01*
X164062929Y-128212929D01*
X164105331Y-128149470D01*
X164119470Y-128135331D01*
X164182929Y-128092929D01*
X164261727Y-127975000D01*
X164574250Y-127975000D01*
X164733000Y-127816250D01*
X164733000Y-126467000D01*
X164987000Y-126467000D01*
X164987000Y-127816250D01*
X165145750Y-127975000D01*
X165736310Y-127975000D01*
X165969699Y-127878327D01*
X166148327Y-127699698D01*
X166245000Y-127466309D01*
X166245000Y-126625750D01*
X166086250Y-126467000D01*
X164987000Y-126467000D01*
X164733000Y-126467000D01*
X164713000Y-126467000D01*
X164713000Y-126213000D01*
X164733000Y-126213000D01*
X164733000Y-124863750D01*
X164987000Y-124863750D01*
X164987000Y-126213000D01*
X166086250Y-126213000D01*
X166245000Y-126054250D01*
X166245000Y-125213691D01*
X166148327Y-124980302D01*
X165969699Y-124801673D01*
X165736310Y-124705000D01*
X165145750Y-124705000D01*
X164987000Y-124863750D01*
X164733000Y-124863750D01*
X164574250Y-124705000D01*
X164395000Y-124705000D01*
X164395000Y-123653801D01*
X168085473Y-119963329D01*
X168148929Y-119920929D01*
X168292001Y-119706807D01*
X168292001Y-123725148D01*
X168292001Y-123725148D01*
G37*
X168292001Y-123725148D02*
X168277112Y-123800000D01*
X168336097Y-124096537D01*
X168441311Y-124254000D01*
X168504072Y-124347929D01*
X168567528Y-124390329D01*
X175432179Y-131254981D01*
X175407560Y-131378750D01*
X175407560Y-131816250D01*
X175473495Y-132147727D01*
X175661261Y-132428739D01*
X175942273Y-132616505D01*
X176040001Y-132635944D01*
X176040001Y-134493000D01*
X173565076Y-134493000D01*
X172507482Y-133434932D01*
X172458049Y-133360951D01*
X172308719Y-133261171D01*
X172165496Y-133165426D01*
X172165397Y-133165406D01*
X172165310Y-133165348D01*
X171988665Y-133130211D01*
X171820202Y-133096663D01*
X171732940Y-133114000D01*
X163576506Y-133114000D01*
X163207402Y-132745000D01*
X166021632Y-132745000D01*
X166095946Y-132759887D01*
X166171324Y-132745000D01*
X166171852Y-132745000D01*
X166245533Y-132730344D01*
X166392562Y-132701306D01*
X166393007Y-132701009D01*
X166393537Y-132700904D01*
X166518966Y-132617095D01*
X166580669Y-132575988D01*
X166581039Y-132575619D01*
X166644929Y-132532929D01*
X166687039Y-132469906D01*
X166949037Y-132208621D01*
X167004646Y-132171464D01*
X167060582Y-132208839D01*
X167493744Y-132295000D01*
X167786256Y-132295000D01*
X168219418Y-132208839D01*
X168710625Y-131880625D01*
X168910000Y-131582239D01*
X169109375Y-131880625D01*
X169600582Y-132208839D01*
X170033744Y-132295000D01*
X170326256Y-132295000D01*
X170759418Y-132208839D01*
X171250625Y-131880625D01*
X171578839Y-131389418D01*
X171694092Y-130810000D01*
X171578839Y-130230582D01*
X171250625Y-129739375D01*
X170759418Y-129411161D01*
X170326256Y-129325000D01*
X170033744Y-129325000D01*
X169600582Y-129411161D01*
X169109375Y-129739375D01*
X168910000Y-130037761D01*
X168710625Y-129739375D01*
X168219418Y-129411161D01*
X167786256Y-129325000D01*
X167493744Y-129325000D01*
X167060582Y-129411161D01*
X166569375Y-129739375D01*
X166554904Y-129761033D01*
X166488327Y-129600302D01*
X166309699Y-129421673D01*
X166076310Y-129325000D01*
X165385750Y-129325000D01*
X165227000Y-129483750D01*
X165227000Y-130683000D01*
X165247000Y-130683000D01*
X165247000Y-130937000D01*
X165227000Y-130937000D01*
X165227000Y-130957000D01*
X164973000Y-130957000D01*
X164973000Y-130937000D01*
X163773750Y-130937000D01*
X163615000Y-131095750D01*
X163615000Y-131225000D01*
X163085802Y-131225000D01*
X162773832Y-130913031D01*
X162773829Y-130913026D01*
X162773827Y-130913024D01*
X162731429Y-130849571D01*
X162680440Y-130815501D01*
X162680440Y-130553750D01*
X162614505Y-130222273D01*
X162426739Y-129941261D01*
X162265749Y-129833691D01*
X163615000Y-129833691D01*
X163615000Y-130524250D01*
X163773750Y-130683000D01*
X164973000Y-130683000D01*
X164973000Y-129483750D01*
X164814250Y-129325000D01*
X164123690Y-129325000D01*
X163890301Y-129421673D01*
X163711673Y-129600302D01*
X163615000Y-129833691D01*
X162265749Y-129833691D01*
X162145727Y-129753495D01*
X161814250Y-129687560D01*
X161376750Y-129687560D01*
X161045273Y-129753495D01*
X160905000Y-129847222D01*
X160905000Y-128417646D01*
X161052930Y-128196255D01*
X161064071Y-128212929D01*
X161315463Y-128380904D01*
X161537148Y-128425000D01*
X161537152Y-128425000D01*
X161611999Y-128439888D01*
X161686846Y-128425000D01*
X163440153Y-128425000D01*
X163515000Y-128439888D01*
X163589847Y-128425000D01*
X163589852Y-128425000D01*
X163811537Y-128380904D01*
X164062929Y-128212929D01*
X164105331Y-128149470D01*
X164119470Y-128135331D01*
X164182929Y-128092929D01*
X164261727Y-127975000D01*
X164574250Y-127975000D01*
X164733000Y-127816250D01*
X164733000Y-126467000D01*
X164987000Y-126467000D01*
X164987000Y-127816250D01*
X165145750Y-127975000D01*
X165736310Y-127975000D01*
X165969699Y-127878327D01*
X166148327Y-127699698D01*
X166245000Y-127466309D01*
X166245000Y-126625750D01*
X166086250Y-126467000D01*
X164987000Y-126467000D01*
X164733000Y-126467000D01*
X164713000Y-126467000D01*
X164713000Y-126213000D01*
X164733000Y-126213000D01*
X164733000Y-124863750D01*
X164987000Y-124863750D01*
X164987000Y-126213000D01*
X166086250Y-126213000D01*
X166245000Y-126054250D01*
X166245000Y-125213691D01*
X166148327Y-124980302D01*
X165969699Y-124801673D01*
X165736310Y-124705000D01*
X165145750Y-124705000D01*
X164987000Y-124863750D01*
X164733000Y-124863750D01*
X164574250Y-124705000D01*
X164395000Y-124705000D01*
X164395000Y-123653801D01*
X168085473Y-119963329D01*
X168148929Y-119920929D01*
X168292001Y-119706807D01*
X168292001Y-123725148D01*
G36*
X181737000Y-114173000D02*
X181757000Y-114173000D01*
X181757000Y-114427000D01*
X181737000Y-114427000D01*
X181737000Y-114447000D01*
X181483000Y-114447000D01*
X181483000Y-114427000D01*
X181463000Y-114427000D01*
X181463000Y-114173000D01*
X181483000Y-114173000D01*
X181483000Y-114153000D01*
X181737000Y-114153000D01*
X181737000Y-114173000D01*
X181737000Y-114173000D01*
G37*
X181737000Y-114173000D02*
X181757000Y-114173000D01*
X181757000Y-114427000D01*
X181737000Y-114427000D01*
X181737000Y-114447000D01*
X181483000Y-114447000D01*
X181483000Y-114427000D01*
X181463000Y-114427000D01*
X181463000Y-114173000D01*
X181483000Y-114173000D01*
X181483000Y-114153000D01*
X181737000Y-114153000D01*
X181737000Y-114173000D01*
G04 #@! TD*
M02*
