G04 #@! TF.GenerationSoftware,KiCad,Pcbnew,(5.0.1-3-g963ef8bb5)*
G04 #@! TF.CreationDate,2019-11-01T03:39:26+09:00*
G04 #@! TF.ProjectId,DDAC8S,4444414338532E6B696361645F706362,rev?*
G04 #@! TF.SameCoordinates,Original*
G04 #@! TF.FileFunction,Legend,Top*
G04 #@! TF.FilePolarity,Positive*
%FSLAX46Y46*%
G04 Gerber Fmt 4.6, Leading zero omitted, Abs format (unit mm)*
G04 Created by KiCad (PCBNEW (5.0.1-3-g963ef8bb5)) date 2019 November 01, Friday 03:39:26*
%MOMM*%
%LPD*%
G01*
G04 APERTURE LIST*
%ADD10C,0.100000*%
%ADD11C,0.200000*%
%ADD12C,0.150000*%
%ADD13C,0.300000*%
%ADD14C,0.120000*%
G04 APERTURE END LIST*
D10*
X155147238Y-133332571D02*
X155171047Y-133304000D01*
X155218666Y-133275428D01*
X155337714Y-133275428D01*
X155385333Y-133304000D01*
X155409142Y-133332571D01*
X155432952Y-133389714D01*
X155432952Y-133446857D01*
X155409142Y-133532571D01*
X155123428Y-133875428D01*
X155432952Y-133875428D01*
X155742476Y-133275428D02*
X155790095Y-133275428D01*
X155837714Y-133304000D01*
X155861523Y-133332571D01*
X155885333Y-133389714D01*
X155909142Y-133504000D01*
X155909142Y-133646857D01*
X155885333Y-133761142D01*
X155861523Y-133818285D01*
X155837714Y-133846857D01*
X155790095Y-133875428D01*
X155742476Y-133875428D01*
X155694857Y-133846857D01*
X155671047Y-133818285D01*
X155647238Y-133761142D01*
X155623428Y-133646857D01*
X155623428Y-133504000D01*
X155647238Y-133389714D01*
X155671047Y-133332571D01*
X155694857Y-133304000D01*
X155742476Y-133275428D01*
X156385333Y-133875428D02*
X156099619Y-133875428D01*
X156242476Y-133875428D02*
X156242476Y-133275428D01*
X156194857Y-133361142D01*
X156147238Y-133418285D01*
X156099619Y-133446857D01*
X156623428Y-133875428D02*
X156718666Y-133875428D01*
X156766285Y-133846857D01*
X156790095Y-133818285D01*
X156837714Y-133732571D01*
X156861523Y-133618285D01*
X156861523Y-133389714D01*
X156837714Y-133332571D01*
X156813904Y-133304000D01*
X156766285Y-133275428D01*
X156671047Y-133275428D01*
X156623428Y-133304000D01*
X156599619Y-133332571D01*
X156575809Y-133389714D01*
X156575809Y-133532571D01*
X156599619Y-133589714D01*
X156623428Y-133618285D01*
X156671047Y-133646857D01*
X156766285Y-133646857D01*
X156813904Y-133618285D01*
X156837714Y-133589714D01*
X156861523Y-133532571D01*
X157075809Y-133818285D02*
X157099619Y-133846857D01*
X157075809Y-133875428D01*
X157052000Y-133846857D01*
X157075809Y-133818285D01*
X157075809Y-133875428D01*
X157575809Y-133875428D02*
X157290095Y-133875428D01*
X157432952Y-133875428D02*
X157432952Y-133275428D01*
X157385333Y-133361142D01*
X157337714Y-133418285D01*
X157290095Y-133446857D01*
X157885333Y-133275428D02*
X157932952Y-133275428D01*
X157980571Y-133304000D01*
X158004380Y-133332571D01*
X158028190Y-133389714D01*
X158052000Y-133504000D01*
X158052000Y-133646857D01*
X158028190Y-133761142D01*
X158004380Y-133818285D01*
X157980571Y-133846857D01*
X157932952Y-133875428D01*
X157885333Y-133875428D01*
X157837714Y-133846857D01*
X157813904Y-133818285D01*
X157790095Y-133761142D01*
X157766285Y-133646857D01*
X157766285Y-133504000D01*
X157790095Y-133389714D01*
X157813904Y-133332571D01*
X157837714Y-133304000D01*
X157885333Y-133275428D01*
X158266285Y-133818285D02*
X158290095Y-133846857D01*
X158266285Y-133875428D01*
X158242476Y-133846857D01*
X158266285Y-133818285D01*
X158266285Y-133875428D01*
X158456761Y-133275428D02*
X158766285Y-133275428D01*
X158599619Y-133504000D01*
X158671047Y-133504000D01*
X158718666Y-133532571D01*
X158742476Y-133561142D01*
X158766285Y-133618285D01*
X158766285Y-133761142D01*
X158742476Y-133818285D01*
X158718666Y-133846857D01*
X158671047Y-133875428D01*
X158528190Y-133875428D01*
X158480571Y-133846857D01*
X158456761Y-133818285D01*
X159075809Y-133275428D02*
X159123428Y-133275428D01*
X159171047Y-133304000D01*
X159194857Y-133332571D01*
X159218666Y-133389714D01*
X159242476Y-133504000D01*
X159242476Y-133646857D01*
X159218666Y-133761142D01*
X159194857Y-133818285D01*
X159171047Y-133846857D01*
X159123428Y-133875428D01*
X159075809Y-133875428D01*
X159028190Y-133846857D01*
X159004380Y-133818285D01*
X158980571Y-133761142D01*
X158956761Y-133646857D01*
X158956761Y-133504000D01*
X158980571Y-133389714D01*
X159004380Y-133332571D01*
X159028190Y-133304000D01*
X159075809Y-133275428D01*
X159837714Y-133875428D02*
X159837714Y-133275428D01*
X159956761Y-133275428D01*
X160028190Y-133304000D01*
X160075809Y-133361142D01*
X160099619Y-133418285D01*
X160123428Y-133532571D01*
X160123428Y-133618285D01*
X160099619Y-133732571D01*
X160075809Y-133789714D01*
X160028190Y-133846857D01*
X159956761Y-133875428D01*
X159837714Y-133875428D01*
X160528190Y-133846857D02*
X160480571Y-133875428D01*
X160385333Y-133875428D01*
X160337714Y-133846857D01*
X160313904Y-133789714D01*
X160313904Y-133561142D01*
X160337714Y-133504000D01*
X160385333Y-133475428D01*
X160480571Y-133475428D01*
X160528190Y-133504000D01*
X160552000Y-133561142D01*
X160552000Y-133618285D01*
X160313904Y-133675428D01*
X160742476Y-133846857D02*
X160790095Y-133875428D01*
X160885333Y-133875428D01*
X160932952Y-133846857D01*
X160956761Y-133789714D01*
X160956761Y-133761142D01*
X160932952Y-133704000D01*
X160885333Y-133675428D01*
X160813904Y-133675428D01*
X160766285Y-133646857D01*
X160742476Y-133589714D01*
X160742476Y-133561142D01*
X160766285Y-133504000D01*
X160813904Y-133475428D01*
X160885333Y-133475428D01*
X160932952Y-133504000D01*
X161171047Y-133875428D02*
X161171047Y-133475428D01*
X161171047Y-133275428D02*
X161147238Y-133304000D01*
X161171047Y-133332571D01*
X161194857Y-133304000D01*
X161171047Y-133275428D01*
X161171047Y-133332571D01*
X161623428Y-133475428D02*
X161623428Y-133961142D01*
X161599619Y-134018285D01*
X161575809Y-134046857D01*
X161528190Y-134075428D01*
X161456761Y-134075428D01*
X161409142Y-134046857D01*
X161623428Y-133846857D02*
X161575809Y-133875428D01*
X161480571Y-133875428D01*
X161432952Y-133846857D01*
X161409142Y-133818285D01*
X161385333Y-133761142D01*
X161385333Y-133589714D01*
X161409142Y-133532571D01*
X161432952Y-133504000D01*
X161480571Y-133475428D01*
X161575809Y-133475428D01*
X161623428Y-133504000D01*
X161861523Y-133475428D02*
X161861523Y-133875428D01*
X161861523Y-133532571D02*
X161885333Y-133504000D01*
X161932952Y-133475428D01*
X162004380Y-133475428D01*
X162052000Y-133504000D01*
X162075809Y-133561142D01*
X162075809Y-133875428D01*
X162504380Y-133846857D02*
X162456761Y-133875428D01*
X162361523Y-133875428D01*
X162313904Y-133846857D01*
X162290095Y-133789714D01*
X162290095Y-133561142D01*
X162313904Y-133504000D01*
X162361523Y-133475428D01*
X162456761Y-133475428D01*
X162504380Y-133504000D01*
X162528190Y-133561142D01*
X162528190Y-133618285D01*
X162290095Y-133675428D01*
X162956761Y-133875428D02*
X162956761Y-133275428D01*
X162956761Y-133846857D02*
X162909142Y-133875428D01*
X162813904Y-133875428D01*
X162766285Y-133846857D01*
X162742476Y-133818285D01*
X162718666Y-133761142D01*
X162718666Y-133589714D01*
X162742476Y-133532571D01*
X162766285Y-133504000D01*
X162813904Y-133475428D01*
X162909142Y-133475428D01*
X162956761Y-133504000D01*
X163575809Y-133875428D02*
X163575809Y-133275428D01*
X163575809Y-133504000D02*
X163623428Y-133475428D01*
X163718666Y-133475428D01*
X163766285Y-133504000D01*
X163790095Y-133532571D01*
X163813904Y-133589714D01*
X163813904Y-133761142D01*
X163790095Y-133818285D01*
X163766285Y-133846857D01*
X163718666Y-133875428D01*
X163623428Y-133875428D01*
X163575809Y-133846857D01*
X163980571Y-133475428D02*
X164099619Y-133875428D01*
X164218666Y-133475428D02*
X164099619Y-133875428D01*
X164052000Y-134018285D01*
X164028190Y-134046857D01*
X163980571Y-134075428D01*
X164790095Y-133875428D02*
X164790095Y-133275428D01*
X164956761Y-133704000D01*
X165123428Y-133275428D01*
X165123428Y-133875428D01*
X165552000Y-133846857D02*
X165504380Y-133875428D01*
X165409142Y-133875428D01*
X165361523Y-133846857D01*
X165337714Y-133789714D01*
X165337714Y-133561142D01*
X165361523Y-133504000D01*
X165409142Y-133475428D01*
X165504380Y-133475428D01*
X165552000Y-133504000D01*
X165575809Y-133561142D01*
X165575809Y-133618285D01*
X165337714Y-133675428D01*
X165861523Y-133875428D02*
X165813904Y-133846857D01*
X165790095Y-133789714D01*
X165790095Y-133275428D01*
X166123428Y-133875428D02*
X166075809Y-133846857D01*
X166052000Y-133789714D01*
X166052000Y-133275428D01*
X166385333Y-133875428D02*
X166337714Y-133846857D01*
X166313904Y-133818285D01*
X166290095Y-133761142D01*
X166290095Y-133589714D01*
X166313904Y-133532571D01*
X166337714Y-133504000D01*
X166385333Y-133475428D01*
X166456761Y-133475428D01*
X166504380Y-133504000D01*
X166528190Y-133532571D01*
X166552000Y-133589714D01*
X166552000Y-133761142D01*
X166528190Y-133818285D01*
X166504380Y-133846857D01*
X166456761Y-133875428D01*
X166385333Y-133875428D01*
X166718666Y-133475428D02*
X166813904Y-133875428D01*
X166909142Y-133589714D01*
X167004380Y-133875428D01*
X167099619Y-133475428D01*
X167671047Y-133875428D02*
X167671047Y-133275428D01*
X167861523Y-133275428D01*
X167909142Y-133304000D01*
X167932952Y-133332571D01*
X167956761Y-133389714D01*
X167956761Y-133475428D01*
X167932952Y-133532571D01*
X167909142Y-133561142D01*
X167861523Y-133589714D01*
X167671047Y-133589714D01*
X168456761Y-133818285D02*
X168432952Y-133846857D01*
X168361523Y-133875428D01*
X168313904Y-133875428D01*
X168242476Y-133846857D01*
X168194857Y-133789714D01*
X168171047Y-133732571D01*
X168147238Y-133618285D01*
X168147238Y-133532571D01*
X168171047Y-133418285D01*
X168194857Y-133361142D01*
X168242476Y-133304000D01*
X168313904Y-133275428D01*
X168361523Y-133275428D01*
X168432952Y-133304000D01*
X168456761Y-133332571D01*
X168837714Y-133561142D02*
X168909142Y-133589714D01*
X168932952Y-133618285D01*
X168956761Y-133675428D01*
X168956761Y-133761142D01*
X168932952Y-133818285D01*
X168909142Y-133846857D01*
X168861523Y-133875428D01*
X168671047Y-133875428D01*
X168671047Y-133275428D01*
X168837714Y-133275428D01*
X168885333Y-133304000D01*
X168909142Y-133332571D01*
X168932952Y-133389714D01*
X168932952Y-133446857D01*
X168909142Y-133504000D01*
X168885333Y-133532571D01*
X168837714Y-133561142D01*
X168671047Y-133561142D01*
D11*
X170339714Y-133802380D02*
X170339714Y-132802380D01*
X170673047Y-133516666D01*
X171006380Y-132802380D01*
X171006380Y-133802380D01*
X171482571Y-133802380D02*
X171482571Y-132802380D01*
X171863523Y-132802380D01*
X171958761Y-132850000D01*
X172006380Y-132897619D01*
X172054000Y-132992857D01*
X172054000Y-133135714D01*
X172006380Y-133230952D01*
X171958761Y-133278571D01*
X171863523Y-133326190D01*
X171482571Y-133326190D01*
X172673047Y-132802380D02*
X172768285Y-132802380D01*
X172863523Y-132850000D01*
X172911142Y-132897619D01*
X172958761Y-132992857D01*
X173006380Y-133183333D01*
X173006380Y-133421428D01*
X172958761Y-133611904D01*
X172911142Y-133707142D01*
X172863523Y-133754761D01*
X172768285Y-133802380D01*
X172673047Y-133802380D01*
X172577809Y-133754761D01*
X172530190Y-133707142D01*
X172482571Y-133611904D01*
X172434952Y-133421428D01*
X172434952Y-133183333D01*
X172482571Y-132992857D01*
X172530190Y-132897619D01*
X172577809Y-132850000D01*
X172673047Y-132802380D01*
X173339714Y-132802380D02*
X173958761Y-132802380D01*
X173625428Y-133183333D01*
X173768285Y-133183333D01*
X173863523Y-133230952D01*
X173911142Y-133278571D01*
X173958761Y-133373809D01*
X173958761Y-133611904D01*
X173911142Y-133707142D01*
X173863523Y-133754761D01*
X173768285Y-133802380D01*
X173482571Y-133802380D01*
X173387333Y-133754761D01*
X173339714Y-133707142D01*
X174387333Y-133421428D02*
X175149238Y-133421428D01*
X175625428Y-133802380D02*
X175625428Y-132802380D01*
X175863523Y-132802380D01*
X176006380Y-132850000D01*
X176101619Y-132945238D01*
X176149238Y-133040476D01*
X176196857Y-133230952D01*
X176196857Y-133373809D01*
X176149238Y-133564285D01*
X176101619Y-133659523D01*
X176006380Y-133754761D01*
X175863523Y-133802380D01*
X175625428Y-133802380D01*
X176625428Y-133802380D02*
X176625428Y-132802380D01*
X176863523Y-132802380D01*
X177006380Y-132850000D01*
X177101619Y-132945238D01*
X177149238Y-133040476D01*
X177196857Y-133230952D01*
X177196857Y-133373809D01*
X177149238Y-133564285D01*
X177101619Y-133659523D01*
X177006380Y-133754761D01*
X176863523Y-133802380D01*
X176625428Y-133802380D01*
X177577809Y-133516666D02*
X178054000Y-133516666D01*
X177482571Y-133802380D02*
X177815904Y-132802380D01*
X178149238Y-133802380D01*
X179054000Y-133707142D02*
X179006380Y-133754761D01*
X178863523Y-133802380D01*
X178768285Y-133802380D01*
X178625428Y-133754761D01*
X178530190Y-133659523D01*
X178482571Y-133564285D01*
X178434952Y-133373809D01*
X178434952Y-133230952D01*
X178482571Y-133040476D01*
X178530190Y-132945238D01*
X178625428Y-132850000D01*
X178768285Y-132802380D01*
X178863523Y-132802380D01*
X179006380Y-132850000D01*
X179054000Y-132897619D01*
X179625428Y-133230952D02*
X179530190Y-133183333D01*
X179482571Y-133135714D01*
X179434952Y-133040476D01*
X179434952Y-132992857D01*
X179482571Y-132897619D01*
X179530190Y-132850000D01*
X179625428Y-132802380D01*
X179815904Y-132802380D01*
X179911142Y-132850000D01*
X179958761Y-132897619D01*
X180006380Y-132992857D01*
X180006380Y-133040476D01*
X179958761Y-133135714D01*
X179911142Y-133183333D01*
X179815904Y-133230952D01*
X179625428Y-133230952D01*
X179530190Y-133278571D01*
X179482571Y-133326190D01*
X179434952Y-133421428D01*
X179434952Y-133611904D01*
X179482571Y-133707142D01*
X179530190Y-133754761D01*
X179625428Y-133802380D01*
X179815904Y-133802380D01*
X179911142Y-133754761D01*
X179958761Y-133707142D01*
X180006380Y-133611904D01*
X180006380Y-133421428D01*
X179958761Y-133326190D01*
X179911142Y-133278571D01*
X179815904Y-133230952D01*
X180387333Y-133754761D02*
X180530190Y-133802380D01*
X180768285Y-133802380D01*
X180863523Y-133754761D01*
X180911142Y-133707142D01*
X180958761Y-133611904D01*
X180958761Y-133516666D01*
X180911142Y-133421428D01*
X180863523Y-133373809D01*
X180768285Y-133326190D01*
X180577809Y-133278571D01*
X180482571Y-133230952D01*
X180434952Y-133183333D01*
X180387333Y-133088095D01*
X180387333Y-132992857D01*
X180434952Y-132897619D01*
X180482571Y-132850000D01*
X180577809Y-132802380D01*
X180815904Y-132802380D01*
X180958761Y-132850000D01*
X182054000Y-133135714D02*
X182292095Y-133802380D01*
X182530190Y-133135714D01*
X183434952Y-133802380D02*
X182863523Y-133802380D01*
X183149238Y-133802380D02*
X183149238Y-132802380D01*
X183054000Y-132945238D01*
X182958761Y-133040476D01*
X182863523Y-133088095D01*
X183863523Y-133707142D02*
X183911142Y-133754761D01*
X183863523Y-133802380D01*
X183815904Y-133754761D01*
X183863523Y-133707142D01*
X183863523Y-133802380D01*
X184530190Y-132802380D02*
X184625428Y-132802380D01*
X184720666Y-132850000D01*
X184768285Y-132897619D01*
X184815904Y-132992857D01*
X184863523Y-133183333D01*
X184863523Y-133421428D01*
X184815904Y-133611904D01*
X184768285Y-133707142D01*
X184720666Y-133754761D01*
X184625428Y-133802380D01*
X184530190Y-133802380D01*
X184434952Y-133754761D01*
X184387333Y-133707142D01*
X184339714Y-133611904D01*
X184292095Y-133421428D01*
X184292095Y-133183333D01*
X184339714Y-132992857D01*
X184387333Y-132897619D01*
X184434952Y-132850000D01*
X184530190Y-132802380D01*
X185482571Y-132802380D02*
X185577809Y-132802380D01*
X185673047Y-132850000D01*
X185720666Y-132897619D01*
X185768285Y-132992857D01*
X185815904Y-133183333D01*
X185815904Y-133421428D01*
X185768285Y-133611904D01*
X185720666Y-133707142D01*
X185673047Y-133754761D01*
X185577809Y-133802380D01*
X185482571Y-133802380D01*
X185387333Y-133754761D01*
X185339714Y-133707142D01*
X185292095Y-133611904D01*
X185244476Y-133421428D01*
X185244476Y-133183333D01*
X185292095Y-132992857D01*
X185339714Y-132897619D01*
X185387333Y-132850000D01*
X185482571Y-132802380D01*
D12*
X166451428Y-102574285D02*
X166844285Y-102074285D01*
X166451428Y-102074285D02*
X166844285Y-102574285D01*
X167451428Y-102074285D02*
X167451428Y-102574285D01*
X167272857Y-101788571D02*
X167094285Y-102324285D01*
X167558571Y-102324285D01*
D11*
X167640000Y-128905000D02*
X167640000Y-130175000D01*
X165100000Y-128905000D02*
X167640000Y-128905000D01*
X165100000Y-130175000D02*
X165100000Y-128905000D01*
X166425714Y-128087380D02*
X166425714Y-127087380D01*
X166663809Y-127087380D01*
X166806666Y-127135000D01*
X166901904Y-127230238D01*
X166949523Y-127325476D01*
X166997142Y-127515952D01*
X166997142Y-127658809D01*
X166949523Y-127849285D01*
X166901904Y-127944523D01*
X166806666Y-128039761D01*
X166663809Y-128087380D01*
X166425714Y-128087380D01*
X167759047Y-127563571D02*
X167425714Y-127563571D01*
X167425714Y-128087380D02*
X167425714Y-127087380D01*
X167901904Y-127087380D01*
X168282857Y-127087380D02*
X168282857Y-127896904D01*
X168330476Y-127992142D01*
X168378095Y-128039761D01*
X168473333Y-128087380D01*
X168663809Y-128087380D01*
X168759047Y-128039761D01*
X168806666Y-127992142D01*
X168854285Y-127896904D01*
X168854285Y-127087380D01*
D12*
X167533571Y-88736785D02*
X167533571Y-89236785D01*
X167355000Y-88451071D02*
X167176428Y-88986785D01*
X167640714Y-88986785D01*
X168247857Y-88736785D02*
X168247857Y-89236785D01*
X168069285Y-88451071D02*
X167890714Y-88986785D01*
X168355000Y-88986785D01*
X168640714Y-89165357D02*
X168676428Y-89201071D01*
X168640714Y-89236785D01*
X168605000Y-89201071D01*
X168640714Y-89165357D01*
X168640714Y-89236785D01*
X169390714Y-89236785D02*
X168962142Y-89236785D01*
X169176428Y-89236785D02*
X169176428Y-88486785D01*
X169105000Y-88593928D01*
X169033571Y-88665357D01*
X168962142Y-88701071D01*
X169712142Y-89236785D02*
X169712142Y-88486785D01*
X169783571Y-88951071D02*
X169997857Y-89236785D01*
X169997857Y-88736785D02*
X169712142Y-89022500D01*
X170890714Y-88951071D02*
X171462142Y-88951071D01*
X172783571Y-89236785D02*
X172355000Y-89236785D01*
X172569285Y-89236785D02*
X172569285Y-88486785D01*
X172497857Y-88593928D01*
X172426428Y-88665357D01*
X172355000Y-88701071D01*
X173497857Y-89236785D02*
X173069285Y-89236785D01*
X173283571Y-89236785D02*
X173283571Y-88486785D01*
X173212142Y-88593928D01*
X173140714Y-88665357D01*
X173069285Y-88701071D01*
X173819285Y-89165357D02*
X173855000Y-89201071D01*
X173819285Y-89236785D01*
X173783571Y-89201071D01*
X173819285Y-89165357D01*
X173819285Y-89236785D01*
X174140714Y-88558214D02*
X174176428Y-88522500D01*
X174247857Y-88486785D01*
X174426428Y-88486785D01*
X174497857Y-88522500D01*
X174533571Y-88558214D01*
X174569285Y-88629642D01*
X174569285Y-88701071D01*
X174533571Y-88808214D01*
X174105000Y-89236785D01*
X174569285Y-89236785D01*
X174997857Y-88808214D02*
X174926428Y-88772500D01*
X174890714Y-88736785D01*
X174855000Y-88665357D01*
X174855000Y-88629642D01*
X174890714Y-88558214D01*
X174926428Y-88522500D01*
X174997857Y-88486785D01*
X175140714Y-88486785D01*
X175212142Y-88522500D01*
X175247857Y-88558214D01*
X175283571Y-88629642D01*
X175283571Y-88665357D01*
X175247857Y-88736785D01*
X175212142Y-88772500D01*
X175140714Y-88808214D01*
X174997857Y-88808214D01*
X174926428Y-88843928D01*
X174890714Y-88879642D01*
X174855000Y-88951071D01*
X174855000Y-89093928D01*
X174890714Y-89165357D01*
X174926428Y-89201071D01*
X174997857Y-89236785D01*
X175140714Y-89236785D01*
X175212142Y-89201071D01*
X175247857Y-89165357D01*
X175283571Y-89093928D01*
X175283571Y-88951071D01*
X175247857Y-88879642D01*
X175212142Y-88843928D01*
X175140714Y-88808214D01*
X175640714Y-89236785D02*
X175783571Y-89236785D01*
X175855000Y-89201071D01*
X175890714Y-89165357D01*
X175962142Y-89058214D01*
X175997857Y-88915357D01*
X175997857Y-88629642D01*
X175962142Y-88558214D01*
X175926428Y-88522500D01*
X175855000Y-88486785D01*
X175712142Y-88486785D01*
X175640714Y-88522500D01*
X175605000Y-88558214D01*
X175569285Y-88629642D01*
X175569285Y-88808214D01*
X175605000Y-88879642D01*
X175640714Y-88915357D01*
X175712142Y-88951071D01*
X175855000Y-88951071D01*
X175926428Y-88915357D01*
X175962142Y-88879642D01*
X175997857Y-88808214D01*
X176640714Y-88486785D02*
X176497857Y-88486785D01*
X176426428Y-88522500D01*
X176390714Y-88558214D01*
X176319285Y-88665357D01*
X176283571Y-88808214D01*
X176283571Y-89093928D01*
X176319285Y-89165357D01*
X176355000Y-89201071D01*
X176426428Y-89236785D01*
X176569285Y-89236785D01*
X176640714Y-89201071D01*
X176676428Y-89165357D01*
X176712142Y-89093928D01*
X176712142Y-88915357D01*
X176676428Y-88843928D01*
X176640714Y-88808214D01*
X176569285Y-88772500D01*
X176426428Y-88772500D01*
X176355000Y-88808214D01*
X176319285Y-88843928D01*
X176283571Y-88915357D01*
X177033571Y-89236785D02*
X177033571Y-88486785D01*
X177283571Y-89022500D01*
X177533571Y-88486785D01*
X177533571Y-89236785D01*
X177890714Y-89236785D02*
X177890714Y-88486785D01*
X177890714Y-88843928D02*
X178319285Y-88843928D01*
X178319285Y-89236785D02*
X178319285Y-88486785D01*
X178605000Y-88736785D02*
X178997857Y-88736785D01*
X178605000Y-89236785D01*
X178997857Y-89236785D01*
X168712142Y-90011785D02*
X168712142Y-90511785D01*
X168533571Y-89726071D02*
X168355000Y-90261785D01*
X168819285Y-90261785D01*
X169212142Y-90083214D02*
X169140714Y-90047500D01*
X169105000Y-90011785D01*
X169069285Y-89940357D01*
X169069285Y-89904642D01*
X169105000Y-89833214D01*
X169140714Y-89797500D01*
X169212142Y-89761785D01*
X169355000Y-89761785D01*
X169426428Y-89797500D01*
X169462142Y-89833214D01*
X169497857Y-89904642D01*
X169497857Y-89940357D01*
X169462142Y-90011785D01*
X169426428Y-90047500D01*
X169355000Y-90083214D01*
X169212142Y-90083214D01*
X169140714Y-90118928D01*
X169105000Y-90154642D01*
X169069285Y-90226071D01*
X169069285Y-90368928D01*
X169105000Y-90440357D01*
X169140714Y-90476071D01*
X169212142Y-90511785D01*
X169355000Y-90511785D01*
X169426428Y-90476071D01*
X169462142Y-90440357D01*
X169497857Y-90368928D01*
X169497857Y-90226071D01*
X169462142Y-90154642D01*
X169426428Y-90118928D01*
X169355000Y-90083214D01*
X169819285Y-90511785D02*
X169819285Y-89761785D01*
X169890714Y-90226071D02*
X170105000Y-90511785D01*
X170105000Y-90011785D02*
X169819285Y-90297500D01*
X170997857Y-90226071D02*
X171569285Y-90226071D01*
X172890714Y-90511785D02*
X172462142Y-90511785D01*
X172676428Y-90511785D02*
X172676428Y-89761785D01*
X172605000Y-89868928D01*
X172533571Y-89940357D01*
X172462142Y-89976071D01*
X173176428Y-89833214D02*
X173212142Y-89797500D01*
X173283571Y-89761785D01*
X173462142Y-89761785D01*
X173533571Y-89797500D01*
X173569285Y-89833214D01*
X173605000Y-89904642D01*
X173605000Y-89976071D01*
X173569285Y-90083214D01*
X173140714Y-90511785D01*
X173605000Y-90511785D01*
X173926428Y-90440357D02*
X173962142Y-90476071D01*
X173926428Y-90511785D01*
X173890714Y-90476071D01*
X173926428Y-90440357D01*
X173926428Y-90511785D01*
X174247857Y-89833214D02*
X174283571Y-89797500D01*
X174355000Y-89761785D01*
X174533571Y-89761785D01*
X174605000Y-89797500D01*
X174640714Y-89833214D01*
X174676428Y-89904642D01*
X174676428Y-89976071D01*
X174640714Y-90083214D01*
X174212142Y-90511785D01*
X174676428Y-90511785D01*
X175105000Y-90083214D02*
X175033571Y-90047500D01*
X174997857Y-90011785D01*
X174962142Y-89940357D01*
X174962142Y-89904642D01*
X174997857Y-89833214D01*
X175033571Y-89797500D01*
X175105000Y-89761785D01*
X175247857Y-89761785D01*
X175319285Y-89797500D01*
X175355000Y-89833214D01*
X175390714Y-89904642D01*
X175390714Y-89940357D01*
X175355000Y-90011785D01*
X175319285Y-90047500D01*
X175247857Y-90083214D01*
X175105000Y-90083214D01*
X175033571Y-90118928D01*
X174997857Y-90154642D01*
X174962142Y-90226071D01*
X174962142Y-90368928D01*
X174997857Y-90440357D01*
X175033571Y-90476071D01*
X175105000Y-90511785D01*
X175247857Y-90511785D01*
X175319285Y-90476071D01*
X175355000Y-90440357D01*
X175390714Y-90368928D01*
X175390714Y-90226071D01*
X175355000Y-90154642D01*
X175319285Y-90118928D01*
X175247857Y-90083214D01*
X175819285Y-90083214D02*
X175747857Y-90047500D01*
X175712142Y-90011785D01*
X175676428Y-89940357D01*
X175676428Y-89904642D01*
X175712142Y-89833214D01*
X175747857Y-89797500D01*
X175819285Y-89761785D01*
X175962142Y-89761785D01*
X176033571Y-89797500D01*
X176069285Y-89833214D01*
X176105000Y-89904642D01*
X176105000Y-89940357D01*
X176069285Y-90011785D01*
X176033571Y-90047500D01*
X175962142Y-90083214D01*
X175819285Y-90083214D01*
X175747857Y-90118928D01*
X175712142Y-90154642D01*
X175676428Y-90226071D01*
X175676428Y-90368928D01*
X175712142Y-90440357D01*
X175747857Y-90476071D01*
X175819285Y-90511785D01*
X175962142Y-90511785D01*
X176033571Y-90476071D01*
X176069285Y-90440357D01*
X176105000Y-90368928D01*
X176105000Y-90226071D01*
X176069285Y-90154642D01*
X176033571Y-90118928D01*
X175962142Y-90083214D01*
X176426428Y-90511785D02*
X176426428Y-89761785D01*
X176676428Y-90297500D01*
X176926428Y-89761785D01*
X176926428Y-90511785D01*
X177283571Y-90511785D02*
X177283571Y-89761785D01*
X177283571Y-90118928D02*
X177712142Y-90118928D01*
X177712142Y-90511785D02*
X177712142Y-89761785D01*
X177997857Y-90011785D02*
X178390714Y-90011785D01*
X177997857Y-90511785D01*
X178390714Y-90511785D01*
D11*
X162560000Y-102870000D02*
X162560000Y-104775000D01*
X172720000Y-102870000D02*
X162560000Y-102870000D01*
X172720000Y-102235000D02*
X172720000Y-102870000D01*
X170180000Y-95885000D02*
X168275000Y-93980000D01*
X170180000Y-98425000D02*
X170180000Y-95885000D01*
X175260000Y-94615000D02*
X175260000Y-98425000D01*
X172124761Y-98147142D02*
X172077142Y-98194761D01*
X171934285Y-98242380D01*
X171839047Y-98242380D01*
X171696190Y-98194761D01*
X171600952Y-98099523D01*
X171553333Y-98004285D01*
X171505714Y-97813809D01*
X171505714Y-97670952D01*
X171553333Y-97480476D01*
X171600952Y-97385238D01*
X171696190Y-97290000D01*
X171839047Y-97242380D01*
X171934285Y-97242380D01*
X172077142Y-97290000D01*
X172124761Y-97337619D01*
X173029523Y-98242380D02*
X172553333Y-98242380D01*
X172553333Y-97242380D01*
X173362857Y-98242380D02*
X173362857Y-97242380D01*
X173934285Y-98242380D02*
X173505714Y-97670952D01*
X173934285Y-97242380D02*
X173362857Y-97813809D01*
X148320238Y-120923809D02*
X148558333Y-122523809D01*
X148748809Y-121380952D01*
X148939285Y-122523809D01*
X149177380Y-120923809D01*
X149510714Y-122447619D02*
X149653571Y-122523809D01*
X149891666Y-122523809D01*
X149986904Y-122447619D01*
X150034523Y-122371428D01*
X150082142Y-122219047D01*
X150082142Y-122066666D01*
X150034523Y-121914285D01*
X149986904Y-121838095D01*
X149891666Y-121761904D01*
X149701190Y-121685714D01*
X149605952Y-121609523D01*
X149558333Y-121533333D01*
X149510714Y-121380952D01*
X149510714Y-121228571D01*
X149558333Y-121076190D01*
X149605952Y-121000000D01*
X149701190Y-120923809D01*
X149939285Y-120923809D01*
X150082142Y-121000000D01*
X147939285Y-125047619D02*
X148082142Y-125123809D01*
X148320238Y-125123809D01*
X148415476Y-125047619D01*
X148463095Y-124971428D01*
X148510714Y-124819047D01*
X148510714Y-124666666D01*
X148463095Y-124514285D01*
X148415476Y-124438095D01*
X148320238Y-124361904D01*
X148129761Y-124285714D01*
X148034523Y-124209523D01*
X147986904Y-124133333D01*
X147939285Y-123980952D01*
X147939285Y-123828571D01*
X147986904Y-123676190D01*
X148034523Y-123600000D01*
X148129761Y-123523809D01*
X148367857Y-123523809D01*
X148510714Y-123600000D01*
X149510714Y-124971428D02*
X149463095Y-125047619D01*
X149320238Y-125123809D01*
X149225000Y-125123809D01*
X149082142Y-125047619D01*
X148986904Y-124895238D01*
X148939285Y-124742857D01*
X148891666Y-124438095D01*
X148891666Y-124209523D01*
X148939285Y-123904761D01*
X148986904Y-123752380D01*
X149082142Y-123600000D01*
X149225000Y-123523809D01*
X149320238Y-123523809D01*
X149463095Y-123600000D01*
X149510714Y-123676190D01*
X149939285Y-125123809D02*
X149939285Y-123523809D01*
X150510714Y-125123809D02*
X150082142Y-124209523D01*
X150510714Y-123523809D02*
X149939285Y-124438095D01*
X147891666Y-127723809D02*
X147891666Y-126123809D01*
X148225000Y-127266666D01*
X148558333Y-126123809D01*
X148558333Y-127723809D01*
X149605952Y-127571428D02*
X149558333Y-127647619D01*
X149415476Y-127723809D01*
X149320238Y-127723809D01*
X149177380Y-127647619D01*
X149082142Y-127495238D01*
X149034523Y-127342857D01*
X148986904Y-127038095D01*
X148986904Y-126809523D01*
X149034523Y-126504761D01*
X149082142Y-126352380D01*
X149177380Y-126200000D01*
X149320238Y-126123809D01*
X149415476Y-126123809D01*
X149558333Y-126200000D01*
X149605952Y-126276190D01*
X150034523Y-127723809D02*
X150034523Y-126123809D01*
X150605952Y-127723809D02*
X150177380Y-126809523D01*
X150605952Y-126123809D02*
X150034523Y-127038095D01*
X148439285Y-130247619D02*
X148582142Y-130323809D01*
X148820238Y-130323809D01*
X148915476Y-130247619D01*
X148963095Y-130171428D01*
X149010714Y-130019047D01*
X149010714Y-129866666D01*
X148963095Y-129714285D01*
X148915476Y-129638095D01*
X148820238Y-129561904D01*
X148629761Y-129485714D01*
X148534523Y-129409523D01*
X148486904Y-129333333D01*
X148439285Y-129180952D01*
X148439285Y-129028571D01*
X148486904Y-128876190D01*
X148534523Y-128800000D01*
X148629761Y-128723809D01*
X148867857Y-128723809D01*
X149010714Y-128800000D01*
X149439285Y-130323809D02*
X149439285Y-128723809D01*
X149677380Y-128723809D01*
X149820238Y-128800000D01*
X149915476Y-128952380D01*
X149963095Y-129104761D01*
X150010714Y-129409523D01*
X150010714Y-129638095D01*
X149963095Y-129942857D01*
X149915476Y-130095238D01*
X149820238Y-130247619D01*
X149677380Y-130323809D01*
X149439285Y-130323809D01*
X148463095Y-131400000D02*
X148367857Y-131323809D01*
X148225000Y-131323809D01*
X148082142Y-131400000D01*
X147986904Y-131552380D01*
X147939285Y-131704761D01*
X147891666Y-132009523D01*
X147891666Y-132238095D01*
X147939285Y-132542857D01*
X147986904Y-132695238D01*
X148082142Y-132847619D01*
X148225000Y-132923809D01*
X148320238Y-132923809D01*
X148463095Y-132847619D01*
X148510714Y-132771428D01*
X148510714Y-132238095D01*
X148320238Y-132238095D01*
X148939285Y-132923809D02*
X148939285Y-131323809D01*
X149510714Y-132923809D01*
X149510714Y-131323809D01*
X149986904Y-132923809D02*
X149986904Y-131323809D01*
X150225000Y-131323809D01*
X150367857Y-131400000D01*
X150463095Y-131552380D01*
X150510714Y-131704761D01*
X150558333Y-132009523D01*
X150558333Y-132238095D01*
X150510714Y-132542857D01*
X150463095Y-132695238D01*
X150367857Y-132847619D01*
X150225000Y-132923809D01*
X149986904Y-132923809D01*
D13*
X148431428Y-119423571D02*
X148431428Y-117923571D01*
X149074285Y-118066428D02*
X149145714Y-117995000D01*
X149288571Y-117923571D01*
X149645714Y-117923571D01*
X149788571Y-117995000D01*
X149860000Y-118066428D01*
X149931428Y-118209285D01*
X149931428Y-118352142D01*
X149860000Y-118566428D01*
X149002857Y-119423571D01*
X149931428Y-119423571D01*
X150502857Y-119352142D02*
X150717142Y-119423571D01*
X151074285Y-119423571D01*
X151217142Y-119352142D01*
X151288571Y-119280714D01*
X151360000Y-119137857D01*
X151360000Y-118995000D01*
X151288571Y-118852142D01*
X151217142Y-118780714D01*
X151074285Y-118709285D01*
X150788571Y-118637857D01*
X150645714Y-118566428D01*
X150574285Y-118495000D01*
X150502857Y-118352142D01*
X150502857Y-118209285D01*
X150574285Y-118066428D01*
X150645714Y-117995000D01*
X150788571Y-117923571D01*
X151145714Y-117923571D01*
X151360000Y-117995000D01*
D11*
X184023095Y-121090000D02*
X183927857Y-121013809D01*
X183785000Y-121013809D01*
X183642142Y-121090000D01*
X183546904Y-121242380D01*
X183499285Y-121394761D01*
X183451666Y-121699523D01*
X183451666Y-121928095D01*
X183499285Y-122232857D01*
X183546904Y-122385238D01*
X183642142Y-122537619D01*
X183785000Y-122613809D01*
X183880238Y-122613809D01*
X184023095Y-122537619D01*
X184070714Y-122461428D01*
X184070714Y-121928095D01*
X183880238Y-121928095D01*
X184499285Y-122613809D02*
X184499285Y-121013809D01*
X185070714Y-122613809D01*
X185070714Y-121013809D01*
X185546904Y-122613809D02*
X185546904Y-121013809D01*
X185785000Y-121013809D01*
X185927857Y-121090000D01*
X186023095Y-121242380D01*
X186070714Y-121394761D01*
X186118333Y-121699523D01*
X186118333Y-121928095D01*
X186070714Y-122232857D01*
X186023095Y-122385238D01*
X185927857Y-122537619D01*
X185785000Y-122613809D01*
X185546904Y-122613809D01*
X183261190Y-123613809D02*
X183594523Y-125213809D01*
X183927857Y-123613809D01*
X184737380Y-123613809D02*
X184261190Y-123613809D01*
X184213571Y-124375714D01*
X184261190Y-124299523D01*
X184356428Y-124223333D01*
X184594523Y-124223333D01*
X184689761Y-124299523D01*
X184737380Y-124375714D01*
X184785000Y-124528095D01*
X184785000Y-124909047D01*
X184737380Y-125061428D01*
X184689761Y-125137619D01*
X184594523Y-125213809D01*
X184356428Y-125213809D01*
X184261190Y-125137619D01*
X184213571Y-125061428D01*
X185213571Y-125061428D02*
X185261190Y-125137619D01*
X185213571Y-125213809D01*
X185165952Y-125137619D01*
X185213571Y-125061428D01*
X185213571Y-125213809D01*
X185880238Y-123613809D02*
X185975476Y-123613809D01*
X186070714Y-123690000D01*
X186118333Y-123766190D01*
X186165952Y-123918571D01*
X186213571Y-124223333D01*
X186213571Y-124604285D01*
X186165952Y-124909047D01*
X186118333Y-125061428D01*
X186070714Y-125137619D01*
X185975476Y-125213809D01*
X185880238Y-125213809D01*
X185785000Y-125137619D01*
X185737380Y-125061428D01*
X185689761Y-124909047D01*
X185642142Y-124604285D01*
X185642142Y-124223333D01*
X185689761Y-123918571D01*
X185737380Y-123766190D01*
X185785000Y-123690000D01*
X185880238Y-123613809D01*
D13*
X178780714Y-119423571D02*
X178780714Y-117923571D01*
X179352142Y-117923571D01*
X179495000Y-117995000D01*
X179566428Y-118066428D01*
X179637857Y-118209285D01*
X179637857Y-118423571D01*
X179566428Y-118566428D01*
X179495000Y-118637857D01*
X179352142Y-118709285D01*
X178780714Y-118709285D01*
X180566428Y-117923571D02*
X180852142Y-117923571D01*
X180995000Y-117995000D01*
X181137857Y-118137857D01*
X181209285Y-118423571D01*
X181209285Y-118923571D01*
X181137857Y-119209285D01*
X180995000Y-119352142D01*
X180852142Y-119423571D01*
X180566428Y-119423571D01*
X180423571Y-119352142D01*
X180280714Y-119209285D01*
X180209285Y-118923571D01*
X180209285Y-118423571D01*
X180280714Y-118137857D01*
X180423571Y-117995000D01*
X180566428Y-117923571D01*
X181709285Y-117923571D02*
X182066428Y-119423571D01*
X182352142Y-118352142D01*
X182637857Y-119423571D01*
X182995000Y-117923571D01*
X183566428Y-118637857D02*
X184066428Y-118637857D01*
X184280714Y-119423571D02*
X183566428Y-119423571D01*
X183566428Y-117923571D01*
X184280714Y-117923571D01*
X185780714Y-119423571D02*
X185280714Y-118709285D01*
X184923571Y-119423571D02*
X184923571Y-117923571D01*
X185495000Y-117923571D01*
X185637857Y-117995000D01*
X185709285Y-118066428D01*
X185780714Y-118209285D01*
X185780714Y-118423571D01*
X185709285Y-118566428D01*
X185637857Y-118637857D01*
X185495000Y-118709285D01*
X184923571Y-118709285D01*
X180880000Y-88943571D02*
X180380000Y-88229285D01*
X180022857Y-88943571D02*
X180022857Y-87443571D01*
X180594285Y-87443571D01*
X180737142Y-87515000D01*
X180808571Y-87586428D01*
X180880000Y-87729285D01*
X180880000Y-87943571D01*
X180808571Y-88086428D01*
X180737142Y-88157857D01*
X180594285Y-88229285D01*
X180022857Y-88229285D01*
X181522857Y-88943571D02*
X181522857Y-87443571D01*
X183022857Y-87515000D02*
X182880000Y-87443571D01*
X182665714Y-87443571D01*
X182451428Y-87515000D01*
X182308571Y-87657857D01*
X182237142Y-87800714D01*
X182165714Y-88086428D01*
X182165714Y-88300714D01*
X182237142Y-88586428D01*
X182308571Y-88729285D01*
X182451428Y-88872142D01*
X182665714Y-88943571D01*
X182808571Y-88943571D01*
X183022857Y-88872142D01*
X183094285Y-88800714D01*
X183094285Y-88300714D01*
X182808571Y-88300714D01*
X183737142Y-88943571D02*
X183737142Y-87443571D01*
X183737142Y-88157857D02*
X184594285Y-88157857D01*
X184594285Y-88943571D02*
X184594285Y-87443571D01*
X185094285Y-87443571D02*
X185951428Y-87443571D01*
X185522857Y-88943571D02*
X185522857Y-87443571D01*
X149066428Y-88943571D02*
X148352142Y-88943571D01*
X148352142Y-87443571D01*
X149566428Y-88157857D02*
X150066428Y-88157857D01*
X150280714Y-88943571D02*
X149566428Y-88943571D01*
X149566428Y-87443571D01*
X150280714Y-87443571D01*
X151423571Y-88157857D02*
X150923571Y-88157857D01*
X150923571Y-88943571D02*
X150923571Y-87443571D01*
X151637857Y-87443571D01*
X151995000Y-87443571D02*
X152852142Y-87443571D01*
X152423571Y-88943571D02*
X152423571Y-87443571D01*
D11*
X184023095Y-90370000D02*
X183927857Y-90293809D01*
X183785000Y-90293809D01*
X183642142Y-90370000D01*
X183546904Y-90522380D01*
X183499285Y-90674761D01*
X183451666Y-90979523D01*
X183451666Y-91208095D01*
X183499285Y-91512857D01*
X183546904Y-91665238D01*
X183642142Y-91817619D01*
X183785000Y-91893809D01*
X183880238Y-91893809D01*
X184023095Y-91817619D01*
X184070714Y-91741428D01*
X184070714Y-91208095D01*
X183880238Y-91208095D01*
X184499285Y-91893809D02*
X184499285Y-90293809D01*
X185070714Y-91893809D01*
X185070714Y-90293809D01*
X185546904Y-91893809D02*
X185546904Y-90293809D01*
X185785000Y-90293809D01*
X185927857Y-90370000D01*
X186023095Y-90522380D01*
X186070714Y-90674761D01*
X186118333Y-90979523D01*
X186118333Y-91208095D01*
X186070714Y-91512857D01*
X186023095Y-91665238D01*
X185927857Y-91817619D01*
X185785000Y-91893809D01*
X185546904Y-91893809D01*
X184046904Y-94493809D02*
X184046904Y-92893809D01*
X184285000Y-92893809D01*
X184427857Y-92970000D01*
X184523095Y-93122380D01*
X184570714Y-93274761D01*
X184618333Y-93579523D01*
X184618333Y-93808095D01*
X184570714Y-94112857D01*
X184523095Y-94265238D01*
X184427857Y-94417619D01*
X184285000Y-94493809D01*
X184046904Y-94493809D01*
X185237380Y-92893809D02*
X185332619Y-92893809D01*
X185427857Y-92970000D01*
X185475476Y-93046190D01*
X185523095Y-93198571D01*
X185570714Y-93503333D01*
X185570714Y-93884285D01*
X185523095Y-94189047D01*
X185475476Y-94341428D01*
X185427857Y-94417619D01*
X185332619Y-94493809D01*
X185237380Y-94493809D01*
X185142142Y-94417619D01*
X185094523Y-94341428D01*
X185046904Y-94189047D01*
X184999285Y-93884285D01*
X184999285Y-93503333D01*
X185046904Y-93198571D01*
X185094523Y-93046190D01*
X185142142Y-92970000D01*
X185237380Y-92893809D01*
X184046904Y-97093809D02*
X184046904Y-95493809D01*
X184285000Y-95493809D01*
X184427857Y-95570000D01*
X184523095Y-95722380D01*
X184570714Y-95874761D01*
X184618333Y-96179523D01*
X184618333Y-96408095D01*
X184570714Y-96712857D01*
X184523095Y-96865238D01*
X184427857Y-97017619D01*
X184285000Y-97093809D01*
X184046904Y-97093809D01*
X185570714Y-97093809D02*
X184999285Y-97093809D01*
X185285000Y-97093809D02*
X185285000Y-95493809D01*
X185189761Y-95722380D01*
X185094523Y-95874761D01*
X184999285Y-95950952D01*
X184046904Y-99693809D02*
X184046904Y-98093809D01*
X184285000Y-98093809D01*
X184427857Y-98170000D01*
X184523095Y-98322380D01*
X184570714Y-98474761D01*
X184618333Y-98779523D01*
X184618333Y-99008095D01*
X184570714Y-99312857D01*
X184523095Y-99465238D01*
X184427857Y-99617619D01*
X184285000Y-99693809D01*
X184046904Y-99693809D01*
X184999285Y-98246190D02*
X185046904Y-98170000D01*
X185142142Y-98093809D01*
X185380238Y-98093809D01*
X185475476Y-98170000D01*
X185523095Y-98246190D01*
X185570714Y-98398571D01*
X185570714Y-98550952D01*
X185523095Y-98779523D01*
X184951666Y-99693809D01*
X185570714Y-99693809D01*
X184046904Y-102293809D02*
X184046904Y-100693809D01*
X184285000Y-100693809D01*
X184427857Y-100770000D01*
X184523095Y-100922380D01*
X184570714Y-101074761D01*
X184618333Y-101379523D01*
X184618333Y-101608095D01*
X184570714Y-101912857D01*
X184523095Y-102065238D01*
X184427857Y-102217619D01*
X184285000Y-102293809D01*
X184046904Y-102293809D01*
X184951666Y-100693809D02*
X185570714Y-100693809D01*
X185237380Y-101303333D01*
X185380238Y-101303333D01*
X185475476Y-101379523D01*
X185523095Y-101455714D01*
X185570714Y-101608095D01*
X185570714Y-101989047D01*
X185523095Y-102141428D01*
X185475476Y-102217619D01*
X185380238Y-102293809D01*
X185094523Y-102293809D01*
X184999285Y-102217619D01*
X184951666Y-102141428D01*
X184046904Y-104893809D02*
X184046904Y-103293809D01*
X184285000Y-103293809D01*
X184427857Y-103370000D01*
X184523095Y-103522380D01*
X184570714Y-103674761D01*
X184618333Y-103979523D01*
X184618333Y-104208095D01*
X184570714Y-104512857D01*
X184523095Y-104665238D01*
X184427857Y-104817619D01*
X184285000Y-104893809D01*
X184046904Y-104893809D01*
X185475476Y-103827142D02*
X185475476Y-104893809D01*
X185237380Y-103217619D02*
X184999285Y-104360476D01*
X185618333Y-104360476D01*
X184046904Y-107493809D02*
X184046904Y-105893809D01*
X184285000Y-105893809D01*
X184427857Y-105970000D01*
X184523095Y-106122380D01*
X184570714Y-106274761D01*
X184618333Y-106579523D01*
X184618333Y-106808095D01*
X184570714Y-107112857D01*
X184523095Y-107265238D01*
X184427857Y-107417619D01*
X184285000Y-107493809D01*
X184046904Y-107493809D01*
X185523095Y-105893809D02*
X185046904Y-105893809D01*
X184999285Y-106655714D01*
X185046904Y-106579523D01*
X185142142Y-106503333D01*
X185380238Y-106503333D01*
X185475476Y-106579523D01*
X185523095Y-106655714D01*
X185570714Y-106808095D01*
X185570714Y-107189047D01*
X185523095Y-107341428D01*
X185475476Y-107417619D01*
X185380238Y-107493809D01*
X185142142Y-107493809D01*
X185046904Y-107417619D01*
X184999285Y-107341428D01*
X184046904Y-110093809D02*
X184046904Y-108493809D01*
X184285000Y-108493809D01*
X184427857Y-108570000D01*
X184523095Y-108722380D01*
X184570714Y-108874761D01*
X184618333Y-109179523D01*
X184618333Y-109408095D01*
X184570714Y-109712857D01*
X184523095Y-109865238D01*
X184427857Y-110017619D01*
X184285000Y-110093809D01*
X184046904Y-110093809D01*
X185475476Y-108493809D02*
X185285000Y-108493809D01*
X185189761Y-108570000D01*
X185142142Y-108646190D01*
X185046904Y-108874761D01*
X184999285Y-109179523D01*
X184999285Y-109789047D01*
X185046904Y-109941428D01*
X185094523Y-110017619D01*
X185189761Y-110093809D01*
X185380238Y-110093809D01*
X185475476Y-110017619D01*
X185523095Y-109941428D01*
X185570714Y-109789047D01*
X185570714Y-109408095D01*
X185523095Y-109255714D01*
X185475476Y-109179523D01*
X185380238Y-109103333D01*
X185189761Y-109103333D01*
X185094523Y-109179523D01*
X185046904Y-109255714D01*
X184999285Y-109408095D01*
X184046904Y-112693809D02*
X184046904Y-111093809D01*
X184285000Y-111093809D01*
X184427857Y-111170000D01*
X184523095Y-111322380D01*
X184570714Y-111474761D01*
X184618333Y-111779523D01*
X184618333Y-112008095D01*
X184570714Y-112312857D01*
X184523095Y-112465238D01*
X184427857Y-112617619D01*
X184285000Y-112693809D01*
X184046904Y-112693809D01*
X184951666Y-111093809D02*
X185618333Y-111093809D01*
X185189761Y-112693809D01*
X183023095Y-113693809D02*
X183356428Y-115293809D01*
X183689761Y-113693809D01*
X184213571Y-113693809D02*
X184404047Y-113693809D01*
X184499285Y-113770000D01*
X184594523Y-113922380D01*
X184642142Y-114227142D01*
X184642142Y-114760476D01*
X184594523Y-115065238D01*
X184499285Y-115217619D01*
X184404047Y-115293809D01*
X184213571Y-115293809D01*
X184118333Y-115217619D01*
X184023095Y-115065238D01*
X183975476Y-114760476D01*
X183975476Y-114227142D01*
X184023095Y-113922380D01*
X184118333Y-113770000D01*
X184213571Y-113693809D01*
X185070714Y-113693809D02*
X185070714Y-114989047D01*
X185118333Y-115141428D01*
X185165952Y-115217619D01*
X185261190Y-115293809D01*
X185451666Y-115293809D01*
X185546904Y-115217619D01*
X185594523Y-115141428D01*
X185642142Y-114989047D01*
X185642142Y-113693809D01*
X185975476Y-113693809D02*
X186546904Y-113693809D01*
X186261190Y-115293809D02*
X186261190Y-113693809D01*
X148463095Y-90370000D02*
X148367857Y-90293809D01*
X148225000Y-90293809D01*
X148082142Y-90370000D01*
X147986904Y-90522380D01*
X147939285Y-90674761D01*
X147891666Y-90979523D01*
X147891666Y-91208095D01*
X147939285Y-91512857D01*
X147986904Y-91665238D01*
X148082142Y-91817619D01*
X148225000Y-91893809D01*
X148320238Y-91893809D01*
X148463095Y-91817619D01*
X148510714Y-91741428D01*
X148510714Y-91208095D01*
X148320238Y-91208095D01*
X148939285Y-91893809D02*
X148939285Y-90293809D01*
X149510714Y-91893809D01*
X149510714Y-90293809D01*
X149986904Y-91893809D02*
X149986904Y-90293809D01*
X150225000Y-90293809D01*
X150367857Y-90370000D01*
X150463095Y-90522380D01*
X150510714Y-90674761D01*
X150558333Y-90979523D01*
X150558333Y-91208095D01*
X150510714Y-91512857D01*
X150463095Y-91665238D01*
X150367857Y-91817619D01*
X150225000Y-91893809D01*
X149986904Y-91893809D01*
X148486904Y-94493809D02*
X148486904Y-92893809D01*
X148725000Y-92893809D01*
X148867857Y-92970000D01*
X148963095Y-93122380D01*
X149010714Y-93274761D01*
X149058333Y-93579523D01*
X149058333Y-93808095D01*
X149010714Y-94112857D01*
X148963095Y-94265238D01*
X148867857Y-94417619D01*
X148725000Y-94493809D01*
X148486904Y-94493809D01*
X149677380Y-92893809D02*
X149772619Y-92893809D01*
X149867857Y-92970000D01*
X149915476Y-93046190D01*
X149963095Y-93198571D01*
X150010714Y-93503333D01*
X150010714Y-93884285D01*
X149963095Y-94189047D01*
X149915476Y-94341428D01*
X149867857Y-94417619D01*
X149772619Y-94493809D01*
X149677380Y-94493809D01*
X149582142Y-94417619D01*
X149534523Y-94341428D01*
X149486904Y-94189047D01*
X149439285Y-93884285D01*
X149439285Y-93503333D01*
X149486904Y-93198571D01*
X149534523Y-93046190D01*
X149582142Y-92970000D01*
X149677380Y-92893809D01*
X148486904Y-97093809D02*
X148486904Y-95493809D01*
X148725000Y-95493809D01*
X148867857Y-95570000D01*
X148963095Y-95722380D01*
X149010714Y-95874761D01*
X149058333Y-96179523D01*
X149058333Y-96408095D01*
X149010714Y-96712857D01*
X148963095Y-96865238D01*
X148867857Y-97017619D01*
X148725000Y-97093809D01*
X148486904Y-97093809D01*
X150010714Y-97093809D02*
X149439285Y-97093809D01*
X149725000Y-97093809D02*
X149725000Y-95493809D01*
X149629761Y-95722380D01*
X149534523Y-95874761D01*
X149439285Y-95950952D01*
X148486904Y-99693809D02*
X148486904Y-98093809D01*
X148725000Y-98093809D01*
X148867857Y-98170000D01*
X148963095Y-98322380D01*
X149010714Y-98474761D01*
X149058333Y-98779523D01*
X149058333Y-99008095D01*
X149010714Y-99312857D01*
X148963095Y-99465238D01*
X148867857Y-99617619D01*
X148725000Y-99693809D01*
X148486904Y-99693809D01*
X149439285Y-98246190D02*
X149486904Y-98170000D01*
X149582142Y-98093809D01*
X149820238Y-98093809D01*
X149915476Y-98170000D01*
X149963095Y-98246190D01*
X150010714Y-98398571D01*
X150010714Y-98550952D01*
X149963095Y-98779523D01*
X149391666Y-99693809D01*
X150010714Y-99693809D01*
X148486904Y-102293809D02*
X148486904Y-100693809D01*
X148725000Y-100693809D01*
X148867857Y-100770000D01*
X148963095Y-100922380D01*
X149010714Y-101074761D01*
X149058333Y-101379523D01*
X149058333Y-101608095D01*
X149010714Y-101912857D01*
X148963095Y-102065238D01*
X148867857Y-102217619D01*
X148725000Y-102293809D01*
X148486904Y-102293809D01*
X149391666Y-100693809D02*
X150010714Y-100693809D01*
X149677380Y-101303333D01*
X149820238Y-101303333D01*
X149915476Y-101379523D01*
X149963095Y-101455714D01*
X150010714Y-101608095D01*
X150010714Y-101989047D01*
X149963095Y-102141428D01*
X149915476Y-102217619D01*
X149820238Y-102293809D01*
X149534523Y-102293809D01*
X149439285Y-102217619D01*
X149391666Y-102141428D01*
X148486904Y-104893809D02*
X148486904Y-103293809D01*
X148725000Y-103293809D01*
X148867857Y-103370000D01*
X148963095Y-103522380D01*
X149010714Y-103674761D01*
X149058333Y-103979523D01*
X149058333Y-104208095D01*
X149010714Y-104512857D01*
X148963095Y-104665238D01*
X148867857Y-104817619D01*
X148725000Y-104893809D01*
X148486904Y-104893809D01*
X149915476Y-103827142D02*
X149915476Y-104893809D01*
X149677380Y-103217619D02*
X149439285Y-104360476D01*
X150058333Y-104360476D01*
X148486904Y-107493809D02*
X148486904Y-105893809D01*
X148725000Y-105893809D01*
X148867857Y-105970000D01*
X148963095Y-106122380D01*
X149010714Y-106274761D01*
X149058333Y-106579523D01*
X149058333Y-106808095D01*
X149010714Y-107112857D01*
X148963095Y-107265238D01*
X148867857Y-107417619D01*
X148725000Y-107493809D01*
X148486904Y-107493809D01*
X149963095Y-105893809D02*
X149486904Y-105893809D01*
X149439285Y-106655714D01*
X149486904Y-106579523D01*
X149582142Y-106503333D01*
X149820238Y-106503333D01*
X149915476Y-106579523D01*
X149963095Y-106655714D01*
X150010714Y-106808095D01*
X150010714Y-107189047D01*
X149963095Y-107341428D01*
X149915476Y-107417619D01*
X149820238Y-107493809D01*
X149582142Y-107493809D01*
X149486904Y-107417619D01*
X149439285Y-107341428D01*
X148486904Y-110093809D02*
X148486904Y-108493809D01*
X148725000Y-108493809D01*
X148867857Y-108570000D01*
X148963095Y-108722380D01*
X149010714Y-108874761D01*
X149058333Y-109179523D01*
X149058333Y-109408095D01*
X149010714Y-109712857D01*
X148963095Y-109865238D01*
X148867857Y-110017619D01*
X148725000Y-110093809D01*
X148486904Y-110093809D01*
X149915476Y-108493809D02*
X149725000Y-108493809D01*
X149629761Y-108570000D01*
X149582142Y-108646190D01*
X149486904Y-108874761D01*
X149439285Y-109179523D01*
X149439285Y-109789047D01*
X149486904Y-109941428D01*
X149534523Y-110017619D01*
X149629761Y-110093809D01*
X149820238Y-110093809D01*
X149915476Y-110017619D01*
X149963095Y-109941428D01*
X150010714Y-109789047D01*
X150010714Y-109408095D01*
X149963095Y-109255714D01*
X149915476Y-109179523D01*
X149820238Y-109103333D01*
X149629761Y-109103333D01*
X149534523Y-109179523D01*
X149486904Y-109255714D01*
X149439285Y-109408095D01*
X148486904Y-112693809D02*
X148486904Y-111093809D01*
X148725000Y-111093809D01*
X148867857Y-111170000D01*
X148963095Y-111322380D01*
X149010714Y-111474761D01*
X149058333Y-111779523D01*
X149058333Y-112008095D01*
X149010714Y-112312857D01*
X148963095Y-112465238D01*
X148867857Y-112617619D01*
X148725000Y-112693809D01*
X148486904Y-112693809D01*
X149391666Y-111093809D02*
X150058333Y-111093809D01*
X149629761Y-112693809D01*
X147463095Y-113693809D02*
X147796428Y-115293809D01*
X148129761Y-113693809D01*
X148653571Y-113693809D02*
X148844047Y-113693809D01*
X148939285Y-113770000D01*
X149034523Y-113922380D01*
X149082142Y-114227142D01*
X149082142Y-114760476D01*
X149034523Y-115065238D01*
X148939285Y-115217619D01*
X148844047Y-115293809D01*
X148653571Y-115293809D01*
X148558333Y-115217619D01*
X148463095Y-115065238D01*
X148415476Y-114760476D01*
X148415476Y-114227142D01*
X148463095Y-113922380D01*
X148558333Y-113770000D01*
X148653571Y-113693809D01*
X149510714Y-113693809D02*
X149510714Y-114989047D01*
X149558333Y-115141428D01*
X149605952Y-115217619D01*
X149701190Y-115293809D01*
X149891666Y-115293809D01*
X149986904Y-115217619D01*
X150034523Y-115141428D01*
X150082142Y-114989047D01*
X150082142Y-113693809D01*
X150415476Y-113693809D02*
X150986904Y-113693809D01*
X150701190Y-115293809D02*
X150701190Y-113693809D01*
D14*
G04 #@! TO.C,C2*
X160182779Y-96010000D02*
X159857221Y-96010000D01*
X160182779Y-97030000D02*
X159857221Y-97030000D01*
G04 #@! TO.C,C3*
X165262779Y-97030000D02*
X164937221Y-97030000D01*
X165262779Y-96010000D02*
X164937221Y-96010000D01*
D12*
G04 #@! TO.C,J1*
X183300000Y-135180000D02*
X183300000Y-143430000D01*
X172300000Y-135180000D02*
X172300000Y-143430000D01*
X183300000Y-143480000D02*
X183300000Y-143830000D01*
X172300000Y-143480000D02*
X172300000Y-143830000D01*
X172300000Y-143830000D02*
X183300000Y-143830000D01*
D14*
G04 #@! TO.C,J2*
X171390000Y-116900000D02*
X176590000Y-116900000D01*
X171390000Y-106680000D02*
X171390000Y-116900000D01*
X176590000Y-104080000D02*
X176590000Y-116900000D01*
X171390000Y-106680000D02*
X173990000Y-106680000D01*
X173990000Y-106680000D02*
X173990000Y-104080000D01*
X173990000Y-104080000D02*
X176590000Y-104080000D01*
X171390000Y-105410000D02*
X171390000Y-104080000D01*
X171390000Y-104080000D02*
X172720000Y-104080000D01*
G04 #@! TO.C,J3*
X151070000Y-115630000D02*
X153730000Y-115630000D01*
X151070000Y-92710000D02*
X151070000Y-115630000D01*
X153730000Y-92710000D02*
X153730000Y-115630000D01*
X151070000Y-92710000D02*
X153730000Y-92710000D01*
X151070000Y-91440000D02*
X151070000Y-90110000D01*
X151070000Y-90110000D02*
X152400000Y-90110000D01*
G04 #@! TO.C,J4*
X180280000Y-90110000D02*
X181610000Y-90110000D01*
X180280000Y-91440000D02*
X180280000Y-90110000D01*
X180280000Y-92710000D02*
X182940000Y-92710000D01*
X182940000Y-92710000D02*
X182940000Y-115630000D01*
X180280000Y-92710000D02*
X180280000Y-115630000D01*
X180280000Y-115630000D02*
X182940000Y-115630000D01*
G04 #@! TO.C,J5*
X180280000Y-125790000D02*
X182940000Y-125790000D01*
X180280000Y-123190000D02*
X180280000Y-125790000D01*
X182940000Y-123190000D02*
X182940000Y-125790000D01*
X180280000Y-123190000D02*
X182940000Y-123190000D01*
X180280000Y-121920000D02*
X180280000Y-120590000D01*
X180280000Y-120590000D02*
X181610000Y-120590000D01*
G04 #@! TO.C,J6*
X171510000Y-132140000D02*
X171510000Y-129480000D01*
X166370000Y-132140000D02*
X171510000Y-132140000D01*
X166370000Y-129480000D02*
X171510000Y-129480000D01*
X166370000Y-132140000D02*
X166370000Y-129480000D01*
X165100000Y-132140000D02*
X163770000Y-132140000D01*
X163770000Y-132140000D02*
X163770000Y-130810000D01*
G04 #@! TO.C,J7*
X151070000Y-133410000D02*
X153730000Y-133410000D01*
X151070000Y-123190000D02*
X151070000Y-133410000D01*
X153730000Y-123190000D02*
X153730000Y-133410000D01*
X151070000Y-123190000D02*
X153730000Y-123190000D01*
X151070000Y-121920000D02*
X151070000Y-120590000D01*
X151070000Y-120590000D02*
X152400000Y-120590000D01*
G04 #@! TO.C,J8*
X173930000Y-94040000D02*
X176590000Y-94040000D01*
X173930000Y-93980000D02*
X173930000Y-94040000D01*
X176590000Y-93980000D02*
X176590000Y-94040000D01*
X173930000Y-93980000D02*
X176590000Y-93980000D01*
X173930000Y-92710000D02*
X173930000Y-91380000D01*
X173930000Y-91380000D02*
X175260000Y-91380000D01*
G04 #@! TO.C,J9*
X168850000Y-101660000D02*
X168850000Y-100330000D01*
X170180000Y-101660000D02*
X168850000Y-101660000D01*
X171450000Y-101660000D02*
X171450000Y-99000000D01*
X171450000Y-99000000D02*
X176590000Y-99000000D01*
X171450000Y-101660000D02*
X176590000Y-101660000D01*
X176590000Y-101660000D02*
X176590000Y-99000000D01*
G04 #@! TO.C,J10*
X158690000Y-101660000D02*
X158690000Y-100330000D01*
X160020000Y-101660000D02*
X158690000Y-101660000D01*
X161290000Y-101660000D02*
X161290000Y-99000000D01*
X161290000Y-99000000D02*
X163890000Y-99000000D01*
X161290000Y-101660000D02*
X163890000Y-101660000D01*
X163890000Y-101660000D02*
X163890000Y-99000000D01*
G04 #@! TO.C,R1*
X160970779Y-131320000D02*
X160645221Y-131320000D01*
X160970779Y-130300000D02*
X160645221Y-130300000D01*
G04 #@! TO.C,R2*
X178560000Y-130972779D02*
X178560000Y-130647221D01*
X179580000Y-130972779D02*
X179580000Y-130647221D01*
G04 #@! TO.C,R3*
X177040000Y-130972779D02*
X177040000Y-130647221D01*
X176020000Y-130972779D02*
X176020000Y-130647221D01*
G04 #@! TO.C,U1*
X165970000Y-121280000D02*
X164710000Y-121280000D01*
X159150000Y-121280000D02*
X160410000Y-121280000D01*
X165970000Y-125040000D02*
X165970000Y-121280000D01*
X159150000Y-127290000D02*
X159150000Y-121280000D01*
D12*
G04 #@! TO.C,U2*
X158935000Y-106865000D02*
X158935000Y-107090000D01*
X166185000Y-106865000D02*
X166185000Y-107165000D01*
X166185000Y-114115000D02*
X166185000Y-113815000D01*
X158935000Y-114115000D02*
X158935000Y-113815000D01*
X158935000Y-106865000D02*
X159235000Y-106865000D01*
X158935000Y-114115000D02*
X159235000Y-114115000D01*
X166185000Y-114115000D02*
X165885000Y-114115000D01*
X166185000Y-106865000D02*
X165885000Y-106865000D01*
X158935000Y-107090000D02*
X157710000Y-107090000D01*
D14*
G04 #@! TO.C,Y1*
X159335000Y-90185000D02*
X165585000Y-90185000D01*
X159335000Y-95235000D02*
X165585000Y-95235000D01*
X159335000Y-95235000D02*
G75*
G02X159335000Y-90185000I0J2525000D01*
G01*
X165585000Y-95235000D02*
G75*
G03X165585000Y-90185000I0J2525000D01*
G01*
G04 #@! TO.C,C2*
D12*
X159853333Y-98147142D02*
X159805714Y-98194761D01*
X159662857Y-98242380D01*
X159567619Y-98242380D01*
X159424761Y-98194761D01*
X159329523Y-98099523D01*
X159281904Y-98004285D01*
X159234285Y-97813809D01*
X159234285Y-97670952D01*
X159281904Y-97480476D01*
X159329523Y-97385238D01*
X159424761Y-97290000D01*
X159567619Y-97242380D01*
X159662857Y-97242380D01*
X159805714Y-97290000D01*
X159853333Y-97337619D01*
X160234285Y-97337619D02*
X160281904Y-97290000D01*
X160377142Y-97242380D01*
X160615238Y-97242380D01*
X160710476Y-97290000D01*
X160758095Y-97337619D01*
X160805714Y-97432857D01*
X160805714Y-97528095D01*
X160758095Y-97670952D01*
X160186666Y-98242380D01*
X160805714Y-98242380D01*
G04 #@! TO.C,C3*
X164933333Y-98147142D02*
X164885714Y-98194761D01*
X164742857Y-98242380D01*
X164647619Y-98242380D01*
X164504761Y-98194761D01*
X164409523Y-98099523D01*
X164361904Y-98004285D01*
X164314285Y-97813809D01*
X164314285Y-97670952D01*
X164361904Y-97480476D01*
X164409523Y-97385238D01*
X164504761Y-97290000D01*
X164647619Y-97242380D01*
X164742857Y-97242380D01*
X164885714Y-97290000D01*
X164933333Y-97337619D01*
X165266666Y-97242380D02*
X165885714Y-97242380D01*
X165552380Y-97623333D01*
X165695238Y-97623333D01*
X165790476Y-97670952D01*
X165838095Y-97718571D01*
X165885714Y-97813809D01*
X165885714Y-98051904D01*
X165838095Y-98147142D01*
X165790476Y-98194761D01*
X165695238Y-98242380D01*
X165409523Y-98242380D01*
X165314285Y-98194761D01*
X165266666Y-98147142D01*
G04 #@! TO.C,R1*
X160641333Y-129992380D02*
X160308000Y-129516190D01*
X160069904Y-129992380D02*
X160069904Y-128992380D01*
X160450857Y-128992380D01*
X160546095Y-129040000D01*
X160593714Y-129087619D01*
X160641333Y-129182857D01*
X160641333Y-129325714D01*
X160593714Y-129420952D01*
X160546095Y-129468571D01*
X160450857Y-129516190D01*
X160069904Y-129516190D01*
X161593714Y-129992380D02*
X161022285Y-129992380D01*
X161308000Y-129992380D02*
X161308000Y-128992380D01*
X161212761Y-129135238D01*
X161117523Y-129230476D01*
X161022285Y-129278095D01*
G04 #@! TO.C,R2*
X178903333Y-128722380D02*
X178570000Y-128246190D01*
X178331904Y-128722380D02*
X178331904Y-127722380D01*
X178712857Y-127722380D01*
X178808095Y-127770000D01*
X178855714Y-127817619D01*
X178903333Y-127912857D01*
X178903333Y-128055714D01*
X178855714Y-128150952D01*
X178808095Y-128198571D01*
X178712857Y-128246190D01*
X178331904Y-128246190D01*
X179284285Y-127817619D02*
X179331904Y-127770000D01*
X179427142Y-127722380D01*
X179665238Y-127722380D01*
X179760476Y-127770000D01*
X179808095Y-127817619D01*
X179855714Y-127912857D01*
X179855714Y-128008095D01*
X179808095Y-128150952D01*
X179236666Y-128722380D01*
X179855714Y-128722380D01*
G04 #@! TO.C,R3*
X176363333Y-128722380D02*
X176030000Y-128246190D01*
X175791904Y-128722380D02*
X175791904Y-127722380D01*
X176172857Y-127722380D01*
X176268095Y-127770000D01*
X176315714Y-127817619D01*
X176363333Y-127912857D01*
X176363333Y-128055714D01*
X176315714Y-128150952D01*
X176268095Y-128198571D01*
X176172857Y-128246190D01*
X175791904Y-128246190D01*
X176696666Y-127722380D02*
X177315714Y-127722380D01*
X176982380Y-128103333D01*
X177125238Y-128103333D01*
X177220476Y-128150952D01*
X177268095Y-128198571D01*
X177315714Y-128293809D01*
X177315714Y-128531904D01*
X177268095Y-128627142D01*
X177220476Y-128674761D01*
X177125238Y-128722380D01*
X176839523Y-128722380D01*
X176744285Y-128674761D01*
X176696666Y-128627142D01*
G04 #@! TO.C,U1*
X161798095Y-122642380D02*
X161798095Y-123451904D01*
X161845714Y-123547142D01*
X161893333Y-123594761D01*
X161988571Y-123642380D01*
X162179047Y-123642380D01*
X162274285Y-123594761D01*
X162321904Y-123547142D01*
X162369523Y-123451904D01*
X162369523Y-122642380D01*
X163369523Y-123642380D02*
X162798095Y-123642380D01*
X163083809Y-123642380D02*
X163083809Y-122642380D01*
X162988571Y-122785238D01*
X162893333Y-122880476D01*
X162798095Y-122928095D01*
G04 #@! TO.C,U2*
X159893095Y-108037380D02*
X159893095Y-108846904D01*
X159940714Y-108942142D01*
X159988333Y-108989761D01*
X160083571Y-109037380D01*
X160274047Y-109037380D01*
X160369285Y-108989761D01*
X160416904Y-108942142D01*
X160464523Y-108846904D01*
X160464523Y-108037380D01*
X160893095Y-108132619D02*
X160940714Y-108085000D01*
X161035952Y-108037380D01*
X161274047Y-108037380D01*
X161369285Y-108085000D01*
X161416904Y-108132619D01*
X161464523Y-108227857D01*
X161464523Y-108323095D01*
X161416904Y-108465952D01*
X160845476Y-109037380D01*
X161464523Y-109037380D01*
G04 #@! TO.C,Y1*
X161983809Y-92686190D02*
X161983809Y-93162380D01*
X161650476Y-92162380D02*
X161983809Y-92686190D01*
X162317142Y-92162380D01*
X163174285Y-93162380D02*
X162602857Y-93162380D01*
X162888571Y-93162380D02*
X162888571Y-92162380D01*
X162793333Y-92305238D01*
X162698095Y-92400476D01*
X162602857Y-92448095D01*
G04 #@! TD*
M02*
