G04 #@! TF.GenerationSoftware,KiCad,Pcbnew,(5.0.1-3-g963ef8bb5)*
G04 #@! TF.CreationDate,2019-11-01T03:39:26+09:00*
G04 #@! TF.ProjectId,DDAC8S,4444414338532E6B696361645F706362,rev?*
G04 #@! TF.SameCoordinates,Original*
G04 #@! TF.FileFunction,Copper,L2,Bot,Signal*
G04 #@! TF.FilePolarity,Positive*
%FSLAX46Y46*%
G04 Gerber Fmt 4.6, Leading zero omitted, Abs format (unit mm)*
G04 Created by KiCad (PCBNEW (5.0.1-3-g963ef8bb5)) date 2019 November 01, Friday 03:39:26*
%MOMM*%
%LPD*%
G01*
G04 APERTURE LIST*
G04 #@! TA.AperFunction,Conductor*
%ADD10C,0.100000*%
G04 #@! TD*
G04 #@! TA.AperFunction,SMDPad,CuDef*
%ADD11C,0.875000*%
G04 #@! TD*
G04 #@! TA.AperFunction,ComponentPad*
%ADD12R,1.700000X1.700000*%
G04 #@! TD*
G04 #@! TA.AperFunction,ComponentPad*
%ADD13O,1.700000X1.700000*%
G04 #@! TD*
G04 #@! TA.AperFunction,ComponentPad*
%ADD14C,1.500000*%
G04 #@! TD*
G04 #@! TA.AperFunction,ViaPad*
%ADD15C,0.800000*%
G04 #@! TD*
G04 #@! TA.AperFunction,Conductor*
%ADD16C,0.500000*%
G04 #@! TD*
G04 #@! TA.AperFunction,Conductor*
%ADD17C,0.250000*%
G04 #@! TD*
G04 #@! TA.AperFunction,Conductor*
%ADD18C,0.254000*%
G04 #@! TD*
G04 APERTURE END LIST*
D10*
G04 #@! TO.N,+3V3*
G04 #@! TO.C,C1*
G36*
X162012691Y-110016053D02*
X162033926Y-110019203D01*
X162054750Y-110024419D01*
X162074962Y-110031651D01*
X162094368Y-110040830D01*
X162112781Y-110051866D01*
X162130024Y-110064654D01*
X162145930Y-110079070D01*
X162160346Y-110094976D01*
X162173134Y-110112219D01*
X162184170Y-110130632D01*
X162193349Y-110150038D01*
X162200581Y-110170250D01*
X162205797Y-110191074D01*
X162208947Y-110212309D01*
X162210000Y-110233750D01*
X162210000Y-110746250D01*
X162208947Y-110767691D01*
X162205797Y-110788926D01*
X162200581Y-110809750D01*
X162193349Y-110829962D01*
X162184170Y-110849368D01*
X162173134Y-110867781D01*
X162160346Y-110885024D01*
X162145930Y-110900930D01*
X162130024Y-110915346D01*
X162112781Y-110928134D01*
X162094368Y-110939170D01*
X162074962Y-110948349D01*
X162054750Y-110955581D01*
X162033926Y-110960797D01*
X162012691Y-110963947D01*
X161991250Y-110965000D01*
X161553750Y-110965000D01*
X161532309Y-110963947D01*
X161511074Y-110960797D01*
X161490250Y-110955581D01*
X161470038Y-110948349D01*
X161450632Y-110939170D01*
X161432219Y-110928134D01*
X161414976Y-110915346D01*
X161399070Y-110900930D01*
X161384654Y-110885024D01*
X161371866Y-110867781D01*
X161360830Y-110849368D01*
X161351651Y-110829962D01*
X161344419Y-110809750D01*
X161339203Y-110788926D01*
X161336053Y-110767691D01*
X161335000Y-110746250D01*
X161335000Y-110233750D01*
X161336053Y-110212309D01*
X161339203Y-110191074D01*
X161344419Y-110170250D01*
X161351651Y-110150038D01*
X161360830Y-110130632D01*
X161371866Y-110112219D01*
X161384654Y-110094976D01*
X161399070Y-110079070D01*
X161414976Y-110064654D01*
X161432219Y-110051866D01*
X161450632Y-110040830D01*
X161470038Y-110031651D01*
X161490250Y-110024419D01*
X161511074Y-110019203D01*
X161532309Y-110016053D01*
X161553750Y-110015000D01*
X161991250Y-110015000D01*
X162012691Y-110016053D01*
X162012691Y-110016053D01*
G37*
D11*
G04 #@! TD*
G04 #@! TO.P,C1,1*
G04 #@! TO.N,+3V3*
X161772500Y-110490000D03*
D10*
G04 #@! TO.N,GND*
G04 #@! TO.C,C1*
G36*
X163587691Y-110016053D02*
X163608926Y-110019203D01*
X163629750Y-110024419D01*
X163649962Y-110031651D01*
X163669368Y-110040830D01*
X163687781Y-110051866D01*
X163705024Y-110064654D01*
X163720930Y-110079070D01*
X163735346Y-110094976D01*
X163748134Y-110112219D01*
X163759170Y-110130632D01*
X163768349Y-110150038D01*
X163775581Y-110170250D01*
X163780797Y-110191074D01*
X163783947Y-110212309D01*
X163785000Y-110233750D01*
X163785000Y-110746250D01*
X163783947Y-110767691D01*
X163780797Y-110788926D01*
X163775581Y-110809750D01*
X163768349Y-110829962D01*
X163759170Y-110849368D01*
X163748134Y-110867781D01*
X163735346Y-110885024D01*
X163720930Y-110900930D01*
X163705024Y-110915346D01*
X163687781Y-110928134D01*
X163669368Y-110939170D01*
X163649962Y-110948349D01*
X163629750Y-110955581D01*
X163608926Y-110960797D01*
X163587691Y-110963947D01*
X163566250Y-110965000D01*
X163128750Y-110965000D01*
X163107309Y-110963947D01*
X163086074Y-110960797D01*
X163065250Y-110955581D01*
X163045038Y-110948349D01*
X163025632Y-110939170D01*
X163007219Y-110928134D01*
X162989976Y-110915346D01*
X162974070Y-110900930D01*
X162959654Y-110885024D01*
X162946866Y-110867781D01*
X162935830Y-110849368D01*
X162926651Y-110829962D01*
X162919419Y-110809750D01*
X162914203Y-110788926D01*
X162911053Y-110767691D01*
X162910000Y-110746250D01*
X162910000Y-110233750D01*
X162911053Y-110212309D01*
X162914203Y-110191074D01*
X162919419Y-110170250D01*
X162926651Y-110150038D01*
X162935830Y-110130632D01*
X162946866Y-110112219D01*
X162959654Y-110094976D01*
X162974070Y-110079070D01*
X162989976Y-110064654D01*
X163007219Y-110051866D01*
X163025632Y-110040830D01*
X163045038Y-110031651D01*
X163065250Y-110024419D01*
X163086074Y-110019203D01*
X163107309Y-110016053D01*
X163128750Y-110015000D01*
X163566250Y-110015000D01*
X163587691Y-110016053D01*
X163587691Y-110016053D01*
G37*
D11*
G04 #@! TD*
G04 #@! TO.P,C1,2*
G04 #@! TO.N,GND*
X163347500Y-110490000D03*
D12*
G04 #@! TO.P,J2,1*
G04 #@! TO.N,/SWDIO*
X172720000Y-105410000D03*
D13*
G04 #@! TO.P,J2,2*
G04 #@! TO.N,/~RST*
X175260000Y-105410000D03*
G04 #@! TO.P,J2,3*
G04 #@! TO.N,GND*
X172720000Y-107950000D03*
G04 #@! TO.P,J2,4*
X175260000Y-107950000D03*
G04 #@! TO.P,J2,5*
G04 #@! TO.N,/SWCLK*
X172720000Y-110490000D03*
G04 #@! TO.P,J2,6*
G04 #@! TO.N,N/C*
X175260000Y-110490000D03*
G04 #@! TO.P,J2,7*
X172720000Y-113030000D03*
G04 #@! TO.P,J2,8*
X175260000Y-113030000D03*
G04 #@! TO.P,J2,9*
G04 #@! TO.N,+5V*
X172720000Y-115570000D03*
G04 #@! TO.P,J2,10*
X175260000Y-115570000D03*
G04 #@! TD*
D12*
G04 #@! TO.P,J3,1*
G04 #@! TO.N,GND*
X152400000Y-91440000D03*
D13*
G04 #@! TO.P,J3,2*
G04 #@! TO.N,/PA0*
X152400000Y-93980000D03*
G04 #@! TO.P,J3,3*
G04 #@! TO.N,/PA1*
X152400000Y-96520000D03*
G04 #@! TO.P,J3,4*
G04 #@! TO.N,/PA2*
X152400000Y-99060000D03*
G04 #@! TO.P,J3,5*
G04 #@! TO.N,/PA3*
X152400000Y-101600000D03*
G04 #@! TO.P,J3,6*
G04 #@! TO.N,/PA9*
X152400000Y-104140000D03*
G04 #@! TO.P,J3,7*
G04 #@! TO.N,/PA10*
X152400000Y-106680000D03*
G04 #@! TO.P,J3,8*
G04 #@! TO.N,/PA11*
X152400000Y-109220000D03*
G04 #@! TO.P,J3,9*
G04 #@! TO.N,/PA12*
X152400000Y-111760000D03*
G04 #@! TO.P,J3,10*
G04 #@! TO.N,+5V*
X152400000Y-114300000D03*
G04 #@! TD*
G04 #@! TO.P,J4,10*
G04 #@! TO.N,+5V*
X181610000Y-114300000D03*
G04 #@! TO.P,J4,9*
G04 #@! TO.N,/PB8*
X181610000Y-111760000D03*
G04 #@! TO.P,J4,8*
G04 #@! TO.N,/PB7*
X181610000Y-109220000D03*
G04 #@! TO.P,J4,7*
G04 #@! TO.N,/PB6*
X181610000Y-106680000D03*
G04 #@! TO.P,J4,6*
G04 #@! TO.N,/PB5*
X181610000Y-104140000D03*
G04 #@! TO.P,J4,5*
G04 #@! TO.N,/PB4*
X181610000Y-101600000D03*
G04 #@! TO.P,J4,4*
G04 #@! TO.N,/PB3*
X181610000Y-99060000D03*
G04 #@! TO.P,J4,3*
G04 #@! TO.N,/PB1*
X181610000Y-96520000D03*
G04 #@! TO.P,J4,2*
G04 #@! TO.N,/PB0*
X181610000Y-93980000D03*
D12*
G04 #@! TO.P,J4,1*
G04 #@! TO.N,GND*
X181610000Y-91440000D03*
G04 #@! TD*
G04 #@! TO.P,J5,1*
G04 #@! TO.N,GND*
X181610000Y-121920000D03*
D13*
G04 #@! TO.P,J5,2*
G04 #@! TO.N,+5V*
X181610000Y-124460000D03*
G04 #@! TD*
D12*
G04 #@! TO.P,J6,1*
G04 #@! TO.N,+5V*
X165100000Y-130810000D03*
D13*
G04 #@! TO.P,J6,2*
G04 #@! TO.N,/PB8*
X167640000Y-130810000D03*
G04 #@! TO.P,J6,3*
G04 #@! TO.N,N/C*
X170180000Y-130810000D03*
G04 #@! TD*
D12*
G04 #@! TO.P,J7,1*
G04 #@! TO.N,/WS*
X152400000Y-121920000D03*
D13*
G04 #@! TO.P,J7,2*
G04 #@! TO.N,/CK*
X152400000Y-124460000D03*
G04 #@! TO.P,J7,3*
G04 #@! TO.N,/MC0*
X152400000Y-127000000D03*
G04 #@! TO.P,J7,4*
G04 #@! TO.N,/SD*
X152400000Y-129540000D03*
G04 #@! TO.P,J7,5*
G04 #@! TO.N,GND*
X152400000Y-132080000D03*
G04 #@! TD*
D12*
G04 #@! TO.P,J8,1*
G04 #@! TO.N,/EXT_CLK*
X175260000Y-92710000D03*
G04 #@! TD*
D13*
G04 #@! TO.P,J9,3*
G04 #@! TO.N,/EXT_CLK*
X175260000Y-100330000D03*
G04 #@! TO.P,J9,2*
G04 #@! TO.N,/PF0*
X172720000Y-100330000D03*
D12*
G04 #@! TO.P,J9,1*
G04 #@! TO.N,/OSC*
X170180000Y-100330000D03*
G04 #@! TD*
D13*
G04 #@! TO.P,J10,2*
G04 #@! TO.N,/PA15*
X162560000Y-100330000D03*
D12*
G04 #@! TO.P,J10,1*
G04 #@! TO.N,/MCK*
X160020000Y-100330000D03*
G04 #@! TD*
D14*
G04 #@! TO.P,Y1,1*
G04 #@! TO.N,/PF1*
X160020000Y-92710000D03*
G04 #@! TO.P,Y1,2*
G04 #@! TO.N,/OSC*
X164900000Y-92710000D03*
G04 #@! TD*
D15*
G04 #@! TO.N,+3V3*
X160655000Y-110490000D03*
X166810000Y-114365000D03*
G04 #@! TO.N,GND*
X164465000Y-110490000D03*
G04 #@! TO.N,+5V*
X154667200Y-118007800D03*
G04 #@! TO.N,/~RST*
X159520000Y-109991000D03*
G04 #@! TO.N,/PA9*
X168327000Y-115244000D03*
G04 #@! TO.N,/PA10*
X162498000Y-107627000D03*
G04 #@! TO.N,/PA11*
X164303000Y-108413000D03*
G04 #@! TO.N,/PA12*
X165602000Y-108662000D03*
G04 #@! TO.N,/PB8*
X158826000Y-106217000D03*
G04 #@! TO.N,/PB7*
X161170000Y-104981000D03*
G04 #@! TO.N,/PB6*
X162186000Y-104962000D03*
G04 #@! TO.N,/PB5*
X163610000Y-104402000D03*
G04 #@! TO.N,/PB4*
X164764000Y-104063000D03*
G04 #@! TO.N,/PB1*
X163841000Y-115958000D03*
G04 #@! TO.N,/PB0*
X154470000Y-105555000D03*
G04 #@! TO.N,/MCK*
X161690000Y-116482000D03*
G04 #@! TD*
D16*
G04 #@! TO.N,+3V3*
X161772300Y-110490200D02*
X165648000Y-114365000D01*
X165648000Y-114365000D02*
X166810000Y-114365000D01*
X160655000Y-110490000D02*
X161772000Y-110490000D01*
X161772000Y-110490000D02*
X161772300Y-110490200D01*
X161772500Y-110490000D02*
X161772300Y-110490200D01*
G04 #@! TO.N,GND*
X163348000Y-110490000D02*
X163347500Y-110490000D01*
X163348000Y-110490000D02*
X164465000Y-110490000D01*
X175260000Y-107950000D02*
X172720000Y-107950000D01*
X172720000Y-107950000D02*
X171420000Y-107950000D01*
X171420000Y-107950000D02*
X168880000Y-110490000D01*
X168880000Y-110490000D02*
X164465000Y-110490000D01*
X152400000Y-132080000D02*
X153700000Y-132080000D01*
X153700000Y-132080000D02*
X163860000Y-121920000D01*
X163860000Y-121920000D02*
X181610000Y-121920000D01*
G04 #@! TO.N,+5V*
X172720000Y-115570000D02*
X171419700Y-115570000D01*
X171419700Y-115570000D02*
X168981900Y-118007800D01*
X168981900Y-118007800D02*
X154667200Y-118007800D01*
X175260000Y-115570000D02*
X179040000Y-115570000D01*
X179040000Y-115570000D02*
X180310000Y-114300000D01*
X165100000Y-130810000D02*
X171450000Y-124460000D01*
X171450000Y-124460000D02*
X181610000Y-124460000D01*
X181610000Y-114300000D02*
X180310000Y-114300000D01*
D17*
G04 #@! TO.N,/~RST*
X175260000Y-105410000D02*
X174085000Y-105410000D01*
X174085000Y-105410000D02*
X174085000Y-106218000D01*
X174085000Y-106218000D02*
X173718000Y-106585000D01*
X173718000Y-106585000D02*
X169915000Y-106585000D01*
X169915000Y-106585000D02*
X166855000Y-109645000D01*
X166855000Y-109645000D02*
X159865000Y-109645000D01*
X159865000Y-109645000D02*
X159520000Y-109991000D01*
G04 #@! TO.N,/PA9*
X152400000Y-104140000D02*
X152400000Y-105315000D01*
X152400000Y-105315000D02*
X152033000Y-105315000D01*
X152033000Y-105315000D02*
X151190000Y-106158000D01*
X151190000Y-106158000D02*
X151190000Y-114788000D01*
X151190000Y-114788000D02*
X151903000Y-115501000D01*
X151903000Y-115501000D02*
X163272000Y-115501000D01*
X163272000Y-115501000D02*
X163541000Y-115232000D01*
X163541000Y-115232000D02*
X168315000Y-115232000D01*
X168315000Y-115232000D02*
X168327000Y-115244000D01*
G04 #@! TO.N,/PA10*
X162498000Y-107627000D02*
X154523000Y-107627000D01*
X154523000Y-107627000D02*
X153575000Y-106680000D01*
X153575000Y-106680000D02*
X152400000Y-106680000D01*
G04 #@! TO.N,/PA11*
X164303000Y-108413000D02*
X154382000Y-108413000D01*
X154382000Y-108413000D02*
X153575000Y-109220000D01*
X153575000Y-109220000D02*
X152400000Y-109220000D01*
G04 #@! TO.N,/PA12*
X152400000Y-111760000D02*
X153575000Y-111760000D01*
X153575000Y-111760000D02*
X156141000Y-109195000D01*
X156141000Y-109195000D02*
X165070000Y-109195000D01*
X165070000Y-109195000D02*
X165602000Y-108662000D01*
G04 #@! TO.N,/PB8*
X167640000Y-130810000D02*
X168815000Y-130810000D01*
X168815000Y-130810000D02*
X168815000Y-130443000D01*
X168815000Y-130443000D02*
X169623000Y-129635000D01*
X169623000Y-129635000D02*
X178105000Y-129635000D01*
X178105000Y-129635000D02*
X182806000Y-124934000D01*
X182806000Y-124934000D02*
X182806000Y-113764000D01*
X182806000Y-113764000D02*
X181977000Y-112935000D01*
X181977000Y-112935000D02*
X181610000Y-112935000D01*
X181610000Y-112935000D02*
X181610000Y-111760000D01*
X181610000Y-111760000D02*
X181610000Y-110585000D01*
X181610000Y-110585000D02*
X181096000Y-110585000D01*
X181096000Y-110585000D02*
X176883000Y-106372000D01*
X176883000Y-106372000D02*
X176883000Y-105301000D01*
X176883000Y-105301000D02*
X175804000Y-104222000D01*
X175804000Y-104222000D02*
X171334000Y-104222000D01*
X171334000Y-104222000D02*
X169340000Y-106217000D01*
X169340000Y-106217000D02*
X158826000Y-106217000D01*
G04 #@! TO.N,/PB7*
X181610000Y-109220000D02*
X180435000Y-109220000D01*
X180435000Y-109220000D02*
X180435000Y-108216000D01*
X180435000Y-108216000D02*
X175991000Y-103772000D01*
X175991000Y-103772000D02*
X170829000Y-103772000D01*
X170829000Y-103772000D02*
X168913000Y-105689000D01*
X168913000Y-105689000D02*
X161877000Y-105689000D01*
X161877000Y-105689000D02*
X161170000Y-104981000D01*
G04 #@! TO.N,/PB6*
X181610000Y-106680000D02*
X180435000Y-106680000D01*
X180435000Y-106680000D02*
X177076000Y-103322000D01*
X177076000Y-103322000D02*
X167168000Y-103322000D01*
X167168000Y-103322000D02*
X165252000Y-105238000D01*
X165252000Y-105238000D02*
X162462000Y-105238000D01*
X162462000Y-105238000D02*
X162186000Y-104962000D01*
G04 #@! TO.N,/PB5*
X181610000Y-104140000D02*
X180435000Y-104140000D01*
X180435000Y-104140000D02*
X179166000Y-102871000D01*
X179166000Y-102871000D02*
X166982000Y-102871000D01*
X166982000Y-102871000D02*
X165065000Y-104788000D01*
X165065000Y-104788000D02*
X163995000Y-104788000D01*
X163995000Y-104788000D02*
X163610000Y-104402000D01*
G04 #@! TO.N,/PB4*
X164764000Y-104063000D02*
X167227000Y-101600000D01*
X167227000Y-101600000D02*
X181610000Y-101600000D01*
G04 #@! TO.N,/PB1*
X163841000Y-115958000D02*
X162552000Y-117246000D01*
X162552000Y-117246000D02*
X152267000Y-117246000D01*
X152267000Y-117246000D02*
X150236000Y-115215000D01*
X150236000Y-115215000D02*
X150236000Y-102077000D01*
X150236000Y-102077000D02*
X151983000Y-100330000D01*
X151983000Y-100330000D02*
X153921000Y-100330000D01*
X153921000Y-100330000D02*
X160327000Y-93923700D01*
X160327000Y-93923700D02*
X176266000Y-93923700D01*
X176266000Y-93923700D02*
X177386000Y-92804600D01*
X177386000Y-92804600D02*
X182121000Y-92804600D01*
X182121000Y-92804600D02*
X182785000Y-93468700D01*
X182785000Y-93468700D02*
X182785000Y-94536800D01*
X182785000Y-94536800D02*
X181977000Y-95344700D01*
X181977000Y-95344700D02*
X181610000Y-95344700D01*
X181610000Y-95344700D02*
X181610000Y-96520000D01*
G04 #@! TO.N,/PB0*
X181610000Y-93980000D02*
X180435000Y-93980000D01*
X180435000Y-93980000D02*
X179984000Y-94430300D01*
X179984000Y-94430300D02*
X170166000Y-94430300D01*
X170166000Y-94430300D02*
X159105000Y-105492000D01*
X159105000Y-105492000D02*
X154534000Y-105492000D01*
X154534000Y-105492000D02*
X154470000Y-105555000D01*
G04 #@! TO.N,/MCK*
X160020000Y-100330000D02*
X158845000Y-100330000D01*
X158845000Y-100330000D02*
X156305000Y-102870000D01*
X156305000Y-102870000D02*
X151983000Y-102870000D01*
X151983000Y-102870000D02*
X150712000Y-104141000D01*
X150712000Y-104141000D02*
X150712000Y-115015000D01*
X150712000Y-115015000D02*
X152178000Y-116482000D01*
X152178000Y-116482000D02*
X161690000Y-116482000D01*
G04 #@! TD*
D18*
G04 #@! TO.N,GND*
G36*
X186563000Y-134493000D02*
X147447000Y-134493000D01*
X147447000Y-132436890D01*
X150958524Y-132436890D01*
X151128355Y-132846924D01*
X151518642Y-133275183D01*
X152043108Y-133521486D01*
X152273000Y-133400819D01*
X152273000Y-132207000D01*
X152527000Y-132207000D01*
X152527000Y-133400819D01*
X152756892Y-133521486D01*
X153281358Y-133275183D01*
X153671645Y-132846924D01*
X153841476Y-132436890D01*
X153720155Y-132207000D01*
X152527000Y-132207000D01*
X152273000Y-132207000D01*
X151079845Y-132207000D01*
X150958524Y-132436890D01*
X147447000Y-132436890D01*
X147447000Y-124460000D01*
X150885908Y-124460000D01*
X151001161Y-125039418D01*
X151329375Y-125530625D01*
X151627761Y-125730000D01*
X151329375Y-125929375D01*
X151001161Y-126420582D01*
X150885908Y-127000000D01*
X151001161Y-127579418D01*
X151329375Y-128070625D01*
X151627761Y-128270000D01*
X151329375Y-128469375D01*
X151001161Y-128960582D01*
X150885908Y-129540000D01*
X151001161Y-130119418D01*
X151329375Y-130610625D01*
X151648478Y-130823843D01*
X151518642Y-130884817D01*
X151128355Y-131313076D01*
X150958524Y-131723110D01*
X151079845Y-131953000D01*
X152273000Y-131953000D01*
X152273000Y-131933000D01*
X152527000Y-131933000D01*
X152527000Y-131953000D01*
X153720155Y-131953000D01*
X153841476Y-131723110D01*
X153671645Y-131313076D01*
X153281358Y-130884817D01*
X153151522Y-130823843D01*
X153470625Y-130610625D01*
X153798839Y-130119418D01*
X153914092Y-129540000D01*
X153798839Y-128960582D01*
X153470625Y-128469375D01*
X153172239Y-128270000D01*
X153470625Y-128070625D01*
X153798839Y-127579418D01*
X153914092Y-127000000D01*
X153798839Y-126420582D01*
X153470625Y-125929375D01*
X153172239Y-125730000D01*
X153470625Y-125530625D01*
X153798839Y-125039418D01*
X153914092Y-124460000D01*
X153798839Y-123880582D01*
X153470625Y-123389375D01*
X153452381Y-123377184D01*
X153497765Y-123368157D01*
X153707809Y-123227809D01*
X153848157Y-123017765D01*
X153897440Y-122770000D01*
X153897440Y-121070000D01*
X153872316Y-120943690D01*
X180125000Y-120943690D01*
X180125000Y-121634250D01*
X180283750Y-121793000D01*
X181483000Y-121793000D01*
X181483000Y-120593750D01*
X181324250Y-120435000D01*
X180633691Y-120435000D01*
X180400302Y-120531673D01*
X180221673Y-120710301D01*
X180125000Y-120943690D01*
X153872316Y-120943690D01*
X153848157Y-120822235D01*
X153707809Y-120612191D01*
X153497765Y-120471843D01*
X153250000Y-120422560D01*
X151550000Y-120422560D01*
X151302235Y-120471843D01*
X151092191Y-120612191D01*
X150951843Y-120822235D01*
X150902560Y-121070000D01*
X150902560Y-122770000D01*
X150951843Y-123017765D01*
X151092191Y-123227809D01*
X151302235Y-123368157D01*
X151347619Y-123377184D01*
X151329375Y-123389375D01*
X151001161Y-123880582D01*
X150885908Y-124460000D01*
X147447000Y-124460000D01*
X147447000Y-102077000D01*
X149461112Y-102077000D01*
X149476001Y-102151852D01*
X149476000Y-115140153D01*
X149461112Y-115215000D01*
X149476000Y-115289847D01*
X149476000Y-115289851D01*
X149520096Y-115511536D01*
X149688071Y-115762929D01*
X149751530Y-115805331D01*
X151676671Y-117730473D01*
X151719071Y-117793929D01*
X151782527Y-117836329D01*
X151970462Y-117961904D01*
X152018605Y-117971480D01*
X152192148Y-118006000D01*
X152192152Y-118006000D01*
X152267000Y-118020888D01*
X152341848Y-118006000D01*
X153632200Y-118006000D01*
X153632200Y-118213674D01*
X153789769Y-118594080D01*
X154080920Y-118885231D01*
X154461326Y-119042800D01*
X154873074Y-119042800D01*
X155235207Y-118892800D01*
X168894739Y-118892800D01*
X168981900Y-118910137D01*
X169069061Y-118892800D01*
X169069065Y-118892800D01*
X169327210Y-118841452D01*
X169619949Y-118645849D01*
X169669325Y-118571953D01*
X171629860Y-116611419D01*
X171649375Y-116640625D01*
X172140582Y-116968839D01*
X172573744Y-117055000D01*
X172866256Y-117055000D01*
X173299418Y-116968839D01*
X173790625Y-116640625D01*
X173990000Y-116342239D01*
X174189375Y-116640625D01*
X174680582Y-116968839D01*
X175113744Y-117055000D01*
X175406256Y-117055000D01*
X175839418Y-116968839D01*
X176330625Y-116640625D01*
X176454656Y-116455000D01*
X178952839Y-116455000D01*
X179040000Y-116472337D01*
X179127161Y-116455000D01*
X179127165Y-116455000D01*
X179385310Y-116403652D01*
X179678049Y-116208049D01*
X179727425Y-116134153D01*
X180519980Y-115341599D01*
X180539375Y-115370625D01*
X181030582Y-115698839D01*
X181463744Y-115785000D01*
X181756256Y-115785000D01*
X182046001Y-115727366D01*
X182046000Y-120435000D01*
X181895750Y-120435000D01*
X181737000Y-120593750D01*
X181737000Y-121793000D01*
X181757000Y-121793000D01*
X181757000Y-122047000D01*
X181737000Y-122047000D01*
X181737000Y-122067000D01*
X181483000Y-122067000D01*
X181483000Y-122047000D01*
X180283750Y-122047000D01*
X180125000Y-122205750D01*
X180125000Y-122896310D01*
X180221673Y-123129699D01*
X180400302Y-123308327D01*
X180561033Y-123374904D01*
X180539375Y-123389375D01*
X180415344Y-123575000D01*
X171537159Y-123575000D01*
X171449999Y-123557663D01*
X171362839Y-123575000D01*
X171362835Y-123575000D01*
X171104690Y-123626348D01*
X171104688Y-123626349D01*
X171104689Y-123626349D01*
X170885845Y-123772576D01*
X170885844Y-123772577D01*
X170811951Y-123821951D01*
X170762577Y-123895844D01*
X165345862Y-129312560D01*
X164250000Y-129312560D01*
X164002235Y-129361843D01*
X163792191Y-129502191D01*
X163651843Y-129712235D01*
X163602560Y-129960000D01*
X163602560Y-131660000D01*
X163651843Y-131907765D01*
X163792191Y-132117809D01*
X164002235Y-132258157D01*
X164250000Y-132307440D01*
X165950000Y-132307440D01*
X166197765Y-132258157D01*
X166407809Y-132117809D01*
X166548157Y-131907765D01*
X166557184Y-131862381D01*
X166569375Y-131880625D01*
X167060582Y-132208839D01*
X167493744Y-132295000D01*
X167786256Y-132295000D01*
X168219418Y-132208839D01*
X168710625Y-131880625D01*
X168910000Y-131582239D01*
X169109375Y-131880625D01*
X169600582Y-132208839D01*
X170033744Y-132295000D01*
X170326256Y-132295000D01*
X170759418Y-132208839D01*
X171250625Y-131880625D01*
X171578839Y-131389418D01*
X171694092Y-130810000D01*
X171611544Y-130395000D01*
X178030153Y-130395000D01*
X178105000Y-130409888D01*
X178179847Y-130395000D01*
X178179852Y-130395000D01*
X178401537Y-130350904D01*
X178652929Y-130182929D01*
X178695331Y-130119470D01*
X183290473Y-125524329D01*
X183353929Y-125481929D01*
X183521904Y-125230537D01*
X183566000Y-125008852D01*
X183566000Y-125008847D01*
X183580888Y-124934000D01*
X183566000Y-124859153D01*
X183566000Y-113838846D01*
X183580888Y-113763999D01*
X183566000Y-113689152D01*
X183566000Y-113689148D01*
X183521904Y-113467463D01*
X183353929Y-113216071D01*
X183290473Y-113173671D01*
X182787491Y-112670689D01*
X183008839Y-112339418D01*
X183124092Y-111760000D01*
X183008839Y-111180582D01*
X182680625Y-110689375D01*
X182382239Y-110490000D01*
X182680625Y-110290625D01*
X183008839Y-109799418D01*
X183124092Y-109220000D01*
X183008839Y-108640582D01*
X182680625Y-108149375D01*
X182382239Y-107950000D01*
X182680625Y-107750625D01*
X183008839Y-107259418D01*
X183124092Y-106680000D01*
X183008839Y-106100582D01*
X182680625Y-105609375D01*
X182382239Y-105410000D01*
X182680625Y-105210625D01*
X183008839Y-104719418D01*
X183124092Y-104140000D01*
X183008839Y-103560582D01*
X182680625Y-103069375D01*
X182382239Y-102870000D01*
X182680625Y-102670625D01*
X183008839Y-102179418D01*
X183124092Y-101600000D01*
X183008839Y-101020582D01*
X182680625Y-100529375D01*
X182382239Y-100330000D01*
X182680625Y-100130625D01*
X183008839Y-99639418D01*
X183124092Y-99060000D01*
X183008839Y-98480582D01*
X182680625Y-97989375D01*
X182382239Y-97790000D01*
X182680625Y-97590625D01*
X183008839Y-97099418D01*
X183124092Y-96520000D01*
X183008839Y-95940582D01*
X182787384Y-95609151D01*
X183269454Y-95127142D01*
X183332929Y-95084729D01*
X183415863Y-94960610D01*
X183500885Y-94833382D01*
X183500890Y-94833358D01*
X183500904Y-94833337D01*
X183532813Y-94672920D01*
X183559888Y-94536848D01*
X183545000Y-94461976D01*
X183545000Y-93543576D01*
X183559888Y-93468758D01*
X183545000Y-93393881D01*
X183545000Y-93393848D01*
X183529050Y-93313662D01*
X183500926Y-93172216D01*
X183500910Y-93172192D01*
X183500904Y-93172163D01*
X183420766Y-93052228D01*
X183375366Y-92984271D01*
X183375343Y-92984248D01*
X183332929Y-92920771D01*
X183269500Y-92878389D01*
X183010781Y-92619632D01*
X183095000Y-92416310D01*
X183095000Y-91725750D01*
X182936250Y-91567000D01*
X181737000Y-91567000D01*
X181737000Y-91587000D01*
X181483000Y-91587000D01*
X181483000Y-91567000D01*
X180283750Y-91567000D01*
X180125000Y-91725750D01*
X180125000Y-92044600D01*
X177461001Y-92044600D01*
X177386311Y-92029712D01*
X177311305Y-92044600D01*
X177311148Y-92044600D01*
X177236871Y-92059375D01*
X177089750Y-92088577D01*
X177089618Y-92088665D01*
X177089463Y-92088696D01*
X176964718Y-92172048D01*
X176901764Y-92214076D01*
X176901653Y-92214187D01*
X176838071Y-92256671D01*
X176795758Y-92319997D01*
X176757440Y-92358284D01*
X176757440Y-91860000D01*
X176708157Y-91612235D01*
X176567809Y-91402191D01*
X176357765Y-91261843D01*
X176110000Y-91212560D01*
X174410000Y-91212560D01*
X174162235Y-91261843D01*
X173952191Y-91402191D01*
X173811843Y-91612235D01*
X173762560Y-91860000D01*
X173762560Y-93163700D01*
X166211185Y-93163700D01*
X166285000Y-92985494D01*
X166285000Y-92434506D01*
X166074147Y-91925460D01*
X165684540Y-91535853D01*
X165175494Y-91325000D01*
X164624506Y-91325000D01*
X164115460Y-91535853D01*
X163725853Y-91925460D01*
X163515000Y-92434506D01*
X163515000Y-92985494D01*
X163588815Y-93163700D01*
X161331185Y-93163700D01*
X161405000Y-92985494D01*
X161405000Y-92434506D01*
X161194147Y-91925460D01*
X160804540Y-91535853D01*
X160295494Y-91325000D01*
X159744506Y-91325000D01*
X159235460Y-91535853D01*
X158845853Y-91925460D01*
X158635000Y-92434506D01*
X158635000Y-92985494D01*
X158845853Y-93494540D01*
X159235460Y-93884147D01*
X159275281Y-93900641D01*
X153863914Y-99312263D01*
X153914092Y-99060000D01*
X153798839Y-98480582D01*
X153470625Y-97989375D01*
X153172239Y-97790000D01*
X153470625Y-97590625D01*
X153798839Y-97099418D01*
X153914092Y-96520000D01*
X153798839Y-95940582D01*
X153470625Y-95449375D01*
X153172239Y-95250000D01*
X153470625Y-95050625D01*
X153798839Y-94559418D01*
X153914092Y-93980000D01*
X153798839Y-93400582D01*
X153470625Y-92909375D01*
X153448967Y-92894904D01*
X153609698Y-92828327D01*
X153788327Y-92649699D01*
X153885000Y-92416310D01*
X153885000Y-91725750D01*
X153726250Y-91567000D01*
X152527000Y-91567000D01*
X152527000Y-91587000D01*
X152273000Y-91587000D01*
X152273000Y-91567000D01*
X151073750Y-91567000D01*
X150915000Y-91725750D01*
X150915000Y-92416310D01*
X151011673Y-92649699D01*
X151190302Y-92828327D01*
X151351033Y-92894904D01*
X151329375Y-92909375D01*
X151001161Y-93400582D01*
X150885908Y-93980000D01*
X151001161Y-94559418D01*
X151329375Y-95050625D01*
X151627761Y-95250000D01*
X151329375Y-95449375D01*
X151001161Y-95940582D01*
X150885908Y-96520000D01*
X151001161Y-97099418D01*
X151329375Y-97590625D01*
X151627761Y-97790000D01*
X151329375Y-97989375D01*
X151001161Y-98480582D01*
X150885908Y-99060000D01*
X151001161Y-99639418D01*
X151240534Y-99997664D01*
X149751528Y-101486671D01*
X149688072Y-101529071D01*
X149645672Y-101592527D01*
X149645671Y-101592528D01*
X149520097Y-101780463D01*
X149461112Y-102077000D01*
X147447000Y-102077000D01*
X147447000Y-90463690D01*
X150915000Y-90463690D01*
X150915000Y-91154250D01*
X151073750Y-91313000D01*
X152273000Y-91313000D01*
X152273000Y-90113750D01*
X152527000Y-90113750D01*
X152527000Y-91313000D01*
X153726250Y-91313000D01*
X153885000Y-91154250D01*
X153885000Y-90463690D01*
X180125000Y-90463690D01*
X180125000Y-91154250D01*
X180283750Y-91313000D01*
X181483000Y-91313000D01*
X181483000Y-90113750D01*
X181737000Y-90113750D01*
X181737000Y-91313000D01*
X182936250Y-91313000D01*
X183095000Y-91154250D01*
X183095000Y-90463690D01*
X182998327Y-90230301D01*
X182819698Y-90051673D01*
X182586309Y-89955000D01*
X181895750Y-89955000D01*
X181737000Y-90113750D01*
X181483000Y-90113750D01*
X181324250Y-89955000D01*
X180633691Y-89955000D01*
X180400302Y-90051673D01*
X180221673Y-90230301D01*
X180125000Y-90463690D01*
X153885000Y-90463690D01*
X153788327Y-90230301D01*
X153609698Y-90051673D01*
X153376309Y-89955000D01*
X152685750Y-89955000D01*
X152527000Y-90113750D01*
X152273000Y-90113750D01*
X152114250Y-89955000D01*
X151423691Y-89955000D01*
X151190302Y-90051673D01*
X151011673Y-90230301D01*
X150915000Y-90463690D01*
X147447000Y-90463690D01*
X147447000Y-87122000D01*
X186563000Y-87122000D01*
X186563000Y-134493000D01*
X186563000Y-134493000D01*
G37*
X186563000Y-134493000D02*
X147447000Y-134493000D01*
X147447000Y-132436890D01*
X150958524Y-132436890D01*
X151128355Y-132846924D01*
X151518642Y-133275183D01*
X152043108Y-133521486D01*
X152273000Y-133400819D01*
X152273000Y-132207000D01*
X152527000Y-132207000D01*
X152527000Y-133400819D01*
X152756892Y-133521486D01*
X153281358Y-133275183D01*
X153671645Y-132846924D01*
X153841476Y-132436890D01*
X153720155Y-132207000D01*
X152527000Y-132207000D01*
X152273000Y-132207000D01*
X151079845Y-132207000D01*
X150958524Y-132436890D01*
X147447000Y-132436890D01*
X147447000Y-124460000D01*
X150885908Y-124460000D01*
X151001161Y-125039418D01*
X151329375Y-125530625D01*
X151627761Y-125730000D01*
X151329375Y-125929375D01*
X151001161Y-126420582D01*
X150885908Y-127000000D01*
X151001161Y-127579418D01*
X151329375Y-128070625D01*
X151627761Y-128270000D01*
X151329375Y-128469375D01*
X151001161Y-128960582D01*
X150885908Y-129540000D01*
X151001161Y-130119418D01*
X151329375Y-130610625D01*
X151648478Y-130823843D01*
X151518642Y-130884817D01*
X151128355Y-131313076D01*
X150958524Y-131723110D01*
X151079845Y-131953000D01*
X152273000Y-131953000D01*
X152273000Y-131933000D01*
X152527000Y-131933000D01*
X152527000Y-131953000D01*
X153720155Y-131953000D01*
X153841476Y-131723110D01*
X153671645Y-131313076D01*
X153281358Y-130884817D01*
X153151522Y-130823843D01*
X153470625Y-130610625D01*
X153798839Y-130119418D01*
X153914092Y-129540000D01*
X153798839Y-128960582D01*
X153470625Y-128469375D01*
X153172239Y-128270000D01*
X153470625Y-128070625D01*
X153798839Y-127579418D01*
X153914092Y-127000000D01*
X153798839Y-126420582D01*
X153470625Y-125929375D01*
X153172239Y-125730000D01*
X153470625Y-125530625D01*
X153798839Y-125039418D01*
X153914092Y-124460000D01*
X153798839Y-123880582D01*
X153470625Y-123389375D01*
X153452381Y-123377184D01*
X153497765Y-123368157D01*
X153707809Y-123227809D01*
X153848157Y-123017765D01*
X153897440Y-122770000D01*
X153897440Y-121070000D01*
X153872316Y-120943690D01*
X180125000Y-120943690D01*
X180125000Y-121634250D01*
X180283750Y-121793000D01*
X181483000Y-121793000D01*
X181483000Y-120593750D01*
X181324250Y-120435000D01*
X180633691Y-120435000D01*
X180400302Y-120531673D01*
X180221673Y-120710301D01*
X180125000Y-120943690D01*
X153872316Y-120943690D01*
X153848157Y-120822235D01*
X153707809Y-120612191D01*
X153497765Y-120471843D01*
X153250000Y-120422560D01*
X151550000Y-120422560D01*
X151302235Y-120471843D01*
X151092191Y-120612191D01*
X150951843Y-120822235D01*
X150902560Y-121070000D01*
X150902560Y-122770000D01*
X150951843Y-123017765D01*
X151092191Y-123227809D01*
X151302235Y-123368157D01*
X151347619Y-123377184D01*
X151329375Y-123389375D01*
X151001161Y-123880582D01*
X150885908Y-124460000D01*
X147447000Y-124460000D01*
X147447000Y-102077000D01*
X149461112Y-102077000D01*
X149476001Y-102151852D01*
X149476000Y-115140153D01*
X149461112Y-115215000D01*
X149476000Y-115289847D01*
X149476000Y-115289851D01*
X149520096Y-115511536D01*
X149688071Y-115762929D01*
X149751530Y-115805331D01*
X151676671Y-117730473D01*
X151719071Y-117793929D01*
X151782527Y-117836329D01*
X151970462Y-117961904D01*
X152018605Y-117971480D01*
X152192148Y-118006000D01*
X152192152Y-118006000D01*
X152267000Y-118020888D01*
X152341848Y-118006000D01*
X153632200Y-118006000D01*
X153632200Y-118213674D01*
X153789769Y-118594080D01*
X154080920Y-118885231D01*
X154461326Y-119042800D01*
X154873074Y-119042800D01*
X155235207Y-118892800D01*
X168894739Y-118892800D01*
X168981900Y-118910137D01*
X169069061Y-118892800D01*
X169069065Y-118892800D01*
X169327210Y-118841452D01*
X169619949Y-118645849D01*
X169669325Y-118571953D01*
X171629860Y-116611419D01*
X171649375Y-116640625D01*
X172140582Y-116968839D01*
X172573744Y-117055000D01*
X172866256Y-117055000D01*
X173299418Y-116968839D01*
X173790625Y-116640625D01*
X173990000Y-116342239D01*
X174189375Y-116640625D01*
X174680582Y-116968839D01*
X175113744Y-117055000D01*
X175406256Y-117055000D01*
X175839418Y-116968839D01*
X176330625Y-116640625D01*
X176454656Y-116455000D01*
X178952839Y-116455000D01*
X179040000Y-116472337D01*
X179127161Y-116455000D01*
X179127165Y-116455000D01*
X179385310Y-116403652D01*
X179678049Y-116208049D01*
X179727425Y-116134153D01*
X180519980Y-115341599D01*
X180539375Y-115370625D01*
X181030582Y-115698839D01*
X181463744Y-115785000D01*
X181756256Y-115785000D01*
X182046001Y-115727366D01*
X182046000Y-120435000D01*
X181895750Y-120435000D01*
X181737000Y-120593750D01*
X181737000Y-121793000D01*
X181757000Y-121793000D01*
X181757000Y-122047000D01*
X181737000Y-122047000D01*
X181737000Y-122067000D01*
X181483000Y-122067000D01*
X181483000Y-122047000D01*
X180283750Y-122047000D01*
X180125000Y-122205750D01*
X180125000Y-122896310D01*
X180221673Y-123129699D01*
X180400302Y-123308327D01*
X180561033Y-123374904D01*
X180539375Y-123389375D01*
X180415344Y-123575000D01*
X171537159Y-123575000D01*
X171449999Y-123557663D01*
X171362839Y-123575000D01*
X171362835Y-123575000D01*
X171104690Y-123626348D01*
X171104688Y-123626349D01*
X171104689Y-123626349D01*
X170885845Y-123772576D01*
X170885844Y-123772577D01*
X170811951Y-123821951D01*
X170762577Y-123895844D01*
X165345862Y-129312560D01*
X164250000Y-129312560D01*
X164002235Y-129361843D01*
X163792191Y-129502191D01*
X163651843Y-129712235D01*
X163602560Y-129960000D01*
X163602560Y-131660000D01*
X163651843Y-131907765D01*
X163792191Y-132117809D01*
X164002235Y-132258157D01*
X164250000Y-132307440D01*
X165950000Y-132307440D01*
X166197765Y-132258157D01*
X166407809Y-132117809D01*
X166548157Y-131907765D01*
X166557184Y-131862381D01*
X166569375Y-131880625D01*
X167060582Y-132208839D01*
X167493744Y-132295000D01*
X167786256Y-132295000D01*
X168219418Y-132208839D01*
X168710625Y-131880625D01*
X168910000Y-131582239D01*
X169109375Y-131880625D01*
X169600582Y-132208839D01*
X170033744Y-132295000D01*
X170326256Y-132295000D01*
X170759418Y-132208839D01*
X171250625Y-131880625D01*
X171578839Y-131389418D01*
X171694092Y-130810000D01*
X171611544Y-130395000D01*
X178030153Y-130395000D01*
X178105000Y-130409888D01*
X178179847Y-130395000D01*
X178179852Y-130395000D01*
X178401537Y-130350904D01*
X178652929Y-130182929D01*
X178695331Y-130119470D01*
X183290473Y-125524329D01*
X183353929Y-125481929D01*
X183521904Y-125230537D01*
X183566000Y-125008852D01*
X183566000Y-125008847D01*
X183580888Y-124934000D01*
X183566000Y-124859153D01*
X183566000Y-113838846D01*
X183580888Y-113763999D01*
X183566000Y-113689152D01*
X183566000Y-113689148D01*
X183521904Y-113467463D01*
X183353929Y-113216071D01*
X183290473Y-113173671D01*
X182787491Y-112670689D01*
X183008839Y-112339418D01*
X183124092Y-111760000D01*
X183008839Y-111180582D01*
X182680625Y-110689375D01*
X182382239Y-110490000D01*
X182680625Y-110290625D01*
X183008839Y-109799418D01*
X183124092Y-109220000D01*
X183008839Y-108640582D01*
X182680625Y-108149375D01*
X182382239Y-107950000D01*
X182680625Y-107750625D01*
X183008839Y-107259418D01*
X183124092Y-106680000D01*
X183008839Y-106100582D01*
X182680625Y-105609375D01*
X182382239Y-105410000D01*
X182680625Y-105210625D01*
X183008839Y-104719418D01*
X183124092Y-104140000D01*
X183008839Y-103560582D01*
X182680625Y-103069375D01*
X182382239Y-102870000D01*
X182680625Y-102670625D01*
X183008839Y-102179418D01*
X183124092Y-101600000D01*
X183008839Y-101020582D01*
X182680625Y-100529375D01*
X182382239Y-100330000D01*
X182680625Y-100130625D01*
X183008839Y-99639418D01*
X183124092Y-99060000D01*
X183008839Y-98480582D01*
X182680625Y-97989375D01*
X182382239Y-97790000D01*
X182680625Y-97590625D01*
X183008839Y-97099418D01*
X183124092Y-96520000D01*
X183008839Y-95940582D01*
X182787384Y-95609151D01*
X183269454Y-95127142D01*
X183332929Y-95084729D01*
X183415863Y-94960610D01*
X183500885Y-94833382D01*
X183500890Y-94833358D01*
X183500904Y-94833337D01*
X183532813Y-94672920D01*
X183559888Y-94536848D01*
X183545000Y-94461976D01*
X183545000Y-93543576D01*
X183559888Y-93468758D01*
X183545000Y-93393881D01*
X183545000Y-93393848D01*
X183529050Y-93313662D01*
X183500926Y-93172216D01*
X183500910Y-93172192D01*
X183500904Y-93172163D01*
X183420766Y-93052228D01*
X183375366Y-92984271D01*
X183375343Y-92984248D01*
X183332929Y-92920771D01*
X183269500Y-92878389D01*
X183010781Y-92619632D01*
X183095000Y-92416310D01*
X183095000Y-91725750D01*
X182936250Y-91567000D01*
X181737000Y-91567000D01*
X181737000Y-91587000D01*
X181483000Y-91587000D01*
X181483000Y-91567000D01*
X180283750Y-91567000D01*
X180125000Y-91725750D01*
X180125000Y-92044600D01*
X177461001Y-92044600D01*
X177386311Y-92029712D01*
X177311305Y-92044600D01*
X177311148Y-92044600D01*
X177236871Y-92059375D01*
X177089750Y-92088577D01*
X177089618Y-92088665D01*
X177089463Y-92088696D01*
X176964718Y-92172048D01*
X176901764Y-92214076D01*
X176901653Y-92214187D01*
X176838071Y-92256671D01*
X176795758Y-92319997D01*
X176757440Y-92358284D01*
X176757440Y-91860000D01*
X176708157Y-91612235D01*
X176567809Y-91402191D01*
X176357765Y-91261843D01*
X176110000Y-91212560D01*
X174410000Y-91212560D01*
X174162235Y-91261843D01*
X173952191Y-91402191D01*
X173811843Y-91612235D01*
X173762560Y-91860000D01*
X173762560Y-93163700D01*
X166211185Y-93163700D01*
X166285000Y-92985494D01*
X166285000Y-92434506D01*
X166074147Y-91925460D01*
X165684540Y-91535853D01*
X165175494Y-91325000D01*
X164624506Y-91325000D01*
X164115460Y-91535853D01*
X163725853Y-91925460D01*
X163515000Y-92434506D01*
X163515000Y-92985494D01*
X163588815Y-93163700D01*
X161331185Y-93163700D01*
X161405000Y-92985494D01*
X161405000Y-92434506D01*
X161194147Y-91925460D01*
X160804540Y-91535853D01*
X160295494Y-91325000D01*
X159744506Y-91325000D01*
X159235460Y-91535853D01*
X158845853Y-91925460D01*
X158635000Y-92434506D01*
X158635000Y-92985494D01*
X158845853Y-93494540D01*
X159235460Y-93884147D01*
X159275281Y-93900641D01*
X153863914Y-99312263D01*
X153914092Y-99060000D01*
X153798839Y-98480582D01*
X153470625Y-97989375D01*
X153172239Y-97790000D01*
X153470625Y-97590625D01*
X153798839Y-97099418D01*
X153914092Y-96520000D01*
X153798839Y-95940582D01*
X153470625Y-95449375D01*
X153172239Y-95250000D01*
X153470625Y-95050625D01*
X153798839Y-94559418D01*
X153914092Y-93980000D01*
X153798839Y-93400582D01*
X153470625Y-92909375D01*
X153448967Y-92894904D01*
X153609698Y-92828327D01*
X153788327Y-92649699D01*
X153885000Y-92416310D01*
X153885000Y-91725750D01*
X153726250Y-91567000D01*
X152527000Y-91567000D01*
X152527000Y-91587000D01*
X152273000Y-91587000D01*
X152273000Y-91567000D01*
X151073750Y-91567000D01*
X150915000Y-91725750D01*
X150915000Y-92416310D01*
X151011673Y-92649699D01*
X151190302Y-92828327D01*
X151351033Y-92894904D01*
X151329375Y-92909375D01*
X151001161Y-93400582D01*
X150885908Y-93980000D01*
X151001161Y-94559418D01*
X151329375Y-95050625D01*
X151627761Y-95250000D01*
X151329375Y-95449375D01*
X151001161Y-95940582D01*
X150885908Y-96520000D01*
X151001161Y-97099418D01*
X151329375Y-97590625D01*
X151627761Y-97790000D01*
X151329375Y-97989375D01*
X151001161Y-98480582D01*
X150885908Y-99060000D01*
X151001161Y-99639418D01*
X151240534Y-99997664D01*
X149751528Y-101486671D01*
X149688072Y-101529071D01*
X149645672Y-101592527D01*
X149645671Y-101592528D01*
X149520097Y-101780463D01*
X149461112Y-102077000D01*
X147447000Y-102077000D01*
X147447000Y-90463690D01*
X150915000Y-90463690D01*
X150915000Y-91154250D01*
X151073750Y-91313000D01*
X152273000Y-91313000D01*
X152273000Y-90113750D01*
X152527000Y-90113750D01*
X152527000Y-91313000D01*
X153726250Y-91313000D01*
X153885000Y-91154250D01*
X153885000Y-90463690D01*
X180125000Y-90463690D01*
X180125000Y-91154250D01*
X180283750Y-91313000D01*
X181483000Y-91313000D01*
X181483000Y-90113750D01*
X181737000Y-90113750D01*
X181737000Y-91313000D01*
X182936250Y-91313000D01*
X183095000Y-91154250D01*
X183095000Y-90463690D01*
X182998327Y-90230301D01*
X182819698Y-90051673D01*
X182586309Y-89955000D01*
X181895750Y-89955000D01*
X181737000Y-90113750D01*
X181483000Y-90113750D01*
X181324250Y-89955000D01*
X180633691Y-89955000D01*
X180400302Y-90051673D01*
X180221673Y-90230301D01*
X180125000Y-90463690D01*
X153885000Y-90463690D01*
X153788327Y-90230301D01*
X153609698Y-90051673D01*
X153376309Y-89955000D01*
X152685750Y-89955000D01*
X152527000Y-90113750D01*
X152273000Y-90113750D01*
X152114250Y-89955000D01*
X151423691Y-89955000D01*
X151190302Y-90051673D01*
X151011673Y-90230301D01*
X150915000Y-90463690D01*
X147447000Y-90463690D01*
X147447000Y-87122000D01*
X186563000Y-87122000D01*
X186563000Y-134493000D01*
G36*
X176167096Y-106668536D02*
X176335071Y-106919929D01*
X176398530Y-106962331D01*
X180373629Y-110937431D01*
X180211161Y-111180582D01*
X180095908Y-111760000D01*
X180211161Y-112339418D01*
X180539375Y-112830625D01*
X180837761Y-113030000D01*
X180539375Y-113229375D01*
X180415344Y-113415000D01*
X180397159Y-113415000D01*
X180309999Y-113397663D01*
X180222839Y-113415000D01*
X180222835Y-113415000D01*
X179964690Y-113466348D01*
X179939875Y-113482929D01*
X179745845Y-113612576D01*
X179745844Y-113612577D01*
X179671951Y-113661951D01*
X179622577Y-113735844D01*
X178673422Y-114685000D01*
X176454656Y-114685000D01*
X176330625Y-114499375D01*
X176032239Y-114300000D01*
X176330625Y-114100625D01*
X176658839Y-113609418D01*
X176774092Y-113030000D01*
X176658839Y-112450582D01*
X176330625Y-111959375D01*
X176032239Y-111760000D01*
X176330625Y-111560625D01*
X176658839Y-111069418D01*
X176774092Y-110490000D01*
X176658839Y-109910582D01*
X176330625Y-109419375D01*
X176011522Y-109206157D01*
X176141358Y-109145183D01*
X176531645Y-108716924D01*
X176701476Y-108306890D01*
X176580155Y-108077000D01*
X175387000Y-108077000D01*
X175387000Y-108097000D01*
X175133000Y-108097000D01*
X175133000Y-108077000D01*
X172847000Y-108077000D01*
X172847000Y-108097000D01*
X172593000Y-108097000D01*
X172593000Y-108077000D01*
X171399845Y-108077000D01*
X171278524Y-108306890D01*
X171448355Y-108716924D01*
X171838642Y-109145183D01*
X171968478Y-109206157D01*
X171649375Y-109419375D01*
X171321161Y-109910582D01*
X171205908Y-110490000D01*
X171321161Y-111069418D01*
X171649375Y-111560625D01*
X171947761Y-111760000D01*
X171649375Y-111959375D01*
X171321161Y-112450582D01*
X171205908Y-113030000D01*
X171321161Y-113609418D01*
X171649375Y-114100625D01*
X171947761Y-114300000D01*
X171649375Y-114499375D01*
X171525344Y-114685000D01*
X171506861Y-114685000D01*
X171419700Y-114667663D01*
X171332539Y-114685000D01*
X171332535Y-114685000D01*
X171074390Y-114736348D01*
X170855545Y-114882576D01*
X170855544Y-114882577D01*
X170781651Y-114931951D01*
X170732277Y-115005844D01*
X168615322Y-117122800D01*
X163750515Y-117122800D01*
X163880416Y-116993000D01*
X164046874Y-116993000D01*
X164427280Y-116835431D01*
X164718431Y-116544280D01*
X164876000Y-116163874D01*
X164876000Y-115992000D01*
X167611289Y-115992000D01*
X167740720Y-116121431D01*
X168121126Y-116279000D01*
X168532874Y-116279000D01*
X168913280Y-116121431D01*
X169204431Y-115830280D01*
X169362000Y-115449874D01*
X169362000Y-115038126D01*
X169204431Y-114657720D01*
X168913280Y-114366569D01*
X168532874Y-114209000D01*
X168121126Y-114209000D01*
X167845000Y-114323375D01*
X167845000Y-114159126D01*
X167687431Y-113778720D01*
X167396280Y-113487569D01*
X167015874Y-113330000D01*
X166604126Y-113330000D01*
X166241993Y-113480000D01*
X166014518Y-113480000D01*
X164068822Y-111534756D01*
X164144698Y-111503327D01*
X164323327Y-111324699D01*
X164420000Y-111091310D01*
X164420000Y-110775750D01*
X164261250Y-110617000D01*
X163474500Y-110617000D01*
X163474500Y-110637000D01*
X163220500Y-110637000D01*
X163220500Y-110617000D01*
X163200500Y-110617000D01*
X163200500Y-110405000D01*
X166780153Y-110405000D01*
X166855000Y-110419888D01*
X166929847Y-110405000D01*
X166929852Y-110405000D01*
X167151537Y-110360904D01*
X167402929Y-110192929D01*
X167445331Y-110129470D01*
X170229802Y-107345000D01*
X171381288Y-107345000D01*
X171278524Y-107593110D01*
X171399845Y-107823000D01*
X172593000Y-107823000D01*
X172593000Y-107803000D01*
X172847000Y-107803000D01*
X172847000Y-107823000D01*
X175133000Y-107823000D01*
X175133000Y-107803000D01*
X175387000Y-107803000D01*
X175387000Y-107823000D01*
X176580155Y-107823000D01*
X176701476Y-107593110D01*
X176531645Y-107183076D01*
X176141358Y-106754817D01*
X176011522Y-106693843D01*
X176153288Y-106599118D01*
X176167096Y-106668536D01*
X176167096Y-106668536D01*
G37*
X176167096Y-106668536D02*
X176335071Y-106919929D01*
X176398530Y-106962331D01*
X180373629Y-110937431D01*
X180211161Y-111180582D01*
X180095908Y-111760000D01*
X180211161Y-112339418D01*
X180539375Y-112830625D01*
X180837761Y-113030000D01*
X180539375Y-113229375D01*
X180415344Y-113415000D01*
X180397159Y-113415000D01*
X180309999Y-113397663D01*
X180222839Y-113415000D01*
X180222835Y-113415000D01*
X179964690Y-113466348D01*
X179939875Y-113482929D01*
X179745845Y-113612576D01*
X179745844Y-113612577D01*
X179671951Y-113661951D01*
X179622577Y-113735844D01*
X178673422Y-114685000D01*
X176454656Y-114685000D01*
X176330625Y-114499375D01*
X176032239Y-114300000D01*
X176330625Y-114100625D01*
X176658839Y-113609418D01*
X176774092Y-113030000D01*
X176658839Y-112450582D01*
X176330625Y-111959375D01*
X176032239Y-111760000D01*
X176330625Y-111560625D01*
X176658839Y-111069418D01*
X176774092Y-110490000D01*
X176658839Y-109910582D01*
X176330625Y-109419375D01*
X176011522Y-109206157D01*
X176141358Y-109145183D01*
X176531645Y-108716924D01*
X176701476Y-108306890D01*
X176580155Y-108077000D01*
X175387000Y-108077000D01*
X175387000Y-108097000D01*
X175133000Y-108097000D01*
X175133000Y-108077000D01*
X172847000Y-108077000D01*
X172847000Y-108097000D01*
X172593000Y-108097000D01*
X172593000Y-108077000D01*
X171399845Y-108077000D01*
X171278524Y-108306890D01*
X171448355Y-108716924D01*
X171838642Y-109145183D01*
X171968478Y-109206157D01*
X171649375Y-109419375D01*
X171321161Y-109910582D01*
X171205908Y-110490000D01*
X171321161Y-111069418D01*
X171649375Y-111560625D01*
X171947761Y-111760000D01*
X171649375Y-111959375D01*
X171321161Y-112450582D01*
X171205908Y-113030000D01*
X171321161Y-113609418D01*
X171649375Y-114100625D01*
X171947761Y-114300000D01*
X171649375Y-114499375D01*
X171525344Y-114685000D01*
X171506861Y-114685000D01*
X171419700Y-114667663D01*
X171332539Y-114685000D01*
X171332535Y-114685000D01*
X171074390Y-114736348D01*
X170855545Y-114882576D01*
X170855544Y-114882577D01*
X170781651Y-114931951D01*
X170732277Y-115005844D01*
X168615322Y-117122800D01*
X163750515Y-117122800D01*
X163880416Y-116993000D01*
X164046874Y-116993000D01*
X164427280Y-116835431D01*
X164718431Y-116544280D01*
X164876000Y-116163874D01*
X164876000Y-115992000D01*
X167611289Y-115992000D01*
X167740720Y-116121431D01*
X168121126Y-116279000D01*
X168532874Y-116279000D01*
X168913280Y-116121431D01*
X169204431Y-115830280D01*
X169362000Y-115449874D01*
X169362000Y-115038126D01*
X169204431Y-114657720D01*
X168913280Y-114366569D01*
X168532874Y-114209000D01*
X168121126Y-114209000D01*
X167845000Y-114323375D01*
X167845000Y-114159126D01*
X167687431Y-113778720D01*
X167396280Y-113487569D01*
X167015874Y-113330000D01*
X166604126Y-113330000D01*
X166241993Y-113480000D01*
X166014518Y-113480000D01*
X164068822Y-111534756D01*
X164144698Y-111503327D01*
X164323327Y-111324699D01*
X164420000Y-111091310D01*
X164420000Y-110775750D01*
X164261250Y-110617000D01*
X163474500Y-110617000D01*
X163474500Y-110637000D01*
X163220500Y-110637000D01*
X163220500Y-110617000D01*
X163200500Y-110617000D01*
X163200500Y-110405000D01*
X166780153Y-110405000D01*
X166855000Y-110419888D01*
X166929847Y-110405000D01*
X166929852Y-110405000D01*
X167151537Y-110360904D01*
X167402929Y-110192929D01*
X167445331Y-110129470D01*
X170229802Y-107345000D01*
X171381288Y-107345000D01*
X171278524Y-107593110D01*
X171399845Y-107823000D01*
X172593000Y-107823000D01*
X172593000Y-107803000D01*
X172847000Y-107803000D01*
X172847000Y-107823000D01*
X175133000Y-107823000D01*
X175133000Y-107803000D01*
X175387000Y-107803000D01*
X175387000Y-107823000D01*
X176580155Y-107823000D01*
X176701476Y-107593110D01*
X176531645Y-107183076D01*
X176141358Y-106754817D01*
X176011522Y-106693843D01*
X176153288Y-106599118D01*
X176167096Y-106668536D01*
G04 #@! TD*
M02*
